<?xml version="1.0" encoding="UTF-8"?>
<svg viewBox="0 0 149 63" version="1.1" xmlns="http://www.w3.org/2000/svg" xmlns:xlink="http://www.w3.org/1999/xlink">
    <g stroke="none" stroke-width="1" fill="none" fill-rule="evenodd">
        <g class="logo_text" transform="translate(0.540598, 48.185442)" fill="currentColor">
            <path d="M6.05630215,14.263558 C1.81530215,14.263558 -0.565697852,11.362558 0.115302148,7.14155799 C0.855302148,2.38055799 4.77630215,0.000557987084 8.31630215,0.000557987084 C10.1573021,-0.0194420129 11.8573021,0.620557987 12.9973021,1.86055799 C13.0573021,1.94055799 13.0373021,2.02055799 12.9573021,2.12055799 L11.1373021,4.22155799 C11.0573021,4.32155799 10.9173021,4.30155799 10.8573021,4.22155799 C10.1773021,3.54055799 9.21730215,3.02055799 7.83630215,3.02055799 C5.41630215,3.02055799 3.55630215,4.66155799 3.17530215,7.14155799 C2.77530215,9.58255799 4.11630215,11.222558 6.53630215,11.222558 C7.83630215,11.222558 9.03630215,10.702558 9.93730215,10.022558 C10.0173021,9.96255799 10.1773021,9.94255799 10.2173021,10.042558 L11.3773021,12.142558 C11.4373021,12.242558 11.4573021,12.343558 11.3373021,12.423558 C9.79730215,13.703558 7.89630215,14.263558 6.05630215,14.263558" id="Fill-7"/>
            <path d="M19.8961021,11.183058 C22.3161021,11.183058 24.1971021,9.56205799 24.5771021,7.12205799 C24.9771021,4.70205799 23.5971021,3.06105799 21.1761021,3.06105799 C18.7361021,3.06105799 16.8351021,4.68205799 16.4561021,7.12205799 C16.0751021,9.56205799 17.4361021,11.183058 19.8961021,11.183058 M21.6361021,5.79870838e-05 C25.9171021,5.79870838e-05 28.3181021,2.86105799 27.6381021,7.12205799 C26.9581021,11.403058 23.6771021,14.244058 19.3961021,14.244058 C15.1351021,14.244058 12.7141021,11.403058 13.3951021,7.12205799 C14.0751021,2.86105799 17.3751021,5.79870838e-05 21.6361021,5.79870838e-05" id="Fill-9"/>
            <path d="M42.3370021,0.180557987 C42.4370021,0.180557987 42.4970021,0.260557987 42.4770021,0.380557987 L40.3570021,13.863558 C40.3370021,13.983558 40.2370021,14.063558 40.1170021,14.063558 L37.0760021,14.063558 C36.9960021,14.063558 36.9160021,14.003558 36.8960021,13.943558 L32.9150021,5.30155799 L31.5750021,13.863558 C31.5550021,13.983558 31.4550021,14.063558 31.3350021,14.063558 L28.6740021,14.063558 C28.5540021,14.063558 28.4940021,13.983558 28.5140021,13.863558 L30.6350021,0.380557987 C30.6550021,0.260557987 30.7540021,0.180557987 30.8750021,0.180557987 L33.9150021,0.180557987 C34.0750021,0.180557987 34.0950021,0.240557987 34.1550021,0.320557987 L38.0760021,8.90255799 L39.4170021,0.380557987 C39.4370021,0.260557987 39.5370021,0.180557987 39.6570021,0.180557987 L42.3370021,0.180557987 Z" id="Fill-11"/>
            <path d="M43.7945021,0.440357987 C43.7545021,0.280357987 43.8345021,0.200357987 43.9945021,0.200357987 L46.7745021,0.200357987 C46.8755021,0.200357987 46.9355021,0.260357987 46.9755021,0.340357987 L49.0155021,10.322358 L54.2165021,0.340357987 C54.2365021,0.260357987 54.3565021,0.200357987 54.4565021,0.200357987 L57.2375021,0.200357987 C57.3775021,0.200357987 57.4375021,0.280357987 57.3575021,0.440357987 L50.3155021,13.883358 C50.2555021,14.003358 50.1555021,14.063358 50.0355021,14.063358 L46.7945021,14.063358 C46.6745021,14.063358 46.5745021,14.003358 46.5345021,13.883358 L43.7945021,0.440357987 Z" id="Fill-13"/>
            <path d="M60.0343021,11.122958 L65.4353021,11.122958 C65.5553021,11.122958 65.6363021,11.202958 65.6163021,11.322958 L65.1953021,13.882958 C65.1953021,13.982958 65.0963021,14.062958 64.9953021,14.062958 L56.7143021,14.062958 C56.5943021,14.062958 56.5343021,13.982958 56.5543021,13.862958 L58.6743021,0.379957987 C58.6943021,0.260957987 58.7943021,0.180957987 58.9143021,0.180957987 L66.9963021,0.180957987 C67.1163021,0.180957987 67.1763021,0.260957987 67.1563021,0.379957987 L66.7563021,2.94095799 C66.7363021,3.04095799 66.6563021,3.12095799 66.5353021,3.12095799 L61.3143021,3.12095799 L60.9143021,5.54095799 L65.1753021,5.54095799 C65.2953021,5.54095799 65.3753021,5.62195799 65.3553021,5.74195799 L64.9553021,8.22195799 C64.9353021,8.34195799 64.8553021,8.42195799 64.7353021,8.42195799 L60.4743021,8.42195799 L60.0343021,11.122958 Z" id="Fill-15"/>
            <path d="M72.0348021,3.10095799 L71.5548021,6.14195799 L74.3158021,6.14195799 C74.6558021,6.14195799 75.7158021,5.84195799 75.9158021,4.64195799 C76.0958021,3.44095799 75.1558021,3.12095799 74.7958021,3.10095799 L72.0348021,3.10095799 Z M71.0748021,9.08195799 L70.3348021,13.862958 C70.3148021,13.982958 70.2148021,14.062958 70.0948021,14.062958 L67.4338021,14.062958 C67.3138021,14.062958 67.2538021,13.982958 67.2738021,13.862958 L69.3948021,0.379957987 C69.4148021,0.260957987 69.5138021,0.180957987 69.6348021,0.180957987 L75.2158021,0.180957987 C77.9958021,0.180957987 79.3568021,2.12095799 78.9768021,4.62195799 C78.6568021,6.54195799 77.4158021,8.14195799 75.5958021,8.78195799 L77.8158021,13.822958 C77.8758021,13.982958 77.8158021,14.062958 77.6568021,14.062958 L74.7558021,14.062958 C74.6758021,14.062958 74.5958021,14.022958 74.5558021,13.962958 L72.5958021,9.08195799 L71.0748021,9.08195799 Z" id="Fill-17"/>
            <path d="M79.0934021,12.323158 L80.7744021,9.96215799 C80.8744021,9.84315799 81.0134021,9.82315799 81.1144021,9.92215799 C81.5344021,10.343158 83.0144021,11.202158 84.6554021,11.202158 C85.6754021,11.202158 86.7154021,10.843158 86.8354021,10.102158 C86.9154021,9.60215799 86.6954021,8.98215799 84.6554021,8.64215799 C81.4944021,8.10215799 80.0134021,6.94215799 80.3334021,4.44115799 C80.6744021,1.86115799 82.9944021,-0.0198420129 86.2954021,0.000157987084 C88.6354021,0.0201579871 90.2164021,0.980157987 90.5364021,1.34115799 C90.5954021,1.40115799 90.5954021,1.52115799 90.5564021,1.62015799 L89.0954021,4.04115799 C89.0154021,4.18115799 88.9354021,4.18115799 88.8154021,4.10115799 C88.3554021,3.76115799 87.3354021,3.06115799 85.6954021,3.06115799 C84.4544021,3.06115799 83.5544021,3.60115799 83.4544021,4.20115799 C83.3344021,4.92115799 84.0144021,5.16115799 85.6754021,5.54115799 C88.7354021,6.22115799 90.2564021,7.34215799 89.9154021,9.98215799 C89.6154021,12.443158 87.1754021,14.283158 83.8944021,14.263158 C81.3344021,14.243158 79.4534021,13.003158 79.0934021,12.583158 C79.0134021,12.523158 78.9934021,12.443158 79.0934021,12.323158" id="Fill-19"/>
            <path d="M94.3541021,13.883258 C94.3541021,13.983258 94.2541021,14.063258 94.1541021,14.063258 L91.4741021,14.063258 C91.3541021,14.063258 91.2931021,13.983258 91.2931021,13.883258 L93.4341021,0.380257987 C93.4541021,0.260257987 93.5541021,0.180257987 93.6541021,0.180257987 L96.3541021,0.180257987 C96.4551021,0.180257987 96.5151021,0.260257987 96.4951021,0.380257987 L94.3541021,13.883258 Z" id="Fill-21"/>
            <path d="M103.874602,11.183058 C106.294602,11.183058 108.175602,9.56205799 108.555602,7.12205799 C108.955602,4.70205799 107.575602,3.06105799 105.154602,3.06105799 C102.714602,3.06105799 100.813602,4.68205799 100.434602,7.12205799 C100.053602,9.56205799 101.414602,11.183058 103.874602,11.183058 M105.614602,5.79870838e-05 C109.895602,5.79870838e-05 112.296602,2.86105799 111.616602,7.12205799 C110.936602,11.403058 107.655602,14.244058 103.374602,14.244058 C99.1136021,14.244058 96.6926021,11.403058 97.3736021,7.12205799 C98.0536021,2.86105799 101.353602,5.79870838e-05 105.614602,5.79870838e-05" id="Fill-23"/>
            <path d="M126.315502,0.180557987 C126.415502,0.180557987 126.475502,0.260557987 126.455502,0.380557987 L124.335502,13.863558 C124.315502,13.983558 124.215502,14.063558 124.095502,14.063558 L121.054502,14.063558 C120.974502,14.063558 120.894502,14.003558 120.874502,13.943558 L116.893502,5.30155799 L115.553502,13.863558 C115.533502,13.983558 115.433502,14.063558 115.313502,14.063558 L112.652502,14.063558 C112.532502,14.063558 112.472502,13.983558 112.492502,13.863558 L114.613502,0.380557987 C114.633502,0.260557987 114.732502,0.180557987 114.853502,0.180557987 L117.893502,0.180557987 C118.053502,0.180557987 118.073502,0.240557987 118.133502,0.320557987 L122.054502,8.90255799 L123.395502,0.380557987 C123.415502,0.260557987 123.515502,0.180557987 123.635502,0.180557987 L126.315502,0.180557987 Z" id="Fill-25"/>
        </g>
        <g class="logo_symbol" fill="currentColor">
            <polygon id="Fill-1" points="35.619 0.5607 35.619 25.8727 10.5 0.5607 0 0.5607 0 42.0807 11.459 42.0807 11.459 16.8267 36.52 42.0807 47.08 42.0807 47.08 0.5607"/>
            <path d="M58.3787,0.5602 L71.6387,15.1402 L84.8387,0.5602 L99.9587,0.5602 L80.3387,21.3202 L100.3187,42.0802 L85.1987,42.0802 L71.6387,27.4402 L58.0787,42.0802 L42.8987,42.0802 L43.1174,41.8536 L43.1174,26.9456 L50.1174,26.9456 L50.1174,34.5806 L62.8787,21.3202 L50.1167,7.8182 L50.1174,15.9456 L43.1174,15.9456 L43.1174,0.5606 L58.3787,0.5602 Z" id="Fill-2"/>
            <polygon id="Fill-5" points="123.8591 4.5604 123.8591 11.3004 123.8591 42.0804 112.2791 42.0804 112.2791 11.3004 112.2791 7.5604"/>
            <polygon id="Fill-6" points="148.3845 0 100.1175 7.15 100.1175 0.561 90.1175 0.561 90.1175 18.741"/>
        </g>
    </g>
</svg>
