<svg viewBox="0 0 347 32" xmlns="http://www.w3.org/2000/svg">
  <g id="Page-1" stroke="none" stroke-width="1" fill="currentColor" fill-rule="evenodd">
    <g id="huge-vertical" transform="translate(-655 -785)">
      <g id="Logo" transform="translate(655 785)">
        <g class="logo_text" fill="currentColor" transform="translate(107.93 5.026)">
          <path d="M11.45 26.974c-8.018 0-12.52-5.486-11.232-13.468C1.617 4.502 9.03 0 15.722 0c3.48-.038 6.694 1.173 8.85 3.518.113.15.075.302-.076.491l-3.441 3.974a.338.338 0 0 1-.53 0c-1.285-1.288-3.1-2.272-5.71-2.272-4.576 0-8.092 3.104-8.812 7.794-.756 4.616 1.779 7.717 6.354 7.717 2.457 0 4.726-.983 6.43-2.269.15-.113.453-.151.529.038l2.193 3.971c.113.19.15.38-.076.532-2.911 2.42-6.505 3.48-9.984 3.48" id="Fill-7"/>
          <path d="M37.613 21.149c4.575 0 8.131-3.066 8.85-7.68.756-4.577-1.853-7.68-6.43-7.68-4.613 0-8.206 3.065-8.923 7.68-.72 4.614 1.853 7.68 6.503 7.68M40.903 0c8.093 0 12.632 5.41 11.346 13.469-1.285 8.096-7.488 13.469-15.581 13.469-8.055 0-12.632-5.373-11.345-13.47C26.61 5.412 32.847 0 40.903 0" id="Fill-9"/>
          <path d="M80.037.341c.19 0 .303.152.265.379l-4.008 25.498a.45.45 0 0 1-.453.378h-5.75c-.15 0-.302-.113-.34-.227l-7.526-16.343-2.533 16.192a.45.45 0 0 1-.454.378h-5.03c-.227 0-.34-.151-.303-.378L57.915.72a.448.448 0 0 1 .454-.379h5.747c.302 0 .34.114.454.265l7.412 16.23L74.517.72a.45.45 0 0 1 .454-.379h5.066Z" id="Fill-11"/>
          <path d="M82.793.833c-.076-.303.075-.454.378-.454h5.256c.19 0 .304.113.38.265l3.856 18.877L102.495.644c.038-.152.265-.265.454-.265h5.258c.264 0 .378.151.227.454L95.12 26.255a.57.57 0 0 1-.53.34h-6.127c-.227 0-.416-.113-.491-.34L82.793.833Z" id="Fill-13"/>
          <path d="M113.494 21.035h10.21c.227 0 .38.151.343.378l-.796 4.842c0 .189-.187.34-.378.34h-15.655c-.227 0-.34-.151-.303-.378L110.923.719a.45.45 0 0 1 .454-.377h15.279c.226 0 .34.152.302.377l-.756 4.843a.412.412 0 0 1-.418.34h-9.87l-.756 4.577h8.055c.227 0 .378.153.34.38l-.756 4.69c-.038.227-.189.378-.416.378h-8.055l-.832 5.108Z" id="Fill-15"/>
          <path d="m136.18 5.864-.907 5.751h5.22c.643 0 2.647-.567 3.025-2.836.34-2.272-1.437-2.877-2.118-2.915h-5.22Zm-1.814 11.311-1.4 9.042a.45.45 0 0 1-.453.378h-5.03c-.227 0-.34-.151-.303-.378L131.19.719a.448.448 0 0 1 .454-.377h10.55c5.256 0 7.829 3.669 7.11 8.399-.604 3.63-2.95 6.657-6.391 7.867l4.197 9.533c.113.303 0 .454-.301.454h-5.484a.465.465 0 0 1-.378-.189l-3.706-9.23h-2.875Z" id="Fill-17"/>
          <path d="m149.525 23.305 3.178-4.465c.189-.225.452-.263.643-.076.794.796 3.591 2.42 6.694 2.42 1.928 0 3.894-.678 4.121-2.08.151-.945-.265-2.117-4.121-2.76-5.976-1.022-8.776-3.215-8.17-7.945.644-4.88 5.03-8.437 11.27-8.399 4.424.038 7.413 1.854 8.018 2.536.111.114.111.34.038.528l-2.762 4.578c-.152.265-.303.265-.53.114-.87-.643-2.798-1.967-5.898-1.967-2.346 0-4.048 1.021-4.237 2.156-.227 1.362 1.059 1.816 4.2 2.534 5.784 1.286 8.66 3.406 8.015 8.399-.567 4.654-5.18 8.134-11.383 8.096-4.84-.038-8.396-2.383-9.076-3.177-.151-.114-.19-.265 0-.492" id="Fill-19"/>
          <path d="M178.375 26.255c0 .19-.189.34-.378.34h-5.067c-.226 0-.342-.15-.342-.34L176.636.72a.44.44 0 0 1 .416-.378h5.104c.19 0 .304.151.267.378l-4.048 25.536Z" id="Fill-21"/>
          <path d="M196.373 21.149c4.575 0 8.131-3.066 8.85-7.68.756-4.577-1.853-7.68-6.43-7.68-4.613 0-8.206 3.065-8.923 7.68-.72 4.614 1.853 7.68 6.503 7.68M199.663 0c8.093 0 12.632 5.41 11.347 13.469-1.286 8.096-7.489 13.469-15.582 13.469-8.055 0-12.632-5.373-11.345-13.47C185.37 5.412 191.607 0 199.663 0" id="Fill-23"/>
          <path d="M238.798.341c.189 0 .302.152.264.379l-4.008 25.498a.45.45 0 0 1-.453.378h-5.75c-.15 0-.302-.113-.34-.227l-7.526-16.343-2.533 16.192a.45.45 0 0 1-.454.378h-5.03c-.227 0-.34-.151-.303-.378L216.675.72a.448.448 0 0 1 .454-.379h5.747c.302 0 .34.114.454.265l7.412 16.23L233.277.72a.45.45 0 0 1 .454-.379h5.067Z" id="Fill-25"/></g>
        <g class="logo_symbol" fill="currentColor">
          <path id="Fill-1" d="M26.935.425v19.196L7.94.425H0v31.487h8.665V12.761l18.951 19.151h7.986V.425z"/>
          <path d="m44.146.425 10.027 11.057L64.155.425h11.433L60.752 16.168 75.86 31.912H64.427L54.173 20.809 43.919 31.912h-11.48l.166-.173V20.434h5.293v5.79l9.65-10.056-9.65-10.24v6.164h-5.293V.425h11.54Z" id="Fill-2"/>
          <path id="Fill-5" d="M93.662 3.458v28.454h-8.757V5.733z"/>
          <path id="Fill-6" d="M112.207 0 75.708 5.422V.425h-7.562v13.787z"/>
        </g>
      </g>
    </g>
  </g>
</svg>
