<?xml version="1.0" encoding="UTF-8"?>
<svg xmlns="http://www.w3.org/2000/svg" id="Icons" viewBox="0 0 60 60" width="512" height="512" fill="currentColor"><path d="M56,2H48.816A3,3,0,0,0,46,0H14a3,3,0,0,0-2.816,2H4A4,4,0,0,0,0,6V23A11.013,11.013,0,0,0,11,34h2.273A19.066,19.066,0,0,0,25,43.31V48H23a3,3,0,0,0-3,3v2a3,3,0,0,0-3,3v2a2,2,0,0,0,2,2H41a2,2,0,0,0,2-2V56a3,3,0,0,0-3-3V51a3,3,0,0,0-3-3H35V43.31A19.066,19.066,0,0,0,46.727,34H49A11.013,11.013,0,0,0,60,23V6A4,4,0,0,0,56,2ZM49,8h5V23a5.006,5.006,0,0,1-5,5h-.261A18.9,18.9,0,0,0,49,25ZM11.261,28H11a5.006,5.006,0,0,1-5-5V8h5V25A18.9,18.9,0,0,0,11.261,28ZM11,32a9.01,9.01,0,0,1-9-9V6A2,2,0,0,1,4,4h7V6H6A2,2,0,0,0,4,8V23a7.008,7.008,0,0,0,7,7h.69a18.662,18.662,0,0,0,.663,2ZM41,56v2H19V56a1,1,0,0,1,1-1H40A1,1,0,0,1,41,56Zm-3-5v2H22V51a1,1,0,0,1,1-1H37A1,1,0,0,1,38,51Zm-5-3H27V43.739a17.372,17.372,0,0,0,6,0Zm-3-6A17.019,17.019,0,0,1,13,25V3a1,1,0,0,1,1-1H46a1,1,0,0,1,1,1V25A17.019,17.019,0,0,1,30,42ZM58,23a9.01,9.01,0,0,1-9,9H47.647a18.662,18.662,0,0,0,.663-2H49a7.008,7.008,0,0,0,7-7V8a2,2,0,0,0-2-2H49V4h7a2,2,0,0,1,2,2Z"/><path d="M41,32h-.382L32.344,15.449A2.589,2.589,0,0,0,31,14.222V12.633a4.174,4.174,0,0,1,1.4-.229,4.707,4.707,0,0,1,1.544.259A6.427,6.427,0,0,0,36,13a8.807,8.807,0,0,0,2.949-.5A1.6,1.6,0,0,0,40,11V6.854a1.6,1.6,0,0,0-2.052-1.532A7,7,0,0,1,36,5.6a4.5,4.5,0,0,1-1.48-.252A6.622,6.622,0,0,0,32.4,5a6.265,6.265,0,0,0-1.76.246A.987.987,0,0,0,30,5a1,1,0,0,0-1,1v8.223a2.589,2.589,0,0,0-1.344,1.227L19.382,32H19a1,1,0,0,0,0,2H41a1,1,0,0,0,0-2ZM33.944,7.259A6.427,6.427,0,0,0,36,7.6a9.175,9.175,0,0,0,2-.222v3.337A7,7,0,0,1,36,11a4.474,4.474,0,0,1-1.48-.252A6.622,6.622,0,0,0,32.4,10.4a6.324,6.324,0,0,0-1.4.157V7.229A4.149,4.149,0,0,1,32.4,7,4.707,4.707,0,0,1,33.944,7.259Zm-4.5,9.085a.62.62,0,0,1,1.11,0l2.37,4.74L32,22.009l-.586-.6a2.012,2.012,0,0,0-2.84.007L28,22l-.921-.921Zm-3.312,6.624.45.45a2.012,2.012,0,0,0,2.84-.007l.574-.59.586.6a2.007,2.007,0,0,0,2.834,0l.45-.449L38.382,32H21.618Z"/></svg>
