<svg id="Icons" height="512" viewBox="0 0 60 60" width="512" xmlns="http://www.w3.org/2000/svg" fill="currentColor"><path d="m5 48h5v9.288a2.677 2.677 0 0 0 1.633 2.479 2.8 2.8 0 0 0 1.116.233 2.694 2.694 0 0 0 1.839-.73l12.233-11.27h28.179a5.006 5.006 0 0 0 5-5v-38a5.006 5.006 0 0 0 -5-5h-50a5.006 5.006 0 0 0 -5 5v38a5.006 5.006 0 0 0 5 5zm-3-43a3 3 0 0 1 3-3h50a3 3 0 0 1 3 3v38a3 3 0 0 1 -3 3h-28.57a1 1 0 0 0 -.678.265l-12.522 11.54a.731.731 0 0 1 -.8.129.692.692 0 0 1 -.43-.646v-10.288a1 1 0 0 0 -1-1h-6a3 3 0 0 1 -3-3z"/><path d="m10 21a1 1 0 0 0 1-1v-5h3v5a1 1 0 0 0 2 0v-12a1 1 0 0 0 -2 0v5h-3v-5a1 1 0 0 0 -2 0v12a1 1 0 0 0 1 1z"/><path d="m19 21h4a1 1 0 0 0 0-2h-3v-4h1a1 1 0 0 0 0-2h-1v-4h3a1 1 0 0 0 0-2h-4a1 1 0 0 0 -1 1v12a1 1 0 0 0 1 1z"/><path d="m27 21h4a1 1 0 0 0 0-2h-3v-11a1 1 0 0 0 -2 0v12a1 1 0 0 0 1 1z"/><path d="m7 29h46a1 1 0 0 0 0-2h-46a1 1 0 0 0 0 2z"/><path d="m7 34h46a1 1 0 0 0 0-2h-46a1 1 0 0 0 0 2z"/><path d="m7 39h36a1 1 0 0 0 0-2h-36a1 1 0 0 0 0 2z"/><path d="m35 21a1 1 0 0 0 1-1v-5h1a4 4 0 0 0 0-8h-2a1 1 0 0 0 -1 1v12a1 1 0 0 0 1 1zm1-12h1a2 2 0 0 1 0 4h-1z"/><path d="m44 12a1 1 0 0 0 1-1 2 2 0 1 1 2 2 1 1 0 0 0 -1 1v2a1 1 0 0 0 2 0v-1.126a4 4 0 1 0 -5-3.874 1 1 0 0 0 1 1z"/><circle cx="47" cy="20" r="1"/></svg>
