<?xml version="1.0" encoding="UTF-8"?>
<svg xmlns="http://www.w3.org/2000/svg" id="Icons" viewBox="0 0 60 60" width="512" height="512" fill="currentColor"><path d="M56,10H50V4a4,4,0,0,0-4-4H4A4,4,0,0,0,0,4V36a4,4,0,0,0,4,4H6v6.709a3.269,3.269,0,0,0,1.825,2.958,3.17,3.17,0,0,0,3.354-.335l.3-.231A4,4,0,0,0,14,50H36.661l12.16,9.333a3.17,3.17,0,0,0,3.354.335A3.27,3.27,0,0,0,54,56.71V50h2a4,4,0,0,0,4-4V14A4,4,0,0,0,56,10ZM9.961,47.746a1.156,1.156,0,0,1-1.252.126A1.265,1.265,0,0,1,8,46.709V39a1,1,0,0,0-1-1H4a2,2,0,0,1-2-2V4A2,2,0,0,1,4,2H46a2,2,0,0,1,2,2V36a2,2,0,0,1-2,2H23a1,1,0,0,0-.609.207ZM58,46a2,2,0,0,1-2,2H53a1,1,0,0,0-1,1v7.71a1.265,1.265,0,0,1-.709,1.163,1.157,1.157,0,0,1-1.252-.126l-12.43-9.54A1,1,0,0,0,37,48H14a2.013,2.013,0,0,1-.84-.188L23.339,40H46a4,4,0,0,0,4-4V12h6a2,2,0,0,1,2,2Z"/><path d="M27.959,30.5a3.019,3.019,0,0,0-.358-1.991A2.953,2.953,0,0,0,28.959,26.5a3.015,3.015,0,0,0-.345-1.967A3,3,0,0,0,29.959,21.5,2.954,2.954,0,0,0,28.6,19.5a3.02,3.02,0,0,0,.358-1.992A3.082,3.082,0,0,0,25.893,15H20.631A17.794,17.794,0,0,0,22,8.1,3.024,3.024,0,0,0,19.61,5.06a2.861,2.861,0,0,0-2.209.433,3.512,3.512,0,0,0-1.386,2.334c-.543,3.1-1.465,3.594-2.991,4.41a16.2,16.2,0,0,0-1.59.939,9.626,9.626,0,0,0-2.4,2.389,4.79,4.79,0,0,1-2.5,1.985A3.877,3.877,0,0,0,4,21.165v6.063a2.972,2.972,0,0,0,2.349,2.92,6.127,6.127,0,0,1,1.8.706L9.823,31.86A8,8,0,0,0,13.939,33H24.893A3.082,3.082,0,0,0,27.959,30.5Zm-17.107-.35L9.176,29.139a7.993,7.993,0,0,0-2.4-.944A.984.984,0,0,1,6,27.228V21.165a1.869,1.869,0,0,1,1.229-1.739,6.7,6.7,0,0,0,3.4-2.653,7.72,7.72,0,0,1,1.937-1.949h0a14.194,14.194,0,0,1,1.4-.823c1.7-.91,3.305-1.77,4.017-5.828a1.573,1.573,0,0,1,.554-1.035A.786.786,0,0,1,19,7a1.315,1.315,0,0,1,.235.023A1.058,1.058,0,0,1,20,8.088a15.65,15.65,0,0,1-1.314,6.367,1.787,1.787,0,0,0,.128,1.713A1.81,1.81,0,0,0,20.339,17h5.554a1.086,1.086,0,0,1,1.093.824A1,1,0,0,1,26,19a1,1,0,0,0,0,2h.893a1.086,1.086,0,0,1,1.093.824A1,1,0,0,1,27,23H26a1,1,0,0,0,0,2,1,1,0,0,1,.986,1.175A1.085,1.085,0,0,1,25.893,27H25a1,1,0,0,0,0,2,1,1,0,0,1,.986,1.175A1.085,1.085,0,0,1,24.893,31H13.939A6.013,6.013,0,0,1,10.852,30.146Z"/><path d="M33,17a1,1,0,0,0,1-1,5,5,0,1,1,5,5,1,1,0,0,0-1,1v3a1,1,0,0,0,2,0V22.929A7,7,0,1,0,32,16,1,1,0,0,0,33,17Z"/><circle cx="39" cy="29" r="1"/></svg>
