<?xml version="1.0" encoding="UTF-8"?>
<svg xmlns="http://www.w3.org/2000/svg" id="Icons" viewBox="0 0 60 60" width="512" height="512" fill="currentColor"><path d="M30,26a4,4,0,1,0,4,4A4,4,0,0,0,30,26Zm0,6a2,2,0,1,1,2-2A2,2,0,0,1,30,32Z"/><path d="M59,17a5,5,0,0,0-6.018-4.895c-2.836-1.635-6.945-2.034-11.967-1.168C38.45,3.978,34.466,0,30,0S21.55,3.978,18.985,10.937c-5.023-.866-9.131-.466-11.967,1.168a5,5,0,0,0-3.773,9.061A21.119,21.119,0,0,0,7.981,30c-2.914,3.512-4.611,6.934-4.927,9.963A4.951,4.951,0,0,0,2,43a5.006,5.006,0,0,0,5,5c.059,0,.115-.016.174-.018a14.37,14.37,0,0,0,6.968,1.542,28.772,28.772,0,0,0,4.846-.454C21.552,56.024,25.535,60,30,60s8.448-3.976,11.013-10.931a28.523,28.523,0,0,0,4.8.447c4.87,0,8.457-1.555,10.167-4.516,2.234-3.867.784-9.3-3.954-15a21.1,21.1,0,0,0,4.733-8.832A5,5,0,0,0,59,17Zm-8.277-3.746a4.988,4.988,0,0,0-1.248,1.652,17.276,17.276,0,0,0-7.26-.082q-.264-1.024-.557-1.968A18.428,18.428,0,0,1,50.723,13.254ZM43.811,35.117q.1-1.351.139-2.741.564-.478,1.127-.994.736.723,1.413,1.47Q45.217,34.006,43.811,35.117Zm3.989-.753C50.958,38.3,51.408,40.917,50.784,42s-3.127,2.014-8.122,1.229c.375-1.758.677-3.56.882-5.391C45.054,36.722,46.479,35.558,47.8,34.364Zm-4.256-12.2c-.2-1.832-.507-3.631-.881-5.386a15.4,15.4,0,0,1,6.352.074c0,.051-.015.1-.015.151a4.971,4.971,0,0,0,1.711,3.736,17.152,17.152,0,0,1-2.914,4.9C46.477,24.44,45.053,23.277,43.544,22.161ZM30,2c5.8,0,9.143,8.488,10.506,14.188A61.23,61.23,0,0,1,42,30a60.157,60.157,0,0,1-1.3,12.852q-.951-.2-1.959-.484A58.547,58.547,0,0,0,40,30a53.857,53.857,0,0,0-2.626-17.28C35.438,7.179,32.75,4,30,4c-2.6,0-5.144,2.845-7.05,7.838q-.967-.274-1.983-.5C23.217,5.387,26.475,2,30,2Zm4,34.925c-1.278.739-2.6,1.433-4,2.116-1.4-.683-2.721-1.377-4-2.116-1.353-.783-2.632-1.594-3.833-2.413C22.062,33.029,22,31.515,22,30s.062-3.029.168-4.512c1.2-.819,2.48-1.63,3.833-2.413,1.278-.739,2.6-1.433,4-2.116,1.4.683,2.721,1.377,4,2.116,1.353.783,2.632,1.594,3.833,2.413.106,1.483.168,3,.168,4.512s-.062,3.029-.169,4.513C36.63,35.331,35.352,36.142,34,36.925Zm3.585.149q-.156,1.317-.371,2.6c-1.238.749-1.7,1-2.445,1.409q-1.179-.437-2.432-.976A59.312,59.312,0,0,0,37.584,37.074ZM35.779,14.3q.3.938.566,1.947c-.5.158-.969.318-1.425.483q-1.234-.66-2.448-1.249Q34.16,14.812,35.779,14.3ZM30,14.343a53.9,53.9,0,0,0-5.129-1.935C26.691,7.7,28.741,6,30,6s3.31,1.7,5.129,6.408A53.963,53.963,0,0,0,30,14.343Zm-.4,2a68.232,68.232,0,0,1,7.616,3.982q.215,1.282.371,2.6c-6.976-4.474-19.748-10.122-27.059-8.02a5,5,0,0,0-1.248-1.652C15.1,11.108,23.909,13.823,29.6,16.345ZM21.26,17.632q-.155.718-.292,1.469-1.15.717-2.281,1.484.253-1.747.614-3.437Q20.252,17.352,21.26,17.632Zm-10.275-.783a15.409,15.409,0,0,1,6.352-.074c-.374,1.754-.676,3.553-.881,5.386-1.51,1.116-2.933,2.28-4.253,3.472a17.152,17.152,0,0,1-2.914-4.9A4.971,4.971,0,0,0,11,17C11,16.948,10.986,16.9,10.985,16.849ZM3,17a3,3,0,1,1,3,3A3,3,0,0,1,3,17Zm2.517,4.951A4.816,4.816,0,0,0,6,22a4.93,4.93,0,0,0,1.528-.264,19.932,19.932,0,0,0,3.219,5.275q-.735.722-1.43,1.472A20.758,20.758,0,0,1,5.517,21.951Zm19.71-3.029q1.191.441,2.434.974C20.6,23.547,10.506,30.781,7.608,38.061A5.089,5.089,0,0,0,7,38a4.953,4.953,0,0,0-1.574.278C7.783,30.494,17.976,22.861,25.227,18.922ZM9.507,38.7A18.271,18.271,0,0,1,12.2,34.365c1.321,1.193,2.745,2.357,4.255,3.474.205,1.833.507,3.633.882,5.388a17.665,17.665,0,0,1-5.375.143c.009-.125.037-.243.037-.37A4.986,4.986,0,0,0,9.507,38.7Zm4-5.847q.677-.745,1.413-1.47.564.515,1.127.994.041,1.392.139,2.741Q14.787,34.009,13.51,32.852ZM7,46a3,3,0,1,1,3-3A3,3,0,0,1,7,46Zm2.98.991a5,5,0,0,0,1.43-1.686,14.078,14.078,0,0,0,2.527.211,24.752,24.752,0,0,0,3.848-.338q.265,1.023.557,1.967A19.775,19.775,0,0,1,9.98,46.991ZM30,58c-5.8,0-9.143-8.488-10.506-14.188A61.23,61.23,0,0,1,18,30c0-.476.011-.944.022-1.414q.987-.816,2.055-1.61C20.03,27.98,20,28.989,20,30a59.746,59.746,0,0,0,.885,10.463C21.819,45.791,24.774,56,30,56c2.6,0,5.144-2.845,7.05-7.838q.968.274,1.983.505C36.783,54.613,33.525,58,30,58ZM24.221,45.7q-.3-.937-.566-1.947c.5-.158.969-.318,1.425-.483q1.235.66,2.448,1.249Q25.841,45.188,24.221,45.7ZM30,45.657a53.9,53.9,0,0,0,5.129,1.935C33.309,52.3,31.259,54,30,54s-3.31-1.7-5.129-6.408A53.963,53.963,0,0,0,30,45.657ZM54.244,44c-4.713,8.16-23.3.606-31.457-4.327q-.215-1.283-.371-2.6c.834.535,1.691,1.065,2.583,1.581,5.838,3.38,14.3,6.864,21.048,6.864,3.239,0,5.514-.862,6.469-2.52,1.367-2.37-.039-6.281-3.856-10.728a36.969,36.969,0,0,0-2.869-3c-.611-.582-1.228-1.131-1.841-1.652q-.041-1.392-.139-2.741c1.2.95,2.346,1.928,3.4,2.926.966.908,1.892,1.868,2.753,2.848C54.55,35.908,56.109,40.771,54.244,44ZM50.683,28.483q-.7-.752-1.43-1.472a19.932,19.932,0,0,0,3.219-5.275A4.93,4.93,0,0,0,54,22a4.816,4.816,0,0,0,.483-.049A20.758,20.758,0,0,1,50.683,28.483ZM54,20a3,3,0,1,1,3-3A3,3,0,0,1,54,20Z"/></svg>
