<?xml version="1.0" encoding="UTF-8"?>
<svg xmlns="http://www.w3.org/2000/svg" id="Icons" viewBox="0 0 60 60" width="512" height="512" fill="currentColor"><path d="M59.066,26.686a4.235,4.235,0,0,1-.636-2.38v-.169a6.282,6.282,0,0,0-3.3-5.529A4.258,4.258,0,0,1,54,17.715V4a4,4,0,0,0-4-4H4A4,4,0,0,0,0,4V42a4,4,0,0,0,4,4H32.29l-3.88,5.711a2.333,2.333,0,0,0-.076,2.521A2.24,2.24,0,0,0,30.5,55.324l3.5-.316,1,3.358a2.274,2.274,0,0,0,1.853,1.608,2.322,2.322,0,0,0,2.283-1.015L42,54.74l2.858,4.213A2.323,2.323,0,0,0,46.8,60a2.446,2.446,0,0,0,.35-.026A2.276,2.276,0,0,0,49,58.36l1-3.354,3.495.315a2.254,2.254,0,0,0,2.176-1.091,2.335,2.335,0,0,0-.079-2.525L51.3,45.391a6.3,6.3,0,0,0,2.094-2.265,4.266,4.266,0,0,1,1.736-1.735,6.266,6.266,0,0,0,3.3-5.726,4.259,4.259,0,0,1,.639-2.355.848.848,0,0,0,.069-.134,6.317,6.317,0,0,0,0-6.352A1,1,0,0,0,59.066,26.686ZM4,2H50a2,2,0,0,1,2,2V15.151a6.242,6.242,0,0,0-4.335-1.581,4.223,4.223,0,0,1-2.355-.638.864.864,0,0,0-.125-.064,6.317,6.317,0,0,0-6.361-.005.9.9,0,0,0-.138.072,4.3,4.3,0,0,1-2.38.635h-.169a6.256,6.256,0,0,0-3.6,1.153L23.944,9.389a2.62,2.62,0,0,0-2.651-.052A2.468,2.468,0,0,0,20,11.51V22.49a2.468,2.468,0,0,0,1.293,2.173,2.623,2.623,0,0,0,2.654-.054L25.6,23.583a6.262,6.262,0,0,0-.03.752,4.259,4.259,0,0,1-.639,2.355.864.864,0,0,0-.064.125A6.281,6.281,0,0,0,24.007,30H2V4A2,2,0,0,1,4,2ZM26.718,20.537,22.9,22.908a.611.611,0,0,1-.627.009A.487.487,0,0,1,22,22.49V11.51a.487.487,0,0,1,.269-.427.617.617,0,0,1,.624.007l8.165,5.07a6.522,6.522,0,0,0-.451.714,4.266,4.266,0,0,1-1.736,1.735A6.3,6.3,0,0,0,26.718,20.537ZM2,42V32H24.344a6.118,6.118,0,0,0,.519,1.176,1,1,0,0,0,.071.138,4.235,4.235,0,0,1,.636,2.38v.169A6.219,6.219,0,0,0,25.687,37H21.816a2.982,2.982,0,0,0-5.632,0H7a1,1,0,0,0,0,2h9.184a2.982,2.982,0,0,0,5.632,0h4.6a6.294,6.294,0,0,0,2.456,2.392,4.271,4.271,0,0,1,1.736,1.737A6.225,6.225,0,0,0,31.19,44H4A2,2,0,0,1,2,42Zm18-4a1,1,0,1,1-1-1A1,1,0,0,1,20,38ZM37.479,57.841a.321.321,0,0,1-.327.155.274.274,0,0,1-.234-.2l-1.23-4.139a.994.994,0,0,0-1.048-.711l-4.329.391a.253.253,0,0,1-.262-.129.34.34,0,0,1,.018-.374l4.494-6.614a6.235,6.235,0,0,0,1.774.214,4.2,4.2,0,0,1,2.355.638.864.864,0,0,0,.125.064,6.29,6.29,0,0,0,5.712.329Zm16.452-5.016a.339.339,0,0,1,.022.377.255.255,0,0,1-.271.128l-4.321-.39a1,1,0,0,0-1.049.711l-1.228,4.135a.277.277,0,0,1-.236.208.329.329,0,0,1-.33-.16L43.21,52.96l4.432-6.528c.017,0,.034,0,.052,0h.169a6.257,6.257,0,0,0,1.581-.209Zm3.434-20.583a.932.932,0,0,0-.066.13,6.258,6.258,0,0,0-.869,3.361,4.273,4.273,0,0,1-2.252,3.9,6.245,6.245,0,0,0-2.545,2.545,4.286,4.286,0,0,1-3.77,2.253h-.14a6.4,6.4,0,0,0-3.347.865,1.137,1.137,0,0,0-.134.07,4.3,4.3,0,0,1-4.484,0,.932.932,0,0,0-.13-.066,6.24,6.24,0,0,0-3.362-.869,4.254,4.254,0,0,1-3.9-2.251,6.25,6.25,0,0,0-2.545-2.547,4.284,4.284,0,0,1-2.253-3.769v-.139a6.217,6.217,0,0,0-.865-3.347.958.958,0,0,0-.07-.135,4.3,4.3,0,0,1,0-4.484.932.932,0,0,0,.066-.13,6.258,6.258,0,0,0,.869-3.361,4.273,4.273,0,0,1,2.252-3.9,6.245,6.245,0,0,0,2.545-2.545,4.286,4.286,0,0,1,3.77-2.253h.14a6.324,6.324,0,0,0,3.347-.865,1.137,1.137,0,0,0,.134-.07,4.3,4.3,0,0,1,4.484,0,.932.932,0,0,0,.13.066,6.194,6.194,0,0,0,3.362.869,4.249,4.249,0,0,1,3.9,2.251,6.25,6.25,0,0,0,2.545,2.547,4.284,4.284,0,0,1,2.253,3.769v.139a6.217,6.217,0,0,0,.865,3.347.958.958,0,0,0,.07.135A4.3,4.3,0,0,1,57.365,32.242Z"/><path d="M42,17A13,13,0,1,0,55,30,13.015,13.015,0,0,0,42,17Zm0,24A11,11,0,1,1,53,30,11.013,11.013,0,0,1,42,41Z"/></svg>
