<?xml version="1.0" encoding="UTF-8"?>
<svg xmlns="http://www.w3.org/2000/svg" viewBox="0 0 60 60" width="512" height="512" fill="currentColor"><g id="Icons"><path d="M5.108,45.709A7.73,7.73,0,0,0,5,47a8.009,8.009,0,0,0,8,8,7.8,7.8,0,0,0,.914-.054A9,9,0,0,0,30,55.121a9,9,0,0,0,16.086-.175A7.8,7.8,0,0,0,47,55a8.009,8.009,0,0,0,8-8,7.73,7.73,0,0,0-.108-1.291,7.5,7.5,0,0,0,1.14-8.9,7.991,7.991,0,0,0-2.127-10.128A7.37,7.37,0,0,0,54,25.5a7.464,7.464,0,0,0-4-6.633,7.939,7.939,0,0,0-5.406-7.4,14.993,14.993,0,0,0-29.151-.011A7.927,7.927,0,0,0,10,18.867,7.464,7.464,0,0,0,6,25.5,7.37,7.37,0,0,0,6.1,26.684,7.991,7.991,0,0,0,3.968,36.812a7.5,7.5,0,0,0,1.14,8.9Zm16.233-40.4A12.845,12.845,0,0,1,29.982,2a13.55,13.55,0,0,1,1.526.086A13.1,13.1,0,0,1,42.851,12.978a12.91,12.91,0,0,1-2.97,10.461l0,0a11.982,11.982,0,0,0-2.731,5.772.977.977,0,0,1-.974.786H33V24h1a3,3,0,1,0-3-3v1H29V21a3,3,0,1,0-3,3h1v6H23.829a.979.979,0,0,1-.975-.791,11.177,11.177,0,0,0-.611-2.238,12.06,12.06,0,0,0-2.114-3.512A13,13,0,0,1,21.341,5.305ZM38,37a1,1,0,0,1-1,1H23a1,1,0,0,1,0-2H37A1,1,0,0,1,38,37Zm-3.178,3A4.92,4.92,0,0,1,30,43a4.92,4.92,0,0,1-4.822-3ZM23,34a1,1,0,0,1,0-2H37a1,1,0,0,1,0,2Zm4-12H26a1,1,0,1,1,1-1Zm4,8H29V24h2Zm2-8V21a1,1,0,1,1,1,1ZM5.973,36.267A5.881,5.881,0,0,1,5,33a5.964,5.964,0,0,1,2.75-5.039,1,1,0,0,0,.425-1.1A5.249,5.249,0,0,1,8,25.5a5.471,5.471,0,0,1,3.409-5.084,1,1,0,0,0,.613-1.05A2.9,2.9,0,0,1,12,19a5.948,5.948,0,0,1,3.064-5.209c-.032.4-.064.8-.064,1.209a15.011,15.011,0,0,0,3.61,9.761,10.033,10.033,0,0,1,1.767,2.93,9.265,9.265,0,0,1,.5,1.842,2.889,2.889,0,0,0,.382,1.031A2.969,2.969,0,0,0,20.78,35,2.987,2.987,0,0,0,23,40h.105c.558,2.833,3.433,5,6.9,5s6.337-2.167,6.9-5H37a2.987,2.987,0,0,0,2.22-5,2.971,2.971,0,0,0-.48-4.435,2.9,2.9,0,0,0,.38-1.024,9.971,9.971,0,0,1,2.281-4.8A15.037,15.037,0,0,0,44.934,13.79,5.958,5.958,0,0,1,48,19a2.9,2.9,0,0,1-.022.366,1,1,0,0,0,.613,1.05A5.471,5.471,0,0,1,52,25.5a5.249,5.249,0,0,1-.175,1.36,1,1,0,0,0,.425,1.1A5.964,5.964,0,0,1,55,33a5.881,5.881,0,0,1-.973,3.267,1,1,0,0,0,.008,1.118,5.5,5.5,0,0,1-.9,7.235,1,1,0,0,0-.309.993A5.7,5.7,0,0,1,53,47a6.006,6.006,0,0,1-6,6,5.938,5.938,0,0,1-1.3-.146,1,1,0,0,0-1.155.623A7,7,0,0,1,31,51V48a1,1,0,0,0-2,0v3a7,7,0,0,1-13.544,2.477,1,1,0,0,0-1.155-.623A5.938,5.938,0,0,1,13,53a6.006,6.006,0,0,1-6-6,5.7,5.7,0,0,1,.17-1.387,1,1,0,0,0-.309-.993,5.5,5.5,0,0,1-.9-7.235A1,1,0,0,0,5.973,36.267Z"/><path d="M12,42a1,1,0,0,0,0,2,2,2,0,0,1,2,2,1,1,0,0,0,2,0A4,4,0,0,0,12,42Z"/><path d="M20,52a1,1,0,0,0,1-1,2,2,0,0,1,2-2,1,1,0,0,0,0-2,4,4,0,0,0-4,4A1,1,0,0,0,20,52Z"/><path d="M10,31a1.986,1.986,0,0,1,1.629.867A3.965,3.965,0,0,0,11,34a1,1,0,0,0,2,0,2,2,0,0,1,2-2,1,1,0,0,0,0-2,3.949,3.949,0,0,0-1.889.5A4.006,4.006,0,0,0,10,29a1,1,0,0,0,0,2Z"/><path d="M45,47a1,1,0,0,0,1-1,2,2,0,0,1,2-2,1,1,0,0,0,0-2,4,4,0,0,0-4,4A1,1,0,0,0,45,47Z"/><path d="M37,49a2,2,0,0,1,2,2,1,1,0,0,0,2,0,4,4,0,0,0-4-4,1,1,0,0,0,0,2Z"/><path d="M45,32a2,2,0,0,1,2,2,1,1,0,0,0,2,0,3.965,3.965,0,0,0-.629-2.133A1.986,1.986,0,0,1,50,31a1,1,0,0,0,0-2,4.006,4.006,0,0,0-3.111,1.5A3.949,3.949,0,0,0,45,30a1,1,0,0,0,0,2Z"/></g></svg>
