<?xml version="1.0" encoding="UTF-8"?>
<svg xmlns="http://www.w3.org/2000/svg" id="Icons" viewBox="0 0 60 60" width="512" height="512" fill="currentColor"><path d="M5,54H19.907A2.974,2.974,0,0,0,22,55.9V57a3,3,0,0,0,3,3h6a3,3,0,0,0,3-3V55.816A3,3,0,0,0,35.816,54h4.368A3,3,0,0,0,42,55.816V57a3,3,0,0,0,3,3h6a3,3,0,0,0,3-3V55.9a3,3,0,0,0,2.24-2.479l3.419-23.992A2.963,2.963,0,0,0,57,26.034V25a3,3,0,0,0-3-3V5a5.006,5.006,0,0,0-5-5H5A5.006,5.006,0,0,0,0,5V49A5.006,5.006,0,0,0,5,54Zm27,3a1,1,0,0,1-1,1H25a1,1,0,0,1-1-1V56h8Zm2-4a1,1,0,0,1-1,1H22.73a1,1,0,0,1-.99-.86L18.319,29.132A.994.994,0,0,1,19.31,28H33a1,1,0,0,1,1,1v1H32a3,3,0,0,0-3,3V47a3,3,0,0,0,3,3h2ZM21,26V25a1,1,0,0,1,1-1h9a1,1,0,0,1,1,1v1ZM40,52H36V50h4Zm-8-4a1,1,0,0,1-1-1V33a1,1,0,0,1,1-1H44a1,1,0,0,1,1,1V47a1,1,0,0,1-1,1Zm20,9a1,1,0,0,1-1,1H45a1,1,0,0,1-1-1V56h8Zm4.69-29a.994.994,0,0,1,.99,1.14L54.261,53.131A1,1,0,0,1,53.27,54H43a1,1,0,0,1-1-1V50h2a3,3,0,0,0,3-3V33a3,3,0,0,0-3-3H42V29a1,1,0,0,1,1-1ZM54,24a1,1,0,0,1,1,1v1H44V25a1,1,0,0,1,1-1ZM2,5A3,3,0,0,1,5,2H49a3,3,0,0,1,3,3v7H2Zm0,9H52v8H45a3,3,0,0,0-3,3v1.184A3,3,0,0,0,40,29v1H36V29a3,3,0,0,0-2-2.816V25a3,3,0,0,0-3-3H22a3,3,0,0,0-3,3v1.034a2.964,2.964,0,0,0-2.66,3.387L19.557,52H5a3,3,0,0,1-3-3Z"/><path d="M7,4a3,3,0,1,0,3,3A3,3,0,0,0,7,4ZM7,8A1,1,0,1,1,8,7,1,1,0,0,1,7,8Z"/><path d="M15,4a3,3,0,1,0,3,3A3,3,0,0,0,15,4Zm0,4a1,1,0,1,1,1-1A1,1,0,0,1,15,8Z"/><path d="M23,4a3,3,0,1,0,3,3A3,3,0,0,0,23,4Zm0,4a1,1,0,1,1,1-1A1,1,0,0,1,23,8Z"/><path d="M35,38a1,1,0,0,0-1,1v2a1,1,0,0,0,2,0V39A1,1,0,0,0,35,38Z"/><path d="M41,38a1,1,0,0,0-1,1v2a1,1,0,0,0,2,0V39A1,1,0,0,0,41,38Z"/><path d="M38,37a1,1,0,0,0-1,1v4a1,1,0,0,0,2,0V38A1,1,0,0,0,38,37Z"/><path d="M7,23a3,3,0,1,0-3-3A3,3,0,0,0,7,23Zm0-4a1,1,0,1,1-1,1A1,1,0,0,1,7,19Z"/><path d="M7,33a3,3,0,1,0-3-3A3,3,0,0,0,7,33Zm0-4a1,1,0,1,1-1,1A1,1,0,0,1,7,29Z"/><path d="M7,43a3,3,0,1,0-3-3A3,3,0,0,0,7,43Zm0-4a1,1,0,1,1-1,1A1,1,0,0,1,7,39Z"/><path d="M13,21h6a1,1,0,0,0,0-2H13a1,1,0,0,0,0,2Z"/><path d="M13,31h1a1,1,0,0,0,0-2H13a1,1,0,0,0,0,2Z"/><path d="M13,41h2a1,1,0,0,0,0-2H13a1,1,0,0,0,0,2Z"/></svg>
