<?xml version="1.0" encoding="UTF-8"?>
<svg xmlns="http://www.w3.org/2000/svg" id="Icons" viewBox="0 0 60 60" width="512" height="512" fill="currentColor"><path d="M43.9,34.36A19.98,19.98,0,0,0,30.019,0c-.006,0-.012,0-.019,0l-.012,0A19.978,19.978,0,0,0,16.2,34.444,9.055,9.055,0,0,1,19,40.96v.225A3,3,0,0,0,17,44v1a3,3,0,0,0,2,2.816V52H18a1,1,0,0,0,0,2h1a6.006,6.006,0,0,0,6,6H35a6.006,6.006,0,0,0,6-6h1a1,1,0,0,0,0-2H41V47.816A3,3,0,0,0,43,45V44a3,3,0,0,0-2-2.815v-.214A9.155,9.155,0,0,1,43.9,34.36ZM31,2.049A17.958,17.958,0,0,1,48,20c0,.337-.032.667-.05,1H41.64a1,1,0,0,0-.661,1.751,3,3,0,1,1-3.958,0A1,1,0,0,0,36.36,21H31V16.581a5,5,0,1,0,0-9.162ZM12.076,18.368A17.9,17.9,0,0,1,29,2.052V9.36a1,1,0,0,0,1.751.661,3,3,0,1,1,0,3.958A1,1,0,0,0,29,14.64V21H25.58a5,5,0,1,0-9.16,0H12.039A18.384,18.384,0,0,1,12.076,18.368ZM17.579,33a17.879,17.879,0,0,1-5.316-10h6.1a1,1,0,0,0,.661-1.751,3,3,0,1,1,3.958,0A1,1,0,0,0,23.64,23H29v4.419a5,5,0,1,0,0,9.162V41H21v-.04A11.059,11.059,0,0,0,17.579,33ZM39,52H36a1,1,0,0,0,0,2h3a4,4,0,0,1-4,4H25a4,4,0,0,1-4-4h3a1,1,0,0,0,0-2H21V48H39Zm2-7a1,1,0,0,1-1,1H20a1,1,0,0,1-1-1V44a1,1,0,0,1,1-1H40a1,1,0,0,1,1,1Zm-2-4.029V41H31V34.64a1,1,0,0,0-1.751-.661,3,3,0,1,1,0-3.958A1,1,0,0,0,31,29.36V23h3.42a5,5,0,1,0,9.16,0h4.152a17.824,17.824,0,0,1-5.226,9.921A11.289,11.289,0,0,0,39,40.971Z"/><path d="M30,56a3,3,0,1,0-3-3A3,3,0,0,0,30,56Zm0-4a1,1,0,1,1-1,1A1,1,0,0,1,30,52Z"/></svg>
