<?xml version="1.0" encoding="UTF-8"?>
<svg xmlns="http://www.w3.org/2000/svg" id="Icons" viewBox="0 0 60 60" width="512" height="512" fill="currentColor"><path d="M3,57H16v1a2,2,0,0,0,2,2H42a2,2,0,0,0,2-2V57H57a3,3,0,0,0,3-3c0-6.979-1.3-17.778-1.311-17.9a7.056,7.056,0,0,0-5.162-5.859A7.178,7.178,0,0,0,55,25.88V24.12A7.069,7.069,0,0,0,48,17a6.9,6.9,0,0,0-4.957,2.093A7.173,7.173,0,0,0,41,24.12v1.76a7.179,7.179,0,0,0,2.046,5.031,6.922,6.922,0,0,0,3.576,1.952,6.036,6.036,0,0,0-.649,1.413l-.36,1.2A3.021,3.021,0,0,0,43.03,34H35.279a7.96,7.96,0,0,0-10.553,0H16.97a3.022,3.022,0,0,0-2.582,1.478l-.361-1.2a6,6,0,0,0-.649-1.413,6.923,6.923,0,0,0,3.579-1.956A7.173,7.173,0,0,0,19,25.88V24.12a7.179,7.179,0,0,0-2.046-5.031A6.9,6.9,0,0,0,12,17a7.069,7.069,0,0,0-7,7.12v1.76a7.178,7.178,0,0,0,1.473,4.362,7.064,7.064,0,0,0-5.164,5.871C1.3,36.222,0,47.021,0,54A3,3,0,0,0,3,57Zm8.053-11.532A4.982,4.982,0,0,0,14.638,47H20.5a3.482,3.482,0,0,0,2.528-1.092,8,8,0,0,0,1.18,1.6A7.932,7.932,0,0,0,20.776,50H9.7a.7.7,0,0,1-.7-.7.689.689,0,0,1,.092-.34Zm25.919.44A3.482,3.482,0,0,0,39.5,47h5.862a4.982,4.982,0,0,0,3.585-1.532l1.958,3.487A.694.694,0,0,1,51,49.3a.7.7,0,0,1-.7.7H39.23a8.073,8.073,0,0,0-3.441-2.491A8.006,8.006,0,0,0,36.972,45.908ZM38.635,53H21.35a5.712,5.712,0,0,1,.732-1.431A5.977,5.977,0,0,1,27,49h6A6.011,6.011,0,0,1,38.635,53ZM16.556,55H10a1,1,0,0,1-1-1V51.9a2.662,2.662,0,0,0,.7.1h9.886a7.731,7.731,0,0,0-.341,1.076A4,4,0,0,0,16.556,55ZM42,58H18V57a2,2,0,0,1,2-2H40a2,2,0,0,1,2,2Zm1.444-3a4,4,0,0,0-2.688-1.924A7.876,7.876,0,0,0,40.4,52h9.9a2.662,2.662,0,0,0,.7-.1V54a1,1,0,0,1-1,1ZM56.705,36.354C56.719,36.46,58,47.142,58,54a1,1,0,0,1-1,1H52.816A2.966,2.966,0,0,0,53,54V49.3a2.692,2.692,0,0,0-.348-1.32l-2.5-4.457,1.77-4.129a1,1,0,0,0-1.838-.788L48.12,43.182A3,3,0,0,1,45.362,45H39.5a1.5,1.5,0,0,1,0-3h4.012a2.982,2.982,0,0,0,2.874-2.138l1.5-5.011A3.974,3.974,0,0,1,51.72,32,5.045,5.045,0,0,1,56.705,36.354ZM43,25.88V24.12a5.174,5.174,0,0,1,1.474-3.629A4.906,4.906,0,0,1,48,19a5.067,5.067,0,0,1,5,5.12v1.76a5.128,5.128,0,0,1-2.132,4.188,5.941,5.941,0,0,0-2.394.9A4.445,4.445,0,0,1,48,31a4.907,4.907,0,0,1-3.523-1.487A5.181,5.181,0,0,1,43,25.88Zm.909,10.631.909,1.614-.348,1.162a1,1,0,0,1-.958.713H39.5a3.464,3.464,0,0,0-1.5.351V40a7.947,7.947,0,0,0-1.078-4H43.03A1,1,0,0,1,43.909,36.511ZM30,34a6,6,0,0,1,6,6v2a6,6,0,0,1-2.728,5.013c-.091,0-.18-.013-.272-.013H27c-.09,0-.177.013-.267.016A6,6,0,0,1,24,42V40A6.006,6.006,0,0,1,30,34ZM16.088,36.517A1.006,1.006,0,0,1,16.97,36h6.113A7.93,7.93,0,0,0,22,40v.351A3.464,3.464,0,0,0,20.5,40H16.488a1,1,0,0,1-.958-.712l-.348-1.162ZM7,24.12A5.067,5.067,0,0,1,12,19a4.907,4.907,0,0,1,3.523,1.487A5.181,5.181,0,0,1,17,24.12v1.76a5.174,5.174,0,0,1-1.474,3.629A4.906,4.906,0,0,1,12,31a4.407,4.407,0,0,1-.473-.035,5.951,5.951,0,0,0-2.395-.9A5.128,5.128,0,0,1,7,25.88ZM3.293,36.366A5.049,5.049,0,0,1,8.28,32a3.974,3.974,0,0,1,3.831,2.851l1.5,5.011A2.982,2.982,0,0,0,16.488,42H20.5a1.5,1.5,0,0,1,0,3H14.638a3,3,0,0,1-2.758-1.818L9.919,38.606a1,1,0,1,0-1.838.788l1.77,4.129L7.345,47.986A2.682,2.682,0,0,0,7,49.3V54a2.966,2.966,0,0,0,.184,1H3a1,1,0,0,1-1-1C2,47.142,3.281,36.46,3.293,36.366Z"/><path d="M22,21H38a2,2,0,0,0,2-2V12.163A2.889,2.889,0,0,0,41,9.97V7a3,3,0,0,0-3-3H34.9a5,5,0,0,0-9.8,0H22a3,3,0,0,0-3,3V9.97a2.891,2.891,0,0,0,1,2.194V19A2,2,0,0,0,22,21Zm0-2V13.15a17.841,17.841,0,0,0,5,.824V14a2,2,0,0,0,2,2h2a2,2,0,0,0,2-2v-.026a17.841,17.841,0,0,0,5-.824V19Zm7-5V12h2v2ZM30,2a3,3,0,0,1,2.816,2H27.184A3,3,0,0,1,30,2ZM21,7a1,1,0,0,1,1-1H38a1,1,0,0,1,1,1V9.97a.9.9,0,0,1-.467.8A13.3,13.3,0,0,1,33,11.976,2,2,0,0,0,31,10H29a2,2,0,0,0-2,1.976,13.307,13.307,0,0,1-5.536-1.2A.9.9,0,0,1,21,9.97Z"/></svg>
