<?xml version="1.0" encoding="UTF-8"?>
<svg xmlns="http://www.w3.org/2000/svg" id="Icons" viewBox="0 0 60 60" width="512" height="512" fill="currentColor"><path d="M48.485,31.515a11.994,11.994,0,1,0,0,16.97A12.011,12.011,0,0,0,48.485,31.515ZM47.071,47.071a10,10,0,1,1,0-14.142A10.011,10.011,0,0,1,47.071,47.071Z"/><path d="M58.271,51.875,53.69,48.257A15.919,15.919,0,0,0,53.6,31.586,26.309,26.309,0,0,0,54,27,27.011,27.011,0,0,0,17.669,1.659,2.993,2.993,0,0,0,15,0H3A3,3,0,0,0,0,3V9a3,3,0,0,0,3,3H4.568a26.949,26.949,0,0,0,5.478,36H10a3,3,0,0,0-3,3v6a3,3,0,0,0,3,3H22a3,3,0,0,0,3-3V53.918c.67.049,1.339.082,2,.082a26.309,26.309,0,0,0,4.586-.4,15.921,15.921,0,0,0,16.672.094l3.615,4.578a4.536,4.536,0,0,0,3.285,1.723c.095.006.189.009.281.009a4.552,4.552,0,0,0,4.552-4.842A4.535,4.535,0,0,0,58.271,51.875ZM52,27c0,.781-.036,1.558-.108,2.324-.192-.213-.374-.433-.579-.637a15.964,15.964,0,0,0-21.885-.673L28.414,27,45.36,10.054A24.9,24.9,0,0,1,52,27ZM28,2.025A24.906,24.906,0,0,1,43.946,8.64L28,24.586ZM3,10A1,1,0,0,1,2,9V3A1,1,0,0,1,3,2H15a1,1,0,0,1,1,1V9a1,1,0,0,1-1,1Zm4.031,2h6.555l5.707,5.707a1,1,0,0,0,1.414-1.414L16.174,11.76A3,3,0,0,0,18,9V3.675a24.87,24.87,0,0,1,8-1.651V26H2.041A24.629,24.629,0,0,1,7.031,12ZM23,57a1,1,0,0,1-1,1H10a1,1,0,0,1-1-1V51a1,1,0,0,1,1-1H22a1,1,0,0,1,1,1Zm2-5.1V51a3,3,0,0,0-3-3H17.136l3.633-4.359a1,1,0,0,0-1.538-1.282L14.531,48H13.464A24.811,24.811,0,0,1,2.032,28H26.586l1.428,1.428a15.964,15.964,0,0,0,.673,21.885c.2.2.415.378.623.566A25.192,25.192,0,0,1,25,51.9ZM40,54a14,14,0,1,1,9.9-4.1A13.905,13.905,0,0,1,40,54Zm17.255,3.251A2.592,2.592,0,0,1,55.282,58a2.5,2.5,0,0,1-1.837-.965l-3.537-4.479a14.848,14.848,0,0,0,2.643-2.643l4.482,3.539A2.5,2.5,0,0,1,58,55.282,2.575,2.575,0,0,1,57.255,57.251Z"/><path d="M9,5H5A1,1,0,0,0,5,7H9A1,1,0,0,0,9,5Z"/><path d="M13,5H12a1,1,0,0,0,0,2h1a1,1,0,0,0,0-2Z"/><path d="M16,53H12a1,1,0,0,0,0,2h4a1,1,0,0,0,0-2Z"/><path d="M20,53H19a1,1,0,0,0,0,2h1a1,1,0,0,0,0-2Z"/></svg>
