<?xml version="1.0" encoding="UTF-8"?>
<svg xmlns="http://www.w3.org/2000/svg" id="Icons" viewBox="0 0 60 60" width="512" height="512" fill="currentColor"><path d="M2,5.816V43a3,3,0,0,0,3,3H27v3.115l-7.729,5.43A3,3,0,0,0,21.011,60a2.983,2.983,0,0,0,1.715-.54l4.274-3V57a3,3,0,0,0,6,0v-.547l4.276,3.007A2.977,2.977,0,0,0,38.985,60a3,3,0,0,0,1.741-5.456L33,49.115V46H55a3,3,0,0,0,3-3V5.816A2.993,2.993,0,0,0,57,0H3A2.993,2.993,0,0,0,2,5.816ZM21.577,57.821a1,1,0,0,1-1.152-1.642L27,51.56v2.448Zm17.994-1.645a1.021,1.021,0,0,1,.429.835,1,1,0,0,1-1.575.812L33,54.008V51.56ZM31,57a1,1,0,0,1-2,0V46h2ZM56,43a1,1,0,0,1-1,1H5a1,1,0,0,1-1-1V6H56ZM3,2H57a1,1,0,0,1,0,2H3A1,1,0,0,1,3,2Z"/><path d="M10,18h4a3,3,0,0,0,3-3V11.081l1.625-1.3a1,1,0,1,0-1.25-1.562l-1.084.867A2.983,2.983,0,0,0,14,8H10a3,3,0,0,0-3,3v4A3,3,0,0,0,10,18ZM9,11a1,1,0,0,1,1-1h4a.985.985,0,0,1,.733.333L13.074,11.66l-.367-.367a1,1,0,0,0-1.414,1.414l1,1a1,1,0,0,0,1.332.074L15,12.681V15a1,1,0,0,1-1,1H10a1,1,0,0,1-1-1Z"/><path d="M10,30h4a3,3,0,0,0,3-3V23.081l1.625-1.3a1,1,0,0,0-1.25-1.562l-1.084.867A2.983,2.983,0,0,0,14,20H10a3,3,0,0,0-3,3v4A3,3,0,0,0,10,30ZM9,23a1,1,0,0,1,1-1h4a.985.985,0,0,1,.733.333L13.074,23.66l-.367-.367a1,1,0,0,0-1.414,1.414l1,1a1,1,0,0,0,1.332.074L15,24.681V27a1,1,0,0,1-1,1H10a1,1,0,0,1-1-1Z"/><path d="M10,42h4a3,3,0,0,0,3-3V35.081l1.625-1.3a1,1,0,0,0-1.25-1.562l-1.084.867A2.983,2.983,0,0,0,14,32H10a3,3,0,0,0-3,3v4A3,3,0,0,0,10,42ZM9,35a1,1,0,0,1,1-1h4a.985.985,0,0,1,.733.333L13.074,35.66l-.367-.367a1,1,0,0,0-1.414,1.414l1,1a1,1,0,0,0,1.332.074L15,36.681V39a1,1,0,0,1-1,1H10a1,1,0,0,1-1-1Z"/><path d="M23,12H51a1,1,0,0,0,0-2H23a1,1,0,0,0,0,2Z"/><path d="M23,16H42a1,1,0,0,0,0-2H23a1,1,0,0,0,0,2Z"/><path d="M23,24H51a1,1,0,0,0,0-2H23a1,1,0,0,0,0,2Z"/><path d="M23,28H42a1,1,0,0,0,0-2H23a1,1,0,0,0,0,2Z"/><path d="M23,36H51a1,1,0,0,0,0-2H23a1,1,0,0,0,0,2Z"/><path d="M23,40H42a1,1,0,0,0,0-2H23a1,1,0,0,0,0,2Z"/></svg>
