<?xml version="1.0" encoding="UTF-8"?>
<svg xmlns="http://www.w3.org/2000/svg" id="Icons" viewBox="0 0 60 60" width="512" height="512" fill="currentColor"><path d="M23,6h2a1,1,0,0,0,0-2H23a1,1,0,0,0,0,2Z"/><path d="M35,6h2a1,1,0,0,0,0-2H35a1,1,0,0,0,0,2Z"/><path d="M51,11.4V7a5.006,5.006,0,0,0-5-5H41.816A3,3,0,0,0,39,0H21a3,3,0,0,0-2.816,2H14A5.006,5.006,0,0,0,9,7V55a5.006,5.006,0,0,0,5,5H46a5.006,5.006,0,0,0,5-5V50.889A4.6,4.6,0,0,0,52.6,46.921L51.359,34.513A11.986,11.986,0,0,0,51,11.4ZM42,4h4a3,3,0,0,1,3,3v4.051c-.331-.028-.662-.051-1-.051s-.669.023-1,.051V8a2,2,0,0,0-2-2H42ZM20,3a1,1,0,0,1,1-1H39a1,1,0,0,1,1,1V7a1,1,0,0,1-1,1H21a1,1,0,0,1-1-1Zm1,7H39a3,3,0,0,0,2.816-2H45V11.4a11.986,11.986,0,0,0-.359,23.118L43.405,46.919A4.606,4.606,0,0,0,45,50.889V54H15V8h3.184A3,3,0,0,0,21,10ZM49,55a3,3,0,0,1-3,3H14a3,3,0,0,1-3-3V7a3,3,0,0,1,3-3h4V6H15a2,2,0,0,0-2,2V54a2,2,0,0,0,2,2H45a2,2,0,0,0,2-2V51.88a4.227,4.227,0,0,0,2,0Zm.445-5.432a2.676,2.676,0,0,1-2.89,0A2.619,2.619,0,0,1,45.4,47.119l1.215-12.206a11.132,11.132,0,0,0,2.778,0L50.6,47.121A2.617,2.617,0,0,1,49.445,49.568ZM48,33A10,10,0,1,1,58,23,10.011,10.011,0,0,1,48,33Z"/><path d="M48,15a8,8,0,1,0,8,8A8.009,8.009,0,0,0,48,15Zm0,14a6,6,0,1,1,6-6A6.006,6.006,0,0,1,48,29Z"/><path d="M20,20h2a3,3,0,0,0,3-3V15a3,3,0,0,0-3-3H20a3,3,0,0,0-3,3v2A3,3,0,0,0,20,20Zm-1-5a1,1,0,0,1,1-1h2a1,1,0,0,1,1,1v2a1,1,0,0,1-1,1H20a1,1,0,0,1-1-1Z"/><path d="M28,15h6a1,1,0,0,0,0-2H28a1,1,0,0,0,0,2Z"/><path d="M28,19h3a1,1,0,0,0,0-2H28a1,1,0,0,0,0,2Z"/><path d="M20,30h2a3,3,0,0,0,3-3V25a3,3,0,0,0-3-3H20a3,3,0,0,0-3,3v2A3,3,0,0,0,20,30Zm-1-5a1,1,0,0,1,1-1h2a1,1,0,0,1,1,1v2a1,1,0,0,1-1,1H20a1,1,0,0,1-1-1Z"/><path d="M28,29h6a1,1,0,0,0,0-2H28a1,1,0,0,0,0,2Z"/><path d="M28,25h3a1,1,0,0,0,0-2H28a1,1,0,0,0,0,2Z"/><path d="M20,40h2a3,3,0,0,0,3-3V35a3,3,0,0,0-3-3H20a3,3,0,0,0-3,3v2A3,3,0,0,0,20,40Zm-1-5a1,1,0,0,1,1-1h2a1,1,0,0,1,1,1v2a1,1,0,0,1-1,1H20a1,1,0,0,1-1-1Z"/><path d="M28,39H38a1,1,0,0,0,0-2H28a1,1,0,0,0,0,2Z"/><path d="M28,35H38a1,1,0,0,0,0-2H28a1,1,0,0,0,0,2Z"/><path d="M20,50h2a3,3,0,0,0,3-3V45a3,3,0,0,0-3-3H20a3,3,0,0,0-3,3v2A3,3,0,0,0,20,50Zm-1-5a1,1,0,0,1,1-1h2a1,1,0,0,1,1,1v2a1,1,0,0,1-1,1H20a1,1,0,0,1-1-1Z"/><path d="M28,49H40a1,1,0,0,0,0-2H28a1,1,0,0,0,0,2Z"/><path d="M28,45H40a1,1,0,0,0,0-2H28a1,1,0,0,0,0,2Z"/></svg>
