<svg height="512pt" viewBox="0 0 512 512" width="512pt" xmlns="http://www.w3.org/2000/svg" fill="currentColor"><path d="m326.765625 296.167969c3.332031 3.328125 8.734375 3.328125 12.066406 0l17.066407-17.066407c.796874-.796874 1.425781-1.742187 1.851562-2.785156.863281-2.085937.863281-4.429687 0-6.519531-.425781-1.039063-1.054688-1.984375-1.851562-2.78125l-17.066407-17.066406c-3.347656-3.234375-8.667969-3.1875-11.960937.105469-3.292969 3.289062-3.339844 8.613281-.105469 11.960937l2.5 2.5h-30.597656c-4.714844 0-8.535157 3.820313-8.535157 8.535156 0 4.710938 3.820313 8.53125 8.535157 8.53125h30.597656l-2.5 2.5c-1.605469 1.601563-2.503906 3.777344-2.503906 6.042969s.898437 4.441406 2.503906 6.042969zm0 0"/><path d="m25.601562 443.734375h298.664063c4.714844 0 8.535156-3.820313 8.535156-8.535156 0-4.710938-3.820312-8.53125-8.535156-8.53125h-298.664063c-4.714843 0-8.535156-3.820313-8.535156-8.535157v-51.199218h290.132813c4.714843 0 8.535156-3.820313 8.535156-8.535156 0-4.710938-3.820313-8.53125-8.535156-8.53125h-290.132813v-256h392.535156v153.597656c0 4.714844 3.820313 8.535156 8.53125 8.535156 4.714844 0 8.535157-3.820312 8.535157-8.535156v-221.863282c0-14.140624-11.460938-25.601562-25.601563-25.601562h-375.464844c-14.140624 0-25.601562 11.460938-25.601562 25.601562v392.53125c0 14.140626 11.460938 25.601563 25.601562 25.601563zm0-426.667969h375.464844c4.714844 0 8.535156 3.820313 8.535156 8.535156v51.199219h-392.535156v-51.199219c0-4.714843 3.820313-8.535156 8.535156-8.535156zm0 0"/><path d="m486.398438 307.199219h-26.453126c-4.035156-19.882813-21.519531-34.175781-41.8125-34.175781-20.289062 0-37.773437 14.292968-41.8125 34.175781h-26.453124c-14.140626 0-25.601563 11.460937-25.601563 25.601562 0 14.136719 11.460937 25.597657 25.601563 25.597657v128c0 14.140624 11.460937 25.601562 25.597656 25.601562h85.335937c14.136719 0 25.597657-11.460938 25.597657-25.601562v-128c14.140624 0 25.601562-11.460938 25.601562-25.597657 0-14.140625-11.460938-25.601562-25.601562-25.601562zm-68.265626-17.066407c10.847657.015626 20.511719 6.847657 24.140626 17.066407h-48.28125c3.628906-10.21875 13.296874-17.050781 24.140624-17.066407zm51.199219 196.265626c0 4.714843-3.820312 8.535156-8.53125 8.535156h-85.335937c-4.710938 0-8.53125-3.820313-8.53125-8.535156v-128h17.066406v110.933593c0 4.714844 3.820312 8.535157 8.535156 8.535157 4.710938 0 8.53125-3.820313 8.53125-8.535157v-110.933593h34.132813v110.933593c0 4.714844 3.820312 8.535157 8.535156 8.535157 4.710937 0 8.53125-3.820313 8.53125-8.535157v-110.933593h17.066406zm17.066407-145.066407h-136.53125c-4.714844 0-8.535157-3.820312-8.535157-8.53125 0-4.714843 3.820313-8.535156 8.535157-8.535156h136.53125c4.714843 0 8.535156 3.820313 8.535156 8.535156 0 4.710938-3.820313 8.53125-8.535156 8.53125zm0 0"/><path d="m51.199219 42.667969c0 4.710937-3.820313 8.53125-8.53125 8.53125-4.714844 0-8.535157-3.820313-8.535157-8.53125 0-4.714844 3.820313-8.535157 8.535157-8.535157 4.710937 0 8.53125 3.820313 8.53125 8.535157zm0 0"/><path d="m85.332031 42.667969c0 4.710937-3.820312 8.53125-8.53125 8.53125-4.714843 0-8.535156-3.820313-8.535156-8.53125 0-4.714844 3.820313-8.535157 8.535156-8.535157 4.710938 0 8.53125 3.820313 8.53125 8.535157zm0 0"/><path d="m119.464844 42.667969c0 4.710937-3.820313 8.53125-8.53125 8.53125-4.714844 0-8.535156-3.820313-8.535156-8.53125 0-4.714844 3.820312-8.535157 8.535156-8.535157 4.710937 0 8.53125 3.820313 8.53125 8.535157zm0 0"/><path d="m136.535156 187.734375c0 4.710937-3.824218 8.53125-8.535156 8.53125s-8.535156-3.820313-8.535156-8.53125c0-4.714844 3.824218-8.535156 8.535156-8.535156s8.535156 3.820312 8.535156 8.535156zm0 0"/><path d="m82.832031 232.898438c-3.332031-3.328126-8.734375-3.328126-12.066406 0l-34.132813 34.136718c-3.332031 3.332032-3.332031 8.730469 0 12.066406l34.132813 34.132813c3.347656 3.234375 8.671875 3.1875 11.964844-.105469 3.289062-3.292968 3.335937-8.613281.101562-11.960937l-28.097656-28.101563 28.097656-28.101562c3.332031-3.332032 3.332031-8.730469 0-12.066406zm0 0"/><path d="m173.167969 313.234375c3.332031 3.328125 8.734375 3.328125 12.066406 0l34.132813-34.132813c3.332031-3.335937 3.332031-8.734374 0-12.066406l-34.132813-34.136718c-3.347656-3.230469-8.671875-3.1875-11.964844.105468-3.289062 3.292969-3.335937 8.613282-.101562 11.960938l28.097656 28.101562-28.097656 28.101563c-3.332031 3.332031-3.332031 8.734375 0 12.066406zm0 0"/><path d="m108.238281 332.355469c4.464844 1.488281 9.292969-.925781 10.785157-5.390625l34.132812-102.402344c1.488281-4.476562-.933594-9.3125-5.410156-10.800781-4.476563-1.492188-9.3125.929687-10.804688 5.410156l-34.132812 102.398437c-.710938 2.148438-.539063 4.496094.480468 6.519532 1.015626 2.019531 2.796876 3.558594 4.949219 4.265625zm0 0"/><path d="m247.464844 264.535156c-4.710938 0-8.53125 3.820313-8.53125 8.53125 0 4.714844 3.820312 8.535156 8.53125 8.535156h17.070312c4.710938 0 8.53125-3.820312 8.53125-8.535156 0-4.710937-3.820312-8.53125-8.53125-8.53125zm0 0"/><path d="m136.535156 153.601562v-34.136718c0-4.710938-3.824218-8.53125-8.535156-8.53125s-8.535156 3.820312-8.535156 8.53125v34.136718c0 4.710938 3.824218 8.53125 8.535156 8.53125s8.535156-3.820312 8.535156-8.53125zm0 0"/><path d="m102.398438 187.734375c0 4.710937-3.820313 8.53125-8.53125 8.53125-4.714844 0-8.535157-3.820313-8.535157-8.53125 0-4.714844 3.820313-8.535156 8.535157-8.535156 4.710937 0 8.53125 3.820312 8.53125 8.535156zm0 0"/><path d="m102.398438 119.464844c0-4.710938-3.820313-8.53125-8.53125-8.53125-4.714844 0-8.535157 3.820312-8.535157 8.53125v34.136718c0 4.710938 3.820313 8.53125 8.535157 8.53125 4.710937 0 8.53125-3.820312 8.53125-8.53125zm0 0"/><path d="m170.667969 187.734375c0 4.710937-3.820313 8.53125-8.535157 8.53125-4.710937 0-8.53125-3.820313-8.53125-8.53125 0-4.714844 3.820313-8.535156 8.53125-8.535156 4.714844 0 8.535157 3.820312 8.535157 8.535156zm0 0"/><path d="m170.667969 153.601562v-34.136718c0-4.710938-3.820313-8.53125-8.535157-8.53125-4.710937 0-8.53125 3.820312-8.53125 8.53125v34.136718c0 4.710938 3.820313 8.53125 8.53125 8.53125 4.714844 0 8.535157-3.820312 8.535157-8.53125zm0 0"/><path d="m384 110.933594h-170.667969c-4.710937 0-8.53125 3.820312-8.53125 8.53125 0 4.714844 3.820313 8.535156 8.53125 8.535156h170.667969c4.710938 0 8.535156-3.820312 8.535156-8.535156 0-4.710938-3.824218-8.53125-8.535156-8.53125zm0 0"/><path d="m384 145.066406h-93.867188c-4.710937 0-8.53125 3.820313-8.53125 8.535156 0 4.710938 3.820313 8.53125 8.53125 8.53125h93.867188c4.710938 0 8.535156-3.820312 8.535156-8.53125 0-4.714843-3.824218-8.535156-8.535156-8.535156zm0 0"/><path d="m384 179.199219h-128c-4.710938 0-8.535156 3.820312-8.535156 8.535156 0 4.710937 3.824218 8.53125 8.535156 8.53125h128c4.710938 0 8.535156-3.820313 8.535156-8.53125 0-4.714844-3.824218-8.535156-8.535156-8.535156zm0 0"/><path d="m384 230.398438c4.710938 0 8.535156-3.820313 8.535156-8.53125 0-4.714844-3.824218-8.535157-8.535156-8.535157h-25.601562c-4.710938 0-8.53125 3.820313-8.53125 8.535157 0 4.710937 3.820312 8.53125 8.53125 8.53125zm0 0"/></svg>
