<?xml version="1.0" encoding="UTF-8"?>
<svg xmlns="http://www.w3.org/2000/svg" viewBox="0 0 60 60" width="512" height="512" fill="currentColor"><g id="Icons"><path d="M57,0H3A3.1,3.1,0,0,0,0,3.182V46.818A3.1,3.1,0,0,0,3,50H20.382l-2,4H15a3,3,0,0,0,0,6H45a3,3,0,0,0,0-6H41.618l-2-4H57a3.1,3.1,0,0,0,3-3.182V3.182A3.1,3.1,0,0,0,57,0ZM3,2H57a1.117,1.117,0,0,1,1,1.182V42H2V3.182A1.117,1.117,0,0,1,3,2ZM46,57a1,1,0,0,1-1,1H15a1,1,0,0,1,0-2H45A1,1,0,0,1,46,57Zm-6.618-3H20.618l2-4H37.382ZM57,48H3a1.117,1.117,0,0,1-1-1.182V44H58v2.818A1.117,1.117,0,0,1,57,48Z"/><path d="M12.091,38.125a11.058,11.058,0,0,0,2.865.38,10.935,10.935,0,0,0,5.482-1.479c.2-.113.376-.241.562-.364.186.123.367.251.562.364a10.935,10.935,0,0,0,5.483,1.479,11.051,11.051,0,0,0,2.864-.38,11,11,0,0,0,2.653-20.151c-.2-.113-.4-.207-.6-.307.014-.222.034-.442.034-.667a11,11,0,0,0-22,0c0,.225.02.445.034.667-.2.1-.4.194-.6.307a11,11,0,0,0,2.653,20.151Zm4.335-13.388a9.014,9.014,0,0,1-4.213-5.811,8.93,8.93,0,0,1,5.055-.119,9.026,9.026,0,0,1,2.082.857,10.782,10.782,0,0,0-2.924,5.073ZM19.269,23A8.985,8.985,0,0,1,21,20.849a8.984,8.984,0,0,1,2.727,4.726,8.961,8.961,0,0,1-5.454,0A8.96,8.96,0,0,1,19.269,23Zm5.2-1a11.04,11.04,0,0,0-1.814-2.336A8.951,8.951,0,0,1,27.076,18.5a8.891,8.891,0,0,1,2.708.441,9.015,9.015,0,0,1-4.21,5.8A10.946,10.946,0,0,0,24.464,22ZM21,28a10.949,10.949,0,0,0,2.925-.407A9.02,9.02,0,0,1,21,34.146a9.02,9.02,0,0,1-2.925-6.553A10.949,10.949,0,0,0,21,28Zm13.856,4a8.992,8.992,0,0,1-12.215,3.334,11.026,11.026,0,0,0,3.263-8.5,11.028,11.028,0,0,0,5.733-7.078A9.009,9.009,0,0,1,34.856,32ZM21,8a9.007,9.007,0,0,1,9,8.907,10.928,10.928,0,0,0-9,1.42,10.928,10.928,0,0,0-8.995-1.42A9.006,9.006,0,0,1,21,8ZM10.363,19.754A11.028,11.028,0,0,0,16.1,26.832a11.028,11.028,0,0,0,3.263,8.5,9,9,0,0,1-9-15.581Z"/><path d="M43,36H53a2,2,0,0,0,2-2V30a2,2,0,0,0-2-2H43a2,2,0,0,0-2,2v4A2,2,0,0,0,43,36Zm10-2H49V30h4ZM43,30h4v4H43Z"/><path d="M43,26H53a2,2,0,0,0,2-2V20a2,2,0,0,0-2-2H43a2,2,0,0,0-2,2v4A2,2,0,0,0,43,26Zm10-2H49V20h4ZM43,20h4v4H43Z"/><path d="M43,16H53a2,2,0,0,0,2-2V10a2,2,0,0,0-2-2H43a2,2,0,0,0-2,2v4A2,2,0,0,0,43,16Zm10-2H49V10h4ZM43,10h4v4H43Z"/></g></svg>
