<?xml version="1.0" encoding="UTF-8"?>
<svg xmlns="http://www.w3.org/2000/svg" id="Icons" viewBox="0 0 60 60" width="512" height="512" fill="currentColor"><path d="M55,0H5A5.006,5.006,0,0,0,0,5V45a5.006,5.006,0,0,0,5,5H21v3a4,4,0,0,0-4,4v1a2,2,0,0,0,2,2H50a5.006,5.006,0,0,0,5-5V50a5.006,5.006,0,0,0,5-5V5A5.006,5.006,0,0,0,55,0ZM5,48a3,3,0,0,1-3-3V44H29v4H5ZM19.4,35.328l-.977-1.367a.315.315,0,0,1,.021-.394l2.105-2.1a.313.313,0,0,1,.406-.039l1.369.978a2.3,2.3,0,0,0,3.611-1.5l.269-1.654A.291.291,0,0,1,26.5,29H29v5.086A6.931,6.931,0,0,0,28,34a7.009,7.009,0,0,0-7,7,6.931,6.931,0,0,0,.086,1H16V39.5a.291.291,0,0,1,.251-.293l1.655-.27a2.3,2.3,0,0,0,1.5-3.609Zm9.6.786V42H23.114A4.827,4.827,0,0,1,23,41a5.006,5.006,0,0,1,5-5A4.827,4.827,0,0,1,29,36.114ZM29,50v3H23V50ZM19,58V57a2,2,0,0,1,2-2h8a4.948,4.948,0,0,0,1.026,3Zm34-3a3,3,0,0,1-3,3H34a3,3,0,0,1-3-3V52H53Zm0-5H31V40H53Zm0-12H31V20H53Zm0-20H31V17a3,3,0,0,1,3-3H50a3,3,0,0,1,3,3Zm5,27a3,3,0,0,1-3,3V44h3Zm0-3H55V17a5.006,5.006,0,0,0-5-5H34a5.006,5.006,0,0,0-5,5V27H26.5a2.286,2.286,0,0,0-2.268,1.929l-.268,1.645a.3.3,0,0,1-.188.236.288.288,0,0,1-.284-.034L22.119,29.8a2.327,2.327,0,0,0-2.966.238l-2.135,2.136a2.324,2.324,0,0,0-.221,2.953l.98,1.371a.283.283,0,0,1,.033.283.3.3,0,0,1-.231.187l-1.646.269A2.285,2.285,0,0,0,14,39.5V42H2V5A3,3,0,0,1,5,2H55a3,3,0,0,1,3,3Z"/><path d="M25.326,12.874l-1.272-.21.746-1.047a2,2,0,0,0-.2-2.584L22.958,7.4a2,2,0,0,0-2.568-.2l-1.054.75-.21-1.272A1.994,1.994,0,0,0,17.153,5H14.847a1.994,1.994,0,0,0-1.973,1.674l-.21,1.272L11.617,7.2a2,2,0,0,0-2.584.2L7.4,9.042a2,2,0,0,0-.2,2.568l.75,1.054-1.272.21A1.994,1.994,0,0,0,5,14.847v2.306a1.994,1.994,0,0,0,1.674,1.973l1.272.21L7.2,20.383a2,2,0,0,0,.2,2.584l1.639,1.638a2,2,0,0,0,2.568.2l1.054-.75.21,1.272A1.994,1.994,0,0,0,14.847,27h2.306a1.994,1.994,0,0,0,1.973-1.674l.21-1.272,1.047.746a2,2,0,0,0,2.584-.2l1.638-1.639a2,2,0,0,0,.2-2.568l-.75-1.054,1.272-.21A1.994,1.994,0,0,0,27,17.153V14.847A1.994,1.994,0,0,0,25.326,12.874ZM25,17.153l-1.271.21a2,2,0,0,0-1.3,3.133l.758,1.057L21.55,23.176,20.5,22.425a2,2,0,0,0-3.133,1.3L17.153,25H14.847l-.21-1.271a2,2,0,0,0-3.133-1.3l-1.057.758L8.824,21.55,9.575,20.5a2,2,0,0,0-1.3-3.133L7,17.153V14.847l1.271-.21a2,2,0,0,0,1.3-3.133l-.758-1.057L10.45,8.824l1.054.751a2,2,0,0,0,3.133-1.3L14.847,7h2.306l.21,1.271a2,2,0,0,0,3.133,1.3l1.057-.758,1.623,1.633L22.425,11.5a2,2,0,0,0,1.3,3.133L25,14.848Z"/><path d="M16,11a5,5,0,1,0,5,5A5.006,5.006,0,0,0,16,11Zm0,8a3,3,0,1,1,3-3A3,3,0,0,1,16,19Z"/><path d="M40,56h4a1,1,0,0,0,0-2H40a1,1,0,0,0,0,2Z"/><path d="M34,44h2a1,1,0,0,0,0-2H34a1,1,0,0,0,0,2Z"/><path d="M40,44H50a1,1,0,0,0,0-2H40a1,1,0,0,0,0,2Z"/><path d="M34,48h2a1,1,0,0,0,0-2H34a1,1,0,0,0,0,2Z"/><path d="M40,48H50a1,1,0,0,0,0-2H40a1,1,0,0,0,0,2Z"/><path d="M42,36a7,7,0,1,0-7-7A7.009,7.009,0,0,0,42,36Zm0-12a5,5,0,1,1-5,5A5.006,5.006,0,0,1,42,24Z"/><path d="M40.293,31.707A1,1,0,0,0,41,32l.071,0a1,1,0,0,0,.729-.4l3-4a1,1,0,1,0-1.6-1.2l-2.308,3.078-.185-.185a1,1,0,0,0-1.414,1.414Z"/></svg>
