<?xml version="1.0" encoding="UTF-8"?>
<svg xmlns="http://www.w3.org/2000/svg" id="Icons" viewBox="0 0 60 60" width="512" height="512" fill="currentColor"><path d="M55,0H5A5.006,5.006,0,0,0,0,5V45a5.006,5.006,0,0,0,5,5H21v3a4,4,0,0,0-4,4v1a2,2,0,0,0,2,2H41a2,2,0,0,0,2-2V57a4,4,0,0,0-4-4V50H55a5.006,5.006,0,0,0,5-5V5A5.006,5.006,0,0,0,55,0ZM41,57l0,1H19V57a2,2,0,0,1,2-2H39A2,2,0,0,1,41,57ZM23,53V50H37v3Zm35-8a3,3,0,0,1-3,3H5a3,3,0,0,1-3-3V44H58Zm0-3H2V5A3,3,0,0,1,5,2H55a3,3,0,0,1,3,3Z"/><path d="M44.126,30.589l-7.44-5.873a12,12,0,1,0-4.83,4.829l5.873,7.44a4.557,4.557,0,0,0,3.307,1.726c.09.005.179.008.269.008a4.554,4.554,0,0,0,2.821-8.13ZM19.069,26.071a10,10,0,1,1,14.143,0A10.011,10.011,0,0,1,19.069,26.071Zm24.042,9.9a2.555,2.555,0,0,1-3.811-.224l-5.767-7.3a11.826,11.826,0,0,0,1.093-.957,12.1,12.1,0,0,0,.957-1.092l7.305,5.766a2.557,2.557,0,0,1,.223,3.812Z"/><path d="M31.8,13.343a8,8,0,1,0,0,11.314A8.01,8.01,0,0,0,31.8,13.343Zm-1.414,9.9a6,6,0,1,1,0-8.486A6.008,6.008,0,0,1,30.383,23.243Z"/><path d="M7,30H6a1,1,0,0,0,0,2H7a1,1,0,0,0,0-2Z"/><path d="M16,30H11a1,1,0,0,0,0,2h5a1,1,0,0,0,0-2Z"/><path d="M7,34H6a1,1,0,0,0,0,2H7a1,1,0,0,0,0-2Z"/><path d="M10,35a1,1,0,0,0,1,1H21a1,1,0,0,0,0-2H11A1,1,0,0,0,10,35Z"/><path d="M6,11H7A1,1,0,0,0,7,9H6a1,1,0,0,0,0,2Z"/><path d="M11,11h3a1,1,0,0,0,0-2H11a1,1,0,0,0,0,2Z"/><path d="M6,7H7A1,1,0,0,0,7,5H6A1,1,0,0,0,6,7Z"/><path d="M11,7h6a1,1,0,0,0,0-2H11a1,1,0,0,0,0,2Z"/><path d="M7,38H6a1,1,0,0,0,0,2H7a1,1,0,0,0,0-2Z"/><path d="M29,38H11a1,1,0,0,0,0,2H29a1,1,0,0,0,0-2Z"/><path d="M55,10H53.91A6.008,6.008,0,0,0,49,5.09V4a1,1,0,0,0-2,0V5.09A6.008,6.008,0,0,0,42.09,10H41a1,1,0,0,0,0,2h1.09A6.008,6.008,0,0,0,47,16.91V18a1,1,0,0,0,2,0V16.91A6.008,6.008,0,0,0,53.91,12H55a1,1,0,0,0,0-2Zm-4,2h.858A3.991,3.991,0,0,1,49,14.858V14a1,1,0,0,0-2,0v.858A3.991,3.991,0,0,1,44.142,12H45a1,1,0,0,0,0-2h-.858A3.991,3.991,0,0,1,47,7.142V8a1,1,0,0,0,2,0V7.142A3.991,3.991,0,0,1,51.858,10H51a1,1,0,0,0,0,2Z"/><path d="M40,23h2a3,3,0,0,0,3-3V18a1,1,0,0,0-2,0v2a1,1,0,0,1-1,1H40a1,1,0,0,0,0,2Z"/><path d="M12,24a1,1,0,0,0,0-2H10a3,3,0,0,0-3,3v2a1,1,0,0,0,2,0V25a1,1,0,0,1,1-1Z"/><path d="M52,24a3,3,0,0,0-3,3V38a2,2,0,0,0,2,2h2a2,2,0,0,0,2-2V27A3,3,0,0,0,52,24Zm1,14H51V31h2Zm0-9H51V27a1,1,0,0,1,2,0Z"/></svg>
