<svg height="512pt" viewBox="0 0 512 512.00215" width="512pt" xmlns="http://www.w3.org/2000/svg" fill="currentColor"><path d="m290.132812 145.066406c-64.675781-.152344-121.640624 42.535156-139.660156 104.652344-18.019531 62.117188 7.261719 128.660156 61.980469 163.144531 54.722656 34.484375 125.660156 28.574219 173.921875-14.484375.058594.058594.066406.136719.125.1875l13.808594 13.808594-9.847656 9.847656c-1.609376 1.609375-2.507813 3.800782-2.496094 6.082032.015625 2.277343.941406 4.457031 2.574218 6.050781l70.476563 68.898437c5.601563 5.601563 13.195313 8.75 21.117187 8.75 7.921876 0 15.519532-3.148437 21.121094-8.75 11.652344-11.703125 11.625-30.632812-.066406-42.300781l-70.546875-68.964844c-3.339844-3.269531-8.691406-3.242187-11.996094.058594l-8.261719 8.261719-13.808593-13.808594c-.050781-.058594-.125-.066406-.1875-.128906 38.074219-42.609375 47.527343-103.625 24.136719-155.761719-23.386719-52.136719-75.246094-85.644531-132.390626-85.542969zm136.601563 265.019532 64.453125 62.992187c2.402344 2.402344 3.753906 5.660156 3.753906 9.054687 0 3.398438-1.351562 6.652344-3.753906 9.054688-5.082031 4.878906-13.121094 4.851562-18.167969-.070312l-64.375-62.921876zm-136.601563 8.046874c-70.691406 0-128-57.308593-128-128 0-70.691406 57.308594-128 128-128 70.695313 0 128 57.308594 128 128-.078124 70.660157-57.339843 127.921876-128 128zm0 0"/><path d="m290.132812 179.199219c-43.5625-.066407-83.121093 25.410156-101.082031 65.101562-17.957031 39.691407-10.984375 86.222657 17.824219 118.902344.066406.078125.09375.1875.160156.265625.359375.402344.761719.742188 1.128906 1.144531 2.011719 2.21875 4.109376 4.355469 6.289063 6.40625.671875.625 1.355469 1.238281 2.039063 1.84375 2.199218 1.964844 4.472656 3.824219 6.828124 5.605469.699219.53125 1.390626 1.066406 2.105469 1.582031 2.445313 1.761719 4.96875 3.421875 7.570313 4.980469.65625.402344 1.296875.8125 1.960937 1.195312 2.75 1.585938 5.582031 3.039063 8.484375 4.386719.542969.257813 1.074219.539063 1.628906.785157 3.054688 1.367187 6.1875 2.558593 9.386719 3.667968.433594.144532.851563.335938 1.296875.480469 3.257813 1.058594 6.585938 1.953125 9.964844 2.722656.410156.09375.804688.21875 1.214844.3125 3.328125.710938 6.714844 1.238281 10.144531 1.640625.46875.058594.921875.160156 1.382813.210938 7.769531.84375 15.609374.84375 23.382812 0 .460938-.050782.910156-.152344 1.378906-.210938 3.414063-.402344 6.828125-.929687 10.148438-1.640625.410156-.09375.800781-.21875 1.210937-.3125 3.414063-.769531 6.707031-1.707031 9.96875-2.722656.433594-.144531.851563-.335937 1.296875-.480469 3.191406-1.089844 6.320313-2.300781 9.386719-3.667968.554687-.246094 1.082031-.527344 1.628906-.785157 2.902344-1.347656 5.734375-2.800781 8.480469-4.386719.667969-.382812 1.308594-.792968 1.964844-1.195312 2.59375-1.558594 5.117187-3.21875 7.566406-4.980469.71875-.515625 1.410156-1.050781 2.109375-1.582031 2.347656-1.78125 4.617187-3.640625 6.828125-5.605469.679688-.605469 1.363281-1.21875 2.039062-1.84375 2.183594-2.046875 4.28125-4.183593 6.289063-6.40625.367187-.402343.765625-.742187 1.125-1.144531.070313-.078125.09375-.1875.164063-.265625 28.808593-32.683594 35.78125-79.222656 17.8125-118.917969-17.964844-39.695312-57.535157-65.164062-101.109376-65.085937zm0 17.066406c33.617188-.0625 64.691407 17.886719 81.425782 47.039063 16.738281 29.152343 16.578125 65.035156-.425782 94.035156-7.453124-19.113282-24.054687-33.164063-44.132812-37.359375 19.453125-20.183594 19.058594-52.257813-.882812-71.957031-19.945313-19.699219-52.019532-19.699219-71.964844 0-19.941406 19.699218-20.335938 51.773437-.882813 71.957031-20.078125 4.195312-36.679687 18.246093-44.132812 37.359375-17.003907-29-17.164063-64.882813-.429688-94.035156 16.738281-29.152344 47.8125-47.101563 81.425781-47.039063zm67.695313 158.722656c-2.0625 2.136719-4.214844 4.175781-6.449219 6.117188l-.351562.316406c-35.019532 30.09375-86.769532 30.09375-121.785156 0l-.351563-.316406c-2.234375-1.933594-4.386719-3.972657-6.449219-6.117188l-.230468-.257812c2.457031-22.242188 21.285156-39.058594 43.664062-38.996094h48.519531c22.382813-.0625 41.210938 16.757813 43.664063 39.003906zm-67.695313-56.320312c-18.851562 0-34.132812-15.285157-34.132812-34.132813 0-18.851562 15.28125-34.136718 34.132812-34.136718 18.851563 0 34.136719 15.285156 34.136719 34.136718 0 18.847656-15.285156 34.132813-34.136719 34.132813zm0 0"/><path d="m20.054688 153.601562h31.144531v8.53125c0 4.714844 3.824219 8.535157 8.535156 8.535157s8.535156-3.820313 8.535156-8.535157v-8.53125h31.144531c1.355469 0 2.707032-.136718 4.035157-.410156 9.320312-1.925781 16.007812-10.128906 16.019531-19.644531v-48.214844h17.066406c4.710938 0 8.53125-3.820312 8.53125-8.53125 0-4.714843-3.820312-8.535156-8.53125-8.535156h-17.066406v-42.664063c0-14.140624-11.460938-25.601562-25.601562-25.601562h-68.265626c-14.140624 0-25.601562 11.460938-25.601562 25.601562v107.945313c.0117188 11.070313 8.984375 20.042969 20.054688 20.054687zm79.359374-17.066406h-79.359374c-.796876-.003906-1.558594-.324218-2.117188-.886718-.5625-.566407-.875-1.332032-.871094-2.128907.023438-17.175781 13.945313-31.097656 31.121094-31.121093h23.09375c17.1875.023437 31.109375 13.960937 31.121094 31.148437 0 .792969-.316406 1.550781-.875 2.113281-.5625.558594-1.320313.875-2.113282.875zm-39.679687-51.203125c-9.425781 0-17.066406-7.640625-17.066406-17.066406s7.640625-17.066406 17.066406-17.066406 17.066406 7.640625 17.066406 17.066406c0 4.527344-1.796875 8.867187-5 12.070313-3.199219 3.199218-7.539062 4.996093-12.066406 4.996093zm-34.132813-68.265625h68.265626c4.714843 0 8.535156 3.820313 8.535156 8.535156v71.191407c-4.449219-3.769531-9.546875-6.699219-15.046875-8.644531 4.21875-5.773438 6.5-12.734376 6.511719-19.882813 0-18.851563-15.28125-34.132813-34.132813-34.132813s-34.132813 15.28125-34.132813 34.132813c.011719 7.148437 2.292969 14.109375 6.511719 19.882813-5.496093 1.949218-10.59375 4.878906-15.046875 8.644531v-71.191407c0-2.265624.898438-4.433593 2.5-6.035156 1.601563-1.601562 3.773438-2.5 6.035156-2.5zm0 0"/><path d="m20.054688 512h79.359374c1.355469.003906 2.707032-.132812 4.035157-.410156 9.320312-1.925782 16.007812-10.128906 16.019531-19.644532v-48.210937h17.066406c4.710938 0 8.53125-3.820313 8.53125-8.535156 0-4.710938-3.820312-8.53125-8.53125-8.53125h-17.066406v-42.667969c0-14.136719-11.460938-25.601562-25.601562-25.601562h-25.597657v-8.53125c0-4.714844-3.824219-8.535157-8.535156-8.535157s-8.535156 3.820313-8.535156 8.535157v8.53125h-25.597657c-14.140624 0-25.601562 11.464843-25.601562 25.601562v107.945312c.0117188 11.074219 8.984375 20.046876 20.054688 20.054688zm79.359374-17.066406h-79.359374c-.796876-.003906-1.558594-.320313-2.117188-.886719-.5625-.566406-.875-1.328125-.871094-2.125.023438-17.179687 13.945313-31.097656 31.121094-31.121094h23.09375c17.1875.023438 31.109375 13.957031 31.121094 31.144531 0 .792969-.316406 1.554688-.875 2.113282-.5625.558594-1.320313.875-2.113282.875zm-39.679687-51.199219c-9.425781 0-17.066406-7.640625-17.066406-17.066406s7.640625-17.066407 17.066406-17.066407 17.066406 7.640626 17.066406 17.066407-7.640625 17.066406-17.066406 17.066406zm-34.132813-68.269531h68.265626c4.714843 0 8.535156 3.824218 8.535156 8.535156v71.195312c-4.449219-3.773437-9.546875-6.703124-15.046875-8.644531 4.21875-5.773437 6.5-12.734375 6.511719-19.882812 0-18.851563-15.28125-34.132813-34.132813-34.132813s-34.132813 15.28125-34.132813 34.132813c.011719 7.148437 2.292969 14.109375 6.511719 19.882812-5.496093 1.949219-10.59375 4.878907-15.046875 8.644531v-71.195312c0-4.710938 3.820313-8.535156 8.535156-8.535156zm0 0"/><path d="m486.402344 0h-68.269532c-14.136718 0-25.597656 11.460938-25.597656 25.601562v42.664063h-17.066406c-4.714844 0-8.535156 3.820313-8.535156 8.535156 0 4.710938 3.820312 8.53125 8.535156 8.53125h17.066406v48.214844c.007813 11.070313 8.980469 20.042969 20.050782 20.054687h31.148437v8.53125c0 4.714844 3.820313 8.535157 8.535156 8.535157 4.710938 0 8.53125-3.820313 8.53125-8.535157v-8.53125h31.148438c1.355469 0 2.707031-.136718 4.035156-.410156 9.320313-1.925781 16.007813-10.128906 16.015625-19.644531v-107.945313c0-14.140624-11.460938-25.601562-25.597656-25.601562zm-76.800782 25.601562c0-4.714843 3.820313-8.535156 8.53125-8.535156h68.269532c4.710937 0 8.53125 3.820313 8.53125 8.535156v71.191407c-4.449219-3.769531-9.546875-6.699219-15.042969-8.644531 4.21875-5.773438 6.496094-12.734376 6.511719-19.882813 0-18.851563-15.285156-34.132813-34.132813-34.132813-18.851562 0-34.136719 15.28125-34.136719 34.132813.015626 7.148437 2.292969 14.109375 6.511719 19.882813-5.496093 1.949218-10.589843 4.878906-15.042969 8.644531zm25.597657 42.664063c0-9.425781 7.644531-17.066406 17.070312-17.066406s17.066407 7.640625 17.066407 17.066406-7.640626 17.066406-17.066407 17.066406-17.070312-7.640625-17.070312-17.066406zm56.75 68.269531h-79.363281c-.792969-.003906-1.554688-.324218-2.117188-.886718-.558594-.566407-.871094-1.332032-.867188-2.128907.023438-17.175781 13.941407-31.097656 31.121094-31.121093h23.089844c17.1875.023437 31.113281 13.960937 31.121094 31.148437 0 1.648437-1.335938 2.988281-2.984375 2.988281zm0 0"/><path d="m59.734375 290.132812c-4.710937 0-8.535156 3.820313-8.535156 8.535157v17.066406c0 4.710937 3.824219 8.53125 8.535156 8.53125s8.535156-3.820313 8.535156-8.53125v-17.066406c0-4.714844-3.824219-8.535157-8.535156-8.535157zm0 0"/><path d="m68.269531 247.464844c0-4.710938-3.824219-8.53125-8.535156-8.53125s-8.535156 3.820312-8.535156 8.53125v17.070312c0 4.710938 3.824219 8.53125 8.535156 8.53125s8.535156-3.820312 8.535156-8.53125zm0 0"/><path d="m68.269531 196.265625c0-4.710937-3.824219-8.53125-8.535156-8.53125s-8.535156 3.820313-8.535156 8.53125v17.066406c0 4.714844 3.824219 8.535157 8.535156 8.535157s8.535156-3.820313 8.535156-8.535157zm0 0"/><path d="m460.800781 213.332031v-17.066406c0-4.710937-3.820312-8.53125-8.53125-8.53125-4.714843 0-8.535156 3.820313-8.535156 8.53125v17.066406c0 4.714844 3.820313 8.535157 8.535156 8.535157 4.710938 0 8.53125-3.820313 8.53125-8.535157zm0 0"/><path d="m341.335938 85.332031c4.710937 0 8.53125-3.820312 8.53125-8.53125 0-4.714843-3.820313-8.535156-8.53125-8.535156h-17.066407c-4.714843 0-8.535156 3.820313-8.535156 8.535156 0 4.710938 3.820313 8.53125 8.535156 8.53125zm0 0"/><path d="m290.132812 85.332031c4.714844 0 8.535157-3.820312 8.535157-8.53125 0-4.714843-3.820313-8.535156-8.535157-8.535156h-17.066406c-4.710937 0-8.53125 3.820313-8.53125 8.535156 0 4.710938 3.820313 8.53125 8.53125 8.53125zm0 0"/><path d="m238.933594 85.332031c4.714844 0 8.535156-3.820312 8.535156-8.53125 0-4.714843-3.820312-8.535156-8.535156-8.535156h-17.066406c-4.710938 0-8.53125 3.820313-8.53125 8.535156 0 4.710938 3.820312 8.53125 8.53125 8.53125zm0 0"/><path d="m187.734375 85.332031c4.710937 0 8.535156-3.820312 8.535156-8.53125 0-4.714843-3.824219-8.535156-8.535156-8.535156h-17.066406c-4.714844 0-8.535157 3.820313-8.535157 8.535156 0 4.710938 3.820313 8.53125 8.535157 8.53125zm0 0"/><path d="m196.269531 435.199219c0-4.710938-3.824219-8.53125-8.535156-8.53125h-17.066406c-4.714844 0-8.535157 3.820312-8.535157 8.53125 0 4.714843 3.820313 8.535156 8.535157 8.535156h17.066406c4.710937 0 8.535156-3.820313 8.535156-8.535156zm0 0"/></svg>
