<?xml version="1.0" encoding="UTF-8"?>
<svg xmlns="http://www.w3.org/2000/svg" id="Icons" viewBox="0 0 60 60" width="512" height="512" fill="currentColor"><path d="M47,0H3A3,3,0,0,0,0,3V57a3,3,0,0,0,3,3H47a3,3,0,0,0,3-3V42.417l8.258-8.254A5.948,5.948,0,0,0,50,25.6V3A3,3,0,0,0,47,0ZM24.186,27.691a1,1,0,0,0,1.414.032l4.882-4.674.009-.006,6.994-6.694a1.272,1.272,0,0,1,1.778.019L48,25.1v2.474L45.569,30H6.4L20.65,16.353a1.283,1.283,0,0,1,1.792.013L28.369,22.3l-4.152,3.975A1,1,0,0,0,24.186,27.691Zm21.445,5.075,2.092,2.091-14,14L31.628,46.77ZM30.42,48.545c0-.043.026-.08.033-.122L35.57,53.54c-.039.006-.073.027-.112.03L30.81,54a.7.7,0,0,1-.593-.213A.733.733,0,0,1,30,53.188Zm6.8,3.817-2.087-2.087,14-14,2.091,2.091Zm9.824-21.01,2.092-2.091,5.6,5.6-2.092,2.091ZM3,2H47a1,1,0,0,1,1,1V22.267l-7.323-7.314a3.283,3.283,0,0,0-4.578-.046l-6.284,6.014-5.961-5.973a3.274,3.274,0,0,0-4.585-.041L3.508,30H2V3A1,1,0,0,1,3,2ZM48,57a1,1,0,0,1-1,1H3a1,1,0,0,1-1-1V32H43.569L29.5,46.069a3.743,3.743,0,0,0-1.072,2.293l-.416,4.646A2.742,2.742,0,0,0,30.739,56q.126,0,.252-.012l4.653-.426a3.675,3.675,0,0,0,2.277-1.072L48,44.416Zm6.043-30.995a3.948,3.948,0,0,1,2.8,6.744l-.7.7-5.6-5.6.688-.689A3.966,3.966,0,0,1,54.043,26.005Z"/><path d="M10.5,16A5.5,5.5,0,1,0,5,10.5,5.507,5.507,0,0,0,10.5,16Zm0-9A3.5,3.5,0,1,1,7,10.5,3.5,3.5,0,0,1,10.5,7Z"/><path d="M28,13a3.088,3.088,0,0,0,.51-.043,3.494,3.494,0,0,0,4.98,0A3.088,3.088,0,0,0,34,13a3,3,0,0,0,.907-5.86,4,4,0,0,0-7.814,0A3,3,0,0,0,28,13Zm0-4a1,1,0,0,0,1-1,2,2,0,0,1,4,0,1,1,0,0,0,1,1,1,1,0,0,1,0,2,.949.949,0,0,1-.423-.1,1,1,0,0,0-1.306.382,1.489,1.489,0,0,1-2.542,0,1,1,0,0,0-1.306-.382A.949.949,0,0,1,28,11a1,1,0,0,1,0-2Z"/><path d="M6,36h8a1,1,0,0,0,0-2H6a1,1,0,0,0,0,2Z"/><path d="M6,40H32a1,1,0,0,0,0-2H6a1,1,0,0,0,0,2Z"/><path d="M27,42H14a1,1,0,0,0,0,2H27a1,1,0,0,0,0-2Z"/><path d="M6,44h4a1,1,0,0,0,0-2H6a1,1,0,0,0,0,2Z"/><path d="M25,46H22a1,1,0,0,0,0,2h3a1,1,0,0,0,0-2Z"/><path d="M6,48H18a1,1,0,0,0,0-2H6a1,1,0,0,0,0,2Z"/><path d="M24,50H6a1,1,0,0,0,0,2H24a1,1,0,0,0,0-2Z"/><path d="M24,54H6a1,1,0,0,0,0,2H24a1,1,0,0,0,0-2Z"/></svg>
