<?xml version="1.0" encoding="UTF-8"?>
<svg xmlns="http://www.w3.org/2000/svg" viewBox="0 0 60 60" width="512" height="512" fill="currentColor"><g id="Icons"><path d="M12.963,35.854l-5.6,8A2,2,0,0,0,9,47h3V57a3,3,0,0,0,3,3H45a3,3,0,0,0,3-3V47h3a2,2,0,0,0,1.639-3.146l-5.6-8A2,2,0,0,0,45.4,35H39.816a2.94,2.94,0,0,0-1.091-3.447,3,3,0,0,0,.395-1.072A10.49,10.49,0,0,1,41.41,25.5,15.9,15.9,0,0,0,44.828,13.08,15.155,15.155,0,0,0,31.734.1,14.613,14.613,0,0,0,20.2,3.757a15.806,15.806,0,0,0-1.6,21.762,10.512,10.512,0,0,1,1.774,3.042,9.88,9.88,0,0,1,.506,1.913,3.009,3.009,0,0,0,.4,1.078A2.94,2.94,0,0,0,20.184,35H14.6A2,2,0,0,0,12.963,35.854ZM14.6,37H28.079l-5.6,8H9ZM14,57V47h8.479a2,2,0,0,0,1.639-.854L29,39.172V58H15A1,1,0,0,1,14,57Zm32,0a1,1,0,0,1-1,1H31V39.172l4.881,6.974a2,2,0,0,0,1.64.854H46Zm5.005-12H37.521l-5.6-8H45.4ZM20.14,24.242A13.805,13.805,0,0,1,21.531,5.25,12.62,12.62,0,0,1,29.99,2a13.087,13.087,0,0,1,1.513.088,13.323,13.323,0,0,1,11.346,11.28A13.711,13.711,0,0,1,39.87,24.222l0,0a12.47,12.47,0,0,0-2.722,5.94,1,1,0,0,1-.973.835H34.862c.09-2.355.138-4.871.138-7.517V19a3,3,0,0,0-1.364-2.509A4.551,4.551,0,0,0,35,13.3,4.6,4.6,0,0,0,33.451,10.2a5.253,5.253,0,0,1-1.615-2.963A1.4,1.4,0,0,0,30.99,6.12a1.462,1.462,0,0,0-1.437.16C27.878,7.51,25.06,10.043,25,13.2a4.57,4.57,0,0,0,1.358,3.294A3,3,0,0,0,25,19v4.483c0,2.646.048,5.162.138,7.517h-1.31a1,1,0,0,1-.974-.839,11.724,11.724,0,0,0-.607-2.3A12.514,12.514,0,0,0,20.14,24.242Zm11.932-8.991a3.21,3.21,0,0,1-2.6.709A2.836,2.836,0,0,1,27,13.237c.036-1.967,1.8-3.776,3.043-4.8a7.825,7.825,0,0,0,1.911,3.1C32.622,12.283,33,12.736,33,13.3A2.558,2.558,0,0,1,32.072,15.251ZM28,18h4a1,1,0,0,1,1,1v2H27V19A1,1,0,0,1,28,18Zm-.861,13c-.09-2.351-.139-4.867-.139-7.517V23h6v.483c0,2.65-.049,5.166-.139,7.517ZM22,34a1,1,0,0,1,1-1H37a1,1,0,0,1,0,2H23A1,1,0,0,1,22,34Z"/></g></svg>
