<?xml version="1.0" encoding="UTF-8"?>
<svg xmlns="http://www.w3.org/2000/svg" viewBox="0 0 60 60" width="512" height="512" fill="currentColor"><g id="Icons"><path d="M58,0H54a2,2,0,0,0-2,2V6a1.975,1.975,0,0,0,.092.568c-.1.08-.181.144-.284.228C48.823,9.227,43.342,13.668,34,13.971V13a2,2,0,0,0-2-2H28a2,2,0,0,0-2,2v.971c-9.342-.3-14.823-4.744-17.808-7.175-.1-.084-.186-.148-.284-.228A1.975,1.975,0,0,0,8,6V2A2,2,0,0,0,6,0H2A2,2,0,0,0,0,2V6A2,2,0,0,0,2,8H6a1.938,1.938,0,0,0,.434-.051c.165.133.315.251.5.4A33.412,33.412,0,0,0,16.074,14H5.816a3,3,0,1,0,0,2H26v1a2,2,0,0,0,2,2h.35L18,38.842a3.987,3.987,0,0,0,.387,4.282L22.959,49A3,3,0,0,0,20,52v5a3,3,0,0,0,3,3H37a3,3,0,0,0,3-3V52a3,3,0,0,0-2.959-3l4.575-5.88A3.989,3.989,0,0,0,42,38.842L31.65,19H32a2,2,0,0,0,2-2V16H54.184a3,3,0,1,0,0-2H43.926A33.412,33.412,0,0,0,53.07,8.347c.181-.147.331-.265.5-.4A1.938,1.938,0,0,0,54,8h4a2,2,0,0,0,2-2V2A2,2,0,0,0,58,0ZM2,2H6V6H2ZM3,16a1,1,0,1,1,1-1A1,1,0,0,1,3,16ZM30,37a2,2,0,1,1-2,2A2,2,0,0,1,30,37Zm8,15v5a1,1,0,0,1-1,1H23a1,1,0,0,1-1-1V52a1,1,0,0,1,1-1H37A1,1,0,0,1,38,52Zm2.037-10.1L34.511,49H25.489l-5.525-7.1a1.982,1.982,0,0,1-.193-2.129L29,22.079V35.142a4,4,0,1,0,2,0V22.079l9.229,17.689A1.982,1.982,0,0,1,40.037,41.9ZM28,17V13h4v4Zm29-3a1,1,0,1,1-1,1A1,1,0,0,1,57,14Zm1-8H54V2h4Z"/></g></svg>
