<?xml version="1.0" encoding="UTF-8"?>
<svg xmlns="http://www.w3.org/2000/svg" viewBox="0 0 60 60" width="512" height="512" fill="currentColor"><g id="Icons"><path d="M53,0H7A5.006,5.006,0,0,0,2,5V36.47c-.552.661-1.016,1.243-1.374,1.706a2.982,2.982,0,0,0,0,3.648C3.92,46.088,15.776,60,30,60S56.08,46.088,59.374,41.824a2.984,2.984,0,0,0,0-3.648c-.358-.463-.822-1.045-1.374-1.706V5A5.006,5.006,0,0,0,53,0ZM7,2H53a3,3,0,0,1,3,3V8H4V5A3,3,0,0,1,7,2ZM4,10H56V34.188C50.722,28.44,41.081,20,30,20S9.279,28.441,4,34.188ZM57.792,40.6C54.638,44.683,43.314,58,30,58S5.362,44.683,2.208,40.6a.97.97,0,0,1,0-1.2C5.362,35.317,16.688,22,30,22S54.638,35.317,57.792,39.4A.973.973,0,0,1,57.792,40.6Z"/><circle cx="8" cy="5" r="1"/><circle cx="12" cy="5" r="1"/><circle cx="16" cy="5" r="1"/><path d="M46,6h6a1,1,0,0,0,0-2H46a1,1,0,0,0,0,2Z"/><path d="M30,24A16,16,0,1,0,46,40,16.019,16.019,0,0,0,30,24Zm11.588,8.155-2.612,1.508A11,11,0,0,0,31,29.051v-3A14,14,0,0,1,41.588,32.155ZM39,40a8.936,8.936,0,0,1-.758,3.6l-2.624-1.515a5.9,5.9,0,0,0,0-4.176L38.242,36.4A8.936,8.936,0,0,1,39,40ZM21,40a8.936,8.936,0,0,1,.758-3.6l2.624,1.515a5.9,5.9,0,0,0,0,4.176L21.758,43.6A8.936,8.936,0,0,1,21,40Zm13,0a4,4,0,1,1-4-4A4,4,0,0,1,34,40Zm-5-5.91a6.006,6.006,0,0,0-3.621,2.087l-2.613-1.508A8.992,8.992,0,0,1,29,31.059Zm-3.621,9.733A6.006,6.006,0,0,0,29,45.91v3.031a8.992,8.992,0,0,1-6.234-3.61ZM31,45.91a6.006,6.006,0,0,0,3.621-2.087l2.613,1.508A8.992,8.992,0,0,1,31,48.941Zm3.621-9.733A6.006,6.006,0,0,0,31,34.09V31.059a8.992,8.992,0,0,1,6.234,3.61ZM29,26.051v3a11,11,0,0,0-7.976,4.612l-2.612-1.508A14,14,0,0,1,29,26.051ZM17.422,33.893l2.6,1.5a10.867,10.867,0,0,0,0,9.21l-2.6,1.5a13.825,13.825,0,0,1,0-12.214Zm.99,13.952,2.612-1.508A11,11,0,0,0,29,50.949v3A14,14,0,0,1,18.412,47.845ZM31,53.949v-3a11,11,0,0,0,7.976-4.612l2.612,1.508A14,14,0,0,1,31,53.949Zm11.578-7.842-2.6-1.5a10.867,10.867,0,0,0,0-9.21l2.6-1.5a13.825,13.825,0,0,1,0,12.214Z"/></g></svg>
