<?xml version="1.0" encoding="UTF-8"?>
<svg xmlns="http://www.w3.org/2000/svg" id="Icons" viewBox="0 0 60 60" width="512" height="512" fill="currentColor"><path d="M56,5a5.006,5.006,0,0,0-5-5H9a1,1,0,0,0-.707.293l-8,8A1,1,0,0,0,0,9V37a5.006,5.006,0,0,0,5,5H29.381a18.894,18.894,0,0,0,7.951,3.637l-.927,9.282a4.618,4.618,0,1,0,9.19,0l-.927-9.283A18.958,18.958,0,0,0,56,15.381ZM8,3.414V5A3,3,0,0,1,5,8H3.414ZM5,40a3,3,0,0,1-3-3V10H5a5.006,5.006,0,0,0,5-5V2H51a3,3,0,0,1,3,3v8.182A18.971,18.971,0,0,0,27.182,40ZM42.445,57.568a2.676,2.676,0,0,1-2.89,0A2.619,2.619,0,0,1,38.4,55.119l.919-9.2c.556.049,1.116.085,1.685.085s1.129-.036,1.685-.085l.919,9.206A2.617,2.617,0,0,1,42.445,57.568ZM58,27A17,17,0,1,1,41,10,17.019,17.019,0,0,1,58,27Z"/><path d="M41,12A15,15,0,1,0,56,27,15.017,15.017,0,0,0,41,12Zm7.571,25.546a12.906,12.906,0,0,1-15.142,0A7.848,7.848,0,0,1,33,35a7.959,7.959,0,0,1,2.2-5.5,7.964,7.964,0,0,0,11.592,0A7.959,7.959,0,0,1,49,35,7.848,7.848,0,0,1,48.571,37.546ZM35,24a6,6,0,1,1,6,6A6.006,6.006,0,0,1,35,24ZM50.986,35.31c0-.1.014-.206.014-.31A9.946,9.946,0,0,0,48,27.873a8,8,0,1,0-13.99,0A9.946,9.946,0,0,0,31,35c0,.1.011.207.014.31a13,13,0,1,1,19.972,0Z"/><path d="M19,27V7a2,2,0,0,0-2-2H15a2,2,0,0,0-2,2V27H11V14a2,2,0,0,0-2-2H7a2,2,0,0,0-2,2V27a1,1,0,0,0,0,2H19a1,1,0,0,0,0-2ZM9,27H7V14H9Zm8,0H15V7h2Z"/><path d="M19,31H5a1,1,0,0,0,0,2H19a1,1,0,0,0,0-2Z"/><path d="M19,35H5a1,1,0,0,0,0,2H19a1,1,0,0,0,0-2Z"/></svg>
