<?xml version="1.0" encoding="UTF-8"?>
<svg xmlns="http://www.w3.org/2000/svg" id="Icons" viewBox="0 0 60 60" width="512" height="512" fill="currentColor"><path d="M5,45H19.558l8.169,8.989a3.057,3.057,0,0,0,4.544,0L40.442,45H55a5.006,5.006,0,0,0,5-5V10a5.006,5.006,0,0,0-5-5H5a5.006,5.006,0,0,0-5,5V40A5.006,5.006,0,0,0,5,45ZM2,10A3,3,0,0,1,5,7H55a3,3,0,0,1,3,3V40a3,3,0,0,1-3,3H40a1,1,0,0,0-.74.328l-8.472,9.322a1.08,1.08,0,0,1-1.578,0l-8.47-9.319A1,1,0,0,0,20,43H5a3,3,0,0,1-3-3Z"/><path d="M27,31a1,1,0,0,0,0,2h4a1,1,0,0,0,0-2H30V18a1,1,0,0,0-1.707-.707l-2,2a1,1,0,0,0,1.414,1.414L28,20.414V31Z"/><path d="M37,33h2a3,3,0,0,0,3-3V20a3,3,0,0,0-3-3H37a3,3,0,0,0-3,3V30A3,3,0,0,0,37,33ZM36,20a1,1,0,0,1,1-1h2a1,1,0,0,1,1,1V30a1,1,0,0,1-1,1H37a1,1,0,0,1-1-1Z"/><path d="M46,33a1,1,0,0,0,1-1V28.12l3.187,4.461a1,1,0,1,0,1.626-1.162L47.229,25l4.584-6.419a1,1,0,1,0-1.626-1.162L47,21.88V18a1,1,0,0,0-2,0V32A1,1,0,0,0,46,33Z"/><path d="M10.024,34h9.952a2.033,2.033,0,0,0,1.578-.745,1.924,1.924,0,0,0,.409-1.6,6.99,6.99,0,0,0-3.738-4.865A4.972,4.972,0,0,0,20,23V21a5,5,0,0,0-10,0v2a4.972,4.972,0,0,0,1.775,3.789,6.99,6.99,0,0,0-3.738,4.865,1.924,1.924,0,0,0,.409,1.6A2.033,2.033,0,0,0,10.024,34ZM12,23V21a3,3,0,0,1,6,0v2a3,3,0,0,1-6,0Zm3,5a5.032,5.032,0,0,1,4.976,4H10.024L10,32.042A5.075,5.075,0,0,1,15,28Z"/></svg>
