<?xml version="1.0" encoding="UTF-8"?>
<svg xmlns="http://www.w3.org/2000/svg" id="Icons" viewBox="0 0 60 60" width="512" height="512" fill="currentColor"><path d="M34,10a8.45,8.45,0,0,1,2.764.463A10.075,10.075,0,0,0,40,11a13.923,13.923,0,0,0,4.691-.793A2,2,0,0,0,46,8.329v-5.9A2,2,0,0,0,43.433.515,12.329,12.329,0,0,1,40,1,8.063,8.063,0,0,1,37.343.549,10.388,10.388,0,0,0,34,0a9.568,9.568,0,0,0-3.142.516A.988.988,0,0,0,30,0a1,1,0,0,0-1,1V12.025A23.985,23.985,0,0,0,11.5,51.269l-3.61,3.609a2.994,2.994,0,1,0,4.23,4.239l3.742-3.742a23.931,23.931,0,0,0,28.282,0l3.743,3.743a2.994,2.994,0,1,0,4.233-4.235L48.5,51.269A23.985,23.985,0,0,0,31,12.025V10.6A7.334,7.334,0,0,1,34,10Zm2.764-7.537A10.075,10.075,0,0,0,40,3a14.27,14.27,0,0,0,4-.569l.011,5.9A12.052,12.052,0,0,1,40,9a8.063,8.063,0,0,1-2.657-.451A10.388,10.388,0,0,0,34,8a9.572,9.572,0,0,0-3,.47V2.6A7.334,7.334,0,0,1,34,2,8.45,8.45,0,0,1,36.764,2.463ZM30,37a1,1,0,0,0,1-1V32.142a4,4,0,1,1-2,0V36A1,1,0,0,0,30,37Zm-1-6.91a6,6,0,1,0,2,0V26.051a10,10,0,1,1-2,0Zm0-6.039a12,12,0,1,0,2,0v-4a16,16,0,1,1-2,0ZM10.7,57.7a1,1,0,0,1-1.412,0A.977.977,0,0,1,9.3,56.3l3.542-3.542q.7.711,1.449,1.363Zm40-1.4a.973.973,0,0,1,0,1.4,1,1,0,0,1-1.407,0l-3.585-3.585q.751-.653,1.449-1.363ZM52,36A22,22,0,1,1,29,14.025v4.026a18,18,0,1,0,2,0V14.025A22.026,22.026,0,0,1,52,36Z"/></svg>
