<svg height="512pt" viewBox="-9 0 512 512.00002" width="512pt" xmlns="http://www.w3.org/2000/svg" fill="currentColor"><path d="m25.601562 384h247.464844c4.714844 0 8.535156-3.820312 8.535156-8.535156 0-4.710938-3.820312-8.53125-8.535156-8.53125h-247.464844c-4.714843 0-8.535156-3.820313-8.535156-8.535156v-42.664063h230.398438c4.714844 0 8.535156-3.820313 8.535156-8.535156 0-4.710938-3.820312-8.53125-8.535156-8.53125h-230.398438v-213.335938h358.398438v93.867188c0 4.714843 3.824218 8.535156 8.535156 8.535156s8.535156-3.820313 8.535156-8.535156v-153.597657c0-14.140624-11.464844-25.601562-25.601562-25.601562h-341.332032c-14.140624 0-25.601562 11.460938-25.601562 25.601562v332.796876c0 14.140624 11.460938 25.601562 25.601562 25.601562zm0-366.933594h341.332032c4.710937 0 8.53125 3.820313 8.53125 8.535156v42.664063h-358.398438v-42.664063c0-4.714843 3.820313-8.535156 8.535156-8.535156zm0 0"/><path d="m51.199219 42.667969c0 4.710937-3.820313 8.53125-8.53125 8.53125-4.714844 0-8.535157-3.820313-8.535157-8.53125 0-4.714844 3.820313-8.535157 8.535157-8.535157 4.710937 0 8.53125 3.820313 8.53125 8.535157zm0 0"/><path d="m85.332031 42.667969c0 4.710937-3.820312 8.53125-8.53125 8.53125-4.714843 0-8.535156-3.820313-8.535156-8.53125 0-4.714844 3.820313-8.535157 8.535156-8.535157 4.710938 0 8.53125 3.820313 8.53125 8.535157zm0 0"/><path d="m119.464844 42.667969c0 4.710937-3.820313 8.53125-8.53125 8.53125-4.714844 0-8.535156-3.820313-8.535156-8.53125 0-4.714844 3.820312-8.535157 8.535156-8.535157 4.710937 0 8.53125 3.820313 8.53125 8.535157zm0 0"/><path d="m474.65625 367.207031c.902344-4.222656 2.113281-8.375 3.628906-12.417969 1.714844-3.742187 3.710938-7.347656 5.972656-10.785156 6.171876-8.21875 9.875-18.023437 10.675782-28.269531-.796875-10.246094-4.496094-20.054687-10.667969-28.273437-2.261719-3.4375-4.257813-7.042969-5.972656-10.785157-1.515625-4.039062-2.726563-8.1875-3.625-12.40625-1.484375-9.953125-5.71875-19.296875-12.222657-26.972656-7.675781-6.503906-17.011718-10.738281-26.964843-12.222656-4.222657-.898438-8.371094-2.109375-12.414063-3.625-3.742187-1.714844-7.347656-3.710938-10.785156-5.972657-8.222656-6.175781-18.03125-9.878906-28.28125-10.675781-10.246094.796875-20.050781 4.496094-28.269531 10.664063-3.441407 2.265625-7.046875 4.261718-10.789063 5.976562-4.039062 1.511719-8.1875 2.726563-12.40625 3.625-9.953125 1.484375-19.292968 5.714844-26.972656 12.21875-6.503906 7.675782-10.734375 17.015625-12.21875 26.964844-.902344 4.226562-2.113281 8.375-3.628906 12.417969-1.714844 3.742187-3.710938 7.347656-5.972656 10.785156-6.175782 8.222656-9.878907 18.03125-10.675782 28.28125.796875 10.246094 4.496094 20.050781 10.667969 28.269531 2.261719 3.4375 4.257813 7.042969 5.972656 10.785156 1.515625 4.042969 2.726563 8.1875 3.625 12.410157 1.484375 9.953125 5.71875 19.292969 12.222657 26.972656 4.007812 3.84375 8.816406 6.757813 14.078124 8.53125l-20.386718 73.457031c-1.894532 6.5.136718 13.511719 5.214844 17.988282 4.820312 4.25 11.664062 5.335937 17.5625 2.78125l17.6875-7.789063 11.539062 15.90625c3.105469 4.351563 8.125 6.941406 13.472656 6.953125 1.007813 0 2.011719-.089844 3.003906-.273438 6.65625-1.222656 12.007813-6.179687 13.738282-12.722656l2.5625-9.140625 2.558594 9.132813c1.722656 6.546875 7.078124 11.507812 13.738281 12.730468.992187.183594 1.996093.273438 3.003906.273438 5.347656-.007812 10.367187-2.589844 13.484375-6.9375l11.144531-15.796875 18.070313 7.679687c5.898437 2.554688 12.742187 1.46875 17.5625-2.78125 5.078125-4.476562 7.113281-11.488281 5.214844-17.988281l-20.394532-73.511719c5.261719-1.777343 10.070313-4.691406 14.078125-8.535156 6.480469-7.671875 10.691407-16.992187 12.167969-26.921875zm-109.601562 127.835938-11.519532-15.894531c-3.128906-4.355469-8.164062-6.9375-13.523437-6.9375-2.269531 0-4.511719.464843-6.597657 1.355468l-17.722656 7.175782 20.375-73.453126c.660156.167969 1.332032.332032 1.964844.5.46875.121094.945312.25 1.40625.386719 1.871094.507813 3.707031 1.125 5.503906 1.84375 3.742188 1.710938 7.347656 3.710938 10.789063 5.972657 2.933593 1.824218 6.015625 3.726562 9.273437 5.417968l10.148438 36.558594zm87.605468-13.761719-18.074218-7.679688c-7.183594-3.105468-15.554688-.78125-20.113282 5.578126l-11.496094 15.292968-18.796874-67.804687c.765624 0 1.5-.09375 2.253906-.15625.5625-.042969 1.140625-.042969 1.707031-.109375.78125-.101563 1.550781-.273438 2.320313-.425782.519531-.101562 1.046874-.164062 1.558593-.292968.746094-.175782 1.46875-.417969 2.195313-.636719.511718-.15625 1.03125-.28125 1.527344-.453125.707031-.25 1.382812-.539062 2.074218-.8125.492188-.203125 1.007813-.375 1.492188-.585938.683594-.300781 1.339844-.632812 2.003906-.957031.472656-.230469.964844-.4375 1.425781-.683593.460938-.246094 1.09375-.589844 1.640625-.851563.542969-.265625 1.125-.597656 1.707032-.90625l.449218-.265625c1.988282-1.152344 3.917969-2.335938 5.777344-3.496094 3.4375-2.265625 7.046875-4.261718 10.789062-5.972656 1.792969-.714844 3.625-1.332031 5.484376-1.84375l1.546874-.417969c.597657-.164062 1.226563-.316406 1.839844-.46875l20.378906 73.453125zm-2.289062-99.140625c-4.808594 3.742187-10.5 6.1875-16.527344 7.097656l-2.339844.574219c-5.101562 1.097656-10.113281 2.597656-14.984375 4.480469-4.597656 2.050781-9.027343 4.472656-13.234375 7.242187-5.613281 4.328125-12.261718 7.109375-19.285156 8.066406-1.40625-.03125-2.804688-.234374-4.164062-.609374-1.460938-.382813-2.886719-.882813-4.265626-1.492188-3.757812-1.761719-7.386718-3.78125-10.863281-6.039062-3.734375-2.375-7.613281-4.511719-11.613281-6.402344-.546875-.253906-1.058594-.570313-1.621094-.800782-1.316406-.546874-2.679687-.929687-4.03125-1.375-3.652344-1.210937-7.34375-2.226562-10.980468-3.113281l-3.566407-.855469c-5.59375-.925781-10.855469-3.277343-15.273437-6.824218-4.117188-5.554688-6.757813-12.0625-7.683594-18.910156-1.089844-5.089844-2.578125-10.085938-4.453125-14.941407-2.050781-4.601562-4.476563-9.027343-7.246094-13.238281-4.339843-5.601562-7.132812-12.246094-8.105469-19.265625.964844-7.027344 3.757813-13.675781 8.097657-19.285156 2.769531-4.210938 5.191406-8.636719 7.246093-13.238281 1.875-4.855469 3.363282-9.851563 4.453126-14.941407.925781-6.847656 3.566406-13.355469 7.679687-18.910156 5.554687-4.113281 12.0625-6.753906 18.910156-7.679687 5.089844-1.089844 10.085938-2.578126 14.941407-4.453126 4.601562-2.050781 9.027343-4.476562 13.238281-7.246093 5.609375-4.347657 12.265625-7.148438 19.300781-8.113281 7.027344.964843 13.675781 3.757812 19.285156 8.097656 4.207032 2.769531 8.636719 5.191406 13.234375 7.246094 4.855469 1.875 9.851563 3.363281 14.941407 4.453124 6.851562.921876 13.355468 3.566407 18.910156 7.679688 4.117187 5.554688 6.757812 12.058594 7.679687 18.910156 1.089844 5.089844 2.582031 10.085938 4.457031 14.941406 2.050782 4.601563 4.472657 9.027344 7.242188 13.234376 4.351562 5.613281 7.148438 12.269531 8.117188 19.304687-.964844 7.023437-3.757813 13.675781-8.097657 19.285156-2.769531 4.207031-5.191406 8.632813-7.246093 13.234375-1.875 4.855469-3.363282 9.851563-4.453126 14.941406-.929687 6.851563-3.578124 13.359376-7.699218 18.910157zm0 0"/><path d="m384 247.464844c-37.703125 0-68.265625 30.566406-68.265625 68.269531s30.5625 68.265625 68.265625 68.265625 68.265625-30.5625 68.265625-68.265625c-.042969-37.6875-30.582031-68.226563-68.265625-68.269531zm0 119.46875c-28.277344 0-51.199219-22.921875-51.199219-51.199219s22.921875-51.199219 51.199219-51.199219 51.199219 22.921875 51.199219 51.199219c-.027344 28.265625-22.933594 51.171875-51.199219 51.199219zm0 0"/><path d="m402.773438 293.546875-19.695313 26.265625-10.113281-10.113281c-3.347656-3.234375-8.667969-3.1875-11.960938.105469-3.292968 3.292968-3.335937 8.613281-.105468 11.960937l17.070312 17.066406c1.597656 1.601563 3.769531 2.5 6.03125 2.5h.605469c2.472656-.179687 4.742187-1.425781 6.222656-3.410156l25.597656-34.136719c1.832031-2.4375 2.21875-5.667968 1.023438-8.46875-1.199219-2.804687-3.800781-4.757812-6.828125-5.121094-3.027344-.367187-6.019532.914063-7.847656 3.351563zm0 0"/><path d="m128 170.667969c4.710938 0 8.535156 3.820312 8.535156 8.53125 0 4.714843 3.820313 8.535156 8.53125 8.535156 4.714844 0 8.535156-3.820313 8.535156-8.535156 0-14.136719-11.464843-25.597657-25.601562-25.597657-13.988281.351563-25.246094 11.609376-25.601562 25.597657 0 13.808593 12.597656 20.105469 21.789062 24.703125 7.226562 3.609375 12.347656 6.410156 12.347656 9.429687-.289062 4.589844-3.945312 8.246094-8.535156 8.535157-4.710938 0-8.535156-3.820313-8.535156-8.535157 0-4.710937-3.820313-8.53125-8.53125-8.53125-4.714844 0-8.535156 3.820313-8.535156 8.53125 0 14.140625 11.464843 25.601563 25.601562 25.601563 13.988281-.355469 25.246094-11.609375 25.601562-25.601563 0-13.804687-12.597656-20.101562-21.789062-24.703125-7.226562-3.609375-12.347656-6.40625-12.347656-9.429687.289062-4.585938 3.945312-8.246094 8.535156-8.53125zm0 0"/><path d="m204.800781 170.667969c4.710938 0 8.53125-3.820313 8.53125-8.535157 0-4.710937-3.820312-8.53125-8.53125-8.53125h-17.066406c-9.425781 0-17.066406 7.640626-17.066406 17.066407v51.199219c0 9.425781 7.640625 17.066406 17.066406 17.066406h17.066406c4.710938 0 8.53125-3.820313 8.53125-8.535156 0-4.710938-3.820312-8.53125-8.53125-8.53125h-17.066406v-17.066407h17.066406c4.710938 0 8.53125-3.820312 8.53125-8.535156 0-4.710937-3.820312-8.53125-8.53125-8.53125h-17.066406v-17.066406zm0 0"/><path d="m290.132812 183.464844c0-16.492188-13.371093-29.863282-29.867187-29.863282-16.492187 0-29.867187 13.371094-29.867187 29.863282v25.601562c0 16.496094 13.375 29.867188 29.867187 29.867188 16.496094 0 29.867187-13.371094 29.867187-29.867188zm-17.066406 25.601562c0 7.070313-5.730468 12.800782-12.800781 12.800782-7.066406 0-12.800781-5.730469-12.800781-12.800782v-25.601562c0-7.066406 5.734375-12.796875 12.800781-12.796875 7.070313 0 12.800781 5.730469 12.800781 12.796875zm0 0"/></svg>
