<svg height="512pt" viewBox="0 0 512.03399 512" width="512pt" xmlns="http://www.w3.org/2000/svg" fill="currentColor"><path d="m85.367188 34.148438c-28.277344 0-51.199219 22.925781-51.199219 51.203124 0 28.277344 22.921875 51.199219 51.199219 51.199219 28.277343 0 51.199218-22.921875 51.199218-51.199219-.027344-28.265624-22.933594-51.171874-51.199218-51.203124zm0 85.335937c-18.851563 0-34.132813-15.28125-34.132813-34.132813 0-18.851562 15.28125-34.132812 34.132813-34.132812 18.851562 0 34.132812 15.28125 34.132812 34.132812 0 9.050782-3.59375 17.734376-9.996094 24.132813-6.402344 6.402344-15.082031 10-24.136718 10zm0 0"/><path d="m477.902344 59.75-311.28125-.324219c-11.15625-35.265625-43.820313-59.28125-80.808594-59.410156h-.445312c-46.082032.234375-83.753907 36.820313-85.3320318 82.878906-1.1953122 42.550781 29.1562498 79.472657 71.1328128 86.539063 41.980469 7.066406 82.742187-17.886719 95.546875-58.484375h157.585937v25.601562c0 9.425781 7.640625 17.066407 17.066407 17.066407h17.066406c9.425781 0 17.066406-7.640626 17.066406-17.066407v-25.601562h17.066406v42.667969c0 9.425781 7.640625 17.066406 17.066406 17.066406v55.628906l-69.324218 55.464844c-10.136719 8.082031-16.03125 20.34375-16.007813 33.308594v85.996093h-8.535156c-4.710937 0-8.53125 3.820313-8.53125 8.535157 0 4.710937 3.820313 8.53125 8.53125 8.53125h8.535156v59.734374c0 18.851563 15.28125 34.132813 34.132813 34.132813h119.46875c18.847656 0 34.132812-15.28125 34.132812-34.132813v-162.796874c.015625-12.953126-5.878906-25.207032-16.007812-33.28125l-69.328125-55.492188v-55.628906c9.425781 0 17.066406-7.640625 17.066406-17.066406v-42.667969h17.066406v25.601562c0 9.425781 7.644531 17.066407 17.070313 17.066407h17.066406c9.425781 0 17.066406-7.640626 17.066406-17.066407v-42.667969c0-18.851562-15.285156-34.132812-34.132812-34.132812zm17.066406 255.335938v162.796874c0 9.425782-7.640625 17.066407-17.066406 17.066407h-119.46875c-9.425782 0-17.066406-7.640625-17.066406-17.066407v-162.796874c-.019532-7.78125 3.519531-15.144532 9.609374-19.984376l67.191407-53.753906 67.191406 53.761719c6.085937 4.839844 9.625 12.199219 9.609375 19.976563zm0-178.535157h-17.066406v-25.601562c0-9.425781-7.644532-17.066407-17.070313-17.066407h-17.066406c-9.425781 0-17.066406 7.640626-17.066406 17.066407v42.667969h-17.066407v-42.667969c0-9.425781-7.640624-17.066407-17.066406-17.066407h-17.066406c-9.425781 0-17.066406 7.640626-17.066406 17.066407v25.601562h-17.066406v-25.601562c0-9.425781-7.640626-17.066407-17.066407-17.066407h-157.585937c-7.539063.066407-14.167969 5.015626-16.367188 12.230469-10.375 32.367188-42.980468 52.167969-76.488281 46.453125-33.503906-5.71875-57.699219-35.210937-56.757813-69.1875 1.6875-36.652344 31.578126-65.679687 68.265626-66.296875h.324218c29.589844.105469 55.71875 19.320313 64.640625 47.53125 2.199219 7.207031 8.824219 12.152344 16.359375 12.203125h311.210938c9.425781 0 17.066406 7.640625 17.066406 17.066406zm0 0"/><path d="m401.101562 324.285156c-4.589843-.289062-8.246093-3.945312-8.535156-8.535156 0-4.710938 3.820313-8.53125 8.535156-8.53125 4.710938 0 8.53125-3.820312 8.53125-8.535156 0-4.710938-3.820312-8.535156-8.53125-8.535156-14.140624 0-25.601562 11.464843-25.601562 25.601562.355469 13.988281 11.613281 25.246094 25.601562 25.601562 13.804688 0 20.09375-12.597656 24.746094-21.785156 3.566406-7.230468 6.367188-12.347656 9.386719-12.347656 4.589844.285156 8.246094 3.941406 8.53125 8.53125 0 4.714844-3.820313 8.535156-8.53125 8.535156-4.714844 0-8.535156 3.820313-8.535156 8.53125 0 4.714844 3.820312 8.535156 8.535156 8.535156 14.136719 0 25.597656-11.460937 25.597656-25.601562-.351562-13.988281-11.609375-25.246094-25.597656-25.601562-13.808594 0-20.097656 12.597656-24.746094 21.789062-3.566406 7.226562-6.367187 12.347656-9.386719 12.347656zm0 0"/><path d="m443.765625 358.417969h-51.199219c-9.425781 0-17.066406 7.640625-17.066406 17.066406v17.066406c0 4.710938 3.820312 8.53125 8.535156 8.53125 4.710938 0 8.53125-3.820312 8.53125-8.53125v-17.066406h17.066406v17.066406c0 4.710938 3.820313 8.53125 8.535157 8.53125 4.710937 0 8.53125-3.820312 8.53125-8.53125v-17.066406h17.066406v17.066406c0 4.710938 3.820313 8.53125 8.535156 8.53125 4.710938 0 8.53125-3.820312 8.53125-8.53125v-17.066406c0-9.425781-7.640625-17.066406-17.066406-17.066406zm0 0"/><path d="m430.96875 418.148438h-25.601562c-16.496094 0-29.867188 13.375-29.867188 29.867187 0 16.496094 13.371094 29.867187 29.867188 29.867187h25.601562c16.492188 0 29.863281-13.371093 29.863281-29.867187 0-16.492187-13.371093-29.867187-29.863281-29.867187zm0 42.667968h-25.601562c-7.070313 0-12.800782-5.730468-12.800782-12.800781 0-7.066406 5.730469-12.796875 12.800782-12.796875h25.601562c7.066406 0 12.796875 5.730469 12.796875 12.796875 0 7.070313-5.730469 12.800781-12.796875 12.800781zm0 0"/><path d="m102.433594 460.816406c28.277344 0 51.199218-22.921875 51.199218-51.199218 0-28.277344-22.921874-51.199219-51.199218-51.199219s-51.199219 22.921875-51.199219 51.199219c.027344 28.265624 22.933594 51.171874 51.199219 51.199218zm0-85.332031c18.851562 0 34.132812 15.28125 34.132812 34.132813 0 18.851562-15.28125 34.132812-34.132812 34.132812-18.851563 0-34.132813-15.28125-34.132813-34.132812 0-18.851563 15.28125-34.132813 34.132813-34.132813zm0 0"/><path d="m110.96875 409.617188c0 4.710937-3.820312 8.53125-8.535156 8.53125-4.710938 0-8.53125-3.820313-8.53125-8.53125 0-4.714844 3.820312-8.535157 8.53125-8.535157 4.714844 0 8.535156 3.820313 8.535156 8.535157zm0 0"/><path d="m204.832031 281.617188c0 4.710937-3.820312 8.53125-8.53125 8.53125-4.714843 0-8.535156-3.820313-8.535156-8.53125 0-4.714844 3.820313-8.535157 8.535156-8.535157 4.710938 0 8.53125 3.820313 8.53125 8.535157zm0 0"/><path d="m8.566406 401.082031c-4.710937 0-8.5312498 3.820313-8.5312498 8.535157 0 4.710937 3.8203128 8.53125 8.5312498 8.53125h8.96875c1.667969 16.675781 8.230469 32.484374 18.867188 45.433593l-6.375 6.375c-2.21875 2.140625-3.105469 5.3125-2.324219 8.296875s3.109375 5.316406 6.09375 6.09375c2.984375.78125 6.15625-.105468 8.296875-2.324218l6.375-6.375c12.949219 10.636718 28.757812 17.203124 45.433594 18.867187v8.96875c0 4.710937 3.820312 8.53125 8.53125 8.53125 4.714844 0 8.535156-3.820313 8.535156-8.53125v-8.96875c16.671875-1.664063 32.480469-8.230469 45.429688-18.867187l6.375 6.375c3.347656 3.234374 8.671874 3.1875 11.960937-.105469 3.292969-3.292969 3.339844-8.613281.105469-11.960938l-6.375-6.375c10.636718-12.949219 17.203125-28.757812 18.867187-45.433593h8.96875c4.710938 0 8.53125-3.820313 8.53125-8.53125 0-4.714844-3.820312-8.535157-8.53125-8.535157h-8.96875c-1.664062-16.671875-8.230469-32.480469-18.867187-45.429687l6.375-6.375c3.234375-3.347656 3.1875-8.671875-.105469-11.960938-3.289063-3.292968-8.613281-3.339844-11.960937-.105468l-6.375 6.375c-12.949219-10.636719-28.757813-17.203126-45.429688-18.867188v-8.96875c0-4.710938-3.820312-8.53125-8.535156-8.53125-4.710938 0-8.53125 3.820312-8.53125 8.53125v8.96875c-16.675782 1.664062-32.484375 8.230469-45.433594 18.867188l-6.375-6.375c-3.347656-3.234376-8.667969-3.1875-11.960938.105468-3.292968 3.289063-3.339843 8.613282-.105468 11.960938l6.375 6.375c-10.636719 12.949218-17.199219 28.757812-18.867188 45.429687zm93.867188-59.730469c37.703125 0 68.265625 30.5625 68.265625 68.265626 0 37.703124-30.5625 68.265624-68.265625 68.265624s-68.265625-30.5625-68.265625-68.265624c.042969-37.683594 30.582031-68.222657 68.265625-68.265626zm0 0"/><path d="m145.101562 273.082031c-4.714843 0-8.535156 3.820313-8.535156 8.535157 0 4.710937 3.820313 8.53125 8.535156 8.53125h9.386719c1.097657 5.34375 3.21875 10.421874 6.246094 14.960937l-6.671875 6.679687c-2.21875 2.144532-3.109375 5.316407-2.328125 8.300782s3.109375 5.3125 6.09375 6.09375 6.15625-.109375 8.296875-2.328125l6.675781-6.679688c4.539063 3.027344 9.621094 5.152344 14.964844 6.253907v9.386718c0 4.714844 3.820313 8.535156 8.535156 8.535156 4.710938 0 8.53125-3.820312 8.53125-8.535156v-9.386718c5.34375-1.101563 10.421875-3.222657 14.960938-6.246094l6.671875 6.683594c3.347656 3.230468 8.671875 3.1875 11.964844-.105469 3.289062-3.292969 3.335937-8.613281.101562-11.960938l-6.671875-6.683593c3.03125-4.539063 5.152344-9.621094 6.253906-14.96875h9.386719c4.714844 0 8.535156-3.820313 8.535156-8.53125 0-4.714844-3.820312-8.535157-8.535156-8.535157h-9.386719c-1.097656-5.339843-3.21875-10.417969-6.246093-14.957031l6.671874-6.683594c2.21875-2.140625 3.109376-5.3125 2.328126-8.296875s-3.109376-5.3125-6.09375-6.09375c-2.984376-.78125-6.15625.109375-8.300782 2.328125l-6.671875 6.679688c-4.539062-3.027344-9.621093-5.152344-14.96875-6.253906v-9.386719c0-4.714844-3.820312-8.535157-8.53125-8.535157-4.714843 0-8.535156 3.820313-8.535156 8.535157v9.386719c-5.339844 1.101562-10.417969 3.21875-14.957031 6.246093l-6.671875-6.683593c-2.144531-2.21875-5.316407-3.105469-8.300781-2.324219-2.984376.78125-5.3125 3.109375-6.09375 6.09375s.109374 6.15625 2.328124 8.296875l6.671876 6.683594c-3.03125 4.539062-5.152344 9.621093-6.253907 14.964843zm51.199219-17.066406c14.136719 0 25.601563 11.460937 25.601563 25.601563 0 14.136718-11.464844 25.601562-25.601563 25.601562s-25.601562-11.464844-25.601562-25.601562c0-14.140626 11.464843-25.601563 25.601562-25.601563zm0 0"/><path d="m290.167969 409.617188c0-4.714844-3.820313-8.535157-8.535157-8.535157h-30.597656l2.5-2.5c3.234375-3.347656 3.1875-8.667969-.105468-11.960937-3.292969-3.292969-8.613282-3.335938-11.960938-.105469l-17.066406 17.066406c-1.605469 1.601563-2.507813 3.777344-2.507813 6.042969s.902344 4.441406 2.507813 6.042969l17.066406 17.066406c3.347656 3.234375 8.667969 3.1875 11.960938-.105469 3.292968-3.289062 3.339843-8.613281.105468-11.960937l-2.5-2.519531h30.597656c4.714844 0 8.535157-3.820313 8.535157-8.53125zm0 0"/></svg>
