<?xml version="1.0" encoding="UTF-8"?>
<svg xmlns="http://www.w3.org/2000/svg" id="Icons" viewBox="0 0 60 60" width="512" height="512" fill="currentColor"><path d="M57,0H3A2.993,2.993,0,0,0,2,5.816V43a3,3,0,0,0,3,3H27v3.115l-7.729,5.43A3,3,0,0,0,21.011,60a2.989,2.989,0,0,0,1.715-.539L27,56.453V57a3,3,0,0,0,6,0v-.547l4.276,3.007A2.977,2.977,0,0,0,38.985,60a3,3,0,0,0,1.741-5.456L33,49.115V46H55a3,3,0,0,0,3-3V5.816A2.993,2.993,0,0,0,57,0ZM21.577,57.821a1.007,1.007,0,0,1-1.392-.237A1.019,1.019,0,0,1,20,57.011a1.032,1.032,0,0,1,.425-.832L27,51.56v2.447Zm18-1.645a1.037,1.037,0,0,1,.428.835,1,1,0,0,1-1.575.811L33,54.007V51.56ZM31,57a1,1,0,0,1-2,0V46h2ZM56,43a1,1,0,0,1-1,1H5a1,1,0,0,1-1-1V6H56ZM57,4H3A1,1,0,0,1,3,2H57a1,1,0,0,1,0,2Z"/><path d="M11,30H25a4,4,0,0,0,4-4V12a4,4,0,0,0-4-4H11a4,4,0,0,0-4,4V26A4,4,0,0,0,11,30ZM9,12a2,2,0,0,1,2-2H25a2,2,0,0,1,2,2V26a2,2,0,0,1-2,2H11a2,2,0,0,1-2-2Z"/><path d="M35,42H49a4,4,0,0,0,4-4V24a4,4,0,0,0-4-4H35a4,4,0,0,0-4,4V38A4,4,0,0,0,35,42ZM33,24a2,2,0,0,1,2-2H49a2,2,0,0,1,2,2V38a2,2,0,0,1-2,2H35a2,2,0,0,1-2-2Z"/><path d="M13,23a1,1,0,0,0,0,2,10.124,10.124,0,0,0,5-1.392A10.124,10.124,0,0,0,23,25a1,1,0,0,0,0-2,8.849,8.849,0,0,1-3.28-.769A8.325,8.325,0,0,0,21.948,17H23a1,1,0,0,0,0-2H19V14a1,1,0,0,0-2,0v1H13a1,1,0,0,0,0,2h1.052a8.325,8.325,0,0,0,2.225,5.231A8.849,8.849,0,0,1,13,23Zm3.065-6h3.876A6.239,6.239,0,0,1,18,21.1,6.239,6.239,0,0,1,16.062,17Z"/><path d="M39,37a1,1,0,0,0,1-1V33h4v3a1,1,0,0,0,2,0V29a4,4,0,0,0-8,0v7A1,1,0,0,0,39,37Zm3-10a2,2,0,0,1,2,2v2H40V29A2,2,0,0,1,42,27Z"/><path d="M32,12h7a1,1,0,0,1,1,1v1.586l-.293-.293a1,1,0,0,0-1.414,1.414l2,2a1,1,0,0,0,1.414,0l2-2a1,1,0,0,0-1.414-1.414L42,14.586V13a3,3,0,0,0-3-3H32a1,1,0,0,0,0,2Z"/><path d="M28,38H21a1,1,0,0,1-1-1V35.414l.293.293a1,1,0,0,0,1.414-1.414l-2-2a1,1,0,0,0-1.414,0l-2,2a1,1,0,0,0,1.414,1.414L18,35.414V37a3,3,0,0,0,3,3h7a1,1,0,0,0,0-2Z"/></svg>
