<?xml version="1.0" encoding="UTF-8"?>
<svg xmlns="http://www.w3.org/2000/svg" id="Icons" viewBox="0 0 60 60" width="512" height="512" fill="currentColor"><path d="M54,36.818V3a3,3,0,0,0-3-3H9A3,3,0,0,0,6,3V36.818L.318,51.97A4.986,4.986,0,0,0,0,53.725V57a3,3,0,0,0,3,3H57a3,3,0,0,0,3-3V53.725a4.986,4.986,0,0,0-.318-1.755ZM8,3A1,1,0,0,1,9,2H51a1,1,0,0,1,1,1V4H32.239l-.093-.1a3.074,3.074,0,0,0-4.3,0l-.09.1H8ZM30,15a3,3,0,0,0-3,3v4.116a8.76,8.76,0,0,1-3-6.886A10.725,10.725,0,0,1,25.652,10h8.7A10.725,10.725,0,0,1,36,15.23a8.76,8.76,0,0,1-3,6.886V18A3,3,0,0,0,30,15Zm1,3v7a1,1,0,0,1-2,0V18a1,1,0,0,1,2,0ZM26.98,8a28.23,28.23,0,0,1,2.306-2.7,1.031,1.031,0,0,1,1.425,0A28.416,28.416,0,0,1,33.02,8ZM8,6H26c-1.948,2.426-4,5.8-4,9.23,0,.158.009.314.015.471a13.271,13.271,0,0,0-4.77,8.509,2.013,2.013,0,0,0,1.97,2.362,1.966,1.966,0,0,0,1.283-.48,12.775,12.775,0,0,1,4.913-2.66A7.632,7.632,0,0,0,27,24.5V25a3,3,0,0,0,6,0v-.5a7.632,7.632,0,0,0,1.589-1.069,12.774,12.774,0,0,1,4.91,2.657,1.959,1.959,0,0,0,2.267.221,2,2,0,0,0,.99-2.095A13.28,13.28,0,0,0,37.985,15.7c.006-.157.015-.313.015-.471,0-3.433-2.052-6.8-4-9.23H52V23.043c-.167-.015-.331-.043-.5-.043a5.511,5.511,0,0,0-5.331,4.144A4.78,4.78,0,0,0,45,27a5.022,5.022,0,0,0-4.471,2.768A10.543,10.543,0,0,0,36.5,29,8.628,8.628,0,0,0,30,31.469,8.628,8.628,0,0,0,23.5,29a10.543,10.543,0,0,0-4.029.768A5.022,5.022,0,0,0,15,27a4.78,4.78,0,0,0-1.169.144A5.511,5.511,0,0,0,8.5,23c-.169,0-.333.028-.5.043ZM23.938,21.783a15.281,15.281,0,0,0-4.722,2.761,11.854,11.854,0,0,1,3.116-6.461A10.858,10.858,0,0,0,23.938,21.783Zm12.123,0a10.854,10.854,0,0,0,1.607-3.7A11.933,11.933,0,0,1,40.8,24.568,15.183,15.183,0,0,0,36.061,21.783ZM8,25.042A3.587,3.587,0,0,1,8.5,25,3.505,3.505,0,0,1,12,28.43a1.04,1.04,0,0,0-.01.13,1,1,0,0,0,1.5.864A2.957,2.957,0,0,1,15,29a3.008,3.008,0,0,1,2.932,2.375,1,1,0,0,0,1.5.648A7.922,7.922,0,0,1,23.5,31c3.241,0,5.5,1.581,5.5,3a1,1,0,0,0,2,0c0-1.419,2.259-3,5.5-3a7.922,7.922,0,0,1,4.069,1.023,1,1,0,0,0,1.5-.648A3.008,3.008,0,0,1,45,29a2.957,2.957,0,0,1,1.505.424,1,1,0,0,0,1.5-.864,1.025,1.025,0,0,0-.01-.129A3.505,3.505,0,0,1,51.5,25a3.587,3.587,0,0,1,.5.042V36H8ZM7.693,38H52.307l5.25,14H2.443ZM58,57a1,1,0,0,1-1,1H3a1,1,0,0,1-1-1V54H58Z"/><path d="M10,42h3a1,1,0,0,0,0-2H10a1,1,0,0,0,0,2Z"/><path d="M17,42h2a1,1,0,0,0,0-2H17a1,1,0,0,0,0,2Z"/><path d="M23,45a1,1,0,0,0-1-1H20a1,1,0,0,0,0,2h2A1,1,0,0,0,23,45Z"/><path d="M29,45a1,1,0,0,0-1-1H26a1,1,0,0,0,0,2h2A1,1,0,0,0,29,45Z"/><path d="M35,45a1,1,0,0,0-1-1H32a1,1,0,0,0,0,2h2A1,1,0,0,0,35,45Z"/><path d="M41,45a1,1,0,0,0-1-1H38a1,1,0,0,0,0,2h2A1,1,0,0,0,41,45Z"/><path d="M23,42h2a1,1,0,0,0,0-2H23a1,1,0,0,0,0,2Z"/><path d="M29,42h2a1,1,0,0,0,0-2H29a1,1,0,0,0,0,2Z"/><path d="M35,42h2a1,1,0,0,0,0-2H35a1,1,0,0,0,0,2Z"/><path d="M41,42h2a1,1,0,0,0,0-2H41a1,1,0,0,0,0,2Z"/><path d="M19,48H17a1,1,0,0,0,0,2h2a1,1,0,0,0,0-2Z"/><path d="M13,48H12a1,1,0,0,0,0,2h1a1,1,0,0,0,0-2Z"/><path d="M25,48H23a1,1,0,0,0,0,2h2a1,1,0,0,0,0-2Z"/><path d="M31,48H29a1,1,0,0,0,0,2h2a1,1,0,0,0,0-2Z"/><path d="M37,48H35a1,1,0,0,0,0,2h2a1,1,0,0,0,0-2Z"/><path d="M43,48H41a1,1,0,0,0,0,2h2a1,1,0,0,0,0-2Z"/><path d="M8,48H7a1,1,0,0,0,0,2H8a1,1,0,0,0,0-2Z"/><path d="M53,48H52a1,1,0,0,0,0,2h1a1,1,0,0,0,0-2Z"/><path d="M48,48H47a1,1,0,0,0,0,2h1a1,1,0,0,0,0-2Z"/><path d="M8,46h8a1,1,0,0,0,0-2H8a1,1,0,0,0,0,2Z"/><path d="M47,42h3a1,1,0,0,0,0-2H47a1,1,0,0,0,0,2Z"/><path d="M53,45a1,1,0,0,0-1-1H44a1,1,0,0,0,0,2h8A1,1,0,0,0,53,45Z"/></svg>
