<?xml version="1.0" encoding="UTF-8"?>
<svg xmlns="http://www.w3.org/2000/svg" viewBox="0 0 60 60" width="512" height="512" fill="currentColor"><g id="Icons"><path d="M2,8H3v3a1,1,0,0,0,2,0V8H6A2,2,0,0,0,8,6V5h3a1,1,0,0,0,0-2H8V2A2,2,0,0,0,6,0H2A2,2,0,0,0,0,2V6A2,2,0,0,0,2,8ZM2,2H6V6H2Z"/><path d="M2,34H3v3a1,1,0,0,0,2,0V34H6a2,2,0,0,0,2-2V28a2,2,0,0,0-2-2H5V23a1,1,0,0,0-2,0v3H2a2,2,0,0,0-2,2v4A2,2,0,0,0,2,34Zm0-6H6v4H2Z"/><path d="M2,60H6a2,2,0,0,0,2-2V57h3a1,1,0,0,0,0-2H8V54a2,2,0,0,0-2-2H5V49a1,1,0,0,0-2,0v3H2a2,2,0,0,0-2,2v4A2,2,0,0,0,2,60Zm0-6H6v4H2Z"/><path d="M32,0H28a2,2,0,0,0-2,2V3H23a1,1,0,0,0,0,2h3V6a2,2,0,0,0,2,2h4a2,2,0,0,0,2-2V5h3a1,1,0,0,0,0-2H34V2A2,2,0,0,0,32,0ZM28,6V2h4V6Z"/><path d="M32,52H28a2,2,0,0,0-2,2v1H23a1,1,0,0,0,0,2h3v1a2,2,0,0,0,2,2h4a2,2,0,0,0,2-2V57h3a1,1,0,0,0,0-2H34V54A2,2,0,0,0,32,52Zm-4,6V54h4v4Z"/><path d="M58,0H54a2,2,0,0,0-2,2V3H49a1,1,0,0,0,0,2h3V6a2,2,0,0,0,2,2h1v3a1,1,0,0,0,2,0V8h1a2,2,0,0,0,2-2V2A2,2,0,0,0,58,0ZM54,6V2h4l0,4Z"/><path d="M58,26H57V23a1,1,0,0,0-2,0v3H54a2,2,0,0,0-2,2v4a2,2,0,0,0,2,2h1v3a1,1,0,0,0,2,0V34h1a2,2,0,0,0,2-2V28A2,2,0,0,0,58,26Zm-4,6V28h4l0,4Z"/><path d="M58,52H57V49a1,1,0,0,0-2,0v3H54a2,2,0,0,0-2,2v1H49a1,1,0,0,0,0,2h3v1a2,2,0,0,0,2,2h4a2,2,0,0,0,2-2V54A2,2,0,0,0,58,52Zm-4,6V54h4l0,4Z"/><path d="M19,5a1,1,0,0,0,0-2H15a1,1,0,0,0,0,2Z"/><path d="M45,3H41a1,1,0,0,0,0,2h4a1,1,0,0,0,0-2Z"/><path d="M4,40a1,1,0,0,0-1,1v4a1,1,0,0,0,2,0V41A1,1,0,0,0,4,40Z"/><path d="M4,14a1,1,0,0,0-1,1v4a1,1,0,0,0,2,0V15A1,1,0,0,0,4,14Z"/><path d="M45,55H41a1,1,0,0,0,0,2h4a1,1,0,0,0,0-2Z"/><path d="M15,55a1,1,0,0,0,0,2h4a1,1,0,0,0,0-2Z"/><path d="M56,20a1,1,0,0,0,1-1V15a1,1,0,0,0-2,0v4A1,1,0,0,0,56,20Z"/><path d="M56,46a1,1,0,0,0,1-1V41a1,1,0,0,0-2,0v4A1,1,0,0,0,56,46Z"/><path d="M49.067,23.559a1.739,1.739,0,0,0,0-3.079l-18.3-9.289a1.632,1.632,0,0,0-1.523-.007l-18.313,9.3a1.738,1.738,0,0,0,0,3.08l4.853,2.453-4.86,2.467a1.743,1.743,0,0,0,0,3.083l4.852,2.453-4.855,2.465a1.743,1.743,0,0,0,0,3.083l18.341,9.273a1.7,1.7,0,0,0,.721.162,1.773,1.773,0,0,0,.758-.174L49.07,39.563a1.743,1.743,0,0,0,0-3.083l-4.853-2.464,4.853-2.454a1.743,1.743,0,0,0,0-3.083l-4.857-2.466,4.852-2.453ZM47.688,38.021,30,46.964,12.312,38.021,18,35.135l11.275,5.7a1.7,1.7,0,0,0,.721.162,1.773,1.773,0,0,0,.758-.174L42,35.135Zm0-8L30,38.963,12.312,30.021,18,27.132l11.233,5.68A1.67,1.67,0,0,0,30,33a1.615,1.615,0,0,0,.748-.183L42,27.133ZM30,30.959,12.32,22.02,30,13.044,47.68,22.02Z"/></g></svg>
