<?xml version="1.0" encoding="UTF-8"?>
<svg xmlns="http://www.w3.org/2000/svg" id="Icons" viewBox="0 0 60 60" width="512" height="512" fill="currentColor"><path d="M3,49H4a3,3,0,0,0,2.816-2h.246a6.006,6.006,0,0,1,3.085.854l1.676,1.006c.057.035.119.058.177.091V56a4,4,0,0,0,4,4H44a4,4,0,0,0,4-4V31h6.893a3.084,3.084,0,0,0,3.067-2.5,3.021,3.021,0,0,0-.359-1.992A2.958,2.958,0,0,0,58.96,24.5a3.023,3.023,0,0,0-.346-1.968,2.974,2.974,0,0,0,.672-.587A3.01,3.01,0,0,0,59.96,19.5,2.958,2.958,0,0,0,58.6,17.5,3.021,3.021,0,0,0,58.96,15.5,3.084,3.084,0,0,0,55.893,13H50.631A17.815,17.815,0,0,0,52,6.1,3.023,3.023,0,0,0,49.609,3.06a2.953,2.953,0,0,0-1.689.152A4.005,4.005,0,0,0,44,0H16a4,4,0,0,0-4,4V31.4c-.316.329-.584.648-.831.948-.861,1.046-1.567,1.893-4.4,2.493A3,3,0,0,0,4,33H3a3,3,0,0,0-3,3V46A3,3,0,0,0,3,49Zm41,9H16a2,2,0,0,1-2-2V54.444A3.959,3.959,0,0,0,16,55H44a3.959,3.959,0,0,0,2-.556V56A2,2,0,0,1,44,58ZM48.538,5.138a.894.894,0,0,1,.7-.114A1.057,1.057,0,0,1,50,6.088a15.69,15.69,0,0,1-1.313,6.367,1.782,1.782,0,0,0,.126,1.712A1.811,1.811,0,0,0,50.34,15h5.553a1.083,1.083,0,0,1,1.092.825A1,1,0,0,1,56,17a1,1,0,0,0,0,2h.893a1.083,1.083,0,0,1,1.092.825A1,1,0,0,1,57,21H56a1,1,0,0,0,0,2,1,1,0,0,1,.985,1.175A1.083,1.083,0,0,1,55.893,25H55a1,1,0,0,0,0,2,1,1,0,0,1,.985,1.175A1.083,1.083,0,0,1,54.893,29H43.938a6.006,6.006,0,0,1-3.085-.854L39.177,27.14A8,8,0,0,0,35.062,26H35V17.832c3.679-.747,4.669-1.949,5.713-3.217a8.377,8.377,0,0,1,1.853-1.791,14.44,14.44,0,0,1,1.4-.823c1.7-.909,3.306-1.769,4.017-5.829A1.576,1.576,0,0,1,48.538,5.138ZM37.691,2,36.408,3.368A2,2,0,0,1,34.95,4h-9.9a2.006,2.006,0,0,1-1.459-.632L22.309,2ZM16,2h3.567l2.565,2.735A4.011,4.011,0,0,0,25.05,6h9.9a4.006,4.006,0,0,0,2.918-1.265L40.433,2H44a2,2,0,0,1,2,2V5.9c-.545,3.03-1.462,3.525-2.976,4.334a16.318,16.318,0,0,0-1.59.939,10.307,10.307,0,0,0-2.265,2.168c-.861,1.046-1.567,1.893-4.4,2.493A3,3,0,0,0,32,14H31a3,3,0,0,0-3,3V27a3,3,0,0,0,3,3h1a3,3,0,0,0,2.816-2h.246a6.006,6.006,0,0,1,3.085.854l1.676,1.006A8,8,0,0,0,43.938,31H46V51a2,2,0,0,1-2,2H16a2,2,0,0,1-2-2V49.75a7.99,7.99,0,0,0,1.938.25H26.893a3.084,3.084,0,0,0,3.067-2.5,3.021,3.021,0,0,0-.359-1.992A2.958,2.958,0,0,0,30.96,43.5a3.023,3.023,0,0,0-.346-1.968,2.974,2.974,0,0,0,.672-.587A3.01,3.01,0,0,0,31.96,38.5,2.958,2.958,0,0,0,30.6,36.495,3.021,3.021,0,0,0,30.96,34.5,3.084,3.084,0,0,0,27.893,32H22.631A17.815,17.815,0,0,0,24,25.1a3.023,3.023,0,0,0-2.391-3.038,2.857,2.857,0,0,0-2.209.433,3.511,3.511,0,0,0-1.385,2.334c-.543,3.1-1.464,3.594-2.991,4.41-.315.169-.664.366-1.024.584V4A2,2,0,0,1,16,2ZM33,27a1,1,0,0,1-1,1H31a1,1,0,0,1-1-1V17a1,1,0,0,1,1-1h1a1,1,0,0,1,1,1ZM12.713,33.615a8.377,8.377,0,0,1,1.853-1.791,14.44,14.44,0,0,1,1.4-.823c1.7-.909,3.306-1.769,4.017-5.829a1.576,1.576,0,0,1,.553-1.034.9.9,0,0,1,.7-.114A1.057,1.057,0,0,1,22,25.088a15.69,15.69,0,0,1-1.313,6.367,1.782,1.782,0,0,0,.126,1.712A1.811,1.811,0,0,0,22.34,34h5.553a1.083,1.083,0,0,1,1.092.825A1,1,0,0,1,28,36a1,1,0,0,0,0,2h.893a1.083,1.083,0,0,1,1.092.825A1,1,0,0,1,29,40H28a1,1,0,0,0,0,2,1,1,0,0,1,.985,1.175A1.083,1.083,0,0,1,27.893,44H27a1,1,0,0,0,0,2,1,1,0,0,1,.985,1.175A1.083,1.083,0,0,1,26.893,48H15.938a6.006,6.006,0,0,1-3.085-.854L11.177,46.14A8,8,0,0,0,7.062,45H7V36.832C10.679,36.085,11.669,34.883,12.713,33.615ZM2,36a1,1,0,0,1,1-1H4a1,1,0,0,1,1,1V46a1,1,0,0,1-1,1H3a1,1,0,0,1-1-1Z"/></svg>
