<svg height="512pt" viewBox="0 0 512 512" width="512pt" xmlns="http://www.w3.org/2000/svg" fill="currentColor"><path d="m324.265625 42.667969c0 4.710937-3.820313 8.53125-8.53125 8.53125-4.714844 0-8.535156-3.820313-8.535156-8.53125 0-4.714844 3.820312-8.535157 8.535156-8.535157 4.710937 0 8.53125 3.820313 8.53125 8.535157zm0 0"/><path d="m358.398438 42.667969c0 4.710937-3.820313 8.53125-8.53125 8.53125-4.714844 0-8.535157-3.820313-8.535157-8.53125 0-4.714844 3.820313-8.535157 8.535157-8.535157 4.710937 0 8.53125 3.820313 8.53125 8.535157zm0 0"/><path d="m392.535156 42.667969c0 4.710937-3.824218 8.53125-8.535156 8.53125s-8.535156-3.820313-8.535156-8.53125c0-4.714844 3.824218-8.535157 8.535156-8.535157s8.535156 3.820313 8.535156 8.535157zm0 0"/><path d="m265.746094 247.464844h-19.492188c-3.878906-15.023438-17.402344-25.539063-32.921875-25.597656h-68.265625c-15.515625.058593-29.042968 10.574218-32.921875 25.597656h-9.746093c-4.710938 0-8.53125 3.824218-8.53125 8.535156s3.820312 8.535156 8.53125 8.535156h9.746093c3.878907 15.023438 17.40625 25.539063 32.921875 25.597656h68.265625c15.519531-.058593 29.042969-10.574218 32.921875-25.597656h19.492188c3.878906 15.023438 17.402344 25.539063 32.921875 25.597656h68.265625c15.515625-.058593 29.042968-10.574218 32.921875-25.597656h9.746093c4.710938 0 8.53125-3.824218 8.53125-8.535156s-3.820312-8.535156-8.53125-8.535156h-9.746093c-3.878907-15.023438-17.40625-25.539063-32.921875-25.597656h-68.265625c-15.519531.058593-29.042969 10.574218-32.921875 25.597656zm-52.414063 25.601562h-68.265625c-6.070312-.019531-11.667968-3.269531-14.695312-8.53125h6.164062c4.710938 0 8.53125-3.824218 8.53125-8.535156s-3.820312-8.535156-8.53125-8.535156h-6.164062c3.027344-5.261719 8.625-8.511719 14.695312-8.53125h68.265625c6.070313.019531 11.671875 3.269531 14.695313 8.53125h-6.160156c-4.714844 0-8.535157 3.824218-8.535157 8.535156s3.820313 8.535156 8.535157 8.535156h6.160156c-3.023438 5.261719-8.625 8.511719-14.695313 8.53125zm168.296875-25.601562h-6.164062c-4.710938 0-8.53125 3.824218-8.53125 8.535156s3.820312 8.535156 8.53125 8.535156h6.164062c-3.027344 5.261719-8.625 8.511719-14.695312 8.53125h-68.265625c-6.070313-.019531-11.671875-3.269531-14.695313-8.53125h6.160156c4.714844 0 8.535157-3.824218 8.535157-8.535156s-3.820313-8.535156-8.535157-8.535156h-6.160156c3.023438-5.261719 8.625-8.511719 14.695313-8.53125h68.265625c6.070312.019531 11.667968 3.269531 14.695312 8.53125zm0 0"/><path d="m486.398438 0h-187.730469c-14.140625 0-25.601563 11.460938-25.601563 25.601562v170.664063c0 4.714844 3.820313 8.535156 8.535156 8.535156 4.710938 0 8.53125-3.820312 8.53125-8.535156v-110.933594h204.800782v401.066407c0 4.714843-3.820313 8.535156-8.535156 8.535156h-187.730469c-4.714844 0-8.535157-3.820313-8.535157-8.535156v-170.664063c0-4.714844-3.820312-8.535156-8.53125-8.535156-4.714843 0-8.535156 3.820312-8.535156 8.535156v170.664063c0 14.140624 11.460938 25.601562 25.601563 25.601562h187.730469c14.140624 0 25.601562-11.460938 25.601562-25.601562v-460.796876c0-14.140624-11.460938-25.601562-25.601562-25.601562zm-196.265626 68.265625v-42.664063c0-4.714843 3.820313-8.535156 8.535157-8.535156h187.730469c4.714843 0 8.535156 3.820313 8.535156 8.535156v42.664063zm0 0"/><path d="m119.464844 42.667969c0 4.710937-3.820313 8.53125-8.53125 8.53125-4.714844 0-8.535156-3.820313-8.535156-8.53125 0-4.714844 3.820312-8.535157 8.535156-8.535157 4.710937 0 8.53125 3.820313 8.53125 8.535157zm0 0"/><path d="m85.332031 42.667969c0 4.710937-3.820312 8.53125-8.53125 8.53125-4.714843 0-8.535156-3.820313-8.535156-8.53125 0-4.714844 3.820313-8.535157 8.535156-8.535157 4.710938 0 8.53125 3.820313 8.53125 8.535157zm0 0"/><path d="m51.199219 42.667969c0 4.710937-3.820313 8.53125-8.53125 8.53125-4.714844 0-8.535157-3.820313-8.535157-8.53125 0-4.714844 3.820313-8.535157 8.535157-8.535157 4.710937 0 8.53125 3.820313 8.53125 8.535157zm0 0"/><path d="m25.601562 512h187.730469c14.140625 0 25.601563-11.460938 25.601563-25.601562v-170.664063c0-4.714844-3.820313-8.535156-8.535156-8.535156-4.710938 0-8.53125 3.820312-8.53125 8.535156v170.664063c0 4.714843-3.820313 8.535156-8.535157 8.535156h-187.730469c-4.714843 0-8.535156-3.820313-8.535156-8.535156v-401.066407h204.800782v110.933594c0 4.714844 3.820312 8.535156 8.53125 8.535156 4.714843 0 8.535156-3.820312 8.535156-8.535156v-170.664063c0-14.140624-11.460938-25.601562-25.601563-25.601562h-187.730469c-14.140624 0-25.601562 11.460938-25.601562 25.601562v460.796876c0 14.140624 11.460938 25.601562 25.601562 25.601562zm0-494.933594h187.730469c4.714844 0 8.535157 3.820313 8.535157 8.535156v42.664063h-204.800782v-42.664063c0-4.714843 3.820313-8.535156 8.535156-8.535156zm0 0"/><path d="m51.199219 204.800781h136.535156c9.425781 0 17.066406-7.640625 17.066406-17.066406v-68.269531c0-9.425782-7.640625-17.066406-17.066406-17.066406h-136.535156c-9.425781 0-17.066407 7.640624-17.066407 17.066406v68.269531c0 9.425781 7.640626 17.066406 17.066407 17.066406zm0-85.335937h136.535156v68.269531h-136.535156zm0 0"/><path d="m477.867188 324.265625c0-9.425781-7.640626-17.066406-17.066407-17.066406h-136.535156c-9.425781 0-17.066406 7.640625-17.066406 17.066406v51.199219c0 9.425781 7.640625 17.070312 17.066406 17.070312h136.535156c9.425781 0 17.066407-7.644531 17.066407-17.070312zm-153.601563 51.199219v-51.199219h136.535156v51.199219zm0 0"/><path d="m418.132812 102.398438h-51.199218c-9.425782 0-17.066406 7.640624-17.066406 17.066406v68.269531c0 9.425781 7.640624 17.066406 17.066406 17.066406h51.199218c9.425782 0 17.066407-7.640625 17.066407-17.066406v-68.269531c0-9.425782-7.640625-17.066406-17.066407-17.066406zm-51.199218 85.335937v-68.269531h51.199218v68.269531zm0 0"/><path d="m42.667969 324.265625h93.867187c4.710938 0 8.53125-3.820313 8.53125-8.53125 0-4.714844-3.820312-8.535156-8.53125-8.535156h-93.867187c-4.714844 0-8.535157 3.820312-8.535157 8.535156 0 4.710937 3.820313 8.53125 8.535157 8.53125zm0 0"/><path d="m196.265625 341.332031h-153.597656c-4.714844 0-8.535157 3.820313-8.535157 8.535157 0 4.710937 3.820313 8.53125 8.535157 8.53125h153.597656c4.714844 0 8.535156-3.820313 8.535156-8.53125 0-4.714844-3.820312-8.535157-8.535156-8.535157zm0 0"/><path d="m42.667969 392.535156h136.53125c4.714843 0 8.535156-3.824218 8.535156-8.535156s-3.820313-8.535156-8.535156-8.535156h-136.53125c-4.714844 0-8.535157 3.824218-8.535157 8.535156s3.820313 8.535156 8.535157 8.535156zm0 0"/><path d="m42.667969 426.667969h85.332031c4.710938 0 8.535156-3.820313 8.535156-8.535157 0-4.710937-3.824218-8.53125-8.535156-8.53125h-85.332031c-4.714844 0-8.535157 3.820313-8.535157 8.53125 0 4.714844 3.820313 8.535157 8.535157 8.535157zm0 0"/><path d="m42.667969 460.800781h153.597656c4.714844 0 8.535156-3.820312 8.535156-8.535156 0-4.710937-3.820312-8.53125-8.535156-8.53125h-153.597656c-4.714844 0-8.535157 3.820313-8.535157 8.53125 0 4.714844 3.820313 8.535156 8.535157 8.535156zm0 0"/><path d="m477.867188 418.132812c0-4.710937-3.820313-8.53125-8.535157-8.53125h-153.597656c-4.714844 0-8.535156 3.820313-8.535156 8.53125 0 4.714844 3.820312 8.535157 8.535156 8.535157h153.597656c4.714844 0 8.535157-3.820313 8.535157-8.535157zm0 0"/><path d="m315.734375 443.734375c-4.714844 0-8.535156 3.820313-8.535156 8.53125 0 4.714844 3.820312 8.535156 8.535156 8.535156h76.800781c4.710938 0 8.53125-3.820312 8.53125-8.535156 0-4.710937-3.820312-8.53125-8.53125-8.53125zm0 0"/></svg>
