<svg height="511pt" viewBox="-30 0 511 511.93781" width="511pt" xmlns="http://www.w3.org/2000/svg" fill="currentColor"><path d="m273.261719 144.589844c-1.03125 2.015625-1.21875 4.359375-.519531 6.511718.699218 2.15625 2.222656 3.945313 4.242187 4.972657 16.757813 8.578125 32.0625 19.734375 45.363281 33.058593-8.996094 5.886719-18.550781 10.867188-28.527344 14.863282-2.859374-6.957032-6.082031-13.757813-9.660156-20.375-1.441406-2.726563-4.238281-4.464844-7.320312-4.546875-3.085938-.082031-5.972656 1.507812-7.550782 4.152343-1.582031 2.648438-1.613281 5.945313-.078124 8.621094 3.140624 5.824219 5.988281 11.804688 8.53125 17.917969-10.636719 3.363281-21.492188 6-32.484376 7.894531-3.007812.519532-5.503906 2.601563-6.558593 5.460938-1.054688 2.859375-.5 6.066406 1.449219 8.410156 1.953124 2.34375 5.003906 3.464844 8.007812 2.949219 12.070312-2.070313 23.984375-4.972657 35.652344-8.6875 8.613281 26.304687 13.289062 53.734375 13.886718 81.40625h-93.628906v-59.734375c0-4.710938-3.820312-8.53125-8.535156-8.53125-4.710938 0-8.53125 3.820312-8.53125 8.53125v59.734375h-93.628906c.589844-27.667969 5.261718-55.097657 13.867187-81.398438 14.5 4.605469 29.363281 7.984375 44.433594 10.09375.398437.050781.800781.078125 1.203125.078125 4.476562-.007812 8.183594-3.476562 8.496094-7.9375.308594-4.464844-2.878906-8.414062-7.308594-9.042968-13.816406-1.949219-27.449219-5.035157-40.757812-9.226563 2.644531-6.210937 5.4375-12.253906 8.535156-17.917969 1.53125-2.675781 1.503906-5.972656-.078125-8.621094-1.582031-2.644531-4.46875-4.234374-7.550781-4.152343-3.082032.082031-5.882813 1.820312-7.324219 4.546875-3.582031 6.628906-6.8125 13.445312-9.675781 20.417968-9.992188-3.984374-19.5625-8.957031-28.570313-14.847656 13.316406-13.347656 28.644531-24.523437 45.425781-33.117187 2.714844-1.386719 4.484375-4.117188 4.640625-7.164063s-1.320312-5.945312-3.882812-7.601562c-2.558594-1.660156-5.808594-1.828125-8.523438-.441406-63.117187 32.769531-103.570312 97.121093-105.738281 168.203124-2.171875 71.085938 34.285156 137.78125 95.285156 174.339844 61.003906 36.554688 137.007813 37.253906 198.671875 1.820313 4.066407-2.382813 5.433594-7.609375 3.050781-11.675781-2.382812-4.070313-7.609374-5.433594-11.679687-3.050782-9.082031 5.277344-18.617187 9.742188-28.492187 13.335938 5.664062-5.578125 10.84375-11.625 15.480468-18.082032 1.878906-2.472656 2.269532-5.769531 1.015625-8.609374-1.25-2.839844-3.949219-4.777344-7.042969-5.054688-3.089843-.28125-6.089843 1.144531-7.832031 3.714844-15.863281 22.058594-35.105469 35.472656-54.953125 38.476562v-67.414062c13.816406.347656 27.589844 1.683594 41.214844 3.992187 4.644531.804688 9.058594-2.3125 9.859375-6.957031.804687-4.644531-2.3125-9.058594-6.957031-9.859375-14.585938-2.484375-29.328125-3.910156-44.117188-4.269531v-85.511719h102.398438c4.714844 0 8.535156-3.820313 8.535156-8.53125.148438-32.507813-4.960938-64.824219-15.128906-95.703125 12.011718-4.789062 23.457031-10.890625 34.132812-18.191406 26.410156 32.070312 40.8125 72.347656 40.730469 113.894531 0 4.710937 3.820313 8.53125 8.53125 8.53125 4.714844 0 8.535156-3.820313 8.535156-8.53125.175781-73.820313-41.226562-141.449219-107.050781-174.867187-2.019531-1.03125-4.359375-1.21875-6.515625-.519532-2.152344.699219-3.941406 2.222656-4.972656 4.242188zm-215.96875 56.949218c.515625.703126 1.132812 1.320313 1.835937 1.835938 10.09375 6.621094 20.828125 12.207031 32.042969 16.675781-9.257813 28.148438-14.269531 57.523438-14.867187 87.148438h-59.671876c1.71875-38.699219 15.992188-75.789063 40.660157-105.660157zm-40.523438 122.726563h59.425781c.617188 35.035156 7.652344 69.660156 20.75 102.160156-10.335937 3.796875-20.328124 8.46875-29.863281 13.972657-30.398437-31.261719-48.296875-72.574219-50.3125-116.132813zm63.367188 128.359375c7.730469-4.136719 15.75-7.710938 23.996093-10.691406 7.667969 15.402344 17.703126 29.511718 29.738282 41.8125-19.585938-7.167969-37.769532-17.699219-53.734375-31.121094zm40.105469-15.871094c21.769531-5.988281 44.1875-9.292968 66.757812-9.839844v67.261719c-26.359375-3.832031-49.851562-25.210937-66.773438-57.421875zm66.757812-26.898437c-25.082031.570312-49.984375 4.363281-74.09375 11.28125-12.347656-30.832031-18.964844-63.660157-19.527344-96.871094h93.621094zm0 0"/><path d="m195.53125 221.867188c2.59375 0 5.046875-1.175782 6.664062-3.199219 2.867188-3.585938 70.136719-88.289063 70.136719-141.867188-1.058593-41.96875-34.832031-75.742187-76.800781-76.800781-41.96875 1.058594-75.738281 34.832031-76.796875 76.800781 0 53.578125 67.265625 138.238281 70.132813 141.867188 1.621093 2.023437 4.074218 3.199219 6.664062 3.199219zm0-204.800782c32.464844 1.234375 58.5 27.269532 59.734375 59.734375 0 38.457031-42.898437 99.839844-59.734375 122.476563-16.84375-22.636719-59.730469-83.984375-59.730469-122.476563 1.234375-32.464843 27.265625-58.5 59.730469-59.734375zm0 0"/><path d="m229.664062 68.265625c0-18.851563-15.28125-34.132813-34.132812-34.132813s-34.132812 15.28125-34.132812 34.132813 15.28125 34.132813 34.132812 34.132813 34.132812-15.28125 34.132812-34.132813zm-51.199218 0c0-9.425781 7.640625-17.066406 17.066406-17.066406s17.066406 7.640625 17.066406 17.066406-7.640625 17.066406-17.066406 17.066406-17.066406-7.640625-17.066406-17.066406zm0 0"/><path d="m340.597656 366.933594c-4.710937 0-8.53125 3.820312-8.53125 8.53125 0 4.714844 3.820313 8.535156 8.53125 8.535156 4.199219 0 8.246094 1.546875 11.375 4.34375 2.269532 2.066406 5.46875 2.757812 8.386719 1.8125 2.917969-.949219 5.101563-3.386719 5.722656-6.390625.621094-3.007813-.421875-6.113281-2.722656-8.136719-6.257813-5.605468-14.363281-8.699218-22.761719-8.695312zm0 0"/><path d="m319.308594 384.496094c-4.4375-1.574219-9.3125.75-10.886719 5.1875-2.605469 7.363281-2.605469 15.402344 0 22.765625.941406 2.96875 3.429687 5.1875 6.488281 5.789062 3.054688.601563 6.195313-.515625 8.191406-2.90625 2-2.390625 2.53125-5.679687 1.394532-8.582031-1.285156-3.679688-1.285156-7.6875 0-11.367188 1.570312-4.4375-.75-9.3125-5.1875-10.886718zm0 0"/><path d="m394.460938 442.878906c22.195312-28.554687 18.359374-69.449218-8.761719-93.378906-27.117188-23.929688-68.167969-22.652344-93.742188 2.921875s-26.855469 66.628906-2.925781 93.746094c23.929688 27.117187 64.824219 30.957031 93.382812 8.761719l54.570313 54.613281c3.347656 3.234375 8.667969 3.1875 11.960937-.105469 3.292969-3.289062 3.339844-8.613281.105469-11.960938zm-105.0625-41.8125c0-20.707031 12.476562-39.378906 31.609374-47.300781 19.128907-7.925781 41.152344-3.546875 55.796876 11.097656 14.640624 14.644531 19.023437 36.664063 11.097656 55.796875-7.925782 19.132813-26.59375 31.605469-47.304688 31.605469-28.261718-.027344-51.171875-22.933594-51.199218-51.199219zm0 0"/></svg>
