<svg height="512pt" viewBox="0 0 512 512" width="512pt" xmlns="http://www.w3.org/2000/svg" fill="currentColor"><path d="m25.601562 349.867188h119.464844c4.714844 0 8.535156-3.820313 8.535156-8.535157 0-4.710937-3.820312-8.53125-8.535156-8.53125h-119.464844c-4.714843 0-8.535156-3.820312-8.535156-8.535156v-238.933594h366.933594v93.867188c0 4.714843 3.820312 8.535156 8.535156 8.535156 4.710938 0 8.53125-3.820313 8.53125-8.535156v-153.597657c0-14.140624-11.460937-25.601562-25.601562-25.601562h-349.863282c-14.140624 0-25.601562 11.460938-25.601562 25.601562v298.664063c0 14.140625 11.460938 25.601563 25.601562 25.601563zm0-332.800782h349.863282c4.714844 0 8.535156 3.820313 8.535156 8.535156v42.664063h-366.933594v-42.664063c0-4.714843 3.820313-8.535156 8.535156-8.535156zm0 0"/><path d="m341.332031 230.398438c-61.265625 0-110.933593 49.667968-110.933593 110.933593 0 61.269531 49.667968 110.933594 110.933593 110.933594 61.269531 0 110.933594-49.664063 110.933594-110.933594-.070313-61.234375-49.695313-110.863281-110.933594-110.933593zm0 204.800781c-51.839843 0-93.867187-42.023438-93.867187-93.867188 0-51.839843 42.027344-93.867187 93.867187-93.867187 51.84375 0 93.867188 42.027344 93.867188 93.867187-.058594 51.816407-42.050781 93.808594-93.867188 93.867188zm0 0"/><path d="m341.332031 315.734375c-14.136719 0-25.597656 11.460937-25.597656 25.597656 0 14.140625 11.460937 25.601563 25.597656 25.601563 14.140625 0 25.601563-11.460938 25.601563-25.601563 0-14.136719-11.460938-25.597656-25.601563-25.597656zm0 34.132813c-4.710937 0-8.53125-3.820313-8.53125-8.535157 0-4.710937 3.820313-8.53125 8.53125-8.53125 4.714844 0 8.535157 3.820313 8.535157 8.53125 0 4.714844-3.820313 8.535157-8.535157 8.535157zm0 0"/><path d="m360.535156 266.957031c-2.980468-.839843-6.175781 0-8.359375 2.191407-2.183593 2.191406-3.011719 5.390624-2.160156 8.363281.847656 2.976562 3.238281 5.257812 6.25 5.964843 15.878906 4.136719 29.371094 14.589844 37.34375 28.929688 1.46875 2.679688 4.261719 4.371094 7.320313 4.429688 3.058593.058593 5.914062-1.527344 7.484374-4.152344 1.570313-2.625 1.617188-5.886719.121094-8.554688-10.25-18.429687-27.59375-31.863281-48-37.171875zm0 0"/><path d="m283.476562 356.273438c-1.257812-4.464844-5.855468-7.105469-10.347656-5.945313-4.492187 1.160156-7.234375 5.695313-6.171875 10.214844 2.695313 10.527343 7.617188 20.351562 14.429688 28.816406 1.886719 2.441406 4.945312 3.679687 7.996093 3.230469 3.054688-.449219 5.628907-2.515625 6.730469-5.398438 1.101563-2.882812.5625-6.136718-1.414062-8.507812-5.296875-6.585938-9.121094-14.222656-11.222657-22.410156zm0 0"/><path d="m341.332031 401.066406c-10.121093.003906-20.078125-2.566406-28.933593-7.464844-4.125-2.289062-9.320313-.796874-11.605469 3.328126-2.289063 4.121093-.796875 9.316406 3.328125 11.605468 11.390625 6.296875 24.195312 9.597656 37.210937 9.597656 4.714844 0 8.535157-3.820312 8.535157-8.53125 0-4.714843-3.820313-8.535156-8.535157-8.535156zm0 0"/><path d="m494.933594 315.734375-10.949219-.207031c-3.660156-20.484375-11.746094-39.925782-23.6875-56.96875l7.746094-7.738282c3.203125-3.199218 5.003906-7.542968 5.003906-12.070312s-1.800781-8.871094-5.003906-12.070312l-12.0625-12.066407c-3.203125-3.203125-7.542969-5-12.070313-5-4.53125 0-8.871094 1.796875-12.074218 5l-7.890626 7.601563c-17.070312-11.894532-36.523437-19.929688-57.011718-23.542969v-10.9375c0-9.425781-7.640625-17.066406-17.066406-17.066406h-17.066407c-9.425781 0-17.066406 7.640625-17.066406 17.066406l-.207031 10.945313c-20.484375 3.664062-39.925782 11.746093-56.96875 23.691406l-7.738282-7.75c-3.199218-3.203125-7.542968-5-12.070312-5s-8.871094 1.796875-12.070312 5l-12.066407 12.066406c-6.664062 6.664062-6.664062 17.46875 0 24.132812l7.601563 7.902344c-11.894532 17.066406-19.929688 36.523438-23.542969 57.011719h-10.9375c-9.425781 0-17.066406 7.640625-17.066406 17.066406v17.066407c0 9.425781 7.640625 17.066406 17.066406 17.066406l10.945313.203125c3.664062 20.488281 11.746093 39.929687 23.691406 56.96875l-7.75 7.742187c-3.203125 3.199219-5 7.542969-5 12.070313 0 4.527343 1.796875 8.867187 5 12.070312l12.066406 12.066407c3.203125 3.199218 7.542969 5 12.070312 5 4.527344 0 8.871094-1.800782 12.070313-5l7.894531-7.605469c17.066406 11.898437 36.523438 19.929687 57.011719 23.542969v10.941406c0 9.425781 7.640625 17.066406 17.066406 17.066406h17.066407c9.425781 0 17.066406-7.640625 17.066406-17.066406l.203125-10.949219c20.488281-3.660156 39.929687-11.746094 56.96875-23.6875l7.742187 7.746094c3.199219 3.203125 7.542969 5.003906 12.070313 5.003906 4.527343 0 8.867187-1.800781 12.070312-5.003906l12.066407-12.0625c3.199218-3.203125 5-7.542969 5-12.070313 0-4.53125-1.800782-8.871094-5-12.074218l-7.605469-7.890626c11.898437-17.070312 19.929687-36.523437 23.542969-57.011718h10.941406c9.425781 0 17.066406-7.640625 17.066406-17.066406v-17.066407c0-9.425781-7.640625-17.066406-17.066406-17.066406zm0 34.132813h-10.941406c-8.308594.046874-15.390626 6.050781-16.800782 14.242187-3.21875 18.003906-10.304687 35.09375-20.769531 50.089844-4.792969 6.796875-4.03125 16.050781 1.808594 21.972656l7.75 7.742187-12.066407 12.066407-7.75-7.75c-5.917968-5.84375-15.171874-6.605469-21.964843-1.808594-14.996094 10.464844-32.085938 17.550781-50.089844 20.769531-8.191406 1.410156-14.195313 8.492188-14.242187 16.800782v10.941406h-17.066407v-10.941406c-.050781-8.308594-6.050781-15.390626-14.242187-16.800782-18.003906-3.21875-35.09375-10.304687-50.089844-20.769531-2.925781-2.042969-6.402344-3.140625-9.96875-3.140625-4.5-.011719-8.820312 1.769531-12.007812 4.949219l-7.738282 7.75-12.066406-12.066407 7.75-7.75c5.839844-5.917968 6.605469-15.171874 1.808594-21.964843-10.464844-14.996094-17.550782-32.085938-20.769532-50.089844-1.410156-8.191406-8.492187-14.195313-16.804687-14.242187h-10.9375v-17.066407h10.9375c8.3125-.050781 15.394531-6.050781 16.804687-14.242187 3.21875-18.003906 10.304688-35.09375 20.769532-50.089844 4.796875-6.796875 4.03125-16.050781-1.808594-21.964844l-7.75-7.75 12.066406-12.066406 7.75 7.75c5.914063 5.839844 15.167969 6.605469 21.964844 1.808594 14.996094-10.464844 32.085938-17.550782 50.089844-20.769532 8.191406-1.410156 14.191406-8.492187 14.242187-16.804687v-10.9375h17.066407v10.9375c.046874 8.3125 6.050781 15.394531 14.242187 16.804687 18.003906 3.21875 35.09375 10.304688 50.089844 20.769532 6.796875 4.792968 16.050781 4.03125 21.972656-1.808594l7.742187-7.75 12.066407 12.066406-7.75 7.75c-5.84375 5.914063-6.605469 15.167969-1.808594 21.964844 10.464844 14.996094 17.550781 32.085938 20.769531 50.089844 1.410156 8.191406 8.492188 14.191406 16.800782 14.242187h10.941406zm0 0"/><path d="m128 443.734375c0 4.710937-3.820312 8.53125-8.535156 8.53125-4.710938 0-8.53125-3.820313-8.53125-8.53125 0-4.714844 3.820312-8.535156 8.53125-8.535156 4.714844 0 8.535156 3.820312 8.535156 8.535156zm0 0"/><path d="m51.199219 42.667969c0 4.710937-3.820313 8.53125-8.53125 8.53125-4.714844 0-8.535157-3.820313-8.535157-8.53125 0-4.714844 3.820313-8.535157 8.535157-8.535157 4.710937 0 8.53125 3.820313 8.53125 8.535157zm0 0"/><path d="m85.332031 42.667969c0 4.710937-3.820312 8.53125-8.53125 8.53125-4.714843 0-8.535156-3.820313-8.535156-8.53125 0-4.714844 3.820313-8.535157 8.535156-8.535157 4.710938 0 8.53125 3.820313 8.53125 8.535157zm0 0"/><path d="m119.464844 42.667969c0 4.710937-3.820313 8.53125-8.53125 8.53125-4.714844 0-8.535156-3.820313-8.535156-8.53125 0-4.714844 3.820312-8.535157 8.535156-8.535157 4.710937 0 8.53125 3.820313 8.53125 8.535157zm0 0"/><path d="m167.738281 395.460938c-3.332031-3.332032-8.730469-3.332032-12.066406 0l-6.585937 6.585937c-6.277344-4.472656-13.484376-7.464844-21.085938-8.746094v-9.300781c0-4.710938-3.820312-8.535156-8.535156-8.535156-4.710938 0-8.53125 3.824218-8.53125 8.535156v9.300781c-7.601563 1.28125-14.808594 4.273438-21.085938 8.746094l-6.589844-6.585937c-2.140624-2.21875-5.3125-3.109376-8.296874-2.328126-2.984376.78125-5.3125 3.113282-6.09375 6.09375-.78125 2.984376.109374 6.15625 2.328124 8.300782l6.585938 6.585937c-4.472656 6.277344-7.464844 13.488281-8.746094 21.085938h-9.300781c-4.714844 0-8.535156 3.820312-8.535156 8.535156 0 4.710937 3.820312 8.53125 8.535156 8.53125h9.300781c1.28125 7.601563 4.273438 14.8125 8.746094 21.085937l-6.585938 6.589844c-2.21875 2.140625-3.109374 5.3125-2.328124 8.296875s3.109374 5.3125 6.09375 6.09375c2.984374.78125 6.15625-.105469 8.296874-2.324219l6.589844-6.589843c6.277344 4.476562 13.484375 7.464843 21.085938 8.746093v9.300782c0 4.714844 3.820312 8.535156 8.53125 8.535156 4.714844 0 8.535156-3.820312 8.535156-8.535156v-9.300782c7.601562-1.28125 14.808594-4.269531 21.085938-8.746093l6.585937 6.589843c2.144531 2.21875 5.316406 3.105469 8.300781 2.324219s5.3125-3.109375 6.09375-6.09375-.109375-6.15625-2.328125-8.296875l-6.585937-6.589844c4.472656-6.273437 7.464844-13.484374 8.746094-21.085937h9.300781c4.714843 0 8.535156-3.820313 8.535156-8.53125 0-4.714844-3.820313-8.535156-8.535156-8.535156h-9.300781c-1.28125-7.597657-4.273438-14.808594-8.746094-21.085938l6.585937-6.585937c3.332031-3.332032 3.332031-8.734375 0-12.066406zm-48.273437 82.40625c-18.847656 0-34.132813-15.28125-34.132813-34.132813s15.285157-34.132813 34.132813-34.132813c18.851562 0 34.136718 15.28125 34.136718 34.132813s-15.285156 34.132813-34.136718 34.132813zm0 0"/><path d="m59.734375 196.265625h51.199219c9.425781 0 17.066406-7.640625 17.066406-17.066406v-51.199219c0-9.425781-7.640625-17.066406-17.066406-17.066406h-51.199219c-9.425781 0-17.066406 7.640625-17.066406 17.066406v51.199219c0 9.425781 7.640625 17.066406 17.066406 17.066406zm0-68.265625h51.199219v51.199219h-51.199219zm0 0"/><path d="m358.398438 119.464844c0-4.710938-3.820313-8.53125-8.53125-8.53125h-204.800782c-4.710937 0-8.53125 3.820312-8.53125 8.53125 0 4.714844 3.820313 8.535156 8.53125 8.535156h204.800782c4.710937 0 8.53125-3.820312 8.53125-8.535156zm0 0"/><path d="m187.734375 221.867188c0-4.714844-3.820313-8.535157-8.535156-8.535157h-128c-4.710938 0-8.53125 3.820313-8.53125 8.535157 0 4.710937 3.820312 8.53125 8.53125 8.53125h128c4.714843 0 8.535156-3.820313 8.535156-8.53125zm0 0"/><path d="m162.132812 247.464844h-110.933593c-4.710938 0-8.53125 3.824218-8.53125 8.535156s3.820312 8.535156 8.53125 8.535156h110.933593c4.714844 0 8.535157-3.824218 8.535157-8.535156s-3.820313-8.535156-8.535157-8.535156zm0 0"/><path d="m51.199219 281.601562c-4.710938 0-8.53125 3.820313-8.53125 8.53125 0 4.714844 3.820312 8.535157 8.53125 8.535157h93.867187c4.714844 0 8.535156-3.820313 8.535156-8.535157 0-4.710937-3.820312-8.53125-8.535156-8.53125zm0 0"/><path d="m221.867188 187.734375c0-4.714844-3.820313-8.535156-8.535157-8.535156h-68.265625c-4.710937 0-8.53125 3.820312-8.53125 8.535156 0 4.710937 3.820313 8.53125 8.53125 8.53125h68.265625c4.714844 0 8.535157-3.820313 8.535157-8.53125zm0 0"/><path d="m315.734375 153.601562c0-4.714843-3.820313-8.535156-8.535156-8.535156h-162.132813c-4.710937 0-8.53125 3.820313-8.53125 8.535156 0 4.710938 3.820313 8.53125 8.53125 8.53125h162.132813c4.714843 0 8.535156-3.820312 8.535156-8.53125zm0 0"/></svg>
