<?xml version="1.0" encoding="UTF-8"?>
<svg xmlns="http://www.w3.org/2000/svg" id="Icons" viewBox="0 0 60 60" width="512" height="512" fill="currentColor"><path d="M6.54,28.126.44,35.751A2,2,0,0,0,2,39H7V57a3,3,0,0,0,3,3H50a3,3,0,0,0,3-3V39h5a2,2,0,0,0,1.562-3.25l-6.1-7.623A2.981,2.981,0,0,0,51.118,27H8.882A2.983,2.983,0,0,0,6.54,28.126ZM9,57V39H21.039a2.983,2.983,0,0,0,2.342-1.126L29,30.851V58H10A1,1,0,0,1,9,57Zm42,0a1,1,0,0,1-1,1H31V30.851l5.619,7.023A2.983,2.983,0,0,0,38.961,39H51Zm.118-28a.992.992,0,0,1,.78.376L58,37H38.961a1,1,0,0,1-.781-.376L32.081,29Zm-29.3,7.624a1,1,0,0,1-.781.376H2l6.1-7.625A.994.994,0,0,1,8.882,29H27.919Z"/><path d="M20,48H14a2,2,0,0,0-2,2v3a2,2,0,0,0,2,2h6a2,2,0,0,0,2-2V50A2,2,0,0,0,20,48Zm0,5H14V50h6Z"/><path d="M39,0H38a3,3,0,0,0-2.922,2.343L27.764,6H20a3,3,0,0,0-2.816,2H16a3,3,0,0,0-3,3v2a3,3,0,0,0,3,3h1.184A3,3,0,0,0,19,17.816V22a3,3,0,0,0,3,3h1a3,3,0,0,0,3-3h1a3,3,0,0,0,2.989-2.888l5.089,2.545A3,3,0,0,0,38,24h1a3,3,0,0,0,3-3V16.9a5,5,0,0,0,0-9.8V3A3,3,0,0,0,39,0ZM29,7.618l6-3V19.382l-6-3ZM20,8h7v8H20a1,1,0,0,1-1-1V9A1,1,0,0,1,20,8Zm-5,5V11a1,1,0,0,1,1-1h1v4H16A1,1,0,0,1,15,13Zm9,9a1,1,0,0,1-1,1H22a1,1,0,0,1-1-1V18h3Zm4-3a1,1,0,0,1-1,1H26V18h1.764l.236.118Zm12,2a1,1,0,0,1-1,1H38a1,1,0,0,1-1-1V3a1,1,0,0,1,1-1h1a1,1,0,0,1,1,1Zm4-9a3,3,0,0,1-2,2.816V9.184A3,3,0,0,1,44,12Z"/></svg>
