<?xml version="1.0" encoding="UTF-8"?>
<svg xmlns="http://www.w3.org/2000/svg" id="Icons" viewBox="0 0 60 60" width="512" height="512" fill="currentColor"><circle cx="6" cy="5" r="1"/><circle cx="10" cy="5" r="1"/><circle cx="14" cy="5" r="1"/><path d="M23,6h6a1,1,0,0,0,0-2H23a1,1,0,0,0,0,2Z"/><path d="M23,27V17a3,3,0,0,0-3-3H8a3,3,0,0,0-3,3V27a3,3,0,0,0,3,3H20A3,3,0,0,0,23,27Zm-2,0a1,1,0,0,1-1,1H8a1,1,0,0,1-1-1V17a1,1,0,0,1,1-1H20a1,1,0,0,1,1,1Z"/><path d="M27,17H44a1,1,0,0,0,0-2H27a1,1,0,0,0,0,2Z"/><path d="M27,23H39a1,1,0,0,0,0-2H27a1,1,0,0,0,0,2Z"/><path d="M27,29H39a1,1,0,0,0,0-2H27a1,1,0,0,0,0,2Z"/><path d="M18,33H6a1,1,0,0,0,0,2H18a1,1,0,0,0,0-2Z"/><path d="M18,39H6a1,1,0,0,0,0,2H18a1,1,0,0,0,0-2Z"/><path d="M56,35.121V25a3,3,0,0,0-3-3H52V4a4,4,0,0,0-4-4H4A4,4,0,0,0,0,4V44a4,4,0,0,0,4,4H26.184A3,3,0,0,0,28,49.816V57a3,3,0,0,0,3,3h3a3,3,0,0,0,3-3V55h1a3,3,0,0,0,3-3v-.119l7.053,5.643A3,3,0,0,0,51,60h2a3,3,0,0,0,3-3V46.879c2.279-.557,4-2.981,4-5.879S58.279,35.678,56,35.121ZM4,2H48a2,2,0,0,1,2,2V8H2V4A2,2,0,0,1,4,2ZM2,44V10H50V22.184a2.994,2.994,0,0,0-1.947,2.292L38.648,32H29a3,3,0,0,0-2.816,2H24a3,3,0,0,0-3,3v8a2.966,2.966,0,0,0,.184,1H4A2,2,0,0,1,2,44ZM40,33.481l8-6.4V54.919l-8-6.4ZM36,48H29a1,1,0,0,1-1-1V35a1,1,0,0,1,1-1h9V48ZM23,45V37a1,1,0,0,1,1-1h2V46H24A1,1,0,0,1,23,45ZM35,57a1,1,0,0,1-1,1H31a1,1,0,0,1-1-1V50h5Zm4-5a1,1,0,0,1-1,1H37V50h1.648l.352.281Zm15,5a1,1,0,0,1-1,1H51a1,1,0,0,1-1-1V25a1,1,0,0,1,1-1h2a1,1,0,0,1,1,1Zm2-12.246V37.246A4.085,4.085,0,0,1,58,41,4.085,4.085,0,0,1,56,44.754Z"/></svg>
