<?xml version="1.0" encoding="UTF-8"?>
<svg xmlns="http://www.w3.org/2000/svg" id="Icons" viewBox="0 0 60 60" width="512" height="512" fill="currentColor"><path d="M3,60H57a3,3,0,0,0,3-3c0-6.979-1.3-17.778-1.311-17.9a7.056,7.056,0,0,0-5.162-5.859A7.178,7.178,0,0,0,55,28.88V27.12A7.069,7.069,0,0,0,48,20a6.9,6.9,0,0,0-4.957,2.093A7.173,7.173,0,0,0,41,27.12v1.76a7.179,7.179,0,0,0,2.046,5.031,6.922,6.922,0,0,0,3.576,1.952,6.036,6.036,0,0,0-.649,1.413l-.36,1.2A3.021,3.021,0,0,0,43.03,37H16.97a3.022,3.022,0,0,0-2.582,1.478l-.361-1.2a6,6,0,0,0-.649-1.413,6.923,6.923,0,0,0,3.579-1.956A7.173,7.173,0,0,0,19,28.88V27.12a7.179,7.179,0,0,0-2.046-5.031A6.9,6.9,0,0,0,12,20a7.069,7.069,0,0,0-7,7.12v1.76a7.178,7.178,0,0,0,1.473,4.362,7.064,7.064,0,0,0-5.164,5.871C1.3,39.222,0,50.021,0,57A3,3,0,0,0,3,60Zm6-3V54.9a2.656,2.656,0,0,0,.7.1H50.3a2.656,2.656,0,0,0,.7-.1V57a1,1,0,0,1-1,1H10A1,1,0,0,1,9,57ZM56.705,39.354C56.719,39.46,58,50.142,58,57a1,1,0,0,1-1,1H52.816A2.966,2.966,0,0,0,53,57V52.3a2.692,2.692,0,0,0-.348-1.32l-2.5-4.457,1.77-4.129a1,1,0,0,0-1.838-.788L48.12,46.182A3,3,0,0,1,45.362,48H39.5a1.5,1.5,0,0,1,0-3h4.012a2.982,2.982,0,0,0,2.874-2.138l1.5-5.011A3.974,3.974,0,0,1,51.72,35,5.045,5.045,0,0,1,56.705,39.354ZM43,28.88V27.12a5.174,5.174,0,0,1,1.474-3.629A4.906,4.906,0,0,1,48,22a5.067,5.067,0,0,1,5,5.12v1.76a5.128,5.128,0,0,1-2.132,4.188,5.941,5.941,0,0,0-2.394.9A4.445,4.445,0,0,1,48,34a4.907,4.907,0,0,1-3.523-1.487A5.181,5.181,0,0,1,43,28.88ZM16.088,39.517A1.006,1.006,0,0,1,16.97,39H43.03a1,1,0,0,1,.879.511l.909,1.614-.348,1.162a1,1,0,0,1-.958.713H39.5a3.5,3.5,0,0,0,0,7h5.862a4.982,4.982,0,0,0,3.585-1.532l1.958,3.487A.694.694,0,0,1,51,52.3a.7.7,0,0,1-.7.7H9.7a.7.7,0,0,1-.7-.7.689.689,0,0,1,.092-.34l1.961-3.492A4.982,4.982,0,0,0,14.638,50H20.5a3.5,3.5,0,0,0,0-7H16.488a1,1,0,0,1-.958-.712l-.348-1.162ZM7,27.12A5.067,5.067,0,0,1,12,22a4.907,4.907,0,0,1,3.523,1.487A5.181,5.181,0,0,1,17,27.12v1.76a5.174,5.174,0,0,1-1.474,3.629A4.906,4.906,0,0,1,12,34a4.407,4.407,0,0,1-.473-.035,5.951,5.951,0,0,0-2.395-.9A5.128,5.128,0,0,1,7,28.88ZM3.293,39.366A5.049,5.049,0,0,1,8.28,35a3.974,3.974,0,0,1,3.831,2.851l1.5,5.011A2.982,2.982,0,0,0,16.488,45H20.5a1.5,1.5,0,0,1,0,3H14.638a3,3,0,0,1-2.758-1.818L9.919,41.606a1,1,0,1,0-1.838.788l1.77,4.129L7.345,50.986A2.682,2.682,0,0,0,7,52.3V57a2.966,2.966,0,0,0,.184,1H3a1,1,0,0,1-1-1C2,50.142,3.281,39.46,3.293,39.366Z"/><path d="M26,20h5.671l4.819,3.561a2.159,2.159,0,0,0,2.272.207A2.249,2.249,0,0,0,40,21.741V20h2a3,3,0,0,0,3-3V7a3,3,0,0,0-3-3H33V3a3,3,0,0,0-3-3H14a3,3,0,0,0-3,3V13a3,3,0,0,0,3,3h2v1.741a2.248,2.248,0,0,0,1.239,2.028,2.154,2.154,0,0,0,2.265-.2L23,16.983V17A3,3,0,0,0,26,20ZM42,6a1,1,0,0,1,1,1V17a1,1,0,0,1-1,1H39a1,1,0,0,0-1,1v2.74a.251.251,0,0,1-.133.239.156.156,0,0,1-.183-.023l-5.09-3.76A.993.993,0,0,0,32,18H26a1,1,0,0,1-1-1V16h5a2.982,2.982,0,0,0,2.221-1H37a1,1,0,0,0,0-2H33V11h6a1,1,0,0,0,0-2H33V6ZM18.31,17.962a.153.153,0,0,1-.176.019A.252.252,0,0,1,18,17.742V15a1,1,0,0,0-1-1H14a1,1,0,0,1-1-1V3a1,1,0,0,1,1-1H30a1,1,0,0,1,1,1V13a1,1,0,0,1-1,1H24a1,1,0,0,0-.594.2Z"/><path d="M17,7H27a1,1,0,0,0,0-2H17a1,1,0,0,0,0,2Z"/><path d="M26,10a1,1,0,0,0-1-1H17a1,1,0,0,0,0,2h8A1,1,0,0,0,26,10Z"/></svg>
