<?xml version="1.0" encoding="UTF-8"?>
<svg xmlns="http://www.w3.org/2000/svg" id="Icons" viewBox="0 0 60 60" width="512" height="512" fill="currentColor"><path d="M56,6H50V4a4,4,0,0,0-4-4H4A4,4,0,0,0,0,4V39a4,4,0,0,0,4,4H7V51.43a2.533,2.533,0,0,0,1.549,2.352A2.6,2.6,0,0,0,9.591,54a2.528,2.528,0,0,0,1.736-.693L15.967,49h21.61L48.669,59.311A2.537,2.537,0,0,0,50.406,60a2.614,2.614,0,0,0,1.047-.222A2.535,2.535,0,0,0,53,57.429V49h3a4,4,0,0,0,4-4V10A4,4,0,0,0,56,6ZM9.964,51.845A.576.576,0,0,1,9,51.43V42a1,1,0,0,0-1-1H4a2,2,0,0,1-2-2V4A2,2,0,0,1,4,2H46a2,2,0,0,1,2,2V39a2,2,0,0,1-2,2H22.034a1,1,0,0,0-.68.267ZM58,45a2,2,0,0,1-2,2H52a1,1,0,0,0-1,1v9.43a.553.553,0,0,1-.346.519.561.561,0,0,1-.624-.1L38.65,47.267A1,1,0,0,0,37.97,47H18.12l4.307-4H46a4,4,0,0,0,4-4V8h6a2,2,0,0,1,2,2Z"/><path d="M16,12a1,1,0,0,0,0-2,7.008,7.008,0,0,0-7,7,1,1,0,0,0,2,0A5.006,5.006,0,0,1,16,12Z"/><path d="M22,31V29.22A2.985,2.985,0,0,0,23,27v-.366a2.767,2.767,0,0,1,.846-1.932,11,11,0,1,0-15.7-.008A2.794,2.794,0,0,1,9,26.636V27a2.985,2.985,0,0,0,1,2.22V31a3,3,0,0,0,2,2.816V34a4,4,0,0,0,8,0v-.184A3,3,0,0,0,22,31ZM9.573,23.292A9,9,0,0,1,15.987,8a9.678,9.678,0,0,1,1.1.064A8.994,8.994,0,0,1,22.421,23.3,4.759,4.759,0,0,0,21,26.634V27a1,1,0,0,1-1,1H12a1,1,0,0,1-1-1v-.364A4.779,4.779,0,0,0,9.573,23.292ZM16,36a2,2,0,0,1-2-2h4A2,2,0,0,1,16,36Zm4-5a1,1,0,0,1-1,1H13a1,1,0,0,1-1-1V30h8Z"/><path d="M30,11H44a1,1,0,0,0,0-2H30a1,1,0,0,0,0,2Z"/><path d="M30,17H44a1,1,0,0,0,0-2H30a1,1,0,0,0,0,2Z"/><path d="M30,23H44a1,1,0,0,0,0-2H30a1,1,0,0,0,0,2Z"/><path d="M30,29H44a1,1,0,0,0,0-2H30a1,1,0,0,0,0,2Z"/><path d="M30,35h9a1,1,0,0,0,0-2H30a1,1,0,0,0,0,2Z"/></svg>
