<?xml version="1.0" encoding="UTF-8"?>
<!-- Generator: Adobe Illustrator 25.2.3, SVG Export Plug-In . SVG Version: 6.00 Build 0)  -->
<svg xmlns="http://www.w3.org/2000/svg" xmlns:xlink="http://www.w3.org/1999/xlink" version="1.1" id="Capa_1" x="0px" y="0px" viewBox="0 0 512.428 512.428" style="enable-background:new 0 0 512.428 512.428;" xml:space="preserve" width="512" height="512" fill="currentColor">
<g>
	<g id="Icons_65_">
		<path d="M315.894,443.732c70.692,0,128-57.308,128-128s-57.308-128-128-128s-128,57.308-128,128    C187.974,386.391,245.235,443.652,315.894,443.732z M315.894,204.798c61.267,0,110.933,49.667,110.933,110.933    s-49.667,110.933-110.933,110.933s-110.933-49.667-110.933-110.933C205.032,254.494,254.657,204.869,315.894,204.798z"/>
		<path d="M62.395,45.165c-3.331,3.332-3.331,8.734,0,12.066l72.533,72.533c3.39,3.274,8.792,3.18,12.066-0.21    c3.194-3.307,3.194-8.55,0-11.856L74.461,45.165C71.128,41.834,65.727,41.834,62.395,45.165z"/>
		<path d="M181.861,91.365l64,64c3.39,3.274,8.792,3.18,12.066-0.21c3.194-3.307,3.194-8.549,0-11.856l-64-64    c-3.39-3.274-8.792-3.18-12.066,0.21C178.668,82.815,178.668,88.058,181.861,91.365z"/>
		<path d="M176.861,227.898c3.331-3.332,3.331-8.734,0-12.066l-34.133-34.133c-3.39-3.274-8.792-3.18-12.066,0.21    c-3.194,3.307-3.194,8.549,0,11.856l34.133,34.133C168.127,231.229,173.528,231.229,176.861,227.898z"/>
		<path d="M219.527,202.298c3.331-3.332,3.331-8.734,0-12.066l-42.667-42.667c-3.39-3.274-8.792-3.18-12.066,0.21    c-3.194,3.307-3.194,8.549,0,11.856l42.667,42.667C210.794,205.629,216.195,205.629,219.527,202.298z"/>
		<path d="M100.795,163.898c3.39,3.274,8.792,3.18,12.066-0.21c3.194-3.307,3.194-8.55,0-11.856l-89.6-89.6    c-3.274-3.39-8.676-3.484-12.066-0.21c-3.39,3.274-3.484,8.676-0.21,12.066c0.069,0.071,0.139,0.141,0.21,0.21L100.795,163.898z"/>
		<path d="M168.327,65.765c3.331-3.332,3.331-8.734,0-12.066l-51.2-51.2c-3.39-3.274-8.792-3.18-12.066,0.21    c-3.194,3.307-3.194,8.549,0,11.856l51.2,51.2C159.594,69.096,164.995,69.096,168.327,65.765z"/>
		<path d="M159.794,270.565c3.331-3.332,3.331-8.734,0-12.066l-76.8-76.8c-3.39-3.274-8.792-3.18-12.066,0.21    c-3.194,3.307-3.194,8.549,0,11.856l76.8,76.8C151.06,273.896,156.462,273.896,159.794,270.565z"/>
		<path d="M58.128,245.698c-3.331,3.332-3.331,8.734,0,12.066l55.467,55.467c3.39,3.274,8.792,3.181,12.066-0.209    c3.194-3.307,3.194-8.55,0-11.857l-55.467-55.467C66.862,242.367,61.46,242.367,58.128,245.698z"/>
		<path d="M18.363,282.946c-3.331,3.332-3.331,8.734,0,12.066l159.292,158.959c53.281,55.429,134.671,73.372,206.319,45.483    c101.487-37.21,153.593-149.647,116.383-251.134c-8.929-24.354-22.611-46.69-40.248-65.709L306.072,30.01    c-3.346-3.32-8.75-3.299-12.07,0.047s-3.299,8.75,0.047,12.07l153.762,152.32c66.935,72.543,62.39,185.612-10.153,252.547    c-17.311,15.973-37.609,28.367-59.727,36.468c-65.39,25.411-139.646,9.001-188.237-41.6L30.429,282.929    C27.092,279.603,21.69,279.611,18.363,282.946z"/>
		<path d="M45.328,176.698c3.274,3.39,8.676,3.484,12.066,0.21s3.484-8.676,0.21-12.066c-0.069-0.071-0.139-0.141-0.21-0.21    l-29.867-29.867c-3.39-3.274-8.792-3.18-12.066,0.21c-3.194,3.307-3.194,8.549,0,11.856L45.328,176.698z"/>
		<path d="M224.528,57.231c3.39,3.274,8.792,3.18,12.066-0.21c3.194-3.307,3.194-8.549,0-11.856L193.927,2.498    c-3.39-3.274-8.792-3.18-12.066,0.21c-3.194,3.307-3.194,8.549,0,11.856L224.528,57.231z"/>
		<path d="M262.194,70.765c-3.39-3.274-8.792-3.18-12.066,0.21c-3.194,3.307-3.194,8.55,0,11.856l64,64    c3.39,3.274,8.792,3.18,12.066-0.209c3.194-3.307,3.194-8.55,0-11.857L262.194,70.765z"/>
		<path d="M19.728,2.498c-3.331,3.332-3.331,8.734,0,12.066l17.067,17.067c3.39,3.274,8.792,3.18,12.066-0.21    c3.194-3.307,3.194-8.549,0-11.856L31.794,2.498C28.462-0.833,23.06-0.833,19.728,2.498z"/>
		<path d="M28.261,227.898c3.274,3.39,8.676,3.484,12.066,0.21c3.39-3.274,3.484-8.676,0.21-12.066    c-0.069-0.071-0.139-0.141-0.21-0.21l-25.6-25.6c-3.274-3.39-8.676-3.484-12.066-0.21s-3.484,8.676-0.21,12.066    c0.069,0.071,0.139,0.141,0.21,0.21L28.261,227.898z"/>
		<path d="M273.228,315.732c0-14.138-11.462-25.6-25.6-25.6c-14.139,0-25.6,11.462-25.6,25.6c0,14.138,11.462,25.6,25.6,25.6    C261.766,341.332,273.228,329.87,273.228,315.732z M239.094,315.732c0-4.713,3.821-8.533,8.533-8.533    c4.713,0,8.533,3.821,8.533,8.533s-3.821,8.533-8.533,8.533C242.915,324.265,239.094,320.444,239.094,315.732z"/>
		<path d="M350.028,315.732c18.851,0,34.133-15.282,34.133-34.133s-15.282-34.133-34.133-34.133    c-18.851,0-34.133,15.282-34.133,34.133S331.176,315.732,350.028,315.732z M350.028,264.532c9.426,0,17.067,7.641,17.067,17.067    c0,9.426-7.641,17.067-17.067,17.067s-17.067-7.641-17.067-17.067C332.961,272.173,340.602,264.532,350.028,264.532z"/>
		<path d="M332.961,401.065c14.138,0,25.6-11.462,25.6-25.6c0-14.138-11.462-25.6-25.6-25.6c-14.138,0-25.6,11.462-25.6,25.6    C307.361,389.603,318.823,401.065,332.961,401.065z M332.961,366.932c4.713,0,8.533,3.821,8.533,8.533s-3.82,8.533-8.533,8.533    s-8.533-3.82-8.533-8.533S328.248,366.932,332.961,366.932z"/>
	</g>
</g>















</svg>
