<?xml version="1.0" encoding="UTF-8"?>
<svg xmlns="http://www.w3.org/2000/svg" id="Icons" viewBox="0 0 60 60" width="512" height="512" fill="currentColor"><path d="M19,20.165V24H18a4,4,0,0,0-4,4v9.43a6.027,6.027,0,0,0,2.511,4.886l2.816,2A4.016,4.016,0,0,1,21,47.57V57a3,3,0,0,0,3,3H38a3,3,0,0,0,3-3V47a3.991,3.991,0,0,1,.866-2.476l1.816-2.281A6.074,6.074,0,0,0,45,38.473v-15.3a4.107,4.107,0,0,0-3.708-4.159,4,4,0,0,0-2.334.553,4.077,4.077,0,0,0-3.666-3.553,4,4,0,0,0-2.907.966,4,4,0,0,0-2.5-1.873,3.91,3.91,0,0,0-3.335.765,4.146,4.146,0,0,0-.959,1.082,3.933,3.933,0,0,0-2.8-.945A4.084,4.084,0,0,0,19,20.165Zm5.379-1.616A1.982,1.982,0,0,1,25,20a1,1,0,0,0,2,0V19a2.033,2.033,0,0,1,.792-1.565,1.907,1.907,0,0,1,1.636-.385A2.176,2.176,0,0,1,31,19.213V20a1,1,0,0,0,2,0,2,2,0,0,1,2.148-2A2.129,2.129,0,0,1,37,20.169V23a1,1,0,0,0,2,0,1.983,1.983,0,0,1,.587-1.413,2.008,2.008,0,0,1,1.561-.582A2.129,2.129,0,0,1,43,23.169v15.3A4.066,4.066,0,0,1,42.118,41L40.3,43.278A6,6,0,0,0,39,47V57a1,1,0,0,1-1,1H24a1,1,0,0,1-1-1V47.57a6.027,6.027,0,0,0-2.511-4.886l-2.816-2A4.019,4.019,0,0,1,16,37.43V28a2,2,0,0,1,2-2h1V36a1,1,0,0,0,2,0V20.165A2.115,2.115,0,0,1,22.9,18,2,2,0,0,1,24.379,18.549Z"/><path d="M35.882,4.39a2.2,2.2,0,0,0-1.759-1.5L32.645,2.67l-.668-1.406a2.178,2.178,0,0,0-3.954,0L27.355,2.67l-1.478.223a2.2,2.2,0,0,0-1.759,1.5,2.263,2.263,0,0,0,.533,2.315l1.092,1.106L25.484,9.38A2.245,2.245,0,0,0,26.4,11.6a2.149,2.149,0,0,0,2.29.136L30,11.015l1.313.717A2.148,2.148,0,0,0,33.6,11.6a2.245,2.245,0,0,0,.913-2.216l-.259-1.569,1.092-1.106A2.263,2.263,0,0,0,35.882,4.39Zm-1.956.91-1.45,1.468a1,1,0,0,0-.276.866l.342,2.073a.246.246,0,0,1-.1.258.142.142,0,0,1-.173.012L30.479,9a.994.994,0,0,0-.958,0l-1.793.979a.142.142,0,0,1-.173-.012.246.246,0,0,1-.1-.258L27.8,7.634a1,1,0,0,0-.276-.866L26.074,5.3a.269.269,0,0,1-.058-.279.2.2,0,0,1,.16-.15l2-.3a1,1,0,0,0,.754-.56l.9-1.885a.179.179,0,0,1,.34,0l.9,1.885a1,1,0,0,0,.754.56l2.005.3a.2.2,0,0,1,.159.15A.269.269,0,0,1,33.926,5.3Z"/><path d="M16.123,7.893,14.645,7.67l-.668-1.406a2.178,2.178,0,0,0-3.954,0L9.355,7.67l-1.478.223a2.2,2.2,0,0,0-1.759,1.5,2.263,2.263,0,0,0,.533,2.315l1.092,1.106L7.484,14.38A2.245,2.245,0,0,0,8.4,16.6a2.151,2.151,0,0,0,2.29.136L12,16.015l1.313.717A2.148,2.148,0,0,0,15.6,16.6a2.245,2.245,0,0,0,.913-2.216l-.259-1.569,1.092-1.106a2.263,2.263,0,0,0,.533-2.315A2.2,2.2,0,0,0,16.123,7.893Zm-.2,2.407-1.45,1.468a1,1,0,0,0-.276.866l.342,2.073a.246.246,0,0,1-.1.258.143.143,0,0,1-.173.012L12.479,14a.994.994,0,0,0-.958,0l-1.793.979a.143.143,0,0,1-.173-.012.246.246,0,0,1-.1-.258L9.8,12.634a1,1,0,0,0-.276-.866L8.074,10.3a.269.269,0,0,1-.058-.279.2.2,0,0,1,.16-.15l2-.3a1,1,0,0,0,.754-.56l.9-1.885a.179.179,0,0,1,.34,0l.9,1.885a1,1,0,0,0,.754.56l2,.3a.2.2,0,0,1,.159.15A.269.269,0,0,1,15.926,10.3Z"/><path d="M53.882,9.39a2.2,2.2,0,0,0-1.759-1.5L50.645,7.67l-.668-1.406a2.178,2.178,0,0,0-3.954,0L45.355,7.67l-1.478.223a2.2,2.2,0,0,0-1.759,1.5,2.263,2.263,0,0,0,.533,2.315l1.092,1.106-.259,1.569A2.245,2.245,0,0,0,44.4,16.6a2.151,2.151,0,0,0,2.29.136L48,16.015l1.313.717A2.148,2.148,0,0,0,51.6,16.6a2.245,2.245,0,0,0,.913-2.216l-.259-1.569,1.092-1.106A2.263,2.263,0,0,0,53.882,9.39Zm-1.956.91-1.45,1.468a1,1,0,0,0-.276.866l.342,2.073a.246.246,0,0,1-.1.258.144.144,0,0,1-.173.012L48.479,14a.994.994,0,0,0-.958,0l-1.793.979a.143.143,0,0,1-.173-.012.246.246,0,0,1-.1-.258l.342-2.073a1,1,0,0,0-.276-.866L44.074,10.3a.269.269,0,0,1-.058-.279.2.2,0,0,1,.16-.15l2-.3a1,1,0,0,0,.754-.56l.9-1.885a.179.179,0,0,1,.34,0l.9,1.885a1,1,0,0,0,.754.56l2.005.3a.2.2,0,0,1,.159.15A.269.269,0,0,1,51.926,10.3Z"/></svg>
