<?xml version="1.0" encoding="UTF-8"?>
<svg xmlns="http://www.w3.org/2000/svg" id="Icons" viewBox="0 0 60 60" width="512" height="512" fill="currentColor"><path d="M49.989,32.587a19.887,19.887,0,0,0-6.618-14.435,14,14,0,1,0-26.742,0,19.887,19.887,0,0,0-6.618,14.435A14,14,0,1,0,26.316,52.651a19.618,19.618,0,0,0,7.368,0A14,14,0,1,0,49.989,32.587ZM30,2a11.984,11.984,0,0,1,9.081,19.822,7.976,7.976,0,0,0-3.3-2.3A7.946,7.946,0,0,0,38,14V12a8,8,0,0,0-16,0v2a7.967,7.967,0,0,0,2.221,5.517,7.977,7.977,0,0,0-3.3,2.3A11.984,11.984,0,0,1,30,2Zm0,18a6.006,6.006,0,0,1-6-6V12a6,6,0,1,1,12,0v2a6,6,0,0,1-6,6Zm-3.745,1.065a8,8,0,0,0,7.5,0,5.99,5.99,0,0,1,3.9,2.162,11.97,11.97,0,0,1-15.32,0A5.982,5.982,0,0,1,26.255,21.065ZM6.34,55.228a5.982,5.982,0,0,1,3.915-2.163,8,8,0,0,0,7.5,0,5.99,5.99,0,0,1,3.9,2.162,11.97,11.97,0,0,1-15.32,0ZM14,52a6.006,6.006,0,0,1-6-6V44a6,6,0,1,1,12,0v2a6,6,0,0,1-6,6Zm9.081,1.822a7.976,7.976,0,0,0-3.3-2.3A7.946,7.946,0,0,0,22,46V44A8,8,0,0,0,6,44v2a7.967,7.967,0,0,0,2.221,5.517,7.977,7.977,0,0,0-3.3,2.3,12,12,0,1,1,18.162,0Zm4.073-3.077A13.914,13.914,0,0,0,12.046,32.153a17.858,17.858,0,0,1,5.4-12,13.969,13.969,0,0,0,25.114,0,17.858,17.858,0,0,1,5.4,12A13.952,13.952,0,0,0,32.846,50.745,18.052,18.052,0,0,1,27.154,50.745ZM38.34,55.228a5.982,5.982,0,0,1,3.915-2.163,8,8,0,0,0,7.5,0,5.99,5.99,0,0,1,3.9,2.162,11.97,11.97,0,0,1-15.32,0ZM46,52a6.006,6.006,0,0,1-6-6V44a6,6,0,1,1,12,0v2a6,6,0,0,1-6,6Zm9.081,1.822a7.976,7.976,0,0,0-3.3-2.3A7.946,7.946,0,0,0,54,46V44a8,8,0,0,0-16,0v2a7.967,7.967,0,0,0,2.221,5.517,7.977,7.977,0,0,0-3.3,2.3,12,12,0,1,1,18.162,0Z"/></svg>
