<?xml version="1.0" encoding="UTF-8"?>
<svg xmlns="http://www.w3.org/2000/svg" viewBox="0 0 60 60" width="512" height="512" fill="currentColor"><g id="Icons"><path d="M6,16h8a2,2,0,0,0,2-2V6a2,2,0,0,0-2-2H6A2,2,0,0,0,4,6v8A2,2,0,0,0,6,16ZM6,6h8v8H6Z"/><path d="M6,30h8a2,2,0,0,0,2-2V20a2,2,0,0,0-2-2H6a2,2,0,0,0-2,2v8A2,2,0,0,0,6,30ZM6,20h8v8H6Z"/><path d="M16,34a2,2,0,0,0-2-2H6a2,2,0,0,0-2,2v8a2,2,0,0,0,2,2h8a2,2,0,0,0,2-2ZM6,42V34h8v8Z"/><path d="M57,40H34.142L51.121,23.021a3,3,0,0,0,0-4.243l-9.9-9.9a3,3,0,0,0-4.243,0L20,25.858V3a3,3,0,0,0-3-3H3A3,3,0,0,0,0,3V50A10.011,10.011,0,0,0,10,60H57a3,3,0,0,0,3-3V43A3,3,0,0,0,57,40ZM38.394,10.293a1,1,0,0,1,1.414,0l9.9,9.9a1,1,0,0,1,0,1.413L19.886,51.427A10.014,10.014,0,0,0,20,50V48.218a1.957,1.957,0,0,0,.716-.45l5.662-5.651a2.008,2.008,0,0,0,0-2.834l-5.659-5.659A1.96,1.96,0,0,0,20,33.186v-4.5ZM20,35.735,24.964,40.7,20,45.658Zm6,12.407V54H20.142ZM2,50V3A1,1,0,0,1,3,2H17a1,1,0,0,1,1,1V50A8,8,0,0,1,2,50Zm56,7a1,1,0,0,1-1,1H15.974a9.963,9.963,0,0,0,1.051-.894l.005,0L18.142,56H26a2,2,0,0,0,2-2V46.142L32.142,42H57a1,1,0,0,1,1,1Z"/><path d="M54,44H46a2,2,0,0,0-2,2v8a2,2,0,0,0,2,2h8a2,2,0,0,0,2-2V46A2,2,0,0,0,54,44Zm0,10H46V46h8Z"/><path d="M40,44H32a2,2,0,0,0-2,2v8a2,2,0,0,0,2,2h8a2,2,0,0,0,2-2V46A2,2,0,0,0,40,44Zm0,10H32V46h8Z"/><path d="M10,46a4,4,0,1,0,4,4A4,4,0,0,0,10,46Zm0,6a2,2,0,1,1,2-2A2,2,0,0,1,10,52Z"/><path d="M37.687,27.971h0a2,2,0,0,0,2.828,0l5.657-5.657a2,2,0,0,0,0-2.829l-5.657-5.656a2,2,0,0,0-2.828,0l-5.658,5.656a2,2,0,0,0,0,2.828ZM39.1,15.243,44.758,20.9,39.1,26.557h0L33.443,20.9Z"/><path d="M27.787,37.87a2,2,0,0,0,2.828,0l5.658-5.658a2,2,0,0,0,0-2.827l-5.657-5.657a2,2,0,0,0-2.828,0L22.13,29.385a2,2,0,0,0,0,2.828ZM29.2,25.142,34.858,30.8,29.2,36.457,23.544,30.8Z"/></g></svg>
