<?xml version="1.0" encoding="UTF-8"?>
<svg xmlns="http://www.w3.org/2000/svg" id="Icons" viewBox="0 0 60 60" width="512" height="512" fill="currentColor"><path d="M23,18a3,3,0,1,0-3-3A3,3,0,0,0,23,18Zm0-4a1,1,0,1,1-1,1A1,1,0,0,1,23,14Z"/><path d="M4.605,59.919A.987.987,0,0,0,5,60a1,1,0,0,0,.919-.6l1.445-3.367c.045,0,.09.013.135.013a3.006,3.006,0,0,0,2.776-1.864L14.828,43h2.356A3,3,0,0,0,20,45h6a3,3,0,0,0,2.816-2h2.355l4.555,11.181A3.011,3.011,0,0,0,38.5,56.042c.044,0,.088-.011.132-.013L40.081,59.4a1,1,0,0,0,1.838-.79L40.49,55.276a2.969,2.969,0,0,0,.8-3.364L28.573,20.728A7.978,7.978,0,0,0,27,8.082V4a4,4,0,0,0-8,0V8.082a7.978,7.978,0,0,0-1.573,12.646L4.712,51.918a2.971,2.971,0,0,0,.8,3.359L4.081,58.605A1,1,0,0,0,4.605,59.919ZM26,43H20a1,1,0,0,1,0-2h6a1,1,0,0,1,0,2Zm2.816-2A3,3,0,0,0,26,39H20a3,3,0,0,0-2.816,2H15.643l7.333-18h.048l7.332,18ZM39.433,52.662a1.014,1.014,0,0,1-.008.769,1.006,1.006,0,0,1-1.309.531,1,1,0,0,1-.54-.539l-12.508-30.7a7.946,7.946,0,0,0,1.85-.752ZM21,4a2,2,0,0,1,4,0V7.263a7.736,7.736,0,0,0-4,0ZM17,15a6,6,0,1,1,6,6A6.006,6.006,0,0,1,17,15ZM6.565,52.668l12.517-30.7a7.946,7.946,0,0,0,1.85.752L8.425,53.419a1,1,0,0,1-1.313.543.978.978,0,0,1-.537-.531A1.008,1.008,0,0,1,6.565,52.668Z"/><path d="M47.116,58.665a2,2,0,0,0,3.764.012l3.829-10.4A5.043,5.043,0,0,0,55,46.589V5.131a4.841,4.841,0,0,0-1.928-3.9,7.36,7.36,0,0,0-8.144,0A4.841,4.841,0,0,0,43,5.131V46.589a5.043,5.043,0,0,0,.291,1.69l0,.011ZM49,57.985l-1.352-3.672a3.29,3.29,0,0,1,2.7.007Zm2.04-5.53a5.41,5.41,0,0,0-4.08-.008L45.32,48h7.36ZM53,46H49.987V15H53ZM45,5.131A2.834,2.834,0,0,1,46.113,2.84a5.381,5.381,0,0,1,5.774,0A2.834,2.834,0,0,1,53,5.131V7H45ZM45,9h8v4H45Zm0,6h2.987V46H45Z"/></svg>
