<svg xmlns="http://www.w3.org/2000/svg" xml:space="preserve" viewBox="0 0 512 512" fill="currentColor"><g fill="currentColor"><path d="M256 0C114.615 0 0 114.615 0 256s114.615 256 256 256 256-114.615 256-256C511.84 114.681 397.319.16 256 0zM119.962 59.733h76.305c0 9.426 7.641 17.067 17.067 17.067H256a8.533 8.533 0 0 1 0 17.066H80.7a241.04 241.04 0 0 1 39.262-34.133zM17.067 256h170.667c9.426 0 17.067 7.641 17.067 17.067s-7.641 17.067-17.067 17.067H19.541A239.649 239.649 0 0 1 17.067 256zM80.7 418.133h72.9c0 9.426 7.641 17.067 17.067 17.067h42.667a8.533 8.533 0 0 1 0 17.066h-93.372A240.943 240.943 0 0 1 80.7 418.133zm364.979-17.066h-78.746a8.533 8.533 0 0 1-8.533-8.533c0-14.138-11.462-25.6-25.6-25.6h-92.928a9.216 9.216 0 0 1-9.387-7.68 8.534 8.534 0 0 1 8.448-9.387h80.555c9.426 0 17.067-7.641 17.067-17.067h145.647a238.664 238.664 0 0 1-36.523 68.267zm41.694-85.334H336.555c-9.426 0-17.067 7.641-17.067 17.067h-80.555c-14.139.259-25.39 11.931-25.131 26.069.259 14.138 11.931 25.39 26.069 25.131H332.8a8.533 8.533 0 0 1 8.533 8.533c0 14.138 11.462 25.6 25.6 25.6H431.3c-72.209 78.315-187.612 99.215-282.701 51.2h64.734c14.138 0 25.6-11.462 25.6-25.6 0-14.138-11.462-25.6-25.6-25.6h-42.667c0-9.426-7.641-17.067-17.067-17.067H66.321a238.162 238.162 0 0 1-43.674-93.867h165.086c18.851 0 34.133-15.282 34.133-34.133 0-18.851-15.282-34.133-34.133-34.133H17.741a237.643 237.643 0 0 1 48.58-128H256c14.139 0 25.6-11.462 25.6-25.6s-11.461-25.6-25.6-25.6h-42.667c0-9.426-7.641-17.067-17.067-17.067h-47.667c117.934-59.285 261.599-11.741 320.884 106.193a238.927 238.927 0 0 1 12.718 30.341h-89.668c-9.426 0-17.067 7.641-17.067 17.067H332.8c-14.138 0-25.6 11.462-25.6 25.6 0 14.138 11.462 25.6 25.6 25.6h161.92a236.129 236.129 0 0 1-7.347 68.266zm6.169-85.333H332.8a8.533 8.533 0 0 1 0-17.066h42.667c9.426 0 17.067-7.641 17.067-17.067h94.839a236.766 236.766 0 0 1 6.169 34.133z"/><path d="M204.8 153.6H102.4c-14.138 0-25.6 11.462-25.6 25.6 0 14.138 11.462 25.6 25.6 25.6h102.4c14.138 0 25.6-11.462 25.6-25.6 0-14.138-11.461-25.6-25.6-25.6zm0 34.133H102.4a8.533 8.533 0 0 1-8.533-8.533 8.72 8.72 0 0 1 8.533-8.533h102.4a8.533 8.533 0 0 1 8.533 8.533 8.72 8.72 0 0 1-8.533 8.533zM392.533 153.6c14.138 0 25.6-11.462 25.6-25.6 0-14.138-11.462-25.6-25.6-25.6h-76.8c-14.138 0-25.6 11.462-25.6 25.6 0 14.139 11.462 25.6 25.6 25.6h76.8zM307.2 128a8.72 8.72 0 0 1 8.533-8.533h76.8a8.533 8.533 0 0 1 8.533 8.533 8.72 8.72 0 0 1-8.533 8.533h-76.8A8.533 8.533 0 0 1 307.2 128z"/></g></svg>
