<svg height="512pt" viewBox="0 0 512 512.00271" width="512pt" xmlns="http://www.w3.org/2000/svg" fill="currentColor"><path d="m300.519531 435.875-24.3125-5.410156-13.429687-17.519532c-1.679688-2.007812-4.160156-3.167968-6.777344-3.167968-2.613281 0-5.097656 1.160156-6.773438 3.167968l-13.433593 17.519532-24.308594 5.410156c-3.019531.671875-5.4375 2.921875-6.324219 5.886719-.886718 2.960937-.097656 6.171875 2.054688 8.390625l15.226562 15.714844-1.316406 19.976562c-.183594 2.828125 1.042969 5.5625 3.28125 7.296875 2.234375 1.738281 5.1875 2.253906 7.882812 1.375l23.710938-7.730469 23.722656 7.730469c.855469.273437 1.75.414063 2.648438.417969 2.359375.003906 4.621094-.96875 6.238281-2.691406 1.617187-1.722657 2.445313-4.039063 2.292969-6.398438l-1.3125-19.976562 15.222656-15.714844c2.15625-2.21875 2.941406-5.429688 2.054688-8.390625-.882813-2.964844-3.304688-5.214844-6.320313-5.886719zm-25.847656 20.835938c-1.675781 1.730468-2.546875 4.089843-2.390625 6.496093l.785156 11.179688-14.378906-4.695313c-1.71875-.558594-3.570312-.558594-5.289062 0l-14.378907 4.695313.742188-11.179688c.15625-2.40625-.710938-4.765625-2.386719-6.496093l-7.253906-7.480469 12.449218-2.773438c1.949219-.441406 3.683594-1.554687 4.898438-3.140625l8.53125-11.152344 8.535156 11.152344c1.21875 1.59375 2.964844 2.703125 4.921875 3.140625l12.453125 2.773438zm0 0"/><path d="m420.789062 452.941406-24.3125-5.410156-13.429687-17.519531c-1.679687-2.007813-4.160156-3.167969-6.777344-3.167969-2.617187 0-5.097656 1.160156-6.773437 3.167969l-13.433594 17.519531-24.3125 5.410156c-3.015625.671875-5.433594 2.921875-6.320312 5.886719-.886719 2.960937-.097657 6.171875 2.054687 8.390625l15.222656 15.714844-1.3125 19.976562c-.183593 2.824219 1.042969 5.558594 3.277344 7.292969 2.234375 1.738281 5.183594 2.253906 7.875 1.378906l23.730469-7.730469 23.722656 7.730469c.855469.273438 1.75.414063 2.648438.417969 2.359374.003906 4.621093-.96875 6.238281-2.691406 1.617187-1.722656 2.445312-4.039063 2.292969-6.398438l-1.324219-19.976562 15.234375-15.714844c2.15625-2.21875 2.941406-5.429688 2.054687-8.390625-.882812-2.964844-3.304687-5.214844-6.320312-5.886719zm-25.847656 20.835938c-1.679687 1.730468-2.546875 4.089844-2.390625 6.496094l.742188 11.179687-14.386719-4.695313c-1.714844-.558593-3.566406-.558593-5.28125 0l-14.378906 4.695313.742187-11.179687c.15625-2.40625-.714843-4.765626-2.398437-6.496094l-7.242188-7.480469 12.449219-2.773437c1.957031-.4375 3.703125-1.546876 4.921875-3.140626l8.535156-11.152343 8.53125 11.152343c1.222656 1.59375 2.964844 2.703126 4.925782 3.140626l12.449218 2.773437zm0 0"/><path d="m181.054688 452.941406-24.3125-5.410156-13.433594-17.519531c-1.675782-2.007813-4.15625-3.167969-6.773438-3.167969-2.617187 0-5.097656 1.160156-6.777344 3.167969l-13.429687 17.519531-24.3125 5.410156c-3.019531.671875-5.4375 2.921875-6.320313 5.886719-.886718 2.960937-.101562 6.171875 2.054688 8.390625l15.222656 15.714844-1.3125 19.976562c-.1875 2.828125 1.042969 5.5625 3.277344 7.296875 2.238281 1.738281 5.191406 2.253907 7.882812 1.375l23.714844-7.730469 23.722656 7.730469c.855469.273438 1.746094.414063 2.644532.417969 2.363281.003906 4.621094-.96875 6.238281-2.691406s2.449219-4.039063 2.296875-6.398438l-1.316406-19.976562 15.222656-15.714844c2.15625-2.21875 2.941406-5.429688 2.058594-8.390625-.886719-2.964844-3.304688-5.214844-6.324219-5.886719zm-25.847657 20.835938c-1.679687 1.730468-2.546875 4.089844-2.390625 6.496094l.785156 11.179687-14.378906-4.695313c-1.71875-.558593-3.570312-.558593-5.289062 0l-14.378906 4.695313.742187-11.179687c.15625-2.40625-.710937-4.765626-2.390625-6.496094l-7.253906-7.480469 12.449218-2.773437c1.953126-.441407 3.683594-1.554688 4.898438-3.140626l8.535156-11.152343 8.53125 11.152343c1.222656 1.59375 2.964844 2.703126 4.925782 3.140626l12.449218 2.773437zm0 0"/><path d="m196.269531 170.667969c4.710938 0 8.53125 3.820312 8.53125 8.53125 0 4.714843 3.820313 8.535156 8.535157 8.535156 4.710937 0 8.53125-3.820313 8.53125-8.535156 0-14.136719-11.460938-25.597657-25.597657-25.597657-13.992187.351563-25.246093 11.609376-25.601562 25.597657 0 13.808593 12.59375 20.097656 21.785156 24.703125 7.226563 3.609375 12.347656 6.410156 12.347656 9.429687-.289062 4.589844-3.945312 8.246094-8.53125 8.535157-4.714843 0-8.535156-3.820313-8.535156-8.535157 0-4.710937-3.820313-8.53125-8.53125-8.53125-4.714844 0-8.535156 3.820313-8.535156 8.53125 0 14.140625 11.460937 25.601563 25.601562 25.601563 13.988281-.355469 25.242188-11.609375 25.597657-25.601563 0-13.804687-12.59375-20.09375-21.785157-24.703125-7.226562-3.609375-12.347656-6.40625-12.347656-9.429687.289063-4.585938 3.945313-8.246094 8.535156-8.53125zm0 0"/><path d="m273.066406 170.667969c4.714844 0 8.535156-3.820313 8.535156-8.535157 0-4.710937-3.820312-8.53125-8.535156-8.53125h-17.066406c-9.425781 0-17.066406 7.640626-17.066406 17.066407v51.199219c0 9.425781 7.640625 17.066406 17.066406 17.066406h17.066406c4.714844 0 8.535156-3.820313 8.535156-8.535156 0-4.710938-3.820312-8.53125-8.535156-8.53125h-17.066406v-17.066407h17.066406c4.714844 0 8.535156-3.820312 8.535156-8.535156 0-4.710937-3.820312-8.53125-8.535156-8.53125h-17.066406v-17.066406zm0 0"/><path d="m298.667969 183.464844v25.601562c0 16.496094 13.371093 29.867188 29.867187 29.867188s29.867188-13.371094 29.867188-29.867188v-25.601562c0-16.492188-13.371094-29.863282-29.867188-29.863282s-29.867187 13.371094-29.867187 29.863282zm42.667969 0v25.601562c0 7.070313-5.730469 12.800782-12.800782 12.800782-7.070312 0-12.800781-5.730469-12.800781-12.800782v-25.601562c0-7.066406 5.730469-12.796875 12.800781-12.796875 7.070313 0 12.800782 5.730469 12.800782 12.796875zm0 0"/><path d="m256 59.734375c-75.402344 0-136.53125 61.128906-136.53125 136.53125 0 75.40625 61.128906 136.535156 136.53125 136.535156 75.40625 0 136.535156-61.128906 136.535156-136.535156-.089844-75.367187-61.164062-136.441406-136.535156-136.53125zm0 256c-65.976562 0-119.464844-53.488281-119.464844-119.46875s53.488282-119.464844 119.464844-119.464844c65.980469 0 119.46875 53.484375 119.46875 119.464844-.070312 65.953125-53.515625 119.398437-119.46875 119.46875zm0 0"/><path d="m486.402344 187.734375h-34.132813c0-9.425781-7.640625-17.066406-17.066406-17.066406h-10.414063c-.046874-.058594-.074218-.132813-.074218-.207031-4.1875-27.277344-14.9375-53.132813-31.328125-75.339844l7.46875-7.464844c3.203125-3.203125 5-7.542969 5-12.070312 0-4.53125-1.796875-8.871094-5-12.074219l-12.101563-12.0625c-3.199218-3.203125-7.542968-5.003907-12.070312-5.003907s-8.871094 1.800782-12.070313 5.003907l-7.570312 7.34375c-22.242188-16.371094-48.132813-27.082031-75.441407-31.214844v-10.511719c0-9.425781-7.640624-17.066406-17.066406-17.066406h-17.066406c-9.425781 0-17.066406 7.640625-17.066406 17.066406l-.164063 10.488282c-27.292969 4.179687-53.164062 14.929687-75.382812 31.324218l-7.464844-7.464844c-3.203125-3.203124-7.542969-5-12.070313-5-4.527343 0-8.871093 1.796876-12.070312 5l-12.066406 12.097657c-3.203125 3.203125-5.003906 7.542969-5.003906 12.074219 0 4.527343 1.800781 8.867187 5.003906 12.070312l7.347656 7.566406c-16.371094 22.242188-27.085938 48.136719-31.21875 75.445313h-10.511719c-9.425781 0-17.066406 7.640625-17.066406 17.066406h-34.132813c-14.140624 0-25.601562 11.460937-25.601562 25.597656v8.535157c0 4.710937 3.820312 8.53125 8.535156 8.53125 4.710938 0 8.53125-3.820313 8.53125-8.53125v-8.535157c0-4.710937 3.820313-8.53125 8.535156-8.53125h34.132813c0 9.425781 7.640625 17.066407 17.066406 17.066407l10.488281.160156c4.179688 27.296875 14.929688 53.167968 31.324219 75.386718l-7.464843 7.464844c-3.203126 3.199219-5 7.542969-5 12.070313 0 4.527343 1.796874 8.871093 5 12.070312l12.066406 12.066407c3.199218 3.203124 7.542968 5 12.070312 5s8.867188-1.796876 12.070313-5l7.570312-7.347657c22.25 16.375 48.15625 27.089844 75.476563 31.214844v10.511719c0 9.425781 7.640625 17.070312 17.066406 17.070312h17.066406c9.425782 0 17.066406-7.644531 17.066406-17.070312l.160157-10.484375c27.296875-4.183594 53.167969-14.933594 75.386719-31.328125l7.464843 7.46875c3.199219 3.199218 7.542969 5 12.070313 5s8.871094-1.800782 12.070312-5l12.066406-12.066406c3.203126-3.203126 5-7.542969 5-12.070313s-1.796874-8.871094-5-12.070313l-7.347656-7.570312c16.375-22.253906 27.089844-48.15625 31.214844-75.476562h10.515625c9.425781 0 17.066406-7.640626 17.066406-17.066407h34.132813c4.710937 0 8.53125 3.820313 8.53125 8.53125v8.535157c0 4.710937 3.820312 8.53125 8.535156 8.53125 4.710938 0 8.53125-3.820313 8.53125-8.53125v-8.535157c0-14.136719-11.460938-25.597656-25.597656-25.597656zm-51.199219 17.066406h-10.515625c-8.476562.023438-15.648438 6.269531-16.84375 14.660157-3.761719 24.515624-13.40625 47.757812-28.109375 67.738281-5.085937 6.78125-4.421875 16.269531 1.5625 22.277343l7.464844 7.476563-12.074219 12.066406-7.457031-7.457031c-6.007813-5.996094-15.507813-6.664062-22.296875-1.570312-19.972656 14.707031-43.214844 24.355468-67.730469 28.117187-8.394531 1.191406-14.640625 8.363281-14.667969 16.84375v10.511719h-17.066406v-10.511719c-.027344-8.476563-6.269531-15.648437-14.660156-16.84375-24.515625-3.765625-47.753906-13.410156-67.730469-28.109375-2.980469-2.214844-6.59375-3.410156-10.308594-3.414062-4.484375.003906-8.785156 1.796874-11.945312 4.984374l-7.476563 7.464844-12.066406-12.074218 7.460938-7.457032c5.992187-6.007812 6.664062-15.507812 1.570312-22.296875-14.710938-19.972656-24.359375-43.214843-28.121094-67.730469-1.1875-8.410156-8.382812-14.667968-16.878906-14.675781h-10.511719v-17.066406h10.511719c8.476562-.027344 15.652344-6.269531 16.847656-14.660156 3.773438-24.523438 13.4375-47.765625 28.160156-67.738281 5.085938-6.785157 4.421876-16.273438-1.5625-22.28125l-7.46875-7.476563 12.078126-12.066406 7.457031 7.460937c6.007812 5.992188 15.507812 6.664063 22.296875 1.570313 19.972656-14.707031 43.210937-24.355469 67.730468-28.117188 8.375-1.214843 14.59375-8.382812 14.617188-16.847656v-10.511719h17.066406v10.511719c.023438 8.476563 6.269532 15.652344 14.660156 16.847656 24.519532 3.757813 47.761719 13.402344 67.738282 28.109375 6.78125 5.085938 16.273437 4.417969 22.28125-1.5625l7.472656-7.46875 12.066406 12.074219-7.457031 7.460937c-5.996094 6.007813-6.664063 15.507813-1.570313 22.296876 14.707032 19.972656 24.355469 43.210937 28.117188 67.730468 1.191406 8.394532 8.367188 14.640625 16.84375 14.667969h10.515625zm0 0"/><path d="m503.46875 452.265625c-4.714844 0-8.535156 3.820313-8.535156 8.535156v8.53125c0 4.714844-3.820313 8.535157-8.53125 8.535157h-34.132813c-4.714843 0-8.535156 3.820312-8.535156 8.53125 0 4.714843 3.820313 8.535156 8.535156 8.535156h34.132813c14.136718 0 25.597656-11.460938 25.597656-25.601563v-8.53125c0-4.714843-3.820312-8.535156-8.53125-8.535156zm0 0"/><path d="m503.46875 247.464844c-4.714844 0-8.535156 3.824218-8.535156 8.535156v17.066406c0 4.714844 3.820312 8.535156 8.535156 8.535156 4.710938 0 8.53125-3.820312 8.53125-8.535156v-17.066406c0-4.710938-3.820312-8.535156-8.53125-8.535156zm0 0"/><path d="m503.46875 298.667969c-4.714844 0-8.535156 3.820312-8.535156 8.53125v17.066406c0 4.714844 3.820312 8.535156 8.535156 8.535156 4.710938 0 8.53125-3.820312 8.53125-8.535156v-17.066406c0-4.710938-3.820312-8.53125-8.53125-8.53125zm0 0"/><path d="m503.46875 349.867188c-4.714844 0-8.535156 3.820312-8.535156 8.53125v17.066406c0 4.714844 3.820312 8.535156 8.535156 8.535156 4.710938 0 8.53125-3.820312 8.53125-8.535156v-17.066406c0-4.710938-3.820312-8.53125-8.53125-8.53125zm0 0"/><path d="m503.46875 401.066406c-4.714844 0-8.535156 3.820313-8.535156 8.535156v17.066407c0 4.710937 3.820312 8.53125 8.535156 8.53125 4.710938 0 8.53125-3.820313 8.53125-8.53125v-17.066407c0-4.714843-3.820312-8.535156-8.53125-8.535156zm0 0"/><path d="m59.734375 477.867188h-34.132813c-4.714843 0-8.535156-3.820313-8.535156-8.535157v-8.53125c0-4.714843-3.820312-8.535156-8.53125-8.535156-4.714844 0-8.535156 3.820313-8.535156 8.535156v8.53125c0 14.140625 11.460938 25.601563 25.601562 25.601563h34.132813c4.714844 0 8.535156-3.820313 8.535156-8.535156 0-4.710938-3.820312-8.53125-8.535156-8.53125zm0 0"/><path d="m8.535156 281.601562c4.710938 0 8.53125-3.820312 8.53125-8.535156v-17.066406c0-4.710938-3.820312-8.535156-8.53125-8.535156-4.714844 0-8.535156 3.824218-8.535156 8.535156v17.066406c0 4.714844 3.820312 8.535156 8.535156 8.535156zm0 0"/><path d="m8.535156 332.800781c4.710938 0 8.53125-3.820312 8.53125-8.535156v-17.066406c0-4.710938-3.820312-8.53125-8.53125-8.53125-4.714844 0-8.535156 3.820312-8.535156 8.53125v17.066406c0 4.714844 3.820312 8.535156 8.535156 8.535156zm0 0"/><path d="m8.535156 384c4.710938 0 8.53125-3.820312 8.53125-8.535156v-17.066406c0-4.710938-3.820312-8.53125-8.53125-8.53125-4.714844 0-8.535156 3.820312-8.535156 8.53125v17.066406c0 4.714844 3.820312 8.535156 8.535156 8.535156zm0 0"/><path d="m8.535156 435.199219c4.710938 0 8.53125-3.820313 8.53125-8.53125v-17.066407c0-4.714843-3.820312-8.535156-8.53125-8.535156-4.714844 0-8.535156 3.820313-8.535156 8.535156v17.066407c0 4.710937 3.820312 8.53125 8.535156 8.53125zm0 0"/></svg>
