<svg height="511pt" viewBox="-8 0 511 511.89514" width="511pt" xmlns="http://www.w3.org/2000/svg" fill="currentColor"><path d="m247.914062 307.199219c-33.730468-.054688-63.550781 21.90625-73.503906 54.132812-9.957031 32.226563 2.28125 67.179688 30.167969 86.160157 27.882813 18.976562 64.886719 17.539062 91.214844-3.546876l65.554687 65.554688c3.347656 3.234375 8.671875 3.1875 11.960938-.105469 3.292968-3.289062 3.339844-8.613281.105468-11.960937l-65.554687-65.554688c18.460937-23.03125 22.070313-54.609375 9.28125-81.210937-12.792969-26.601563-39.710937-43.503907-69.226563-43.46875zm0 136.535156c-32.988281 0-59.734374-26.746094-59.734374-59.734375s26.746093-59.734375 59.734374-59.734375c32.988282 0 59.734376 26.746094 59.734376 59.734375-.039063 32.972656-26.761719 59.695312-59.734376 59.734375zm0 0"/><path d="m247.914062 341.332031c-12.246093 0-23.902343 5.261719-32 14.449219-3.117187 3.535156-2.777343 8.925781.753907 12.042969 3.535156 3.117187 8.929687 2.78125 12.046875-.753907 4.859375-5.511718 11.851562-8.667968 19.199218-8.671874 4.714844 0 8.535157-3.820313 8.535157-8.53125 0-4.714844-3.820313-8.535157-8.535157-8.535157zm0 0"/><path d="m223.117188 390.398438c-.707032-3.007813-2.992188-5.402344-5.964844-6.25-2.972656-.851563-6.175782-.023438-8.367188 2.160156s-3.027344 5.382812-2.1875 8.359375c1.683594 6.503906 4.875 12.519531 9.316406 17.558593 3.121094 3.535157 8.519532 3.871094 12.054688.75 3.535156-3.125 3.867188-8.519531.746094-12.054687-2.667969-3.019531-4.585938-6.625-5.597656-10.523437zm0 0"/><path d="m367.382812 375.464844h-17.070312c-4.710938 0-8.53125 3.824218-8.53125 8.535156s3.820312 8.535156 8.53125 8.535156h17.070312c4.710938 0 8.53125-3.824218 8.53125-8.535156s-3.820312-8.535156-8.53125-8.535156zm0 0"/><path d="m418.582031 358.398438c-4.714843 0-8.535156 3.820312-8.535156 8.535156 0 4.710937-3.820313 8.53125-8.53125 8.53125-4.714844 0-8.535156 3.824218-8.535156 8.535156s3.820312 8.535156 8.535156 8.535156c14.136719 0 25.597656-11.464844 25.597656-25.601562 0-4.714844-3.820312-8.535156-8.53125-8.535156zm0 0"/><path d="m128.449219 375.464844c-4.714844 0-8.535157 3.824218-8.535157 8.535156s3.820313 8.535156 8.535157 8.535156h17.066406c4.710937 0 8.53125-3.824218 8.53125-8.535156s-3.820313-8.535156-8.53125-8.535156zm0 0"/><path d="m85.78125 366.933594c0-4.714844-3.820312-8.535156-8.535156-8.535156-4.710938 0-8.53125 3.820312-8.53125 8.535156 0 14.136718 11.460937 25.601562 25.597656 25.601562 4.714844 0 8.535156-3.824218 8.535156-8.535156s-3.820312-8.535156-8.535156-8.535156c-4.710938 0-8.53125-3.820313-8.53125-8.53125zm0 0"/><path d="m26.046875 290.132812h42.667969v42.667969c0 4.710938 3.820312 8.53125 8.53125 8.53125 4.714844 0 8.535156-3.820312 8.535156-8.53125v-42.667969h324.265625v42.667969c0 4.710938 3.820313 8.53125 8.535156 8.53125 4.710938 0 8.53125-3.820312 8.53125-8.53125v-42.667969h42.667969c14.136719 0 25.601562-11.460937 25.601562-25.597656v-238.933594c0-14.140624-11.464843-25.601562-25.601562-25.601562h-443.734375c-14.136719 0-25.597656 11.460938-25.597656 25.601562v238.933594c0 14.136719 11.460937 25.597656 25.597656 25.597656zm0-17.066406c-4.710937 0-8.53125-3.820312-8.53125-8.53125v-25.773437c17.511719-.5 34.835937-3.792969 51.308594-9.761719 0 .46875-.109375.929688-.109375 1.398438-.003906 16.074218 6.492187 31.460937 18.011718 42.667968zm40.371094-179.371094c.085937-.460937.195312-.921874.289062-1.382812.199219-.964844.402344-1.925781.660157-2.890625.144531-.539063.316406-1.078125.476562-1.613281.265625-.855469.546875-1.757813.851562-2.636719.207032-.554687.429688-1.109375.652344-1.707031.347656-.855469.714844-1.707032 1.117188-2.519532.261718-.566406.542968-1.113281.851562-1.636718.4375-.851563.914063-1.707032 1.410156-2.472656.3125-.523438.621094-1.035157.953126-1.546876.5625-.851562 1.179687-1.707031 1.800781-2.5.34375-.445312.65625-.894531 1.015625-1.332031.855468-.988281 1.707031-1.945312 2.558594-2.890625.230468-.238281.4375-.488281.675781-.726562 1.203125-1.191406 2.464843-2.316406 3.789062-3.371094.324219-.253906.683594-.484375 1.015625-.742188 1.050782-.792968 2.125-1.578124 3.277344-2.3125.527344-.347656 1.117188-.664062 1.707031-1 1.015625-.59375 2.046875-1.183593 3.140625-1.703124.65625-.335938 1.355469-.648438 2.046875-.964844 1.074219-.496094 2.175781-.964844 3.320313-1.410156.757812-.296876 1.535156-.578126 2.328125-.851563 1.167969-.402344 2.382812-.777344 3.628906-1.128906.851563-.238281 1.703125-.46875 2.558594-.679688 1.304687-.316406 2.679687-.597656 4.0625-.855469.851562-.167968 1.75-.339843 2.660156-.484374 1.5625-.238282 3.210937-.417969 4.863281-.582032.855469-.085937 1.597656-.195312 2.433594-.253906 2.558594-.1875 5.121094-.300781 7.902344-.300781s5.367187.113281 7.902344.300781c.851562.058594 1.613281.167969 2.429687.253906 1.65625.164063 3.304687.34375 4.867187.582032.910157.144531 1.78125.316406 2.660157.484374 1.382812.257813 2.757812.539063 4.0625.855469.851562.210938 1.707031.441407 2.558593.679688 1.246094.351562 2.460938.726562 3.628907 1.128906.792969.273437 1.570312.554687 2.328125.851563 1.144531.445312 2.246094.914062 3.320312 1.410156.691406.316406 1.390625.628906 2.046875.964844 1.09375.554687 2.125 1.140624 3.140625 1.703124.554688.335938 1.144532.652344 1.707032 1 1.152343.734376 2.226562 1.519532 3.277343 2.3125.332031.257813.691407.488282 1.015625.742188 1.324219 1.054688 2.585938 2.179688 3.789063 3.371094.238281.238281.441406.488281.671875.726562.914062.945313 1.792968 1.902344 2.5625 2.890625.359375.4375.671875.855469 1.015625 1.332031.621093.855469 1.234375 1.65625 1.800781 2.5.332031.511719.636719 1.023438.953125 1.546876.496094.851562.972656 1.636718 1.410156 2.472656.285157.539062.566407 1.085937.851563 1.636718.402344.855469.769531 1.707032 1.117187 2.519532.222657.5625.445313 1.117187.648438 1.707031.324219.851563.609375 1.757813.855469 2.636719.160156.535156.332031 1.074218.476562 1.613281.257812.964844.460938 1.925781.65625 2.890625.09375.460938.207031.921875.292969 1.382812l.042969.316407c-14.976563-10.953125-34.472657-13.597657-51.824219-7.023438-6.574219 2.625-13.90625 2.625-20.480469 0-17.351562-6.566406-36.84375-3.925781-51.824219 7.023438zm-12.304688 49.007813c.957031-.789063 2.175781-1.183594 3.414063-1.109375.726562.003906 1.449218.078125 2.160156.222656 2.875.570313 5.84375-.371094 7.859375-2.503906 2.019531-2.128906 2.800781-5.144531 2.070313-7.984375-1.375-5.359375-2.414063-10.800781-3.105469-16.289063 17.800781-14.15625 31.222656-17.792968 45.414062-12.160156 10.613281 4.199219 22.429688 4.199219 33.042969 0 14.199219-5.632812 27.613281-1.996094 45.414062 12.160156-.691406 5.488282-1.726562 10.929688-3.105468 16.289063-.726563 2.835937.054687 5.847656 2.066406 7.976563 2.011719 2.128906 4.972656 3.078124 7.847656 2.511718 1.898438-.566406 3.949219-.253906 5.589844.851563 3.171875 4.835937 3.421875 11.027343.648438 16.101562-2.808594 6.992188-7.976563 11.863281-12.578126 11.863281-3.882812-.003906-7.277343 2.617188-8.261718 6.375-2.964844 11.050782-7.941406 21.464844-14.675782 30.71875-1.113281 1.359376-2.339843 2.625-3.660156 3.78125-1.152344 1.007813-2.425781 1.867188-3.789062 2.558594-9.476563 6.160156-20.769532 8.910156-32.015625 7.800782-4.292969.117187-8.585938-.019532-12.863281-.410157-6.730469-1.347656-13.191407-3.8125-19.113282-7.289062-2.902344-1.570313-5.441406-3.742188-7.449218-6.363281l-.09375-.085938c-6.773438-9.222656-11.738282-19.648438-14.632813-30.71875-1-3.738281-4.386719-6.335938-8.253906-6.332031-4.597657 0-9.769531-4.875-12.578125-11.863281-2.773438-5.074219-2.523438-11.265626.648437-16.101563zm74.335938 130.363281c-23.554688-.027344-42.640625-19.113281-42.667969-42.667968 0-.851563 0-1.757813.085938-2.636719 1.042968.667969 2.125 1.269531 3.242187 1.800781 11.722656 7.375 25.550781 10.667969 39.339844 9.371094 4.800781 0 8.472656 0 11.578125-.1875 9.847656-.847656 19.355468-4 27.757812-9.199219l.09375-.050781c1.085938-.519532 2.136719-1.105469 3.148438-1.75.0625.851562.085937 1.75.085937 2.636718-.019531 23.558594-19.105469 42.65625-42.664062 42.683594zm59.730469-42.667968c0-.46875-.101563-.929688-.109376-1.398438 16.472657 5.96875 33.796876 9.261719 51.3125 9.761719v34.304687h-69.214843c11.519531-11.207031 18.015625-26.59375 18.011719-42.667968zm68.269531 33.820312c8.113281-.617188 16.148437-2.003906 24.003906-4.140625 1.363281 4.410156 2.949219 8.742187 4.761719 12.988281h-28.765625zm120.71875-212.53125c1.058593.101562 2.074219.238281 3.097656.375 1.980469.246094 3.875.554688 5.699219.914062 1.066406.210938 2.144531.417969 3.167968.664063 1.824219.433594 3.550782.945313 5.222657 1.492187.726562.238282 1.507812.4375 2.210937.691407 2.179688.792969 4.308594 1.714843 6.382813 2.757812.492187.246094.929687.519531 1.40625.777344 1.621093.851563 3.183593 1.800781 4.609375 2.773437.289062.195313.570312.40625.851562.613282 1.601563 1.128906 3.136719 2.355468 4.589844 3.667968-33.449219 18.207032-70.980469 27.601563-109.0625 27.308594 3.675781-21.1875 21.300781-42.523437 62.039062-42.523437 3.472657 0 6.6875.207031 9.785157.488281zm30.449219 185.34375c1.492187 1.203125 3.042968 2.355469 4.625 3.488281l.355468.25c3.863282 2.757813 7.890625 5.277344 12.058594 7.542969-7.371094 14.265625-30.769531 24.753906-57.273438 24.753906-12.363281.113282-24.613281-2.324218-35.988281-7.160156l.113281-.117188c1.433594-1.527343 2.882813-3.132812 4.332032-4.8125l1.265625-1.476562c1.085937-1.296875 2.164062-2.636719 3.234375-4.011719.261718-.339843.535156-.683593.792968-1.023437.503907-.648438 1.007813-1.296875 1.511719-1.972656.261719-.359376.511719-.734376.773438-1.101563 1.613281-2.226563 3.191406-4.574219 4.730469-7.003906.238281-.375.5-.707031.742187-1.09375.1875.101562.40625.179687.597656.28125.800781.417969 1.628907.8125 2.5 1.179687.417969.167969.851563.324219 1.296875.484375.796875.292969 1.632813.554688 2.507813.792969.503906.136719 1.015625.273438 1.542969.394531.964843.214844 2.015624.382813 3.089843.539063.511719.074218 1.007813.160156 1.554688.21875 1.792969.1875 3.597656.28125 5.402343.28125 9.671876.398437 19.109376-3.03125 26.273438-9.546875 1.039062-.8125 2.113281-1.621094 3.234375-2.449219.347656-.257812.722656-.511719 1.089844-.769531.855469-.628907 1.871093-1.261719 2.875-1.894531.34375-.210938.675781-.425782 1.035156-.636719.382813.355469.851563.671875 1.210937 1.023437 1.441407 1.304688 2.933594 2.585938 4.515626 3.839844zm-109.910157-50.46875c.210938.070312.417969.191406.628907.257812.148437.433594.359374 1.007813.523437 1.484376.339844 1.023437.664063 2.015624 1.101563 3.183593.28125.757813.636718 1.621094.953124 2.421875.402344 1.035156.769532 2.023438 1.230469 3.117188.289063.679687.648438 1.40625.953125 2.097656.589844 1.316406 1.144532 2.613281 1.820313 3.96875.117187.246094.273437.503906.398437.75 4.652344 10.765625 12.613282 19.769531 22.726563 25.703125 1.441406.699219 2.738281 1.382813 3.941406 2.066406.324219.1875.605469.375.921875.554688.664062.398437 1.304688.792969 1.921875 1.191406-.351563.566406-.652344 1.144531-1 1.707031-.554687.855469-1.117187 1.707032-1.707031 2.5625-1.355469 2.035156-2.777344 4.027344-4.265625 5.972656l-.640625.851563c-.402344.511719-.800782 1.035156-1.210938 1.539063-1.707031 2.140624-3.515625 4.265624-5.394531 6.289062-.648437.707031-1.289063 1.40625-1.929687 2.082031-2.0625 2.164063-4.222657 4.285157-6.476563 6.355469-.808594.75-1.613281 1.484375-2.398437 2.167969l-1.226563 1.058593c-.855469.714844-1.648437 1.398438-2.433594 2.039063l-1.046875.851563c-.855468.699218-1.707031 1.351562-2.511718 1.957031l-.410157.3125c-3.207031-7.027344-5.734375-14.34375-7.550781-21.851563l-.050781-.113281c-2.675781-11.066406-4.015625-22.417969-3.992188-33.808594-.121093-9.566406.820313-19.121093 2.804688-28.484375.257812.128906.53125.1875.785156.316406 1.144531.546876 2.324219 1.015626 3.535156 1.398438zm101.648438 27.625c-5.765625 2.773438-11.183594 6.210938-16.152344 10.238281-4.179687 4.160157-9.9375 6.335938-15.820313 5.972657-1.015624 0-1.9375 0-2.792968-.082032-4.164063-.195312-8.140625-1.800781-11.273438-4.550781l-.613281-.476563-1.355469-1.042968c-3.070312-2.417969-6.28125-4.644532-9.625-6.664063-1.878906-1.117187-3.902344-2.25-6.28125-3.414062-10.335937-4.9375-19.089844-25.402344-22.1875-37.136719-.988281-3.757812-4.390625-6.375-8.277344-6.363281-1.0625-.050781-2.109374-.308594-3.070312-.761719-.324219-.136719-.640625-.292969-.949219-.46875-.792969-.449219-1.539062-.976562-2.226562-1.578125-.445313-.382813-.855469-.777344-1.324219-1.230469-2.148438-2.265625-3.851562-4.921875-5.007812-7.824218-2.773438-5.074219-2.523438-11.265626.648437-16.101563.957031-.789063 2.175781-1.183594 3.414063-1.109375.726562.003906 1.449218.078125 2.160156.222656h.40625c.136718 0 .179687.066406.265625.074219 7.015625.816406 14.066406 1.230469 21.128906 1.238281 42.046875 1.109375 82.246094-17.257812 108.929687-49.773437.539063 2.984375.8125 6.011719.808594 9.042969-.074218 9.773437-1.402344 19.496093-3.949218 28.929687-.726563 2.839844.054687 5.851563 2.066406 7.980469 2.015625 2.128906 4.980468 3.078125 7.855468 2.507812 1.894532-.570312 3.945313-.257812 5.582032.851563 3.175781 4.839843 3.421875 11.035156.640625 16.113281-2.800781 6.980469-7.960938 11.851562-12.570313 11.851562-3.878906 0-7.269531 2.621094-8.25 6.375-2.058594 7.902344-10.539062 31.589844-22.179687 37.179688zm-92.160157-88.621094c0-.152344-.058593-.324218-.09375-.46875-.375-1.75-.726562-3.625-1.042968-5.570312-.109375-.65625-.203125-1.347656-.304688-2.03125-.230468-1.613282-.4375-3.304688-.605468-5.042969-.050782-.546875-.105469-1.074219-.15625-1.628906 37.214843.101562 73.984374-8.058594 107.65625-23.894531-17.421876 19.609374-50.140626 43.074218-105.46875 38.621093zm171.117188 138.96875c0 4.710938-3.820312 8.53125-8.53125 8.53125h-44.816406c6.367187-4.609375 11.566406-10.648437 15.179687-17.628906 12.226563 4.777344 25.085938 7.738281 38.167969 8.78125zm0-238.933594v221.394532c-13.6875-1.261719-27.054688-4.894532-39.5-10.734375h-.042969c-5.578125-2.613281-10.929687-5.683594-16-9.191407-.597656-.417968-1.160156-.851562-1.707031-1.296874-1.550781-1.125-3.042969-2.285157-4.453125-3.464844 9.136719-10.234375 15.914063-22.347656 19.855469-35.488282 10.175781-3.507812 18.191406-11.472656 21.769531-21.625 5.734375-11.460937 3.875-25.265624-4.683594-34.804687-2.410156-2.296875-5.335937-3.980469-8.535156-4.917969 1.457031-7.59375 2.195313-15.304687 2.203125-23.039062.28125-26.074219-15.078125-49.777344-38.988281-60.175782-2.695313-1.222656-5.457031-2.289062-8.269531-3.199218-1.21875-.402344-2.433594-.8125-3.710938-1.179688-1.023438-.28125-2.082031-.519531-3.132812-.777344-1.578126-.382812-3.199219-.734374-4.878907-1.046874-1-.179688-2-.359376-3.023437-.511719-1.902344-.300781-3.875-.53125-5.894532-.734375-.90625-.085938-1.785156-.199219-2.714843-.265625-2.960938-.265625-6.007813-.410157-9.222657-.410157-55.160156 0-79.855468 34.289063-79.855468 68.265626 0 4.0625.246094 7.816406.585937 11.402343.113281 1.167969.265625 2.21875.402344 3.335938.300781 2.382812.613281 4.660156 1 6.828125.082031.46875.136719 1.039062.21875 1.5-3.195313.933594-6.121094 2.621094-8.53125 4.914062-8.5625 9.539063-10.421875 23.339844-4.683594 34.800782.832031 2.039062 1.820313 4.015624 2.949219 5.90625-4.175781 13.683593-6.183594 27.941406-5.953125 42.246093-.015625 10.105469.917969 20.191407 2.78125 30.125-6.492187 1.808594-13.136719 3.023438-19.847656 3.632813v-230.023438h213.332031c4.710938 0 8.53125 3.820313 8.53125 8.535156zm-452.265625-8.535156h213.335937v204.527344c-18.015624-.4375-35.777343-4.347656-52.3125-11.511719 4.320313-7.355469 7.816407-15.167969 10.429688-23.289062 10.175781-3.507813 18.195312-11.476563 21.769531-21.628907 5.734375-11.460937 3.875-25.265624-4.6875-34.800781-2.410156-2.292969-5.335937-3.980469-8.53125-4.914062.722657-3.839844 1.277344-8.210938 1.707031-12.800781 0-.214844.117188-.410157.136719-.621094.246094-3.058594.390625-6.25.390625-9.59375 0-33.980469-24.695312-68.265625-79.855468-68.265625-55.160157 0-79.835938 34.253906-79.835938 68.230469 0 3.347656.144531 6.539062.390625 9.59375 0 .210937.101563.410156.136719.621093.402344 4.625.957031 8.996094 1.707031 12.800781-3.195313.933594-6.121094 2.621094-8.53125 4.914063-8.566406 9.535156-10.421875 23.339844-4.6875 34.800781 3.570313 10.171875 11.59375 18.152344 21.785156 21.664063 2.613281 8.121093 6.109375 15.933593 10.429688 23.289062-16.535157 7.164063-34.296875 11.074219-52.308594 11.511719v-195.992188c0-4.714843 3.820313-8.535156 8.53125-8.535156zm0 0"/></svg>
