<?xml version="1.0" encoding="UTF-8"?>
<svg xmlns="http://www.w3.org/2000/svg" id="Icons" viewBox="0 0 60 60" width="512" height="512" fill="currentColor"><path d="M50,51H24.816a2.982,2.982,0,0,0-5.632,0H10a1,1,0,0,0,0,2h9.184a2.982,2.982,0,0,0,5.632,0H50a1,1,0,0,0,0-2ZM22,53a1,1,0,1,1,1-1A1,1,0,0,1,22,53Z"/><path d="M49,0H11A4,4,0,0,0,7,4V15a4,4,0,0,0-4,4V56a4,4,0,0,0,4,4H53a4,4,0,0,0,4-4V19a4,4,0,0,0-4-4V4A4,4,0,0,0,49,0ZM9,4a2,2,0,0,1,2-2H49a2,2,0,0,1,2,2V26a2,2,0,0,1-2,2H38a1,1,0,0,0-.753.342l-6.32,7.229a1.24,1.24,0,0,1-1.854,0l-6.32-7.229A1,1,0,0,0,22,28H11a2,2,0,0,1-2-2ZM53,58H7a2,2,0,0,1-2-2V46H55V56A2,2,0,0,1,53,58Zm2-39V44H5V19a2,2,0,0,1,2-2v9a4,4,0,0,0,4,4H21.546l6.021,6.887a3.212,3.212,0,0,0,4.866,0L38.454,30H49a4,4,0,0,0,4-4V17A2,2,0,0,1,55,19Z"/><path d="M13.951,17.1l-.345,3.478a2.146,2.146,0,0,0,.867,1.972,2.254,2.254,0,0,0,2.219.267L20,21.407l3.31,1.414a2.252,2.252,0,0,0,2.217-.269,2.134,2.134,0,0,0,.861-1.648,2.345,2.345,0,0,0,.3-.086L30,19.405l3.307,1.413a2.257,2.257,0,0,0,.306.1,2.139,2.139,0,0,0,.86,1.638,2.253,2.253,0,0,0,2.22.267L40,21.407l3.311,1.414a2.234,2.234,0,0,0,.871.176,2.257,2.257,0,0,0,1.346-.445,2.143,2.143,0,0,0,.868-1.961L46.05,17.1l2.379-2.628a2.151,2.151,0,0,0,.468-2.121,2.2,2.2,0,0,0-1.648-1.491l-3.515-.75L41.91,7.079a2.227,2.227,0,0,0-3.816,0L37.041,8.822l-3.31-.713-1.82-3.034h0a2.236,2.236,0,0,0-3.822,0l-1.82,3.033-3.31.713-1.05-1.743a2.226,2.226,0,0,0-3.816,0l-1.826,3.037-3.522.751a2.195,2.195,0,0,0-1.642,1.49,2.148,2.148,0,0,0,.466,2.118Zm26.243-9,2.05,3.41a1,1,0,0,0,.648.463l3.934.838a.206.206,0,0,1,.165.142.161.161,0,0,1-.042.171l-2.679,2.96a1,1,0,0,0-.254.769l.391,3.942a.153.153,0,0,1-.074.148.238.238,0,0,1-.24.032l-3.7-1.58a1,1,0,0,0-.785,0l-3.7,1.579a.24.24,0,0,1-.243-.031.154.154,0,0,1-.072-.158l.033-.335a2.153,2.153,0,0,0,.77-1.868L36.05,15.1l2.381-2.624A2.09,2.09,0,0,0,38.7,9.939L39.81,8.1A.206.206,0,0,1,40.194,8.105ZM27.114,9.973a1,1,0,0,0,.647-.463L29.8,6.1a.213.213,0,0,1,.392,0L32.239,9.51a1,1,0,0,0,.647.463l3.944.849a.2.2,0,0,1,.161.136.168.168,0,0,1-.041.174l-2.68,2.953a1,1,0,0,0-.254.771l.393,3.931a.169.169,0,0,1-.079.166.238.238,0,0,1-.237.026l-3.7-1.581a1.005,1.005,0,0,0-.786,0l-3.7,1.581a.233.233,0,0,1-.237-.026.169.169,0,0,1-.079-.166l.393-3.931a1,1,0,0,0-.254-.771l-2.681-2.953a.171.171,0,0,1-.04-.174.2.2,0,0,1,.161-.136ZM13.168,12.818l3.94-.84a1,1,0,0,0,.649-.463L19.81,8.1a.2.2,0,0,1,.383,0l1.1,1.833a2.091,2.091,0,0,0,.27,2.537L23.95,15.1,23.6,18.587a2.152,2.152,0,0,0,.771,1.869l.034.344a.151.151,0,0,1-.073.148.24.24,0,0,1-.24.032l-3.7-1.58a1,1,0,0,0-.786,0l-3.7,1.579a.246.246,0,0,1-.243-.031.156.156,0,0,1-.072-.159l.39-3.931a1,1,0,0,0-.254-.77l-2.682-2.962a.161.161,0,0,1-.04-.168A.2.2,0,0,1,13.168,12.818Z"/></svg>
