<svg height="512pt" viewBox="0 0 512 512" width="512pt" xmlns="http://www.w3.org/2000/svg" fill="currentColor"><path d="m187.734375 162.132812c4.710937 0 8.53125 3.820313 8.53125 8.535157 0 4.710937 3.820313 8.53125 8.535156 8.53125 4.710938 0 8.53125-3.820313 8.53125-8.53125 0-14.140625-11.460937-25.601563-25.597656-25.601563-13.988281.355469-25.246094 11.609375-25.601563 25.601563 0 13.804687 12.597657 20.09375 21.785157 24.703125 7.230469 3.609375 12.347656 6.40625 12.347656 9.429687-.285156 4.585938-3.945313 8.246094-8.53125 8.53125-4.714844 0-8.535156-3.820312-8.535156-8.53125 0-4.714843-3.820313-8.535156-8.53125-8.535156-4.714844 0-8.535157 3.820313-8.535157 8.535156 0 14.136719 11.460938 25.597657 25.601563 25.597657 13.988281-.351563 25.246094-11.609376 25.597656-25.597657 0-13.808593-12.59375-20.097656-21.785156-24.703125-7.226563-3.609375-12.347656-6.410156-12.347656-9.429687.289062-4.589844 3.945312-8.246094 8.535156-8.535157zm0 0"/><path d="m247.464844 230.398438h17.070312c4.710938 0 8.53125-3.820313 8.53125-8.53125 0-4.714844-3.820312-8.535157-8.53125-8.535157h-17.070312v-17.066406h17.070312c4.710938 0 8.53125-3.820313 8.53125-8.53125 0-4.714844-3.820312-8.535156-8.53125-8.535156h-17.070312v-17.066407h17.070312c4.710938 0 8.53125-3.820312 8.53125-8.53125 0-4.714843-3.820312-8.535156-8.53125-8.535156h-17.070312c-9.425782 0-17.066406 7.640625-17.066406 17.066406v51.199219c0 9.425781 7.640624 17.066407 17.066406 17.066407zm0 0"/><path d="m320 230.398438c16.496094 0 29.867188-13.371094 29.867188-29.863282v-25.601562c0-16.496094-13.371094-29.867188-29.867188-29.867188s-29.867188 13.371094-29.867188 29.867188v25.601562c0 7.917969 3.148438 15.515625 8.75 21.117188 5.597657 5.601562 13.195313 8.746094 21.117188 8.746094zm-12.800781-55.464844c0-7.070313 5.730469-12.800782 12.800781-12.800782s12.800781 5.730469 12.800781 12.800782v25.601562c0 7.066406-5.730469 12.796875-12.800781 12.796875s-12.800781-5.730469-12.800781-12.796875zm0 0"/><path d="m306.839844 32.164062c-.882813-2.964843-3.300782-5.21875-6.320313-5.890624l-24.3125-5.410157-13.429687-17.519531c-1.679688-2.003906-4.160156-3.164062-6.777344-3.164062s-5.097656 1.160156-6.777344 3.164062l-13.429687 17.519531-24.3125 5.410157c-3.015625.671874-5.4375 2.925781-6.320313 5.886718-.886718 2.960938-.101562 6.171875 2.054688 8.390625l15.222656 15.71875-1.3125 19.976563c-.183594 2.824218 1.042969 5.554687 3.277344 7.289062 2.234375 1.738282 5.183594 2.253906 7.875 1.378906l23.722656-7.730468 23.722656 7.730468c.855469.273438 1.746094.414063 2.644532.417969 2.363281.007813 4.621093-.96875 6.238281-2.691406 1.617187-1.722656 2.449219-4.039063 2.296875-6.394531l-1.316406-19.976563 15.226562-15.71875c2.144531-2.222656 2.921875-5.429687 2.027344-8.386719zm-32.167969 14.949219c-1.679687 1.730469-2.546875 4.089844-2.390625 6.492188l.785156 11.179687-14.378906-4.695312c-1.71875-.554688-3.570312-.554688-5.289062 0l-14.378907 4.695312.742188-11.179687c.15625-2.402344-.710938-4.761719-2.390625-6.492188l-7.253906-7.484375 12.453124-2.773437c1.949219-.441407 3.683594-1.550781 4.894532-3.140625l8.535156-11.152344 8.535156 11.152344c1.21875 1.59375 2.960938 2.707031 4.921875 3.140625l12.449219 2.773437zm0 0"/><path d="m477.507812 356.429688c-.882812-2.964844-3.304687-5.21875-6.324218-5.890626l-24.308594-5.410156-13.433594-17.515625c-1.675781-2.007812-4.160156-3.167969-6.773437-3.167969-2.617188 0-5.097657 1.160157-6.777344 3.167969l-13.429687 17.515625-24.3125 5.410156c-3.019532.671876-5.4375 2.925782-6.324219 5.886719-.882813 2.964844-.097657 6.171875 2.058593 8.390625l15.222657 15.71875-1.316407 19.976563c-.183593 2.824219 1.046876 5.558593 3.28125 7.296875 2.238282 1.738281 5.191407 2.25 7.882813 1.375l23.714844-7.734375 23.722656 7.734375c.855469.269531 1.746094.414062 2.644531.417968 2.363282.003907 4.621094-.972656 6.238282-2.695312 1.617187-1.722656 2.449218-4.035156 2.292968-6.394531l-1.3125-19.976563 15.222656-15.71875c2.144532-2.222656 2.921876-5.429687 2.03125-8.386718zm-32.171874 14.949218c-1.675782 1.730469-2.542969 4.089844-2.386719 6.496094l.785156 11.175781-14.378906-4.691406c-1.71875-.558594-3.570313-.558594-5.292969 0l-14.378906 4.691406.742187-11.175781c.160157-2.40625-.710937-4.765625-2.386719-6.496094l-7.253906-7.484375 12.449219-2.773437c1.949219-.441406 3.683594-1.550782 4.898437-3.140625l8.535157-11.152344 8.53125 11.152344c1.222656 1.59375 2.964843 2.707031 4.925781 3.140625l12.449219 2.773437zm0 0"/><path d="m136.175781 356.429688c-.886719-2.964844-3.304687-5.21875-6.324219-5.890626l-24.3125-5.410156-13.429687-17.515625c-1.679687-2.007812-4.160156-3.167969-6.777344-3.167969-2.613281 0-5.097656 1.160157-6.773437 3.167969l-13.433594 17.515625-24.308594 5.410156c-3.019531.671876-5.4375 2.925782-6.324218 5.886719-.886719 2.964844-.097657 6.171875 2.054687 8.390625l15.226563 15.71875-1.316407 19.976563c-.183593 2.824219 1.042969 5.554687 3.277344 7.292969 2.234375 1.734374 5.183594 2.25 7.875 1.378906l23.722656-7.734375 23.722657 7.734375c.855468.269531 1.75.414062 2.648437.417968 2.359375.003907 4.621094-.972656 6.238281-2.695312 1.617188-1.722656 2.445313-4.035156 2.292969-6.394531l-1.3125-19.976563 15.222656-15.71875c2.144531-2.222656 2.921875-5.429687 2.03125-8.386718zm-32.171875 14.949218c-1.675781 1.730469-2.546875 4.089844-2.390625 6.496094l.785157 11.175781-14.378907-4.691406c-1.71875-.558594-3.570312-.558594-5.289062 0l-14.378907 4.691406.742188-11.175781c.15625-2.40625-.710938-4.765625-2.390625-6.496094l-7.25-7.484375 12.449219-2.773437c1.949218-.441406 3.683594-1.550782 4.898437-3.140625l8.53125-11.152344 8.535157 11.152344c1.21875 1.59375 2.964843 2.707031 4.921874 3.140625l12.453126 2.773437zm0 0"/><path d="m153.601562 494.933594h-128c-4.714843 0-8.535156-3.820313-8.535156-8.535156v-42.664063h170.667969c4.710937 0 8.53125-3.820313 8.53125-8.535156 0-4.710938-3.820313-8.53125-8.53125-8.53125h-170.667969v-341.335938h179.199219c4.714844 0 8.535156-3.820312 8.535156-8.53125 0-4.714843-3.820312-8.535156-8.535156-8.535156h-179.199219v-42.664063c0-4.714843 3.820313-8.535156 8.535156-8.535156h170.664063c4.714844 0 8.535156-3.820312 8.535156-8.53125 0-4.714844-3.820312-8.535156-8.535156-8.535156h-170.664063c-14.140624 0-25.601562 11.460938-25.601562 25.601562v460.796876c0 14.140624 11.460938 25.601562 25.601562 25.601562h128c4.710938 0 8.53125-3.820312 8.53125-8.535156 0-4.710938-3.820312-8.53125-8.53125-8.53125zm0 0"/><path d="m486.398438 0h-170.664063c-4.714844 0-8.535156 3.820312-8.535156 8.535156 0 4.710938 3.820312 8.53125 8.535156 8.53125h170.664063c4.714843 0 8.535156 3.820313 8.535156 8.535156v42.664063h-179.199219c-4.714844 0-8.535156 3.820313-8.535156 8.535156 0 4.710938 3.820312 8.53125 8.535156 8.53125h179.199219v341.335938h-170.667969c-4.710937 0-8.53125 3.820312-8.53125 8.53125 0 4.714843 3.820313 8.535156 8.53125 8.535156h170.667969v42.664063c0 4.714843-3.820313 8.535156-8.535156 8.535156h-128c-4.710938 0-8.53125 3.820312-8.53125 8.53125 0 4.714844 3.820312 8.535156 8.53125 8.535156h128c14.140624 0 25.601562-11.460938 25.601562-25.601562v-460.796876c0-14.140624-11.460938-25.601562-25.601562-25.601562zm0 0"/><path d="m51.199219 42.667969c0 4.710937-3.820313 8.53125-8.53125 8.53125-4.714844 0-8.535157-3.820313-8.535157-8.53125 0-4.714844 3.820313-8.535157 8.535157-8.535157 4.710937 0 8.53125 3.820313 8.53125 8.535157zm0 0"/><path d="m85.332031 42.667969c0 4.710937-3.820312 8.53125-8.53125 8.53125-4.714843 0-8.535156-3.820313-8.535156-8.53125 0-4.714844 3.820313-8.535157 8.535156-8.535157 4.710938 0 8.53125 3.820313 8.53125 8.535157zm0 0"/><path d="m119.464844 42.667969c0 4.710937-3.820313 8.53125-8.53125 8.53125-4.714844 0-8.535156-3.820313-8.535156-8.53125 0-4.714844 3.820312-8.535157 8.535156-8.535157 4.710937 0 8.53125 3.820313 8.53125 8.535157zm0 0"/><path d="m290.132812 460.800781h-4.035156c11.3125-28.441406 10.84375-60.21875-1.304687-88.3125 8.488281-4.355469 13.839843-13.082031 13.875-22.621093v-16c20.15625-7.171876 38.203125-19.269532 52.488281-35.199219 104.660156-.402344 126.710938-46.578125 126.710938-85.335938v-51.199219c0-18.851562-15.28125-34.132812-34.132813-34.132812h-59.734375c0-14.136719-11.460938-25.601562-25.601562-25.601562h-204.796876c-14.140624 0-25.601562 11.464843-25.601562 25.601562h-59.734375c-18.851563 0-34.132813 15.28125-34.132813 34.132812v51.199219c0 38.757813 22.050782 84.933594 126.710938 85.335938 14.289062 15.925781 32.332031 28.027343 52.488281 35.199219v16c.035157 9.539062 5.386719 18.265624 13.875 22.621093-12.148437 28.09375-12.617187 59.871094-1.304687 88.3125h-4.035156c-23.554688.027344-42.640626 19.113281-42.667969 42.664063 0 4.714844 3.820312 8.535156 8.535156 8.535156h136.53125c4.714844 0 8.535156-3.820312 8.535156-8.535156-.027343-23.550782-19.113281-42.636719-42.667969-42.664063zm153.601563-315.734375c9.425781 0 17.066406 7.640625 17.066406 17.066406v51.199219c0 42.207031-32.425781 65.023438-96.367187 67.945313 1.050781-1.707032 1.996094-3.414063 2.96875-5.121094.453125-.8125.957031-1.585938 1.390625-2.40625 1.621093-3.03125 3.097656-6.128906 4.472656-9.269531.578125-1.328125 1.109375-2.695313 1.644531-4.050781.828125-2.101563 1.601563-4.214844 2.332032-6.351563.476562-1.421875.964843-2.839844 1.398437-4.265625.972656-3.277344 1.84375-6.578125 2.558594-9.933594.222656-1.039062.367187-2.105468.566406-3.164062.511719-2.765625.945313-5.546875 1.277344-8.347656.136719-1.183594.273437-2.363282.375-3.546876.34375-3.808593.582031-7.648437.582031-11.488281v-68.265625zm-296.167969 136.210938c-63.941406-2.921875-96.367187-25.738282-96.367187-67.945313v-51.199219c0-9.425781 7.640625-17.066406 17.066406-17.066406h59.734375v68.265625c0 3.839844.238281 7.679688.582031 11.460938.101563 1.1875.238281 2.363281.375 3.550781.332031 2.796875.765625 5.582031 1.277344 8.34375.199219 1.058594.34375 2.125.566406 3.167969.714844 3.351562 1.585938 6.65625 2.558594 9.933593.433594 1.449219.921875 2.867188 1.398437 4.265626.726563 2.132812 1.503907 4.265624 2.339844 6.355468.535156 1.351563 1.058594 2.707032 1.636719 4.039063 1.375 3.148437 2.851563 6.246093 4.472656 9.273437.433594.855469.9375 1.597656 1.390625 2.40625.972656 1.742188 1.917969 3.472656 2.96875 5.148438zm23.101563 2.882812c-.667969-.792968-1.246094-1.636718-1.886719-2.457031-1.449219-1.84375-2.882812-3.703125-4.265625-5.640625-.855469-1.195312-1.554687-2.433594-2.324219-3.652344-1.015625-1.605468-2.027344-3.21875-2.96875-4.882812-.851562-1.476563-1.578125-2.984375-2.335937-4.488282-.761719-1.5-1.484375-2.96875-2.160157-4.488281-.742187-1.65625-1.433593-3.335937-2.089843-5.035156-.5625-1.449219-1.109375-2.917969-1.613281-4.394531-.597657-1.75-1.160157-3.507813-1.707032-5.273438-.445312-1.570312-.851562-3.164062-1.21875-4.761718-.367187-1.59375-.855468-3.414063-1.144531-5.117188-.367187-1.9375-.632813-3.910156-.898437-5.882812-.195313-1.414063-.433594-2.832032-.570313-4.265626-.214844-3.464843-.417969-6.945312-.417969-10.488281v-85.332031c0-4.710938 3.820313-8.535156 8.535156-8.535156h204.796876c4.714843 0 8.535156 3.824218 8.535156 8.535156v85.332031c0 3.542969-.203125 7.023438-.53125 10.480469-.132813 1.433594-.375 2.851562-.570313 4.265625-.265625 1.972656-.527343 3.941406-.894531 5.878906-.324219 1.707031-.734375 3.414063-1.144531 5.121094-.410157 1.707031-.777344 3.191406-1.21875 4.761719-.511719 1.765625-1.078125 3.523437-1.707031 5.273437-.503907 1.476563-1.050782 2.945313-1.613282 4.394531-.65625 1.707032-1.347656 3.414063-2.089844 5.035157-.675781 1.519531-1.417968 3.003906-2.160156 4.488281-.742187 1.484375-1.511718 3.011719-2.339844 4.488281-.9375 1.707031-1.953124 3.277344-2.96875 4.882813-.765624 1.21875-1.5 2.457031-2.320312 3.652344-1.339844 1.9375-2.773438 3.796874-4.265625 5.640624-.640625.851563-1.222656 1.707032-1.886719 2.457032-15.820312 19.054687-37.558594 32.269531-61.757812 37.546875-1.398438.296875-2.804688.519531-4.207032.765625-1.890624.335937-3.785156.640625-5.707031.855468-1.339843.167969-2.6875.324219-4.027343.441407-2.695313.230469-5.410157.375-8.148438.410156-.964844 0-1.9375 0-2.902344 0-2.738281 0-5.453125-.179687-8.148437-.410156-1.339844-.117188-2.6875-.273438-4.027344-.441407-1.921875-.230468-3.816406-.539062-5.710937-.855468-1.398438-.246094-2.808594-.46875-4.207032-.765625-24.179687-5.285157-45.902344-18.496094-61.710937-37.539063zm85.332031 57.171875c8.597656.007813 17.171875-.851562 25.601562-2.558593v11.09375c0 4.710937-3.820312 8.53125-8.535156 8.53125h-34.132812c-4.714844 0-8.535156-3.820313-8.535156-8.53125v-11.09375c8.429687 1.707031 17.003906 2.566406 25.601562 2.558593zm-11.683594 34.132813h23.367188c12.945312 26.972656 12.945312 58.363281 0 85.335937h-23.367188c-12.945312-26.972656-12.945312-58.363281 0-85.335937zm-46.589844 119.46875c3.628907-10.21875 13.292969-17.054688 24.140626-17.066406h68.265624c10.847657.011718 20.511719 6.847656 24.140626 17.066406zm0 0"/></svg>
