<svg height="512pt" viewBox="0 0 512.02571 512" width="512pt" xmlns="http://www.w3.org/2000/svg" fill="currentColor"><path d="m418.132812 349.878906c-4.710937 0-8.53125 3.820313-8.53125 8.535156v68.265626h-392.535156v-341.332032h392.535156v128c0 4.710938 3.820313 8.53125 8.53125 8.53125 4.714844 0 8.535157-3.820312 8.535157-8.53125v-187.734375c0-14.140625-11.460938-25.6015622-25.601563-25.6015622h-375.464844c-14.140624 0-25.601562 11.4609372-25.601562 25.6015622v460.800781c0 14.136719 11.460938 25.597657 25.601562 25.597657h375.464844c14.140625 0 25.601563-11.460938 25.601563-25.597657v-128c0-4.714843-3.820313-8.535156-8.535157-8.535156zm-392.53125-332.800781h375.464844c4.714844 0 8.535156 3.820313 8.535156 8.535156v42.667969h-392.535156v-42.667969c0-4.714843 3.820313-8.535156 8.535156-8.535156zm375.464844 477.867187h-375.464844c-4.714843 0-8.535156-3.820312-8.535156-8.53125v-42.667968h392.535156v42.667968c0 4.710938-3.820312 8.53125-8.535156 8.53125zm0 0"/><path d="m485.078125 187.746094c-1.796875.035156-3.582031.25-5.335937.640625-5.226563 1.175781-9.964844 3.933593-13.574219 7.894531l-11.664063 12.796875-61.570312 67.253906c-11.109375 12.144531-17.347656 27.964844-17.507813 44.421875l-5.976562 6.050782c-2.441407 2.089843-3.503907 5.375-2.742188 8.5.757813 3.125 3.210938 5.558593 6.339844 6.292968s6.40625-.351562 8.476563-2.8125l6.128906-6.167968c17.195312-.992188 33.332031-8.644532 44.980468-21.332032l72.386719-79.046875c9.613281-10.472656 9.296875-26.65625-.726562-36.742187-5.007813-5.203125-12-8.023438-19.214844-7.75zm.339844 17.066406c2.515625.054688 4.921875 1.035156 6.757812 2.75 3.597657 3.625 3.710938 9.4375.257813 13.199219l-6.589844 7.195312-13.269531-13.363281 6.179687-6.75c1.707032-1.890625 4.121094-2.988281 6.664063-3.03125zm-65.363281 95.011719c-7.191407 7.84375-16.730469 13.148437-27.1875 15.109375 1.339843-10.109375 5.75-19.566406 12.636718-27.089844l55.535156-60.65625 13.269532 13.371094zm0 0"/><path d="m51.199219 42.679688c0 4.710937-3.820313 8.53125-8.53125 8.53125-4.714844 0-8.535157-3.820313-8.535157-8.53125 0-4.714844 3.820313-8.535157 8.535157-8.535157 4.710937 0 8.53125 3.820313 8.53125 8.535157zm0 0"/><path d="m85.332031 42.679688c0 4.710937-3.820312 8.53125-8.53125 8.53125-4.714843 0-8.535156-3.820313-8.535156-8.53125 0-4.714844 3.820313-8.535157 8.535156-8.535157 4.710938 0 8.53125 3.820313 8.53125 8.535157zm0 0"/><path d="m119.464844 42.679688c0 4.710937-3.820313 8.53125-8.53125 8.53125-4.714844 0-8.535156-3.820313-8.535156-8.53125 0-4.714844 3.820312-8.535157 8.535156-8.535157 4.710937 0 8.53125 3.820313 8.53125 8.535157zm0 0"/><path d="m85.898438 192.816406-1.316407 19.976563c-.183593 2.824219 1.042969 5.558593 3.28125 7.296875 2.234375 1.734375 5.1875 2.25 7.878907 1.371094l23.722656-7.730469 23.722656 7.730469c.855469.273437 1.75.414062 2.648438.417968 2.363281.003906 4.621093-.96875 6.238281-2.691406 1.617187-1.722656 2.449219-4.039062 2.292969-6.394531l-1.3125-19.976563 15.222656-15.71875c2.15625-2.21875 2.941406-5.429687 2.054687-8.390625-.882812-2.964843-3.304687-5.214843-6.320312-5.886719l-24.3125-5.410156-13.429688-17.519531c-1.679687-2.007813-4.160156-3.164063-6.777343-3.164063-2.617188 0-5.097657 1.15625-6.773438 3.164063l-13.433594 17.519531-24.3125 5.410156c-3.015625.671876-5.4375 2.921876-6.320312 5.886719-.886719 2.960938-.101563 6.171875 2.054687 8.390625zm20.09375-19.414062c1.964843-.433594 3.714843-1.542969 4.941406-3.140625l8.53125-11.152344 8.535156 11.152344c1.222656 1.59375 2.964844 2.703125 4.921875 3.140625l12.453125 2.773437-7.253906 7.484375c-1.679688 1.730469-2.546875 4.085938-2.390625 6.492188l.804687 11.179687-14.378906-4.695312c-1.722656-.554688-3.574219-.554688-5.292969 0l-14.378906 4.695312.742187-11.179687c.15625-2.40625-.710937-4.761719-2.386718-6.492188l-7.253906-7.484375zm0 0"/><path d="m204.800781 119.480469c0-9.425781-7.640625-17.066407-17.066406-17.066407h-136.535156c-9.425781 0-17.066407 7.640626-17.066407 17.066407v153.597656c0 9.425781 7.640626 17.066406 17.066407 17.066406h136.535156c9.425781 0 17.066406-7.640625 17.066406-17.066406zm-17.066406 0v119.464843h-136.535156v-119.464843zm-136.535156 153.597656v-17.066406h136.535156v17.066406zm0 0"/><path d="m392.535156 204.8125v-85.332031c0-9.425781-7.644531-17.066407-17.070312-17.066407h-136.53125c-9.425782 0-17.066406 7.640626-17.066406 17.066407v85.332031c0 9.425781 7.640624 17.066406 17.066406 17.066406h136.53125c9.425781 0 17.070312-7.640625 17.070312-17.066406zm-17.070312-51.199219h-85.332032v-34.132812h85.332032zm-136.53125-34.132812h34.132812v85.332031h-34.132812zm51.199218 85.332031v-34.132812h85.332032v34.132812zm0 0"/><path d="m384 247.480469c0-4.714844-3.820312-8.535157-8.535156-8.535157h-145.066406c-4.710938 0-8.53125 3.820313-8.53125 8.535157 0 4.710937 3.820312 8.53125 8.53125 8.53125h145.066406c4.714844 0 8.535156-3.820313 8.535156-8.53125zm0 0"/><path d="m349.867188 273.078125h-119.46875c-4.710938 0-8.53125 3.820313-8.53125 8.535156 0 4.710938 3.820312 8.53125 8.53125 8.53125h119.46875c4.710937 0 8.53125-3.820312 8.53125-8.53125 0-4.714843-3.820313-8.535156-8.53125-8.535156zm0 0"/><path d="m187.734375 307.210938h-128c-9.425781 0-17.066406 7.644531-17.066406 17.070312v51.199219c0 9.425781 7.640625 17.066406 17.066406 17.066406h128c9.425781 0 17.066406-7.640625 17.066406-17.066406v-51.199219c0-9.425781-7.640625-17.070312-17.066406-17.070312zm-128 68.269531v-51.199219h128v51.199219zm0 0"/><path d="m230.398438 324.28125h110.933593c4.714844 0 8.535157-3.820312 8.535157-8.535156 0-4.710938-3.820313-8.535156-8.535157-8.535156h-110.933593c-4.710938 0-8.53125 3.824218-8.53125 8.535156 0 4.714844 3.820312 8.535156 8.53125 8.535156zm0 0"/><path d="m230.398438 358.414062h110.933593c4.714844 0 8.535157-3.820312 8.535157-8.535156 0-4.710937-3.820313-8.53125-8.535157-8.53125h-110.933593c-4.710938 0-8.53125 3.820313-8.53125 8.53125 0 4.714844 3.820312 8.535156 8.53125 8.535156zm0 0"/><path d="m230.398438 392.546875h153.601562c4.710938 0 8.535156-3.820313 8.535156-8.535156 0-4.710938-3.824218-8.53125-8.535156-8.53125h-153.601562c-4.710938 0-8.53125 3.820312-8.53125 8.53125 0 4.714843 3.820312 8.535156 8.53125 8.535156zm0 0"/></svg>
