<?xml version="1.0" encoding="UTF-8"?>
<!-- Generator: Adobe Illustrator 25.2.3, SVG Export Plug-In . SVG Version: 6.00 Build 0)  -->
<svg xmlns="http://www.w3.org/2000/svg" xmlns:xlink="http://www.w3.org/1999/xlink" version="1.1" id="Capa_1" x="0px" y="0px" viewBox="0 0 514.024 514.024" style="enable-background:new 0 0 514.024 514.024;" xml:space="preserve" width="512" height="512" fill="currentColor">
<g>
	<g id="Icons_67_">
		<path d="M489.972,104.568c-49.237,13.517-64.452,15.71-94.345,27.307C354.764,26.462,236.184-25.866,130.771,14.998    S-26.969,174.442,13.895,279.855c27.156,70.053,90.506,119.6,165.038,129.08l-10.47,29.756c-1.539,4.454,0.824,9.313,5.278,10.852    c1.812,0.626,3.783,0.624,5.593-0.007l0,0l66.355-23.347c1.297,1.203,3.021,2.953,8.704,8.704    c6.706,6.79,17.582,7.062,24.619,0.614l32.085-32.077c5.76,0.654,11.594,0,17.067-1.911c6.579,28.331,1.758,44.126-5.376,91.776    c-1.512,9.203,4.723,17.89,13.926,19.402c5.182,0.851,10.465-0.756,14.294-4.349c1.553-1.545-0.614,1.707,41.813-65.126    c18.453-29.332,26.769-63.909,23.671-98.423l-0.853-10.001c79.548-84.753,85.717-172.749,97.749-206.609    c2.706-10.316-3.464-20.873-13.78-23.578C496.451,103.782,493.136,103.767,489.972,104.568z M67.854,333.841h85.811    c4.713,0,8.533-3.82,8.533-8.533s-3.821-8.533-8.533-8.533h-99.84c-11.48-15.591-20.483-32.861-26.692-51.2h58.266    c4.713,0,8.533-3.821,8.533-8.533c0-4.713-3.82-8.533-8.533-8.533H22.252c-2.019-8.423-3.444-16.977-4.267-25.6h84.48    c4.713,0,8.533-3.821,8.533-8.533c0-4.713-3.821-8.533-8.533-8.533H17.132c-0.028-32.972,8.688-65.361,25.259-93.867h171.008    c4.713,0,8.533-3.82,8.533-8.533s-3.821-8.533-8.533-8.533H53.535c6.772-9.201,14.364-17.769,22.682-25.6h77.449    c4.713,0,8.533-3.821,8.533-8.533s-3.821-8.533-8.533-8.533H97.123C181.83-7.278,298.748,13.14,358.268,97.847    c8.833,12.571,16.087,26.18,21.599,40.522c-5.513,2.441-10.948,5.02-16.307,7.74H221.932c-4.713,0-8.533,3.821-8.533,8.533    c0,4.713,3.82,8.533,8.533,8.533h111.71c-15.505,9.904-30.192,21.032-43.921,33.28l-10.487-0.939    c-34.515-3.094-69.093,5.225-98.423,23.68c-67.507,42.854-63.642,40.294-65.109,41.813c-6.412,6.825-6.078,17.555,0.747,23.967    c3.041,2.857,7.029,4.493,11.2,4.594c14.601,0,56.951-13.722,91.819-6.511c-3.849,7.344-5.533,15.63-4.855,23.893l-32.307,32.324    c-6.272,7.048-5.919,17.776,0.802,24.397c5.606,5.547,7.68,7.578,8.721,8.704l-7.014,19.934    C140.057,387.542,98.527,366.78,67.854,333.841z M228.852,267.734c-34.935-8.917-61.44-0.853-99.456,4.267    c1.835-1.178,59.733-37.914,60.587-38.46c24.832-15.558,53.897-22.989,83.149-21.257    C256.559,229.243,241.725,247.819,228.852,267.734z M266.484,422.844l-4.053-4.087c-7.586-7.68-12.612-12.843-20.975-9.148    l-50.987,17.92l17.92-50.987c4.207-9.574-3.294-15.36-13.841-25.506l25.6-25.6c3.794,6.478,8.648,12.273,14.362,17.143    c-5.803,9.685-8.183,15.548-13.841,26.889c-4.921,10.419-0.464,22.855,9.955,27.776c5.641,2.665,12.179,2.665,17.821,0    c11.298-5.641,17.229-8.064,26.889-13.85c4.817,5.829,10.663,10.726,17.246,14.447    C265.631,424.866,267.338,423.697,266.484,422.844z M254.939,375.057l-13.995,6.827c-1.949,0.786-4.167-0.157-4.953-2.107    c-0.366-0.909-0.368-1.924-0.005-2.834l6.827-14.003c15.456-31.487,40.925-56.953,72.414-72.405l13.986-6.827    c1.948-0.788,4.167,0.152,4.955,2.101c0.37,0.913,0.37,1.935,0.002,2.849l-6.827,14.003c-15.45,31.494-40.917,56.97-72.405,72.431    V375.057z M378.39,434.031c-20.028,31.573-35.046,55.185-38.596,60.826c7.211-48.102,12.8-67.934,3.857-101.547    c20.06-12.312,38.833-26.606,56.038-42.667c1.773,29.348-5.674,58.516-21.299,83.422V434.031z M481.789,180.941    c-20.845,79.784-70.876,148.838-140.194,193.502l-12.663,8.081c-10.089,6.142-22.951,5.278-32.128-2.159    c-2.554-2.017-4.927-4.252-7.091-6.682c26.422-20.107,47.056-46.845,59.81-77.5c4.903-10.433,0.419-22.865-10.014-27.768    c-5.617-2.639-12.117-2.642-17.737-0.008c-30.643,12.772-57.373,33.403-77.491,59.81c-2.456-2.237-4.725-4.672-6.784-7.279    c-7.303-9.145-8.094-21.885-1.98-31.863l8.064-12.646c44.661-69.321,113.712-119.357,193.493-140.211l57.438-15.198    c1.254-0.102,2.354,0.832,2.456,2.086c0.015,0.187,0.007,0.374-0.023,0.559L481.789,180.941z"/>
		<path d="M381.676,175.975c-16.665,16.66-16.669,43.675-0.009,60.34c16.66,16.665,43.675,16.669,60.34,0.009    c16.665-16.66,16.669-43.675,0.009-60.34c-0.003-0.003-0.006-0.006-0.009-0.009C425.328,159.361,398.355,159.361,381.676,175.975z     M429.94,224.248c-10.13,9.668-26.069,9.668-36.198,0c-9.999-9.996-10.001-26.205-0.005-36.204    c9.996-9.999,26.205-10.001,36.204-0.005s10.001,26.205,0.005,36.204C429.944,224.244,429.942,224.246,429.94,224.248z"/>
	</g>
</g>















</svg>
