<svg height="512pt" viewBox="0 0 512 512" width="512pt" xmlns="http://www.w3.org/2000/svg" fill="currentColor"><path d="m486.398438 0h-460.796876c-14.140624 0-25.601562 11.460938-25.601562 25.601562v460.796876c0 14.140624 11.460938 25.601562 25.601562 25.601562h460.796876c14.140624 0 25.601562-11.460938 25.601562-25.601562v-460.796876c0-14.140624-11.460938-25.601562-25.601562-25.601562zm-469.332032 25.601562c0-4.714843 3.820313-8.535156 8.535156-8.535156h460.796876c4.714843 0 8.535156 3.820313 8.535156 8.535156v42.664063h-477.867188zm477.867188 59.730469v341.335938h-477.867188v-341.335938zm0 401.066407c0 4.714843-3.820313 8.535156-8.535156 8.535156h-460.796876c-4.714843 0-8.535156-3.820313-8.535156-8.535156v-42.664063h477.867188zm0 0"/><path d="m51.199219 42.667969c0 4.710937-3.820313 8.53125-8.53125 8.53125-4.714844 0-8.535157-3.820313-8.535157-8.53125 0-4.714844 3.820313-8.535157 8.535157-8.535157 4.710937 0 8.53125 3.820313 8.53125 8.535157zm0 0"/><path d="m85.332031 42.667969c0 4.710937-3.820312 8.53125-8.53125 8.53125-4.714843 0-8.535156-3.820313-8.535156-8.53125 0-4.714844 3.820313-8.535157 8.535156-8.535157 4.710938 0 8.53125 3.820313 8.53125 8.535157zm0 0"/><path d="m119.464844 42.667969c0 4.710937-3.820313 8.53125-8.53125 8.53125-4.714844 0-8.535156-3.820313-8.535156-8.53125 0-4.714844 3.820312-8.535157 8.535156-8.535157 4.710937 0 8.53125 3.820313 8.53125 8.535157zm0 0"/><path d="m162.132812 358.398438c30.984376-.003907 60.898438-11.304688 84.148438-31.785157l80.484375 80.488281c3.347656 3.230469 8.671875 3.1875 11.964844-.105468 3.289062-3.292969 3.335937-8.613282.101562-11.960938l-80.484375-80.488281c16.558594-18.863281 27.175782-42.203125 30.515625-67.082031h19.523438c13.476562-.015625 24.398437-10.941406 24.414062-24.421875v-79.152344c-.015625-13.480469-10.9375-24.40625-24.414062-24.425781h-82.664063c-46.625-26.730469-104.984375-21.472656-146.082031 13.164062-41.09375 34.632813-56.164063 91.257813-37.722656 141.738282 18.445312 50.480468 66.472656 84.050781 120.214843 84.03125zm86.9375-221.863282h59.316407c4.054687.007813 7.34375 3.296875 7.347656 7.355469v79.152344c-.003906 4.058593-3.292969 7.347656-7.347656 7.355469h-18.253907c0-4.402344-.226562-8.800782-.683593-13.183594-.324219-3.25-.894531-6.425782-1.464844-9.605469-.179687-1.015625-.273437-2.058594-.480469-3.066406-.851562-4.035157-1.867187-7.984375-3.0625-11.886719-.03125-.097656-.054687-.195312-.078125-.296875-2.449219-7.84375-5.660156-15.429687-9.589843-22.648437l-.164063-.324219c-1.703125-3.207031-3.667969-6.304688-5.679687-9.386719-.324219-.496094-.625-1.007812-.957032-1.492188-1.757812-2.5625-3.652344-5.042968-5.597656-7.484374-.777344-.972657-1.527344-1.972657-2.339844-2.925782-1.59375-1.886718-3.285156-3.707031-5.007812-5.503906-1.398438-1.488281-2.808594-2.945312-4.265625-4.363281-.582031-.527344-1.09375-1.140625-1.691407-1.695313zm-86.9375-17.070312c20.242188.011718 40.089844 5.605468 57.363282 16.164062 3.84375 2.339844 7.546875 4.90625 11.089844 7.679688.222656.171875.460937.332031.683593.511718 3.476563 2.761719 6.78125 5.730469 9.898438 8.890626.855469.855468 1.632812 1.8125 2.457031 2.707031 1.949219 2.085937 3.800781 4.246093 5.566406 6.476562 1.210938 1.527344 2.371094 3.082031 3.496094 4.667969 1.246094 1.757812 2.40625 3.574219 3.550781 5.402344 1.144531 1.824218 2.238281 3.507812 3.242188 5.332031 1.792969 3.257813 3.417969 6.605469 4.875 10.027344.714843 1.707031 1.277343 3.5 1.917969 5.257812.855468 2.292969 1.648437 4.589844 2.332031 6.945313.492187 1.707031.929687 3.480468 1.347656 5.246094.628906 2.679687 1.164063 5.386718 1.59375 8.125.230469 1.484374.503906 2.953124.675781 4.460937.535156 4.328125.816406 8.679687.84375 13.039063 0 2.5625-.214844 5.121093-.382812 7.613281v.324219c-4.335938 60.050781-55.800782 105.667968-115.9375 102.765624-60.136719-2.898437-106.96875-53.257812-105.507813-113.445312 1.464844-60.191406 50.6875-108.214844 110.894531-108.191406zm0 0"/><path d="m93.148438 293.835938c.085937.101562.128906.222656.214843.316406.085938.09375.417969.382812.613281.589844 1.765626 1.875 3.621094 3.660156 5.539063 5.382812.425781.386719.851563.785156 1.273437 1.160156 2.148438 1.863282 4.375 3.609375 6.6875 5.273438l.640626.480468c32.347656 22.972657 75.683593 22.972657 108.03125 0l.640624-.480468c2.3125-1.707032 4.539063-3.410156 6.691407-5.273438.433593-.375.851562-.773437 1.269531-1.160156 1.921875-1.707031 3.773438-3.507812 5.539062-5.382812.195313-.207032.417969-.375.613282-.589844.199218-.214844.128906-.214844.214844-.316406 34.492187-37.378907 32.941406-95.429688-3.503907-130.910157-36.445312-35.484375-94.515625-35.484375-130.960937 0-36.441406 35.480469-37.996094 93.53125-3.503906 130.910157zm43.386718-80.503907c0-14.136719 11.460938-25.597656 25.597656-25.597656 14.140626 0 25.601563 11.460937 25.601563 25.597656 0 14.140625-11.460937 25.601563-25.601563 25.601563-14.136718 0-25.597656-11.460938-25.597656-25.601563zm77.054688 73.917969c-1.347656 1.226562-2.730469 2.402344-4.148438 3.523438-.707031.554687-1.441406 1.09375-2.167968 1.621093-1.109376.851563-2.21875 1.613281-3.359376 2.363281-1.144531.75-2.304687 1.433594-3.472656 2.109376-.855468.484374-1.65625.972656-2.503906 1.425781-1.5.792969-3.035156 1.515625-4.589844 2.207031-.621094.28125-1.238281.582031-1.867187.855469-1.707031.714843-3.515625 1.355469-5.316407 1.945312-.539062.179688-1.058593.382813-1.597656.546875-1.84375.5625-3.726562 1.023438-5.632812 1.449219-.554688.128906-1.089844.28125-1.652344.394531-1.902344.382813-3.851562.648438-5.804688.851563-.570312.078125-1.132812.1875-1.707031.246093-2.515625.273438-5.078125.410157-7.636719.410157-2.558593 0-5.121093-.136719-7.636718-.382813-.570313-.058594-1.136719-.171875-1.707032-.246094-1.953124-.242187-3.898437-.503906-5.800781-.855468-.566406-.109375-1.101562-.265625-1.65625-.390625-1.902343-.429688-3.789062-.855469-5.632812-1.453125-.539063-.160156-1.058594-.367188-1.597657-.546875-1.796874-.585938-3.582031-1.226563-5.3125-1.945313-.632812-.261718-1.238281-.5625-1.863281-.851562-1.558593-.699219-3.097656-1.425782-4.597656-2.21875-.855469-.453125-1.707031-.9375-2.5-1.425782-1.171875-.671874-2.339844-1.375-3.472656-2.105468-1.136719-.734375-2.253907-1.546875-3.363281-2.367188-.726563-.527344-1.460938-1.066406-2.167969-1.621094-1.417969-1.136718-2.796875-2.3125-4.148438-3.523437l-.671875-.613281c10.535156-18.910156 30.484375-30.632813 52.128906-30.632813 21.648438 0 41.597657 11.722657 52.128907 30.632813zm-51.457032-133.648438c28.355469.011719 54.394532 15.644532 67.734376 40.664063 13.339843 25.019531 11.808593 55.355469-3.980469 78.902344-8.566407-12.792969-20.785157-22.710938-35.0625-28.464844 13.046875-11.855469 17.460937-30.515625 11.109375-46.960937-6.355469-16.445313-22.171875-27.289063-39.800782-27.289063-17.628906 0-33.445312 10.84375-39.796874 27.289063-6.355469 16.445312-1.941407 35.105468 11.109374 46.960937-14.28125 5.753906-26.5 15.671875-35.066406 28.464844-15.789062-23.546875-17.316406-53.882813-3.976562-78.902344s39.378906-40.652344 67.730468-40.664063zm0 0"/><path d="m358.398438 145.066406h110.933593c4.714844 0 8.535157-3.820312 8.535157-8.53125 0-4.714844-3.820313-8.535156-8.535157-8.535156h-110.933593c-4.710938 0-8.53125 3.820312-8.53125 8.535156 0 4.710938 3.820312 8.53125 8.53125 8.53125zm0 0"/><path d="m358.398438 179.199219h110.933593c4.714844 0 8.535157-3.820313 8.535157-8.53125 0-4.714844-3.820313-8.535157-8.535157-8.535157h-110.933593c-4.710938 0-8.53125 3.820313-8.53125 8.535157 0 4.710937 3.820312 8.53125 8.53125 8.53125zm0 0"/><path d="m358.398438 213.332031h110.933593c4.714844 0 8.535157-3.820312 8.535157-8.53125 0-4.714843-3.820313-8.535156-8.535157-8.535156h-110.933593c-4.710938 0-8.53125 3.820313-8.53125 8.535156 0 4.710938 3.820312 8.53125 8.53125 8.53125zm0 0"/><path d="m358.398438 247.464844h110.933593c4.714844 0 8.535157-3.820313 8.535157-8.53125 0-4.714844-3.820313-8.535156-8.535157-8.535156h-110.933593c-4.710938 0-8.53125 3.820312-8.53125 8.535156 0 4.710937 3.820312 8.53125 8.53125 8.53125zm0 0"/><path d="m469.332031 264.535156h-145.066406c-4.710937 0-8.53125 3.820313-8.53125 8.53125 0 4.714844 3.820313 8.535156 8.53125 8.535156h145.066406c4.714844 0 8.535157-3.820312 8.535157-8.535156 0-4.710937-3.820313-8.53125-8.535157-8.53125zm0 0"/><path d="m469.332031 298.667969h-162.132812c-4.710938 0-8.53125 3.820312-8.53125 8.53125 0 4.714843 3.820312 8.535156 8.53125 8.535156h162.132812c4.714844 0 8.535157-3.820313 8.535157-8.535156 0-4.710938-3.820313-8.53125-8.535157-8.53125zm0 0"/><path d="m469.332031 332.800781h-136.53125c-4.714843 0-8.535156 3.820313-8.535156 8.53125 0 4.714844 3.820313 8.535157 8.535156 8.535157h136.53125c4.714844 0 8.535157-3.820313 8.535157-8.535157 0-4.710937-3.820313-8.53125-8.535157-8.53125zm0 0"/></svg>
