<svg height="512pt" viewBox="0 0 512 512" width="512pt" xmlns="http://www.w3.org/2000/svg" fill="currentColor"><path d="m486.398438 0h-460.796876c-14.140624 0-25.601562 11.460938-25.601562 25.601562v460.796876c0 14.140624 11.460938 25.601562 25.601562 25.601562h460.796876c14.140624 0 25.601562-11.460938 25.601562-25.601562v-281.597657c0-4.714843-3.820312-8.535156-8.535156-8.535156-4.710938 0-8.53125 3.820313-8.53125 8.535156v221.867188h-477.867188v-341.335938h477.867188v17.066407c0 4.714843 3.820312 8.535156 8.53125 8.535156 4.714844 0 8.535156-3.820313 8.535156-8.535156v-76.796876c0-14.140624-11.460938-25.601562-25.601562-25.601562zm8.535156 443.734375v42.664063c0 4.714843-3.820313 8.535156-8.535156 8.535156h-460.796876c-4.714843 0-8.535156-3.820313-8.535156-8.535156v-42.664063zm-477.867188-375.46875v-42.664063c0-4.714843 3.820313-8.535156 8.535156-8.535156h460.796876c4.714843 0 8.535156 3.820313 8.535156 8.535156v42.664063zm0 0"/><path d="m51.199219 42.667969c0 4.710937-3.820313 8.53125-8.53125 8.53125-4.714844 0-8.535157-3.820313-8.535157-8.53125 0-4.714844 3.820313-8.535157 8.535157-8.535157 4.710937 0 8.53125 3.820313 8.53125 8.535157zm0 0"/><path d="m85.332031 42.667969c0 4.710937-3.820312 8.53125-8.53125 8.53125-4.714843 0-8.535156-3.820313-8.535156-8.53125 0-4.714844 3.820313-8.535157 8.535156-8.535157 4.710938 0 8.53125 3.820313 8.53125 8.535157zm0 0"/><path d="m119.464844 42.667969c0 4.710937-3.820313 8.53125-8.53125 8.53125-4.714844 0-8.535156-3.820313-8.535156-8.53125 0-4.714844 3.820312-8.535157 8.535156-8.535157 4.710937 0 8.53125 3.820313 8.53125 8.535157zm0 0"/><path d="m511.148438 153.601562c.015624-6.792968-2.679688-13.308593-7.492188-18.101562-10.132812-9.667969-26.078125-9.667969-36.207031 0l-45.144531 45.140625c-32.042969-17.917969-59.519532-1.054687-82.34375 13.050781-28.160157 17.378906-50.347657 31.121094-81.800782-.324218-3.066406-3.070313-7.945312-3.351563-11.34375-.660157-1.441406 1.144531-34.984375 28.707031-2.148437 87.636719 1.324219 2.34375 3.671875 3.925781 6.339843 4.269531 19.929688 2.15625 40.089844-.476562 58.792969-7.679687-10.515625 10.394531-22.613281 19.058594-35.839843 25.675781-2.359376 1.148437-4.0625 3.316406-4.613282 5.882813-.550781 2.566406.109375 5.242187 1.789063 7.257812 2.40625 2.882812 5.453125 7.332031 8.679687 12.039062 5.160156 8.039063 10.996094 15.621094 17.441406 22.667969 39.253907 39.25 75.015626 59.101563 106.421876 59.101563 1.136718 0 2.246093-.027344 3.328124-.078125 14.855469-.164063 29.03125-6.257813 39.371094-16.929688 2.824219-3.390625 2.597656-8.375-.519531-11.496093-31.429687-31.425782-17.707031-53.65625-.324219-81.800782 14.121094-22.859375 30.976563-50.34375 12.960938-82.472656l45.125-45.117188c4.8125-4.777343 7.523437-11.28125 7.527344-18.0625zm-80.113282 136.726563c-16.058594 26.003906-35.839844 58.027344-3.574218 95.957031-6.601563 3.960938-14.125 6.113282-21.820313 6.25-16.570313.425782-43.65625-6.511718-81.730469-40.363281 21.015625-16.953125 37.242188-39.097656 47.066406-64.25 1.132813-2.832031.667969-6.050781-1.214843-8.449219-1.886719-2.398437-4.910157-3.605468-7.929688-3.171875-3.019531.4375-5.578125 2.449219-6.707031 5.28125-8.96875 23.191407-24.121094 43.484375-43.8125 58.667969l-.050781.058594c-.640625-.640625-1.261719-1.203125-1.910157-1.851563-5.679687-6.324219-10.84375-13.097656-15.4375-20.25-1.167968-1.707031-2.320312-3.414062-3.414062-4.992187 25.949219-16.015625 47.636719-38.074219 63.214844-64.289063 2.066406-3.71875 1.078125-8.386719-2.316406-10.953125-3.390626-2.5625-8.152344-2.238281-11.164063.765625-22.539063 20.453125-52.3125 31.0625-82.707031 29.464844-15.460938-30.027344-9.753906-48.085937-4.632813-56.464844 38 32.347657 70.03125 12.570313 96.050781-3.507812 24.480469-15.113281 44.492188-27.425781 69.972657-9.695313 1.835937 1.28125 3.703125 2.714844 5.574219 4.269532l.261718.203124c1.96875 1.671876 3.941406 3.492188 5.914063 5.460938l.070312.058594c3.6875 3.648437 7.050781 7.617187 10.042969 11.855468 17.679688 25.472657 5.367188 45.472657-9.746094 69.945313zm60.535156-130.695313-43.023437 43.035157c-1.792969-2.082031-3.714844-4.152344-5.769531-6.203125-2.082032-2.085938-4.191406-4.046875-6.296875-5.863282l43.023437-43.035156c3.375-3.226562 8.691406-3.226562 12.066406 0 3.332032 3.332032 3.332032 8.734375 0 12.066406zm0 0"/><path d="m42.667969 102.398438c-4.714844 0-8.535157 3.820312-8.535157 8.535156v51.199218c0 4.714844 3.820313 8.535157 8.535157 8.535157 4.710937 0 8.53125-3.820313 8.53125-8.535157v-17.066406h17.066406v17.066406c0 4.714844 3.820313 8.535157 8.535156 8.535157 4.710938 0 8.53125-3.820313 8.53125-8.535157v-51.199218c0-4.714844-3.820312-8.535156-8.53125-8.535156-4.714843 0-8.535156 3.820312-8.535156 8.535156v17.066406h-17.066406v-17.066406c0-4.714844-3.820313-8.535156-8.53125-8.535156zm0 0"/><path d="m128 170.667969c4.710938 0 8.535156-3.820313 8.535156-8.535157v-42.667968h8.53125c4.714844 0 8.535156-3.820313 8.535156-8.53125 0-4.714844-3.820312-8.535156-8.535156-8.535156h-34.132812c-4.714844 0-8.535156 3.820312-8.535156 8.535156 0 4.710937 3.820312 8.53125 8.535156 8.53125h8.53125v42.667968c0 4.714844 3.824218 8.535157 8.535156 8.535157zm0 0"/><path d="m230.398438 170.667969c4.714843 0 8.535156-3.820313 8.535156-8.535157v-51.199218c-.003906-2.847656-1.425782-5.503906-3.792969-7.085938-2.367187-1.582031-5.371094-1.878906-8-.789062-1.035156.425781-1.980469 1.050781-2.773437 1.839844l-19.566407 19.570312-19.566406-19.570312c-2.441406-2.4375-6.113281-3.167969-9.300781-1.847657-3.1875 1.320313-5.265625 4.433594-5.265625 7.882813v51.199218c0 4.714844 3.820312 8.535157 8.53125 8.535157 4.714843 0 8.535156-3.820313 8.535156-8.535157v-30.601562l11.03125 11.035156c3.332031 3.332032 8.734375 3.332032 12.066406 0l11.035157-11.035156v30.601562c0 4.714844 3.820312 8.535157 8.53125 8.535157zm0 0"/><path d="m264.535156 102.398438c-4.714844 0-8.535156 3.820312-8.535156 8.535156v51.199218c0 4.714844 3.820312 8.535157 8.535156 8.535157h34.132813c4.710937 0 8.53125-3.820313 8.53125-8.535157 0-4.710937-3.820313-8.53125-8.53125-8.53125h-25.601563v-42.667968c0-4.714844-3.820312-8.535156-8.53125-8.535156zm0 0"/><path d="m42.667969 213.332031h25.597656c4.714844 0 8.535156-3.820312 8.535156-8.53125 0-4.714843-3.820312-8.535156-8.535156-8.535156h-25.597656c-4.714844 0-8.535157 3.820313-8.535157 8.535156 0 4.710938 3.820313 8.53125 8.535157 8.53125zm0 0"/><path d="m93.867188 204.800781c0 4.710938 3.820312 8.53125 8.53125 8.53125h110.933593c4.714844 0 8.535157-3.820312 8.535157-8.53125 0-4.714843-3.820313-8.535156-8.535157-8.535156h-110.933593c-4.710938 0-8.53125 3.820313-8.53125 8.535156zm0 0"/><path d="m42.667969 247.464844h93.867187c4.710938 0 8.53125-3.820313 8.53125-8.53125 0-4.714844-3.820312-8.535156-8.53125-8.535156h-93.867187c-4.714844 0-8.535157 3.820312-8.535157 8.535156 0 4.710937 3.820313 8.53125 8.535157 8.53125zm0 0"/><path d="m213.332031 230.398438h-42.664062c-4.714844 0-8.535157 3.820312-8.535157 8.535156 0 4.710937 3.820313 8.53125 8.535157 8.53125h42.664062c4.714844 0 8.535157-3.820313 8.535157-8.53125 0-4.714844-3.820313-8.535156-8.535157-8.535156zm0 0"/><path d="m42.667969 281.601562h59.730469c4.714843 0 8.535156-3.820312 8.535156-8.535156 0-4.710937-3.820313-8.53125-8.535156-8.53125h-59.730469c-4.714844 0-8.535157 3.820313-8.535157 8.53125 0 4.714844 3.820313 8.535156 8.535157 8.535156zm0 0"/><path d="m213.332031 264.535156h-76.796875c-4.714844 0-8.535156 3.820313-8.535156 8.53125 0 4.714844 3.820312 8.535156 8.535156 8.535156h76.796875c4.714844 0 8.535157-3.820312 8.535157-8.535156 0-4.710937-3.820313-8.53125-8.535157-8.53125zm0 0"/><path d="m42.667969 366.933594c-4.714844 0-8.535157 3.820312-8.535157 8.53125 0 4.714844 3.820313 8.535156 8.535157 8.535156h59.730469c4.714843 0 8.535156-3.820312 8.535156-8.535156 0-4.710938-3.820313-8.53125-8.535156-8.53125zm0 0"/><path d="m238.933594 384h51.199218c4.714844 0 8.535157-3.820312 8.535157-8.535156 0-4.710938-3.820313-8.53125-8.535157-8.53125h-51.199218c-4.714844 0-8.535156 3.820312-8.535156 8.53125 0 4.714844 3.820312 8.535156 8.535156 8.535156zm0 0"/><path d="m42.667969 315.734375h25.597656c4.714844 0 8.535156-3.820313 8.535156-8.535156 0-4.710938-3.820312-8.53125-8.535156-8.53125h-25.597656c-4.714844 0-8.535157 3.820312-8.535157 8.53125 0 4.714843 3.820313 8.535156 8.535157 8.535156zm0 0"/><path d="m247.464844 307.199219c0-4.710938-3.820313-8.53125-8.53125-8.53125h-136.535156c-4.710938 0-8.53125 3.820312-8.53125 8.53125 0 4.714843 3.820312 8.535156 8.53125 8.535156h136.535156c4.710937 0 8.53125-3.820313 8.53125-8.535156zm0 0"/><path d="m128 341.332031c0-4.710937-3.820312-8.53125-8.535156-8.53125h-76.796875c-4.714844 0-8.535157 3.820313-8.535157 8.53125 0 4.714844 3.820313 8.535157 8.535157 8.535157h76.796875c4.714844 0 8.535156-3.820313 8.535156-8.535157zm0 0"/><path d="m179.199219 349.867188c4.714843 0 8.535156-3.820313 8.535156-8.535157 0-4.710937-3.820313-8.53125-8.535156-8.53125h-25.597657c-4.714843 0-8.535156 3.820313-8.535156 8.53125 0 4.714844 3.820313 8.535157 8.535156 8.535157zm0 0"/><path d="m136.535156 384h68.265625c4.710938 0 8.53125-3.820312 8.53125-8.535156 0-4.710938-3.820312-8.53125-8.53125-8.53125h-68.265625c-4.714844 0-8.535156 3.820312-8.535156 8.53125 0 4.714844 3.820312 8.535156 8.535156 8.535156zm0 0"/></svg>
