<svg height="512pt" viewBox="0 0 512 512" width="512pt" xmlns="http://www.w3.org/2000/svg" fill="currentColor"><path d="m25.601562 512h392.53125c4.714844 0 8.535157-3.820312 8.535157-8.535156 0-4.710938-3.820313-8.53125-8.535157-8.53125h-392.53125c-4.714843 0-8.535156-3.820313-8.535156-8.535156v-42.664063h170.667969c4.710937 0 8.53125-3.820313 8.53125-8.535156 0-4.710938-3.820313-8.53125-8.53125-8.53125h-170.667969v-341.335938h477.867188v332.800781c0 4.714844 3.820312 8.535157 8.53125 8.535157 4.714844 0 8.535156-3.820313 8.535156-8.535157v-392.53125c0-14.140624-11.460938-25.601562-25.601562-25.601562h-460.796876c-14.140624 0-25.601562 11.460938-25.601562 25.601562v460.796876c0 14.140624 11.460938 25.601562 25.601562 25.601562zm0-494.933594h460.796876c4.714843 0 8.535156 3.820313 8.535156 8.535156v42.664063h-477.867188v-42.664063c0-4.714843 3.820313-8.535156 8.535156-8.535156zm0 0"/><path d="m51.199219 42.667969c0 4.710937-3.820313 8.53125-8.53125 8.53125-4.714844 0-8.535157-3.820313-8.535157-8.53125 0-4.714844 3.820313-8.535157 8.535157-8.535157 4.710937 0 8.53125 3.820313 8.53125 8.535157zm0 0"/><path d="m85.332031 42.667969c0 4.710937-3.820312 8.53125-8.53125 8.53125-4.714843 0-8.535156-3.820313-8.535156-8.53125 0-4.714844 3.820313-8.535157 8.535156-8.535157 4.710938 0 8.53125 3.820313 8.53125 8.535157zm0 0"/><path d="m119.464844 42.667969c0 4.710937-3.820313 8.53125-8.53125 8.53125-4.714844 0-8.535156-3.820313-8.535156-8.53125 0-4.714844 3.820312-8.535157 8.535156-8.535157 4.710937 0 8.53125 3.820313 8.53125 8.535157zm0 0"/><path d="m42.667969 119.464844h59.730469c4.714843 0 8.535156-3.820313 8.535156-8.53125 0-4.714844-3.820313-8.535156-8.535156-8.535156h-59.730469c-4.714844 0-8.535157 3.820312-8.535157 8.535156 0 4.710937 3.820313 8.53125 8.535157 8.53125zm0 0"/><path d="m42.667969 187.734375h42.664062c4.714844 0 8.535157-3.820313 8.535157-8.535156 0-4.710938-3.820313-8.53125-8.535157-8.53125h-42.664062c-4.714844 0-8.535157 3.820312-8.535157 8.53125 0 4.714843 3.820313 8.535156 8.535157 8.535156zm0 0"/><path d="m42.667969 375.464844c-4.714844 0-8.535157 3.824218-8.535157 8.535156s3.820313 8.535156 8.535157 8.535156h42.664062c4.714844 0 8.535157-3.824218 8.535157-8.535156s-3.820313-8.535156-8.535157-8.535156zm0 0"/><path d="m42.667969 290.132812h42.664062c4.714844 0 8.535157-3.820312 8.535157-8.53125 0-4.714843-3.820313-8.535156-8.535157-8.535156h-42.664062c-4.714844 0-8.535157 3.820313-8.535157 8.535156 0 4.710938 3.820313 8.53125 8.535157 8.53125zm0 0"/><path d="m42.667969 256h68.265625c4.710937 0 8.53125-3.820312 8.53125-8.535156 0-4.710938-3.820313-8.53125-8.53125-8.53125h-68.265625c-4.714844 0-8.535157 3.820312-8.535157 8.53125 0 4.714844 3.820313 8.535156 8.535157 8.535156zm0 0"/><path d="m136.535156 349.867188c0-4.714844-3.824218-8.535157-8.535156-8.535157h-85.332031c-4.714844 0-8.535157 3.820313-8.535157 8.535157 0 4.710937 3.820313 8.53125 8.535157 8.53125h85.332031c4.710938 0 8.535156-3.820313 8.535156-8.53125zm0 0"/><path d="m145.066406 213.332031c0-4.710937-3.820312-8.53125-8.53125-8.53125h-93.867187c-4.714844 0-8.535157 3.820313-8.535157 8.53125 0 4.714844 3.820313 8.535157 8.535157 8.535157h93.867187c4.710938 0 8.53125-3.820313 8.53125-8.535157zm0 0"/><path d="m42.667969 324.265625h76.796875c4.714844 0 8.535156-3.820313 8.535156-8.53125 0-4.714844-3.820312-8.535156-8.535156-8.535156h-76.796875c-4.714844 0-8.535157 3.820312-8.535157 8.535156 0 4.710937 3.820313 8.53125 8.535157 8.53125zm0 0"/><path d="m469.332031 136.535156h-76.796875c-4.714844 0-8.535156 3.820313-8.535156 8.53125 0 4.714844 3.820312 8.535156 8.535156 8.535156h76.796875c4.714844 0 8.535157-3.820312 8.535157-8.535156 0-4.710937-3.820313-8.53125-8.535157-8.53125zm0 0"/><path d="m469.332031 170.667969h-42.664062c-4.714844 0-8.535157 3.820312-8.535157 8.53125 0 4.714843 3.820313 8.535156 8.535157 8.535156h42.664062c4.714844 0 8.535157-3.820313 8.535157-8.535156 0-4.710938-3.820313-8.53125-8.535157-8.53125zm0 0"/><path d="m469.332031 204.800781h-17.066406c-4.710937 0-8.53125 3.820313-8.53125 8.53125 0 4.714844 3.820313 8.535157 8.53125 8.535157h17.066406c4.714844 0 8.535157-3.820313 8.535157-8.535157 0-4.710937-3.820313-8.53125-8.535157-8.53125zm0 0"/><path d="m469.332031 341.332031h-17.066406c-4.710937 0-8.53125 3.820313-8.53125 8.535157 0 4.710937 3.820313 8.53125 8.53125 8.53125h17.066406c4.714844 0 8.535157-3.820313 8.535157-8.53125 0-4.714844-3.820313-8.535157-8.535157-8.535157zm0 0"/><path d="m469.332031 102.398438h-128c-4.710937 0-8.53125 3.820312-8.53125 8.535156 0 4.710937 3.820313 8.53125 8.53125 8.53125h128c4.714844 0 8.535157-3.820313 8.535157-8.53125 0-4.714844-3.820313-8.535156-8.535157-8.535156zm0 0"/><path d="m290.132812 119.464844c4.714844 0 8.535157-3.820313 8.535157-8.53125 0-4.714844-3.820313-8.535156-8.535157-8.535156h-136.53125c-4.714843 0-8.535156 3.820312-8.535156 8.535156 0 4.710937 3.820313 8.53125 8.535156 8.53125zm0 0"/><path d="m42.667969 153.601562h145.066406c4.710937 0 8.53125-3.820312 8.53125-8.535156 0-4.710937-3.820313-8.53125-8.53125-8.53125h-145.066406c-4.714844 0-8.535157 3.820313-8.535157 8.53125 0 4.714844 3.820313 8.535156 8.535157 8.535156zm0 0"/><path d="m290.132812 179.199219c-61.265624 0-110.933593 49.667969-110.933593 110.933593 0 61.265626 49.667969 110.933594 110.933593 110.933594 61.265626 0 110.933594-49.667968 110.933594-110.933594-.070312-61.238281-49.695312-110.863281-110.933594-110.933593zm0 204.800781c-51.839843 0-93.867187-42.027344-93.867187-93.867188 0-51.839843 42.027344-93.867187 93.867187-93.867187 51.839844 0 93.867188 42.027344 93.867188 93.867187-.0625 51.816407-42.050781 93.804688-93.867188 93.867188zm0 0"/><path d="m503.183594 460.945312-70.542969-68.957031c-3.34375-3.269531-8.691406-3.238281-12 .066407l-8.25 8.253906-13.816406-13.808594c-.050781-.058594-.128907-.066406-.1875-.128906 52.359375-58.851563 48.425781-148.667969-8.875-202.71875-57.300781-54.050782-147.191407-52.742188-202.890625 2.957031-55.699219 55.699219-57.011719 145.59375-2.960938 202.894531 54.050782 57.300782 143.867188 61.230469 202.71875 8.875.0625.058594.070313.136719.128906.1875l13.816407 13.816406-9.847657 9.839844c-1.613281 1.609375-2.515624 3.800782-2.503906 6.082032.015625 2.285156.941406 4.464843 2.574219 6.058593l70.476563 68.890625c11.679687 11.644532 30.59375 11.613282 42.238281-.070312 11.644531-11.679688 11.613281-30.59375-.066407-42.238282zm-213.050782-42.8125c-70.691406 0-128-57.308593-128-128 0-70.691406 57.308594-128 128-128 70.691407 0 128 57.308594 128 128-.078124 70.660157-57.339843 127.921876-128 128zm201.054688 73.046876c-2.414062 2.410156-5.6875 3.757812-9.101562 3.742187-3.410157-.015625-6.671876-1.390625-9.066407-3.820313l-64.382812-62.925781 18.097656-18.097656 64.453125 63c4.992188 5 4.992188 13.09375 0 18.09375zm0 0"/><path d="m354.132812 265.660156c-4.089843-2.335937-9.300781-.914062-11.640624 3.175782l-25.597657 44.847656-18.851562-43.980469c-1.34375-3.132813-4.429688-5.167969-7.839844-5.167969-3.414063 0-6.5 2.035156-7.84375 5.167969l-18.917969 43.980469-25.601562-44.847656c-2.390625-3.96875-7.515625-5.300782-11.539063-3.003907-4.023437 2.300781-5.476562 7.390625-3.273437 11.46875l34.132812 59.730469c1.605469 2.8125 4.660156 4.472656 7.890625 4.292969 3.230469-.179688 6.078125-2.171875 7.359375-5.144531l17.722656-41.445313 17.757813 41.429687c1.273437 2.976563 4.125 4.976563 7.355469 5.160157h.488281c3.054687.007812 5.878906-1.621094 7.40625-4.265625l34.132813-59.734375c1.132812-1.960938 1.4375-4.296875.847656-6.484375-.585938-2.1875-2.023438-4.050782-3.988282-5.179688zm0 0"/></svg>
