<svg height="504pt" viewBox="0 0 504 504.69573" width="504pt" xmlns="http://www.w3.org/2000/svg" fill="currentColor"><path d="m478.773438 76.628906h-33.574219c-4.632813 0-8.390625 3.757813-8.390625 8.394532 0 4.636718 3.757812 8.394531 8.390625 8.394531h33.574219c4.636718 0 8.394531 3.757812 8.394531 8.390625v83.9375c0 4.632812-3.757813 8.390625-8.394531 8.390625h-33.574219c-4.632813 0-8.390625 3.757812-8.390625 8.394531s3.757812 8.394531 8.390625 8.394531h33.574219c13.90625 0 25.179687-11.273437 25.179687-25.179687v-83.9375c0-13.90625-11.273437-25.179688-25.179687-25.179688zm0 0"/><path d="m25.527344 210.925781h16.789062v8.394531c0 4.632813 3.757813 8.390626 8.390625 8.390626 4.636719 0 8.394531-3.757813 8.394531-8.390626v-8.394531h67.148438c4.636719 0 8.394531-3.757812 8.394531-8.394531s-3.757812-8.394531-8.394531-8.394531h-100.722656c-4.632813 0-8.394532-3.757813-8.394532-8.390625v-83.9375c0-4.632813 3.761719-8.390625 8.394532-8.390625h100.722656c4.636719 0 8.394531-3.757813 8.394531-8.394531 0-4.636719-3.757812-8.394532-8.394531-8.394532h-100.722656c-13.90625 0-25.179688 11.273438-25.179688 25.179688v83.9375c0 13.90625 11.273438 25.179687 25.179688 25.179687zm0 0"/><path d="m285.726562 34.664062c-60.265624 0-109.117187 48.851563-109.117187 109.113282 0 60.261718 48.851563 109.113281 109.117187 109.113281 60.261719 0 109.113282-48.851563 109.113282-109.113281-.070313-60.234375-48.882813-109.046875-109.113282-109.113282zm0 201.441407c-50.992187 0-92.328124-41.335938-92.328124-92.328125 0-50.992188 41.335937-92.328125 92.328124-92.328125 50.988282 0 92.328126 41.335937 92.328126 92.328125-.0625 50.964844-41.363282 92.269531-92.328126 92.328125zm0 0"/><path d="m42.316406 118.597656v50.359375c0 4.636719 3.757813 8.394531 8.390625 8.394531 4.636719 0 8.394531-3.757812 8.394531-8.394531v-50.359375c0-4.636718-3.757812-8.394531-8.394531-8.394531-4.632812 0-8.390625 3.757813-8.390625 8.394531zm0 0"/><path d="m425.894531 243.960938c-3.289062-3.210938-8.550781-3.183594-11.800781.066406l-8.125 8.117187-13.578125-13.578125c-.050781-.058594-.128906-.070312-.1875-.128906 51.5-57.886719 47.632813-146.230469-8.726563-199.394531-56.363281-53.167969-144.78125-51.875-199.570312 2.910156-54.785156 54.785156-56.074219 143.207031-2.910156 199.566406 53.167968 56.359375 141.511718 60.226563 199.398437 8.730469.058594.058594.066407.132812.125.183594l13.582031 13.582031-9.6875 9.683594c-1.585937 1.585937-2.472656 3.742187-2.457031 5.988281s.925781 4.390625 2.535157 5.957031l69.320312 67.757813c7.433594 7.410156 18.253906 10.292968 28.390625 7.558594 10.132813-2.730469 18.039063-10.664063 20.738281-20.804688 2.699219-10.144531-.214844-20.957031-7.648437-28.367188zm-140.167969 25.71875c-69.535156 0-125.902343-56.367188-125.902343-125.902344s56.367187-125.902344 125.902343-125.902344c69.53125 0 125.898438 56.367188 125.898438 125.902344-.078125 69.5-56.398438 125.824218-125.898438 125.902344zm134.359376-7.914063 44.714843 43.710937c-.109375.101563-.253906.125-.355469.234376l-16.785156 16.789062c-.210937.265625-.402344.546875-.570312.839844l-44.804688-43.796875zm63.398437 79.738281c-5 4.800782-12.910156 4.765625-17.871094-.078125l-6.78125-6.621093c.242188-.144532.476563-.300782.703125-.46875l16.789063-16.789063c.148437-.152344.199219-.351563.34375-.511719l6.824219 6.664063c4.910156 4.914062 4.910156 12.878906 0 17.792969zm0 0"/><path d="m336.085938 429.15625v-16.789062c0-18.542969-15.03125-33.574219-33.574219-33.574219h-100.722657c-18.539062 0-33.574218 15.03125-33.574218 33.574219h-16.785156c-4.636719 0-8.394532 3.757812-8.394532 8.394531s3.757813 8.394531 8.394532 8.394531h16.785156c0 18.539062 15.035156 33.570312 33.574218 33.570312h100.722657c18.542969 0 33.574219-15.03125 33.574219-33.570312zm-151.082032 0v-16.789062c0-9.269532 7.515625-16.785157 16.785156-16.785157h100.722657c9.269531 0 16.785156 7.515625 16.785156 16.785157v16.789062c0 9.269531-7.515625 16.785156-16.785156 16.785156h-100.722657c-9.269531 0-16.785156-7.515625-16.785156-16.785156zm0 0"/><path d="m319.296875 152.171875c-3.742187.011719-7.4375.875-10.800781 2.515625l-.050782-.074219-58.753906-58.753906c-3.277344-3.277344-8.589844-3.277344-11.867187 0l-16.789063 16.785156c-3.179687 3.296875-3.132812 8.53125.105469 11.769531 3.234375 3.234376 8.472656 3.28125 11.765625.101563l10.851562-10.835937 13.3125 13.3125-10.851562 10.851562c-2.183594 2.105469-3.058594 5.226562-2.289062 8.164062.765624 2.933594 3.058593 5.226563 5.992187 5.992188 2.933594.769531 6.054687-.105469 8.164063-2.289062l10.851562-10.851563 27.640625 27.640625.074219.050781c-1.648438 3.363281-2.515625 7.054688-2.535156 10.800781 0 13.90625 11.273437 25.179688 25.179687 25.179688 13.910156 0 25.183594-11.273438 25.183594-25.179688s-11.273438-25.179687-25.183594-25.179687zm0 33.574219c-4.632813 0-8.390625-3.757813-8.390625-8.394532 0-4.636718 3.757812-8.394531 8.390625-8.394531 4.636719 0 8.394531 3.757813 8.394531 8.394531 0 4.636719-3.757812 8.394532-8.394531 8.394532zm0 0"/><path d="m117.855469 412.367188h-16.785157c-4.636718 0-8.394531 3.757812-8.394531 8.394531s3.757813 8.394531 8.394531 8.394531h16.785157c4.636719 0 8.394531-3.757812 8.394531-8.394531s-3.757812-8.394531-8.394531-8.394531zm0 0"/><path d="m67.496094 429.15625c4.636718 0 8.394531-3.757812 8.394531-8.394531s-3.757813-8.394531-8.394531-8.394531c-4.636719 0-8.394532-3.757813-8.394532-8.394532 0-4.632812-3.757812-8.390625-8.394531-8.390625-4.632812 0-8.390625 3.757813-8.390625 8.390625 0 13.910156 11.273438 25.183594 25.179688 25.183594zm0 0"/><path d="m42.316406 370.402344c0 4.632812 3.757813 8.390625 8.390625 8.390625 4.636719 0 8.394531-3.757813 8.394531-8.390625v-16.789063c0-4.636719-3.757812-8.394531-8.394531-8.394531-4.632812 0-8.390625 3.757812-8.390625 8.394531zm0 0"/><path d="m42.316406 320.039062c0 4.636719 3.757813 8.394532 8.390625 8.394532 4.636719 0 8.394531-3.757813 8.394531-8.394532v-16.785156c0-4.636718-3.757812-8.394531-8.394531-8.394531-4.632812 0-8.390625 3.757813-8.390625 8.394531zm0 0"/><path d="m50.707031 278.074219c4.636719 0 8.394531-3.757813 8.394531-8.394531v-16.789063c0-4.632813-3.757812-8.390625-8.394531-8.390625-4.632812 0-8.390625 3.757812-8.390625 8.390625v16.789063c0 4.636718 3.757813 8.394531 8.390625 8.394531zm0 0"/><path d="m428.261719 452.75c-.527344-2.734375-2.375-5.03125-4.933594-6.128906l-58.753906-25.179688c-2.933594-1.257812-6.324219-.742187-8.75 1.324219-2.429688 2.070313-3.472657 5.335937-2.699219 8.429687l16.785156 67.148438c.730469 2.925781 2.972656 5.234375 5.875 6.050781.738282.199219 1.503906.300781 2.269532.300781 2.222656 0 4.359374-.882812 5.933593-2.457031l15.046875-15.050781 15.050782 15.050781c3.292968 3.179688 8.527343 3.132813 11.765624-.105469 3.238282-3.234374 3.285157-8.472656.101563-11.765624l-15.046875-15.046876 15.046875-15.050781c1.96875-1.96875 2.835937-4.785156 2.308594-7.519531zm-45.660157 27.132812-9.089843-36.351562 31.8125 13.632812zm0 0"/></svg>
