<svg height="512pt" viewBox="0 0 512 512" width="512pt" xmlns="http://www.w3.org/2000/svg" fill="currentColor"><path d="m42.667969 341.332031c-4.710938 0-8.53125 3.820313-8.53125 8.535157v17.066406c0 4.710937 3.820312 8.53125 8.53125 8.53125 4.714843 0 8.535156-3.820313 8.535156-8.53125v-17.066406c0-4.714844-3.820313-8.535157-8.535156-8.535157zm0 0"/><path d="m51.203125 298.667969c0-4.714844-3.820313-8.535157-8.535156-8.535157-4.710938 0-8.53125 3.820313-8.53125 8.535157v17.066406c0 4.710937 3.820312 8.53125 8.53125 8.53125 4.714843 0 8.535156-3.820313 8.535156-8.53125zm0 0"/><path d="m162.136719 76.800781c-4.714844 0-8.535157 3.820313-8.535157 8.53125v85.335938c0 4.710937 3.820313 8.53125 8.535157 8.53125 4.710937 0 8.53125-3.820313 8.53125-8.53125v-85.335938c0-4.710937-3.820313-8.53125-8.53125-8.53125zm0 0"/><path d="m51.203125 199.800781 2.5 2.5c2.140625 2.21875 5.3125 3.105469 8.296875 2.324219 2.984375-.777344 5.3125-3.109375 6.09375-6.09375s-.105469-6.15625-2.324219-8.296875l-17.066406-17.066406c-3.332031-3.332031-8.734375-3.332031-12.066406 0l-17.066407 17.066406c-3.234374 3.347656-3.1875 8.667969.101563 11.960937 3.292969 3.292969 8.613281 3.339844 11.964844.105469l2.5-2.5v64.734375c0 4.710938 3.820312 8.53125 8.53125 8.53125 4.714843 0 8.535156-3.820312 8.535156-8.53125zm0 0"/><path d="m492.433594 113.433594c-3.332032-3.332032-8.734375-3.332032-12.066406 0l-17.066407 17.066406c-3.234375 3.347656-3.1875 8.671875.105469 11.960938 3.292969 3.292968 8.613281 3.339843 11.960938.105468l2.5-2.5v47.667969c0 4.710937 3.820312 8.53125 8.535156 8.53125 4.710937 0 8.53125-3.820313 8.53125-8.53125v-47.667969l2.5 2.5c3.351562 3.234375 8.671875 3.1875 11.964844-.105468 3.289062-3.289063 3.335937-8.613282.101562-11.960938zm0 0"/><path d="m494.933594 256v-34.132812c0-4.714844-3.820313-8.535157-8.53125-8.535157-4.714844 0-8.535156 3.820313-8.535156 8.535157v34.132812c0 4.710938 3.820312 8.535156 8.535156 8.535156 4.710937 0 8.53125-3.824218 8.53125-8.535156zm0 0"/><path d="m170.667969 29.132812 2.5 2.5c3.347656 3.234376 8.671875 3.1875 11.964843-.105468 3.289063-3.289063 3.335938-8.613282.101563-11.960938l-17.066406-17.066406c-3.332031-3.332031-8.734375-3.332031-12.066407 0l-17.066406 17.066406c-3.234375 3.347656-3.1875 8.671875.105469 11.960938 3.289063 3.292968 8.613281 3.339844 11.960937.105468l2.5-2.5v22.066407c0 4.714843 3.820313 8.535156 8.535157 8.535156 4.710937 0 8.53125-3.820313 8.53125-8.535156zm0 0"/><path d="m432.640625 391.988281c-3.339844-3.269531-8.691406-3.238281-11.996094.066407l-8.261719 8.253906-13.804687-13.808594c-.050781-.058594-.128906-.066406-.1875-.128906 50.746094-56.863282 48.832031-143.304688-4.378906-197.867188-53.214844-54.566406-139.578125-58.648437-197.699219-9.347656-58.121094 49.304688-68.179688 135.175781-23.023438 196.574219-.867187-.15625-1.742187-.246094-2.621093-.265625h-51.199219c-9.425781 0-17.066406 7.644531-17.066406 17.070312h-85.332032c-9.425781 0-17.070312 7.640625-17.070312 17.066406v85.332032c0 9.425781 7.644531 17.066406 17.070312 17.066406h256c9.425782 0 17.066407-7.640625 17.066407-17.066406v-59.734375c35.515625-.007813 69.785156-13.117188 96.238281-36.820313.058594.058594.066406.136719.128906.1875l13.804688 13.808594-9.847656 9.847656c-1.613282 1.613282-2.511719 3.804688-2.496094 6.085938.011718 2.28125.941406 4.460937 2.574218 6.054687l70.476563 68.890625c7.558594 7.53125 18.558594 10.460938 28.863281 7.683594 10.300782-2.777344 18.339844-10.84375 21.085938-21.15625 2.746094-10.308594-.21875-21.304688-7.777344-28.835938zm-215.039063 23.585938c1.808594 1.046875 3.609376 2.097656 5.46875 3.070312 2.628907 1.378907 5.304688 2.667969 8.023438 3.867188 2.253906 1.015625 4.546875 1.929687 6.824219 2.816406.992187.382813 1.988281.742187 2.988281 1.097656l.632812.230469h-53.804687v-17.054688h20.292969c1.492187 1.03125 3.054687 1.960938 4.589844 2.941407 1.539062.980469 3.277343 2.066406 4.984374 3.03125zm55.46875 45.226562h-85.335937v-17.066406h85.335937zm-256-17.066406h85.332032v17.066406h-85.332032zm0-34.132813h85.332032v17.066407h-85.332032zm0 68.265626h85.332032v17.066406h-85.332032zm102.398438-76.800782v-8.53125h51.199219v102.398438h-51.199219zm68.265625 93.867188v-17.066406h85.335937v17.066406zm102.402344-76.800782c-2.691407 0-5.328125-.238281-7.972657-.402343-11.742187-.730469-23.328124-3.074219-34.429687-6.96875l-1.339844-.496094c-7.398437-2.683594-14.535156-6.046875-21.308593-10.050781-1.101563-.660156-2.191407-1.316406-3.269532-2-1.816406-1.140625-3.617187-2.320313-5.375-3.566406-51.453125-36.414063-68.675781-104.898438-40.566406-161.320313 28.105469-56.417969 93.148438-83.925781 153.207031-64.785156 60.058594 19.136719 97.195313 79.203125 87.476563 141.484375s-63.390625 108.175781-126.421875 108.105468zm136.601562-8.046874 45.457031 44.441406c-.113281.101562-.257812.128906-.359374.238281l-17.066407 17.066406c-.214843.273438-.40625.558594-.582031.855469l-45.550781-44.527344zm64.449219 81.066406c-5.082031 4.882812-13.125 4.847656-18.164062-.074219l-6.898438-6.734375c.25-.148438.488281-.304688.71875-.476562l17.066406-17.066407c.152344-.15625.203125-.359375.351563-.523437l6.9375 6.777344c4.988281 4.996093 4.988281 13.09375 0 18.089843zm0 0"/><path d="m247.46875 307.199219c0-13.804688-12.59375-20.105469-21.785156-24.746094-7.226563-3.566406-12.347656-6.367187-12.347656-9.386719.285156-4.589844 3.945312-8.246094 8.53125-8.53125 4.714843 0 8.535156 3.820313 8.535156 8.53125 0 4.714844 3.820312 8.535156 8.53125 8.535156 4.714844 0 8.535156-3.820312 8.535156-8.535156 0-14.136718-11.460938-25.601562-25.601562-25.601562-13.988282.355468-25.242188 11.613281-25.597657 25.601562 0 13.808594 12.59375 20.105469 21.785157 24.746094 7.226562 3.566406 12.347656 6.367188 12.347656 9.386719-.289063 4.589843-3.945313 8.246093-8.535156 8.535156-4.710938 0-8.53125-3.820313-8.53125-8.535156 0-4.710938-3.820313-8.53125-8.535157-8.53125-4.710937 0-8.53125 3.820312-8.53125 8.53125 0 14.140625 11.460938 25.601562 25.597657 25.601562 13.992187-.355469 25.246093-11.613281 25.601562-25.601562zm0 0"/><path d="m298.667969 264.535156c4.714843 0 8.535156-3.824218 8.535156-8.535156s-3.820313-8.535156-8.535156-8.535156h-17.066407c-9.425781 0-17.066406 7.644531-17.066406 17.070312v51.199219c0 9.425781 7.640625 17.066406 17.066406 17.066406h17.066407c4.714843 0 8.535156-3.820312 8.535156-8.535156 0-4.710937-3.820313-8.53125-8.535156-8.53125h-17.066407v-17.066406h17.066407c4.714843 0 8.535156-3.820313 8.535156-8.535157 0-4.710937-3.820313-8.53125-8.535156-8.53125h-17.066407v-17.066406zm0 0"/><path d="m354.136719 247.464844c-16.496094 0-29.867188 13.375-29.867188 29.867187v25.601563c0 16.496094 13.371094 29.867187 29.867188 29.867187 16.492187 0 29.863281-13.371093 29.863281-29.867187v-25.601563c0-16.492187-13.371094-29.867187-29.863281-29.867187zm12.796875 55.46875c0 7.070312-5.730469 12.800781-12.796875 12.800781-7.070313 0-12.800781-5.730469-12.800781-12.800781v-25.601563c0-7.066406 5.730468-12.796875 12.800781-12.796875 7.066406 0 12.796875 5.730469 12.796875 12.796875zm0 0"/><path d="m220.316406 227.558594c17.746094-19.90625 43.148438-31.289063 69.820313-31.289063 26.667969 0 52.070312 11.382813 69.816406 31.289063 2.007813 2.371094 5.144531 3.46875 8.191406 2.859375s5.523438-2.828125 6.460938-5.789063c.941406-2.960937.195312-6.199218-1.945313-8.453125-20.980468-23.523437-51.003906-36.976562-82.523437-36.976562-31.523438 0-61.546875 13.453125-82.527344 36.976562-2.140625 2.253907-2.882813 5.492188-1.945313 8.453125.9375 2.960938 3.414063 5.179688 6.460938 5.789063s6.183594-.488281 8.191406-2.859375zm0 0"/><path d="m359.953125 352.707031c-17.746094 19.90625-43.148437 31.292969-69.816406 31.292969-26.671875 0-52.074219-11.386719-69.820313-31.292969-2.007812-2.371093-5.144531-3.46875-8.191406-2.859375s-5.523438 2.828125-6.460938 5.789063c-.9375 2.964843-.195312 6.203125 1.945313 8.453125 20.980469 23.527344 51.003906 36.976562 82.527344 36.976562 31.519531 0 61.542969-13.449218 82.523437-36.976562 2.140625-2.25 2.886719-5.488282 1.945313-8.453125-.9375-2.960938-3.414063-5.179688-6.460938-5.789063s-6.183593.488282-8.191406 2.859375zm0 0"/><path d="m42.667969 119.464844c-9.765625.941406-19.582031-1.167969-28.101563-6.039063-2.15625-2.15625-5.296875-2.996093-8.242187-2.207031-2.945313.789062-5.246094 3.09375-6.035157 6.039062-.785156 2.945313.054688 6.085938 2.214844 8.242188 1.636719 1.648438 10.296875 9.046875 31.632813 10.683594v8.882812c0 4.714844 3.820312 8.535156 8.53125 8.535156 4.714843 0 8.535156-3.820312 8.535156-8.535156v-9.179687c24.882813-3.066407 34.132813-19.289063 34.132813-33.488281 0-28.867188-25.039063-32-41.609376-34.0625-20.976562-2.628907-26.65625-5.054688-26.65625-17.136719 0-11.765625 14.964844-17.066407 25.597657-17.066407 10.238281-1.097656 20.324219 3.128907 26.71875 11.195313 2.304687 4.113281 7.507812 5.578125 11.617187 3.273437 4.113282-2.304687 5.578125-7.507812 3.273438-11.617187-7.535156-11.101563-19.703125-18.179687-33.074219-19.242187v-9.207032c0-4.714844-3.820313-8.535156-8.535156-8.535156-4.710938 0-8.53125 3.820312-8.53125 8.535156v9.222656c-17.777344 2.808594-34.136719 14.320313-34.136719 33.441407 0 28.867187 25.039062 32 41.609375 34.066406 20.976563 2.628906 26.660156 5.050781 26.660156 17.132813 0 10.847656-9.328125 17.066406-25.601562 17.066406zm0 0"/></svg>
