<svg height="512pt" viewBox="0 0 512.01328 512" width="512pt" xmlns="http://www.w3.org/2000/svg" fill="currentColor"><path d="m25.613281 435.207031h238.933594c4.710937 0 8.53125-3.820312 8.53125-8.535156 0-4.710937-3.820313-8.53125-8.53125-8.53125h-238.933594c-4.710937 0-8.535156-3.820313-8.535156-8.535156v-42.664063c0-4.714844 3.824219-8.535156 8.535156-8.535156h238.933594c4.710937 0 8.53125-3.820312 8.53125-8.53125 0-4.714844-3.820313-8.535156-8.53125-8.535156h-238.933594c-14.136719 0-25.6015622 11.460937-25.6015622 25.601562v42.664063c0 14.140625 11.4648432 25.601562 25.6015622 25.601562zm0 0"/><path d="m384.011719 469.339844c19.683593.015625 38.757812-6.808594 53.964843-19.300782l59.46875 59.46875c3.351563 3.234376 8.671876 3.1875 11.964844-.105468 3.289063-3.292969 3.335938-8.613282.101563-11.960938l-59.46875-59.46875c25.214843-30.902344 25.644531-75.152344 1.035156-106.535156-24.609375-31.386719-67.683594-41.523438-103.707031-24.410156-36.023438 17.113281-55.375 56.90625-46.59375 95.808594 8.78125 38.90625 43.355468 66.527343 83.234375 66.503906zm0-153.601563c37.703125 0 68.269531 30.566407 68.269531 68.269531 0 37.703126-30.566406 68.265626-68.269531 68.265626-37.699219 0-68.265625-30.5625-68.265625-68.265626.042968-37.6875 30.582031-68.226562 68.265625-68.269531zm0 0"/><path d="m384.011719 435.207031c28.277343 0 51.203125-22.921875 51.203125-51.199219 0-28.277343-22.925782-51.203124-51.203125-51.203124-28.277344 0-51.199219 22.925781-51.199219 51.203124.027344 28.265626 22.933594 51.171876 51.199219 51.199219zm0-85.332031c18.851562 0 34.136719 15.28125 34.136719 34.132812 0 18.851563-15.285157 34.132813-34.136719 34.132813-18.851563 0-34.132813-15.28125-34.132813-34.132813 0-18.851562 15.28125-34.132812 34.132813-34.132812zm0 0"/><path d="m34.148438 375.472656v25.601563c0 4.710937 3.820312 8.53125 8.53125 8.53125 4.714843 0 8.535156-3.820313 8.535156-8.53125v-25.601563c0-4.710937-3.820313-8.53125-8.535156-8.53125-4.710938 0-8.53125 3.820313-8.53125 8.53125zm0 0"/><path d="m34.148438 256.007812v59.730469c0 4.714844 3.820312 8.535157 8.53125 8.535157h102.398437c4.714844 0 8.535156-3.820313 8.535156-8.535157v-59.730469c0-14.140624-11.460937-25.601562-25.601562-25.601562h-68.265625c-14.136719 0-25.597656 11.460938-25.597656 25.601562zm102.398437 0v51.199219h-85.332031v-51.199219c0-4.714843 3.820312-8.535156 8.53125-8.535156h68.265625c4.714843 0 8.535156 3.820313 8.535156 8.535156zm0 0"/><path d="m204.8125 324.273438h102.402344c4.710937 0 8.53125-3.820313 8.53125-8.535157v-119.464843c0-14.136719-11.460938-25.601563-25.597656-25.601563h-68.269532c-14.136718 0-25.597656 11.464844-25.597656 25.601563v119.464843c0 4.714844 3.820312 8.535157 8.53125 8.535157zm8.535156-128c0-4.714844 3.820313-8.535157 8.53125-8.535157h68.269532c4.710937 0 8.53125 3.820313 8.53125 8.535157v110.933593h-85.332032zm0 0"/><path d="m358.414062 128.007812v145.066407c0 4.710937 3.820313 8.53125 8.53125 8.53125 4.714844 0 8.535157-3.820313 8.535157-8.53125v-145.066407c0-4.714843 3.820312-8.535156 8.53125-8.535156h68.269531c4.710938 0 8.53125 3.820313 8.53125 8.535156v187.730469c0 4.714844 3.820312 8.535157 8.535156 8.535157 4.710938 0 8.53125-3.820313 8.53125-8.535157v-187.730469c0-14.140624-11.460937-25.601562-25.597656-25.601562h-68.269531c-14.136719 0-25.597657 11.460938-25.597657 25.601562zm0 0"/><path d="m349.878906 68.273438c-4.710937 0-8.53125-3.820313-8.53125-8.535157 0-4.710937-3.820312-8.53125-8.535156-8.53125-4.710938 0-8.53125 3.820313-8.53125 8.53125 0 14.140625 11.460938 25.601563 25.597656 25.601563 13.988282-.355469 25.246094-11.609375 25.601563-25.601563 0-13.804687-12.597657-20.101562-21.785157-24.703125-7.230468-3.609375-12.347656-6.40625-12.347656-9.429687.285156-4.585938 3.945313-8.246094 8.53125-8.53125 4.714844 0 8.535156 3.820312 8.535156 8.53125 0 4.714843 3.820313 8.535156 8.53125 8.535156 4.714844 0 8.535157-3.820313 8.535157-8.535156 0-14.136719-11.460938-25.5976565-25.601563-25.5976565-13.988281.3515625-25.246094 11.6093755-25.597656 25.5976565 0 13.808593 12.59375 20.105469 21.785156 24.707031 7.226563 3.609375 12.347656 6.40625 12.347656 9.425781-.289062 4.589844-3.945312 8.246094-8.535156 8.535157zm0 0"/><path d="m426.679688 17.074219c4.714843 0 8.535156-3.820313 8.535156-8.535157 0-4.710937-3.820313-8.5312495-8.535156-8.5312495h-17.066407c-9.425781 0-17.066406 7.6406255-17.066406 17.0664065v51.199219c0 9.425781 7.640625 17.066406 17.066406 17.066406h17.066407c4.714843 0 8.535156-3.820313 8.535156-8.535156 0-4.710938-3.820313-8.53125-8.535156-8.53125h-17.066407v-17.066407h17.066407c4.714843 0 8.535156-3.820312 8.535156-8.535156 0-4.710937-3.820313-8.53125-8.535156-8.53125h-17.066407v-17.066406zm0 0"/><path d="m512.011719 29.875c0-16.496094-13.371094-29.8671875-29.863281-29.8671875-16.496094 0-29.867188 13.3710935-29.867188 29.8671875v25.597656c0 16.496094 13.371094 29.867188 29.867188 29.867188 16.492187 0 29.863281-13.371094 29.863281-29.867188zm-17.066407 25.597656c0 7.070313-5.730468 12.800782-12.796874 12.800782-7.070313 0-12.800782-5.730469-12.800782-12.800782v-25.597656c0-7.070312 5.730469-12.800781 12.800782-12.800781 7.066406 0 12.796874 5.730469 12.796874 12.800781zm0 0"/><path d="m110.945312 110.941406c4.714844 0 8.535157-3.820312 8.535157-8.535156v-73.265625l2.5 2.5c3.347656 3.234375 8.671875 3.1875 11.960937-.105469 3.292969-3.289062 3.339844-8.613281.105469-11.960937l-17.066406-17.066407c-.796875-.796874-1.742188-1.425781-2.78125-1.851562-2.089844-.863281-4.433594-.863281-6.519531 0-1.042969.425781-1.988282 1.054688-2.785157 1.851562l-17.066406 17.066407c-3.230469 3.347656-3.1875 8.671875.105469 11.960937 3.292968 3.292969 8.613281 3.339844 11.960937.105469l2.519531-2.5v73.265625c0 4.714844 3.820313 8.535156 8.53125 8.535156zm0 0"/><path d="m196.28125 145.074219c4.710938 0 8.53125-3.820313 8.53125-8.535157v-64.734374l2.5 2.5c3.347656 3.234374 8.671875 3.1875 11.964844-.101563 3.289062-3.292969 3.335937-8.613281.101562-11.960937l-17.066406-17.070313c-.792969-.792969-1.738281-1.425781-2.78125-1.851563-2.085938-.863281-4.433594-.863281-6.519531 0-1.042969.425782-1.988281 1.058594-2.78125 1.851563l-17.066407 17.070313c-3.234374 3.347656-3.1875 8.667968.101563 11.960937 3.292969 3.289063 8.617187 3.335937 11.964844.101563l2.515625-2.5v64.734374c0 4.714844 3.820312 8.535157 8.535156 8.535157zm0 0"/><path d="m14.578125 74.304688 2.5-2.5v64.734374c0 4.714844 3.824219 8.535157 8.535156 8.535157 4.710938 0 8.535157-3.820313 8.535157-8.535157v-64.734374l2.5 2.5c3.347656 3.234374 8.667968 3.1875 11.960937-.101563 3.292969-3.292969 3.335937-8.613281.105469-11.960937l-17.070313-17.070313c-.792969-.792969-1.738281-1.425781-2.78125-1.851563-2.085937-.863281-4.429687-.863281-6.519531 0-1.039062.425782-1.984375 1.058594-2.78125 1.851563l-17.066406 17.070313c-3.332032 3.335937-3.328125 8.742187.007812 12.074218 3.335938 3.332032 8.742188 3.328125 12.074219-.011718zm0 0"/></svg>
