<?xml version="1.0" encoding="UTF-8"?>
<svg xmlns="http://www.w3.org/2000/svg" id="Icons" viewBox="0 0 60 60" width="512" height="512" fill="currentColor"><path d="M57.511,24.753l-3.181-.521a24.574,24.574,0,0,0-3.052-7.35l1.882-2.626a2.8,2.8,0,0,0-.054-3.377,23.705,23.705,0,0,0-1.9-2.086A27.087,27.087,0,0,0,49.1,6.876a2.787,2.787,0,0,0-3.351-.038L43.118,8.722a24.574,24.574,0,0,0-7.35-3.052l-.522-3.184A2.793,2.793,0,0,0,32.82.145a27.573,27.573,0,0,0-5.665,0,2.79,2.79,0,0,0-2.4,2.342L24.232,5.67a24.574,24.574,0,0,0-7.35,3.052L14.256,6.84a2.8,2.8,0,0,0-3.377.054A27.03,27.03,0,0,0,8.805,8.781,23.744,23.744,0,0,0,6.886,10.89a2.8,2.8,0,0,0-.048,3.363l1.884,2.629a24.574,24.574,0,0,0-3.052,7.35l-3.184.522a2.794,2.794,0,0,0-2.33,2.414A25.559,25.559,0,0,0,0,30a27.173,27.173,0,0,0,.146,2.781,2.823,2.823,0,0,0,2.343,2.466l3.181.521a24.574,24.574,0,0,0,3.052,7.35L6.85,45.731a2.8,2.8,0,0,0,.038,3.382c.125.158.266.31.4.465a2.649,2.649,0,0,0-.147.3A2.752,2.752,0,0,0,7.8,52.7l1.673,1.7-.4,2.4a2.746,2.746,0,0,0,1.11,2.713,2.615,2.615,0,0,0,2.787.171L15,58.567l2.031,1.109a2.611,2.611,0,0,0,2.786-.171,2.743,2.743,0,0,0,1.11-2.71l-.4-2.4L22.2,52.705a2.624,2.624,0,0,0,.34-.447l.02.02-.6,3.642a3.493,3.493,0,0,0,1.417,3.452,3.307,3.307,0,0,0,3.523.21L30,57.887l3.1,1.7a3.308,3.308,0,0,0,3.523-.21,3.493,3.493,0,0,0,1.417-3.452l-.6-3.642.02-.019a2.59,2.59,0,0,0,.335.441l1.673,1.7-.4,2.4a2.746,2.746,0,0,0,1.11,2.713,2.615,2.615,0,0,0,2.787.171L45,58.567l2.031,1.109a2.611,2.611,0,0,0,2.786-.171,2.743,2.743,0,0,0,1.11-2.71l-.4-2.4L52.2,52.705a2.755,2.755,0,0,0,.663-2.824,2.663,2.663,0,0,0-.147-.3c.136-.16.278-.312.411-.479a2.794,2.794,0,0,0,.038-3.351l-1.884-2.629a24.574,24.574,0,0,0,3.052-7.35l3.18-.521a2.825,2.825,0,0,0,2.345-2.475A27.146,27.146,0,0,0,60,30a25.527,25.527,0,0,0-.156-2.831A2.8,2.8,0,0,0,57.511,24.753ZM20.778,51.3l-2.03,2.06a1,1,0,0,0-.274.866l.48,2.9a.752.752,0,0,1-.3.753.61.61,0,0,1-.667.043l-2.51-1.37a1,1,0,0,0-.958,0l-2.509,1.37a.615.615,0,0,1-.668-.043.755.755,0,0,1-.3-.756l.48-2.9a1,1,0,0,0-.274-.866L9.217,51.291a.767.767,0,0,1-.177-.786.689.689,0,0,1,.549-.487l2.8-.42a1,1,0,0,0,.754-.559L14.4,46.4a.649.649,0,0,1,1.2,0l1.259,2.64a1,1,0,0,0,.754.559l2.675.383.7.712A.742.742,0,0,1,20.778,51.3ZM16.422,41.8a18,18,0,1,1,27.156,0,2.5,2.5,0,0,0-.268,2.846,2.665,2.665,0,0,0-.712.891L41.566,47.7l-.618.093a3.614,3.614,0,0,0,.045-.551H41V38a8.029,8.029,0,0,0-5.21-7.49A7.941,7.941,0,0,0,38,25V23a8,8,0,0,0-16,0v2a7.965,7.965,0,0,0,2.214,5.509A8.028,8.028,0,0,0,19,38v9.24h.007a3.614,3.614,0,0,0,.045.551l-.618-.093L17.4,45.541a2.665,2.665,0,0,0-.713-.893A2.5,2.5,0,0,0,16.422,41.8ZM30,38a3.366,3.366,0,0,0-3.051,1.957l-1.563,3.291-3.483.524a3.336,3.336,0,0,0-.9.271V38a6,6,0,0,1,5.249-5.938,8,8,0,0,0,7.516,0A6,6,0,0,1,39,38v6.043a3.336,3.336,0,0,0-.9-.271l-3.483-.524-1.563-3.291h0A3.366,3.366,0,0,0,30,38Zm0-7a6.006,6.006,0,0,1-6-6V23a6,6,0,1,1,12,0v2a6,6,0,0,1-6,6Zm5.388,21.1.684,4.144a1.492,1.492,0,0,1-.6,1.495,1.291,1.291,0,0,1-1.407.085l-3.585-1.957a1,1,0,0,0-.958,0l-3.585,1.957a1.291,1.291,0,0,1-1.407-.085,1.492,1.492,0,0,1-.6-1.495l.684-4.144a1,1,0,0,0-.275-.867l-2.9-2.935a1.517,1.517,0,0,1-.354-1.575,1.393,1.393,0,0,1,1.119-.974l4.008-.6a1,1,0,0,0,.754-.56l1.792-3.771a1.357,1.357,0,0,1,2.488,0l1.792,3.771a1,1,0,0,0,.754.56l4.008.6a1.393,1.393,0,0,1,1.119.974,1.517,1.517,0,0,1-.354,1.575l-2.9,2.935A1,1,0,0,0,35.388,52.1Zm15.39-.806-2.03,2.06a1,1,0,0,0-.274.866l.48,2.9a.752.752,0,0,1-.3.753.61.61,0,0,1-.667.043l-2.51-1.37a1,1,0,0,0-.958,0l-2.509,1.37a.615.615,0,0,1-.668-.043.755.755,0,0,1-.3-.756l.48-2.9a1,1,0,0,0-.274-.866l-2.035-2.065a.735.735,0,0,1-.207-.6L39.694,50l2.7-.4a1,1,0,0,0,.754-.559L44.4,46.4a.649.649,0,0,1,1.2,0l1.259,2.64a1,1,0,0,0,.754.559l2.8.419a.692.692,0,0,1,.551.488A.77.77,0,0,1,50.778,51.3Zm7.088-18.737a.813.813,0,0,1-.678.713l-3.849.63a1,1,0,0,0-.818.786A22.614,22.614,0,0,1,49.235,42.6a1,1,0,0,0,.023,1.133l2.291,3.2a.8.8,0,0,1,0,.938c-.091.115-.194.224-.29.337a2.628,2.628,0,0,0-.55-.165L48.434,47.7,47.4,45.541a2.63,2.63,0,0,0-2.124-1.5l-.218-.348a.489.489,0,0,1,.021-.575,20,20,0,1,0-30.164,0,.486.486,0,0,1,.025.569l-.223.354a2.63,2.63,0,0,0-2.122,1.5L11.566,47.7,9.29,48.04a2.617,2.617,0,0,0-.549.164c-.091-.107-.193-.215-.277-.321a.81.81,0,0,1,0-.97l2.279-3.18a1,1,0,0,0,.023-1.133,22.614,22.614,0,0,1-3.286-7.912,1,1,0,0,0-.818-.786l-3.85-.63a.81.81,0,0,1-.676-.7A24.856,24.856,0,0,1,2,30a23.219,23.219,0,0,1,.145-2.608.784.784,0,0,1,.667-.664l3.849-.63a1,1,0,0,0,.818-.785A22.611,22.611,0,0,1,10.765,17.4a1,1,0,0,0-.023-1.133L8.461,13.084a.8.8,0,0,1-.015-.943,22.034,22.034,0,0,1,1.761-1.934,25.828,25.828,0,0,1,1.91-1.743.8.8,0,0,1,.97,0l3.18,2.279a1,1,0,0,0,1.133.023,22.614,22.614,0,0,1,7.912-3.286,1,1,0,0,0,.786-.818l.629-3.847a.793.793,0,0,1,.654-.679,25.666,25.666,0,0,1,5.214,0,.8.8,0,0,1,.677.68l.63,3.849a1,1,0,0,0,.785.818A22.611,22.611,0,0,1,42.6,10.765a1,1,0,0,0,1.133-.023l3.183-2.281a.785.785,0,0,1,.943-.015,25.653,25.653,0,0,1,1.946,1.773,22,22,0,0,1,1.741,1.911.806.806,0,0,1-.009.957l-2.279,3.18a1,1,0,0,0-.023,1.133,22.611,22.611,0,0,1,3.286,7.913,1,1,0,0,0,.818.785l3.847.629a.786.786,0,0,1,.669.666A23.187,23.187,0,0,1,58,30,24.862,24.862,0,0,1,57.866,32.559Z"/></svg>
