<?xml version="1.0" encoding="UTF-8"?>
<svg xmlns="http://www.w3.org/2000/svg" id="Icons" viewBox="0 0 60 60" width="512" height="512" fill="currentColor"><path d="M44,60a4,4,0,0,0,4-4V4a4,4,0,0,0-4-4H16a4,4,0,0,0-4,4V56a4,4,0,0,0,4,4Zm2-20H14V18H46ZM37.691,2,36.408,3.368A2,2,0,0,1,34.95,4h-9.9a2.006,2.006,0,0,1-1.459-.632L22.309,2ZM16,2h3.567l2.565,2.735A4.011,4.011,0,0,0,25.05,6h9.9a4.006,4.006,0,0,0,2.918-1.265L40.433,2H44a2,2,0,0,1,2,2V16H14V4A2,2,0,0,1,16,2ZM14,42H46v9a2,2,0,0,1-2,2H16a2,2,0,0,1-2-2Zm0,14V54.444A3.959,3.959,0,0,0,16,55H44a3.959,3.959,0,0,0,2-.556V56a2,2,0,0,1-2,2H16A2,2,0,0,1,14,56Z"/><path d="M20,14a3,3,0,1,0-3-3A3,3,0,0,0,20,14Zm0-4a1,1,0,1,1-1,1A1,1,0,0,1,20,10Z"/><path d="M26,10h3a1,1,0,0,0,0-2H26a1,1,0,0,0,0,2Z"/><path d="M26,14h6a1,1,0,0,0,0-2H26a1,1,0,0,0,0,2Z"/><path d="M18.519,50.389a2.105,2.105,0,0,0,2.962,0l1.708-1.7a2.732,2.732,0,0,0,0-3.884A2.769,2.769,0,0,0,20,44.3a2.775,2.775,0,0,0-3.188.5,2.733,2.733,0,0,0,0,3.885Zm-.3-4.163a.765.765,0,0,1,1.078,0,1,1,0,0,0,1.408,0,.767.767,0,0,1,1.081,0,.734.734,0,0,1,0,1.037l-1.715,1.7a.1.1,0,0,1-.142,0l-1.715-1.7a.734.734,0,0,1,0-1.04Z"/><path d="M27,49h7a1,1,0,0,0,0-2H27a1,1,0,0,0,0,2Z"/><path d="M38,49h4a1,1,0,0,0,0-2H38a1,1,0,0,0,0,2Z"/><path d="M20,38a1,1,0,0,0,1-1V32h6v5a1,1,0,0,0,2,0V25a5,5,0,0,0-10,0V37A1,1,0,0,0,20,38Zm4-16a3,3,0,0,1,3,3v5H21V25A3,3,0,0,1,24,22Z"/><path d="M33,38h2a6.006,6.006,0,0,0,6-6V26a6.006,6.006,0,0,0-6-6H33a2,2,0,0,0-2,2V36A2,2,0,0,0,33,38Zm0-16h2a4,4,0,0,1,4,4v6a4,4,0,0,1-4,4H33Z"/></svg>
