<?xml version="1.0" encoding="UTF-8"?>
<svg xmlns="http://www.w3.org/2000/svg" id="Icons" viewBox="0 0 60 60" width="512" height="512" fill="currentColor"><path d="M55,30H36V4a4,4,0,0,0-4-4H4A4,4,0,0,0,0,4V56a4,4,0,0,0,4,4H32a4.026,4.026,0,0,0,1.408-.284A4.92,4.92,0,0,0,35,60H55a5.006,5.006,0,0,0,5-5V35A5.006,5.006,0,0,0,55,30ZM30,35v7H2V34.726l8.741-8.373a1.281,1.281,0,0,1,1.792.014L18.459,32.3l-4.153,3.974a1,1,0,0,0,1.383,1.446l4.883-4.674.01-.006,6.993-6.694a1.275,1.275,0,0,1,1.779.019l3.954,3.947A4.994,4.994,0,0,0,30,35ZM25.692,2,24.41,3.368A2.008,2.008,0,0,1,22.95,4h-9.9a2,2,0,0,1-1.459-.632L10.309,2ZM4,2H7.567l2.564,2.735A4.013,4.013,0,0,0,13.05,6h9.9a4.013,4.013,0,0,0,2.919-1.265L28.433,2H32a2,2,0,0,1,2,2V28.179l-3.233-3.226a3.283,3.283,0,0,0-4.579-.046l-6.282,6.014-5.963-5.972a3.27,3.27,0,0,0-4.585-.041L2,31.957V4A2,2,0,0,1,4,2ZM2,44H30v9H4a2,2,0,0,1-2-2ZM2,56V54.444A3.959,3.959,0,0,0,4,55H30a4.948,4.948,0,0,0,1.026,3H4A2,2,0,0,1,2,56Zm56-1a3,3,0,0,1-3,3H35a3,3,0,0,1-3-3V35a3,3,0,0,1,3-3H55a3,3,0,0,1,3,3Z"/><path d="M55,37H42a2,2,0,0,0-2-2H38a2,2,0,0,0-2,2H35a1,1,0,0,0,0,2h1a2,2,0,0,0,2,2h2a2,2,0,0,0,2-2H55a1,1,0,0,0,0-2ZM38,39V37h2v1h0v1Z"/><path d="M55,44H52a2,2,0,0,0-2-2H48a2,2,0,0,0-2,2H35a1,1,0,0,0,0,2H46a2,2,0,0,0,2,2h2a2,2,0,0,0,2-2h3a1,1,0,0,0,0-2Zm-7,2V44h2v1h0v1Z"/><path d="M55,51H46a2,2,0,0,0-2-2H42a2,2,0,0,0-2,2H35a1,1,0,0,0,0,2h5a2,2,0,0,0,2,2h2a2,2,0,0,0,2-2h9a1,1,0,0,0,0-2ZM42,53V51h2v1h0v1Z"/><path d="M9.5,21A5.5,5.5,0,1,0,4,15.5,5.506,5.506,0,0,0,9.5,21Zm0-9A3.5,3.5,0,1,1,6,15.5,3.5,3.5,0,0,1,9.5,12Z"/><path d="M22,21a3.107,3.107,0,0,0,.51-.043,3.494,3.494,0,0,0,4.98,0A3.107,3.107,0,0,0,28,21a3,3,0,0,0,.907-5.86,4,4,0,0,0-7.814,0A3,3,0,0,0,22,21Zm0-4a1,1,0,0,0,1-1,2,2,0,0,1,4,0,1,1,0,0,0,1,1,1,1,0,0,1,0,2,.949.949,0,0,1-.423-.095,1,1,0,0,0-1.306.382,1.489,1.489,0,0,1-2.542,0,1,1,0,0,0-1.306-.382A.949.949,0,0,1,22,19a1,1,0,0,1,0-2Z"/><path d="M6,48h4a1,1,0,0,0,0-2H6a1,1,0,0,0,0,2Z"/><path d="M22,48h4a1,1,0,0,0,0-2H22a1,1,0,0,0,0,2Z"/><path d="M14,50h4a1,1,0,0,0,0-2H14a1,1,0,0,0,0,2Z"/></svg>
