<svg height="512pt" viewBox="0 0 512 512" width="512pt" xmlns="http://www.w3.org/2000/svg" fill="currentColor"><path d="m256 68.265625c-103.683594 0-187.734375 84.050781-187.734375 187.734375s84.050781 187.734375 187.734375 187.734375 187.734375-84.050781 187.734375-187.734375c-.117187-103.632812-84.101563-187.617188-187.734375-187.734375zm0 17.066406c90.839844.152344 165.65625 71.410157 170.230469 162.132813h-123.167969l92.464844-34.667969c4.417968-1.652344 6.660156-6.566406 5.011718-10.984375-1.652343-4.414062-6.566406-6.65625-10.984374-5.007812l-135.109376 50.660156h-74.742187c2.914063-26.261719 19.132813-49.175782 42.933594-60.652344s51.832031-9.894531 74.195312 4.179688l-17.296875 4.328124c-4.179687 1.046876-6.921875 5.042969-6.394531 9.316407.523437 4.273437 4.152344 7.488281 8.460937 7.492187.699219.003906 1.394532-.082031 2.070313-.253906l34.136719-8.535156c.222656-.082032.441406-.179688.65625-.289063.378906-.132812.746094-.289062 1.101562-.476562.613282-.3125 1.1875-.699219 1.703125-1.152344.171875-.15625.402344-.214844.566407-.386719.160156-.167968.136718-.238281.230468-.347656.507813-.589844.9375-1.242188 1.269532-1.945312.113281-.25.28125-.453126.375-.699219.363281-.953125.550781-1.960938.554687-2.980469v-25.597656c0-4.714844-3.820313-8.535156-8.53125-8.535156-4.714844 0-8.535156 3.820312-8.535156 8.535156v7.847656c-27.578125-17.921875-62.523438-20.105469-92.117188-5.75-29.597656 14.351562-49.515625 43.148438-52.511719 75.902344h-76.800781c4.574219-90.722656 79.390625-161.980469 170.230469-162.132813zm0 341.335938c-90.839844-.152344-165.65625-71.410157-170.230469-162.132813h340.480469c-4.578125 90.730469-79.402344 161.988282-170.25 162.132813zm0 0"/><path d="m494.933594 230.398438-10.027344-.101563c-2.519531-22.980469-8.523438-45.441406-17.808594-66.609375l8.628906-4.984375c8.160157-4.714844 10.957032-15.152344 6.246094-23.3125l-8.535156-14.789063c-4.714844-8.160156-15.152344-10.953124-23.3125-6.238281l-8.703125 4.90625c-13.726563-18.597656-30.179687-35.015625-48.804687-48.707031l5.035156-8.6875c4.714844-8.164062 1.917968-18.601562-6.246094-23.3125l-14.777344-8.535156c-8.164062-4.710938-18.597656-1.921875-23.316406 6.238281l-5.050781 8.535156c-21.195313-9.242187-43.671875-15.203125-66.660157-17.671875v-10.0625c0-9.425781-7.640624-17.066406-17.066406-17.066406h-17.070312c-9.425782 0-17.066406 7.640625-17.066406 17.066406l-.101563 10.019532c-22.980469 2.523437-45.445313 8.53125-66.617187 17.816406l-4.960938-8.617188c-2.261719-3.921875-5.988281-6.785156-10.359375-7.957031s-9.03125-.5625-12.953125 1.699219l-14.789062 8.535156c-3.921876 2.257812-6.789063 5.984375-7.964844 10.355469-1.175782 4.375-.566406 9.035156 1.695312 12.957031l4.90625 8.703125c-18.597656 13.722656-35.011718 30.175781-48.691406 48.804687l-8.6875-5.035156c-8.164062-4.714844-18.601562-1.917968-23.3125 6.246094l-8.535156 14.777344c-2.273438 3.925781-2.890625 8.589844-1.71875 12.972656 1.171875 4.378906 4.039062 8.113281 7.964844 10.375l8.535156 5.054688c-9.242188 21.183593-15.203125 43.648437-17.679688 66.625h-10.0625c-9.425781 0-17.066406 7.640624-17.066406 17.066406v17.070312c0 9.425782 7.640625 17.066406 17.066406 17.066406l10.019532.101563c2.523437 22.980469 8.53125 45.445313 17.816406 66.617187l-8.617188 4.976563c-3.921875 2.261719-6.785156 5.988281-7.957031 10.359375-1.171875 4.375-.5625 9.03125 1.699219 12.953125l8.535156 14.789063c4.714844 8.152343 15.144531 10.945312 23.304688 6.238281l8.703124-4.90625c13.726563 18.597656 30.179688 35.015625 48.800782 48.707031l-5.023438 8.6875c-4.714844 8.164062-1.917968 18.601562 6.246094 23.3125l14.777344 8.535156c8.164062 4.710938 18.597656 1.921875 23.316406-6.238281l5.050781-8.535156c21.195313 9.242187 43.671875 15.203125 66.660157 17.671875v10.0625c0 9.425781 7.640624 17.066406 17.066406 17.066406h17.070312c9.425782 0 17.066406-7.640625 17.066406-17.066406l.101563-10.019532c22.980469-2.523437 45.445313-8.53125 66.617187-17.816406l4.976563 8.617188c2.261719 3.921875 5.988281 6.785156 10.359375 7.957031 4.375 1.171875 9.03125.5625 12.953125-1.699219l14.789063-8.535156c8.152343-4.714844 10.945312-15.144531 6.238281-23.304688l-4.90625-8.703124c18.59375-13.726563 35.015625-30.175782 48.707031-48.792969l8.679688 5.007812c8.160156 4.710938 18.597656 1.917969 23.3125-6.246093l8.53125-14.78125c4.714843-8.160157 1.921874-18.59375-6.234376-23.3125l-8.535156-5.050782c9.246094-21.191406 15.207032-43.667968 17.679688-66.652344h10.0625c9.425781 0 17.066406-7.640624 17.066406-17.066406v-17.070312c0-9.425782-7.640625-17.066406-17.066406-17.066406zm0 34.136718h-10.0625c-8.71875.019532-16.023438 6.617188-16.929688 15.289063-2.324218 21.238281-7.855468 41.996093-16.398437 61.578125-3.546875 7.964844-.519531 17.320312 7.019531 21.699218l8.621094 4.976563-8.535156 14.777344-8.6875-5.015625c-7.550782-4.335938-17.160157-2.289063-22.289063 4.753906-12.695313 17.195312-27.890625 32.398438-45.089844 45.097656-7.03125 5.128906-9.074219 14.730469-4.742187 22.28125l5.007812 8.683594-14.78125 8.535156-4.972656-8.617187c-4.375-7.539063-13.726562-10.570313-21.691406-7.03125-19.582032 8.542969-40.347656 14.074219-61.585938 16.398437-8.671875.910156-15.261718 8.210938-15.28125 16.929688v10.0625h-17.070312v-10.0625c-.019532-8.71875-6.617188-16.023438-15.289063-16.929688-21.238281-2.324218-42.003906-7.855468-61.585937-16.398437-2.183594-.960938-4.542969-1.460938-6.929688-1.460938-6.082031-.019531-11.710937 3.214844-14.753906 8.480469l-4.984375 8.628906-14.777344-8.535156 5.015625-8.683594c4.332032-7.554687 2.28125-17.152344-4.753906-22.28125-17.195312-12.699218-32.398438-27.902344-45.097656-45.097656-5.128906-7.035156-14.730469-9.078125-22.28125-4.746094l-8.683594 5.007813-8.535156-14.777344 8.617187-4.976563c7.539063-4.375 10.570313-13.726562 7.03125-21.691406-8.542969-19.582031-14.074219-40.347656-16.398437-61.585937-.90625-8.671875-8.210938-15.269531-16.929688-15.289063h-10.0625v-17.070312h10.0625c8.71875-.019532 16.023438-6.617188 16.929688-15.289063 2.324218-21.238281 7.855468-42.003906 16.398437-61.585937 3.535157-7.960938.511719-17.308594-7.019531-21.683594l-8.628906-4.984375 8.535156-14.777344 8.683594 5.015625c7.554687 4.332032 17.152344 2.28125 22.28125-4.753906 12.699218-17.195312 27.902344-32.398438 45.097656-45.097656 7.035156-5.128906 9.078125-14.730469 4.746094-22.28125l-5.007813-8.683594 14.777344-8.535156 4.976563 8.617187c4.375 7.539063 13.726562 10.570313 21.691406 7.03125 19.582031-8.542969 40.347656-14.074219 61.585937-16.398437 8.671875-.90625 15.269531-8.210938 15.289063-16.929688v-10.0625h17.070312v10.0625c.019532 8.71875 6.617188 16.023438 15.289063 16.929688 21.238281 2.324218 42.003906 7.855468 61.585937 16.398437 7.960938 3.535157 17.308594.511719 21.683594-7.019531l4.984375-8.628906 14.777344 8.535156-5.015625 8.683594c-4.332032 7.554687-2.28125 17.152344 4.753906 22.28125 17.199219 12.699218 32.398438 27.898437 45.097656 45.097656 5.128906 7.035156 14.726563 9.085938 22.28125 4.753906l8.683594-5.015625 8.535156 14.777344-8.628906 4.976563c-7.535156 4.375-10.5625 13.726562-7.019531 21.691406 8.542969 19.582031 14.074219 40.347656 16.398437 61.585937.90625 8.671875 8.210938 15.269531 16.929688 15.289063h10.0625zm0 0"/><path d="m128 221.867188c0 4.710937-3.820312 8.53125-8.535156 8.53125-4.710938 0-8.53125-3.820313-8.53125-8.53125 0-4.714844 3.820312-8.535157 8.53125-8.535157 4.714844 0 8.535156 3.820313 8.535156 8.535157zm0 0"/><path d="m145.066406 179.199219c0 4.714843-3.820312 8.535156-8.53125 8.535156-4.714844 0-8.535156-3.820313-8.535156-8.535156 0-4.710938 3.820312-8.53125 8.535156-8.53125 4.710938 0 8.53125 3.820312 8.53125 8.53125zm0 0"/><path d="m170.667969 145.066406c0 4.714844-3.820313 8.535156-8.535157 8.535156-4.710937 0-8.53125-3.820312-8.53125-8.535156 0-4.710937 3.820313-8.53125 8.53125-8.53125 4.714844 0 8.535157 3.820313 8.535157 8.53125zm0 0"/><path d="m213.332031 119.464844c0 4.714844-3.820312 8.535156-8.53125 8.535156-4.714843 0-8.535156-3.820312-8.535156-8.535156 0-4.710938 3.820313-8.53125 8.535156-8.53125 4.710938 0 8.53125 3.820312 8.53125 8.53125zm0 0"/><path d="m384 179.199219c0 4.714843-3.820312 8.535156-8.535156 8.535156-4.710938 0-8.53125-3.820313-8.53125-8.535156 0-4.710938 3.820312-8.53125 8.53125-8.53125 4.714844 0 8.535156 3.820312 8.535156 8.53125zm0 0"/><path d="m358.398438 145.066406c0 4.714844-3.820313 8.535156-8.53125 8.535156-4.714844 0-8.535157-3.820312-8.535157-8.535156 0-4.710937 3.820313-8.53125 8.535157-8.53125 4.710937 0 8.53125 3.820313 8.53125 8.53125zm0 0"/><path d="m315.734375 119.464844c0 4.714844-3.820313 8.535156-8.535156 8.535156-4.710938 0-8.53125-3.820312-8.53125-8.535156 0-4.710938 3.820312-8.53125 8.53125-8.53125 4.714843 0 8.535156 3.820312 8.535156 8.53125zm0 0"/><path d="m264.535156 102.398438c0 4.714843-3.824218 8.535156-8.535156 8.535156s-8.535156-3.820313-8.535156-8.535156c0-4.710938 3.824218-8.53125 8.535156-8.53125s8.535156 3.820312 8.535156 8.53125zm0 0"/><path d="m187.734375 307.199219c4.710937 0 8.53125 3.820312 8.53125 8.535156 0 4.710937 3.820313 8.53125 8.535156 8.53125 4.710938 0 8.53125-3.820313 8.53125-8.53125 0-14.140625-11.460937-25.601563-25.597656-25.601563-13.988281.355469-25.246094 11.613282-25.601563 25.601563 0 13.804687 12.597657 20.101563 21.785157 24.746094 7.230469 3.566406 12.347656 6.367187 12.347656 9.386719-.285156 4.585937-3.945313 8.246093-8.53125 8.53125-4.714844 0-8.535156-3.820313-8.535156-8.53125 0-4.714844-3.820313-8.535157-8.53125-8.535157-4.714844 0-8.535157 3.820313-8.535157 8.535157 0 14.136718 11.460938 25.597656 25.601563 25.597656 13.988281-.351563 25.246094-11.609375 25.597656-25.597656 0-13.808594-12.59375-20.105469-21.785156-24.746094-7.226563-3.566406-12.347656-6.367188-12.347656-9.386719.289062-4.589844 3.945312-8.246094 8.535156-8.535156zm0 0"/><path d="m264.535156 307.199219c4.710938 0 8.53125-3.820313 8.53125-8.53125 0-4.714844-3.820312-8.535157-8.53125-8.535157h-17.070312c-9.425782 0-17.066406 7.640626-17.066406 17.066407v51.199219c0 9.425781 7.640624 17.066406 17.066406 17.066406h17.070312c4.710938 0 8.53125-3.820313 8.53125-8.53125 0-4.714844-3.820312-8.535156-8.53125-8.535156h-17.070312v-17.066407h17.070312c4.710938 0 8.53125-3.820312 8.53125-8.53125 0-4.714843-3.820312-8.535156-8.53125-8.535156h-17.070312v-17.066406zm0 0"/><path d="m320 290.132812c-16.496094 0-29.867188 13.371094-29.867188 29.867188v25.601562c0 16.492188 13.371094 29.863282 29.867188 29.863282s29.867188-13.371094 29.867188-29.863282v-25.601562c0-16.496094-13.371094-29.867188-29.867188-29.867188zm12.800781 55.46875c0 7.066407-5.730469 12.796876-12.800781 12.796876s-12.800781-5.730469-12.800781-12.796876v-25.601562c0-7.070312 5.730469-12.800781 12.800781-12.800781s12.800781 5.730469 12.800781 12.800781zm0 0"/></svg>
