<svg height="512.00523pt" viewBox="0 0 512.00523 512.00523" width="512.00523pt" xmlns="http://www.w3.org/2000/svg" fill="currentColor"><path d="m509.492188 497.429688-34.132813-34.132813c-3.351563-3.234375-8.671875-3.1875-11.964844.105469-3.289062 3.289062-3.335937 8.613281-.101562 11.960937l19.574219 19.574219h-39.132813v-17.066406c0-4.710938-3.820313-8.53125-8.535156-8.53125-4.710938 0-8.53125 3.820312-8.53125 8.53125v17.066406h-17.066407v-17.066406c0-4.710938-3.820312-8.53125-8.535156-8.53125-4.710937 0-8.53125 3.820312-8.53125 8.53125v17.066406h-17.070312v-17.066406c0-4.710938-3.820313-8.53125-8.53125-8.53125-4.714844 0-8.535156 3.820312-8.535156 8.53125v17.066406h-17.066407v-17.066406c0-4.710938-3.820312-8.53125-8.53125-8.53125-4.714843 0-8.535156 3.820312-8.535156 8.53125v17.066406h-17.066406v-17.066406c0-4.710938-3.820313-8.53125-8.53125-8.53125-4.714844 0-8.535157 3.820312-8.535157 8.53125v17.066406h-268.152343l58.933593-125.234375 103.253907 47.648437c4.082031 1.902344 8.941406.296876 11.089843-3.660156l48.746094-89.417968h46.128906v17.066406c0 4.710937 3.820313 8.53125 8.535157 8.53125 4.710937 0 8.53125-3.820313 8.53125-8.53125v-17.066406h110.933593c18.851563 0 34.132813-15.285157 34.132813-34.136719v-85.332031c0-18.851563-15.28125-34.132813-34.132813-34.132813h-78.402343l39.421875-66.304687 61.578125 23.101562c4 1.480469 8.484375-.203125 10.519531-3.953125l59.734375-110.933594c2.234375-4.152343.679687-9.328125-3.472656-11.5625-4.152344-2.234375-9.328125-.679687-11.5625 3.472657l-56.199219 104.371093-61.28125-22.988281c-3.867188-1.449219-8.222656.082031-10.332031 3.636719l-48.265625 81.160156h-140.671875c-18.851563 0-34.132813 15.28125-34.132813 34.132813v34.132812h-25.601562c-4.710938 0-8.53125 3.820312-8.53125 8.535156 0 4.710938 3.820312 8.53125 8.53125 8.53125h25.601562v34.132813c0 18.851562 15.28125 34.136719 34.132813 34.136719h45.355469l-40.492188 74.238281-103.6875-47.855469c-4.257812-1.964844-9.300781-.128906-11.296875 4.113281l-52.011719 110.523438v-209.289063h17.066406c4.714844 0 8.535157-3.820312 8.535157-8.53125 0-4.714844-3.820313-8.535156-8.535157-8.535156h-17.066406v-17.066406h17.066406c4.714844 0 8.535157-3.820313 8.535157-8.53125 0-4.714844-3.820313-8.535156-8.535157-8.535156h-17.066406v-17.066407h17.066406c4.714844 0 8.535157-3.820312 8.535157-8.53125 0-4.714843-3.820313-8.535156-8.535157-8.535156h-17.066406v-17.066406h17.066406c4.714844 0 8.535157-3.820313 8.535157-8.535157 0-4.710937-3.820313-8.53125-8.535157-8.53125h-17.066406v-17.066406h17.066406c4.714844 0 8.535157-3.820312 8.535157-8.535156 0-4.710938-3.820313-8.53125-8.535157-8.53125h-17.066406v-17.066406h17.066406c4.714844 0 8.535157-3.820313 8.535157-8.535156 0-4.710938-3.820313-8.53125-8.535157-8.53125h-17.066406v-39.136719l19.566406 19.566406c3.347657 3.234375 8.671876 3.191406 11.964844-.101563 3.289063-3.292968 3.335938-8.613281.101563-11.960937l-34.132813-34.136719c-.792968-.789062-1.734375-1.417968-2.773437-1.839844-2.632813-1.089843-5.632813-.792968-8 .789063-2.367188 1.582031-3.78906275 4.238281-3.792969 7.085937v494.933594c.0507812.410156.132812.8125.246094 1.210938.054687.636718.183594 1.265625.375 1.878906.238281.496094.527344.972656.855468 1.414062.257813.472657.554688.917969.894532 1.332032.476562.445312 1 .832031 1.5625 1.160156.304687.265625.632812.507812.972656.726562.050781-.003906.101562-.003906.152344 0 1.0625.503907 2.214844.78125 3.390625.808594h495.015625c1.121094-.003906 2.226562-.226562 3.261718-.65625 2.632813-1.089844 4.546876-3.425781 5.101563-6.21875.554687-2.796875-.320313-5.683594-2.335937-7.699218zm-347.359376-207.292969v-85.332031c0-9.425782 7.640626-17.066407 17.066407-17.066407h238.933593c9.425782 0 17.066407 7.640625 17.066407 17.066407v85.332031c0 9.425781-7.640625 17.070312-17.066407 17.070312h-238.933593c-9.425781 0-17.066407-7.644531-17.066407-17.070312zm0 0"/><path d="m238.933594 221.871094c4.710937 0 8.53125 3.820312 8.53125 8.535156 0 4.710938 3.824218 8.53125 8.535156 8.53125s8.535156-3.820312 8.535156-8.53125c0-14.140625-11.464844-25.601562-25.601562-25.601562-13.988282.355468-25.246094 11.613281-25.601563 25.601562 0 13.804688 12.597657 20.101562 21.785157 24.703125 7.230468 3.609375 12.347656 6.410156 12.347656 9.429687-.285156 4.585938-3.941406 8.246094-8.53125 8.53125-4.714844 0-8.535156-3.820312-8.535156-8.53125 0-4.714843-3.820313-8.535156-8.53125-8.535156-4.714844 0-8.535157 3.820313-8.535157 8.535156 0 14.136719 11.460938 25.597657 25.601563 25.597657 13.988281-.351563 25.246094-11.609375 25.601562-25.597657 0-13.808593-12.597656-20.105468-21.789062-24.703124-7.226563-3.609376-12.347656-6.410157-12.347656-9.429688.289062-4.589844 3.945312-8.246094 8.535156-8.535156zm0 0"/><path d="m315.734375 290.136719c4.710937 0 8.53125-3.820313 8.53125-8.53125 0-4.714844-3.820313-8.535157-8.53125-8.535157h-17.066406v-17.066406h17.066406c4.710937 0 8.53125-3.820312 8.53125-8.53125 0-4.714844-3.820313-8.535156-8.53125-8.535156h-17.066406v-17.066406h17.066406c4.710937 0 8.53125-3.820313 8.53125-8.53125 0-4.714844-3.820313-8.535156-8.53125-8.535156h-17.066406c-9.425781 0-17.066407 7.640624-17.066407 17.066406v51.199218c0 9.425782 7.640626 17.066407 17.066407 17.066407zm0 0"/><path d="m371.199219 290.136719c16.496093 0 29.867187-13.371094 29.867187-29.863281v-25.601563c0-16.496094-13.371094-29.867187-29.867187-29.867187-16.492188 0-29.867188 13.371093-29.867188 29.867187v25.601563c0 7.917968 3.148438 15.515624 8.75 21.117187 5.601563 5.601563 13.195313 8.746094 21.117188 8.746094zm-12.800781-55.464844c0-7.070313 5.730468-12.800781 12.800781-12.800781 7.070312 0 12.800781 5.730468 12.800781 12.800781v25.601563c0 7.066406-5.730469 12.796874-12.800781 12.796874-7.070313 0-12.800781-5.730468-12.800781-12.796874zm0 0"/><path d="m307.199219 375.472656c0-4.714844-3.820313-8.535156-8.53125-8.535156-4.714844 0-8.535157 3.820312-8.535157 8.535156v17.066406c0 4.710938 3.820313 8.53125 8.535157 8.53125 4.710937 0 8.53125-3.820312 8.53125-8.53125zm0 0"/><path d="m68.265625 256.003906h17.066406c4.714844 0 8.535157-3.820312 8.535157-8.53125 0-4.714844-3.820313-8.535156-8.535157-8.535156h-17.066406c-4.710937 0-8.53125 3.820312-8.53125 8.535156 0 4.710938 3.820313 8.53125 8.53125 8.53125zm0 0"/><path d="m298.667969 418.136719c-4.714844 0-8.535157 3.824219-8.535157 8.535156v17.066406c0 4.714844 3.820313 8.535157 8.535157 8.535157 4.710937 0 8.53125-3.820313 8.53125-8.535157v-17.066406c0-4.710937-3.820313-8.535156-8.53125-8.535156zm0 0"/></svg>
