<svg height="512pt" viewBox="0 0 512 512" width="512pt" xmlns="http://www.w3.org/2000/svg" fill="currentColor"><path d="m428.699219 230.519531c-4.863281-.5625-9.734375.980469-13.386719 4.242188-3.648438 3.261719-5.726562 7.929687-5.710938 12.824219v7.988281h-11.886718c-6.882813-.011719-12.878906 4.6875-14.507813 11.375-1.859375 7.679687-9.269531 33.039062-25.96875 38.730469-9.464843 3.171874-15.859375 12.019531-15.90625 22v6.238281c-.199219 6.3125 2.148438 12.4375 6.515625 17 4.371094 4.558593 10.390625 7.167969 16.703125 7.234375h23.535157c4.589843 0 9.074218-1.359375 12.886718-3.90625l7.382813-4.925782 1.246093.683594v4.648438c-.003906.203125-.078124.398437-.207031.554687l-57.421875 65.707031c-.5625.65625-1.023437 1.398438-1.363281 2.195313-.058594.167969-.113281.34375-.152344.519531-.289062.789063-.457031 1.617188-.496093 2.457032 0 .152343-.09375.289062-.09375.445312v30.675781l-12.066407 12.09375c-3.1875 3.203125-4.984375 7.535157-5 12.054688v13.578125c0 9.425781 7.640625 17.066406 17.066407 17.066406h128c9.425781 0 17.066406-7.640625 17.066406-17.066406v-13.578125c-.023438-4.507813-1.816406-8.824219-4.992188-12.023438l-12.074218-12.140625v-25.40625c11.324218-6.824218 34.132812-28.242187 34.132812-90.757812 0-69.460938-41.8125-105.507813-83.300781-110.507813zm32.101562 221.660157h-93.867187v-17.132813h93.867187zm17.066407 42.753906h-128v-13.59375l12.066406-12.09375h103.851562l12.082032 12.109375zm-10.128907-76.953125h-90.566406l45.066406-51.59375c2.851563-3.261719 4.425781-7.445313 4.429688-11.777344v-4.648437c.003906-6.597657-3.625-12.660157-9.441407-15.773438-5.816406-3.113281-12.875-2.769531-18.363281.890625l-7.355469 4.925781c-1.007812.671875-2.195312 1.035156-3.410156 1.039063h-23.546875c-1.78125-.085938-3.453125-.902344-4.617187-2.257813-1.164063-1.359375-1.71875-3.132812-1.535156-4.910156v-6.195312c.027343-2.683594 1.785156-5.039063 4.34375-5.835938 23.21875-7.910156 33.144531-35.839844 36.625-49.195312h12.339843c3.976563-.003907 7.785157-1.589844 10.589844-4.40625 2.808594-2.8125 4.378906-6.628907 4.371094-10.605469v-10.171875c31.488281 3.757812 68.265625 30.527344 68.265625 93.5625 0 60.757812-22.808594 74.800781-27.195313 76.953125zm0 0"/><path d="m25.601562 392.535156h51.199219v8.53125c0 4.714844 3.820313 8.535156 8.53125 8.535156 4.714844 0 8.535157-3.820312 8.535157-8.535156v-8.53125h247.464843c4.714844 0 8.535157-3.824218 8.535157-8.535156s-3.820313-8.535156-8.535157-8.535156h-315.730469c-4.714843 0-8.535156-3.820313-8.535156-8.53125v-42.667969h298.667969c4.710937 0 8.53125-3.820313 8.53125-8.53125 0-4.714844-3.820313-8.535156-8.53125-8.535156h-298.667969v-221.867188h392.535156v119.46875c0 4.710938 3.820313 8.53125 8.53125 8.53125 4.714844 0 8.535157-3.820312 8.535157-8.53125v-179.199219c0-14.140624-11.460938-25.601562-25.601563-25.601562h-375.464844c-14.140624 0-25.601562 11.460938-25.601562 25.601562v341.332032c0 14.136718 11.460938 25.601562 25.601562 25.601562zm-8.535156-366.933594c0-4.714843 3.820313-8.535156 8.535156-8.535156h375.464844c4.714844 0 8.535156 3.820313 8.535156 8.535156v42.664063h-392.535156zm0 0"/><path d="m51.199219 42.667969c0 4.710937-3.820313 8.53125-8.53125 8.53125-4.714844 0-8.535157-3.820313-8.535157-8.53125 0-4.714844 3.820313-8.535157 8.535157-8.535157 4.710937 0 8.53125 3.820313 8.53125 8.535157zm0 0"/><path d="m85.332031 42.667969c0 4.710937-3.820312 8.53125-8.53125 8.53125-4.714843 0-8.535156-3.820313-8.535156-8.53125 0-4.714844 3.820313-8.535157 8.535156-8.535157 4.710938 0 8.53125 3.820313 8.53125 8.535157zm0 0"/><path d="m119.464844 42.667969c0 4.710937-3.820313 8.53125-8.53125 8.53125-4.714844 0-8.535156-3.820313-8.535156-8.53125 0-4.714844 3.820312-8.535157 8.535156-8.535157 4.710937 0 8.53125 3.820313 8.53125 8.535157zm0 0"/><path d="m51.199219 204.800781h68.265625c9.425781 0 17.070312-7.640625 17.070312-17.066406v-68.269531c0-9.425782-7.644531-17.066406-17.070312-17.066406h-68.265625c-9.425781 0-17.066407 7.640624-17.066407 17.066406v68.269531c0 9.425781 7.640626 17.066406 17.066407 17.066406zm0-85.335937h68.265625v68.269531h-68.265625zm0 0"/><path d="m392.535156 119.464844c0-9.425782-7.644531-17.066406-17.070312-17.066406h-204.796875c-9.425781 0-17.066407 7.640624-17.066407 17.066406v34.136718c0 9.425782 7.640626 17.066407 17.066407 17.066407h204.796875c9.425781 0 17.070312-7.640625 17.070312-17.066407zm-17.070312 34.136718h-204.796875v-34.136718h204.796875zm0 0"/><path d="m384 187.734375h-221.867188c-4.710937 0-8.53125 3.820313-8.53125 8.53125 0 4.714844 3.820313 8.535156 8.53125 8.535156h221.867188c4.710938 0 8.535156-3.820312 8.535156-8.535156 0-4.710937-3.824218-8.53125-8.535156-8.53125zm0 0"/><path d="m392.535156 230.398438c0-4.710938-3.824218-8.53125-8.535156-8.53125h-341.332031c-4.714844 0-8.535157 3.820312-8.535157 8.53125 0 4.714843 3.820313 8.535156 8.535157 8.535156h341.332031c4.710938 0 8.535156-3.820313 8.535156-8.535156zm0 0"/><path d="m42.667969 256c-4.714844 0-8.535157 3.820312-8.535157 8.535156 0 4.710938 3.820313 8.53125 8.535157 8.53125h315.730469c4.714843 0 8.535156-3.820312 8.535156-8.53125 0-4.714844-3.820313-8.535156-8.535156-8.535156zm0 0"/><path d="m315.734375 452.265625h-17.066406c-4.714844 0-8.535157 3.820313-8.535157 8.535156 0 4.710938 3.820313 8.53125 8.535157 8.53125h17.066406c4.710937 0 8.53125-3.820312 8.53125-8.53125 0-4.714843-3.820313-8.535156-8.53125-8.535156zm0 0"/><path d="m264.535156 469.332031c4.710938 0 8.53125-3.820312 8.53125-8.53125 0-4.714843-3.820312-8.535156-8.53125-8.535156h-17.070312c-4.710938 0-8.53125 3.820313-8.53125 8.535156 0 4.710938 3.820312 8.53125 8.53125 8.53125zm0 0"/><path d="m213.332031 469.332031c4.714844 0 8.535157-3.820312 8.535157-8.53125 0-4.714843-3.820313-8.535156-8.535157-8.535156h-17.066406c-4.710937 0-8.53125 3.820313-8.53125 8.535156 0 4.710938 3.820313 8.53125 8.53125 8.53125zm0 0"/><path d="m162.132812 469.332031c4.714844 0 8.535157-3.820312 8.535157-8.53125 0-4.714843-3.820313-8.535156-8.535157-8.535156h-17.066406c-4.710937 0-8.53125 3.820313-8.53125 8.535156 0 4.710938 3.820313 8.53125 8.53125 8.53125zm0 0"/><path d="m85.332031 426.667969c-4.710937 0-8.53125 3.820312-8.53125 8.53125v8.535156c0 14.136719 11.460938 25.597656 25.597657 25.597656h8.535156c4.710937 0 8.53125-3.820312 8.53125-8.53125 0-4.714843-3.820313-8.535156-8.53125-8.535156h-8.535156c-4.710938 0-8.53125-3.820313-8.53125-8.53125v-8.535156c0-4.710938-3.820313-8.53125-8.535157-8.53125zm0 0"/></svg>
