<?xml version="1.0" encoding="UTF-8"?>
<svg xmlns="http://www.w3.org/2000/svg" id="Icons" viewBox="0 0 60 60" width="512" height="512" fill="currentColor"><path d="M56,0H4A4,4,0,0,0,0,4V56a4,4,0,0,0,4,4H56a4,4,0,0,0,4-4V4A4,4,0,0,0,56,0ZM4,2H56a2,2,0,0,1,2,2V44H2V4A2,2,0,0,1,4,2ZM56,58H4a2,2,0,0,1-2-2V46H58V56A2,2,0,0,1,56,58Z"/><path d="M53,51H21.816a2.982,2.982,0,0,0-5.632,0H7a1,1,0,0,0,0,2h9.184a2.982,2.982,0,0,0,5.632,0H53a1,1,0,0,0,0-2ZM19,53a1,1,0,1,1,1-1A1,1,0,0,1,19,53Z"/><path d="M10,36h1v3.47a2.512,2.512,0,0,0,1.408,2.278,2.433,2.433,0,0,0,2.58-.264L22.139,36H38a3.027,3.027,0,0,0,1.257-.28,6.109,6.109,0,0,0,9.516-2.834,2.984,2.984,0,0,0,.266-5.69,8.355,8.355,0,0,1,2.123-4.823,10.91,10.91,0,0,0,2.785-8.464h0A10.951,10.951,0,0,0,34.536,8H10a3,3,0,0,0-3,3V33A3,3,0,0,0,10,36Zm33-1a4.131,4.131,0,0,1-3.545-2h7.09A4.131,4.131,0,0,1,43,35Zm5-4H38a1,1,0,0,1,0-2H48a1,1,0,0,1,0,2ZM37.005,8.289A9,9,0,0,1,49.678,21.031,10.353,10.353,0,0,0,47.048,27H38.955a9.822,9.822,0,0,0-2.54-5.867,9,9,0,0,1,.59-12.844ZM9,11a.989.989,0,0,1,1-1H33.221a10.938,10.938,0,0,0,1.731,12.5,7.843,7.843,0,0,1,2.012,4.7,2.984,2.984,0,0,0,.263,5.691,5.921,5.921,0,0,0,.5,1.114H21.8a1,1,0,0,0-.609.206L13.767,39.9a.435.435,0,0,1-.479.052A.512.512,0,0,1,13,39.47V35a1,1,0,0,0-1-1H10a.989.989,0,0,1-1-1Z"/><path d="M37,16a1,1,0,0,0,1-1,5.006,5.006,0,0,1,5-5,1,1,0,0,0,0-2,7.009,7.009,0,0,0-7,7A1,1,0,0,0,37,16Z"/><path d="M13,15H25a1,1,0,0,0,0-2H13a1,1,0,0,0,0,2Z"/><path d="M13,20H25a1,1,0,0,0,0-2H13a1,1,0,0,0,0,2Z"/><path d="M25,23H19a1,1,0,0,0,0,2h6a1,1,0,0,0,0-2Z"/><path d="M13,25h2a1,1,0,0,0,0-2H13a1,1,0,0,0,0,2Z"/><path d="M13,30h9a1,1,0,0,0,0-2H13a1,1,0,0,0,0,2Z"/><path d="M29,26a1,1,0,0,0,1-1V14a1,1,0,0,0-2,0V25A1,1,0,0,0,29,26Z"/><circle cx="29" cy="29" r="1"/></svg>
