<?xml version="1.0" encoding="UTF-8"?>
<svg xmlns="http://www.w3.org/2000/svg" id="Icons" viewBox="0 0 60 60" width="512" height="512" fill="currentColor"><path d="M55,33a3,3,0,0,0,3-3V5.816A2.993,2.993,0,0,0,57,0H19a2.993,2.993,0,0,0-1,5.816V30a3,3,0,0,0,3,3H35v.8l-4.5,2.6a3,3,0,0,0,3,5.2l1.913-1.1a2.974,2.974,0,0,0,5.174,0L42.5,41.6a3,3,0,0,0,3-5.2L41,33.8V33ZM19,2H57a1,1,0,0,1,0,2H19a1,1,0,0,1,0-2Zm1,28V6H56V30a1,1,0,0,1-1,1H21A1,1,0,0,1,20,30Zm12.5,9.862a1,1,0,1,1-1-1.726L35,36.113v2.309Zm12-1.725a1,1,0,0,1-1,1.727L41,38.422V36.113ZM39,39a1,1,0,0,1-2,0V33h2Z"/><path d="M54,27a1,1,0,0,0-1-1V17a2,2,0,0,0-2-2H49a2,2,0,0,0-2,2v9H45V19a2,2,0,0,0-2-2H41a2,2,0,0,0-2,2v7H37V21a2,2,0,0,0-2-2H33a2,2,0,0,0-2,2v5H29V23a2,2,0,0,0-2-2H25a2,2,0,0,0-2,2v3a1,1,0,0,0,0,2H53A1,1,0,0,0,54,27ZM49,17h2v9H49Zm-8,2h2v7H41Zm-8,2h2v5H33Zm-8,2h2v3H25Z"/><path d="M26,19a.994.994,0,0,0,.624-.219l4.5-3.6,2.783,1.391a2,2,0,0,0,2.309-.375l2.98-2.98,2.853,1.426a2.014,2.014,0,0,0,1.956-.092l7.524-4.7a1,1,0,1,0-1.06-1.7l-7.525,4.7-2.853-1.426a1.992,1.992,0,0,0-2.309.375l-2.98,2.98-2.782-1.39a2.006,2.006,0,0,0-2.146.225l-4.5,3.6A1,1,0,0,0,26,19Z"/><path d="M3,60H42.032a4.928,4.928,0,0,0,3.342-1.458l13.48-13.71h0a4.018,4.018,0,0,0-5.445-5.9l-8.14,6.811A4.251,4.251,0,0,0,41.831,44H32.29a2.961,2.961,0,0,1-1.468-.384A12.071,12.071,0,0,0,25,42c-3.466,0-6.3.7-10.535,4.286A3.007,3.007,0,0,1,12.528,47H3a3,3,0,0,0-3,3v7A3,3,0,0,0,3,60ZM2,50a1,1,0,0,1,1-1h9.528a5.012,5.012,0,0,0,3.23-1.187C19.564,44.59,21.856,44,25,44a10.036,10.036,0,0,1,4.829,1.353A4.964,4.964,0,0,0,32.29,46h9.541a2.172,2.172,0,0,1,2.116,1.569l0,.01v0a1.732,1.732,0,0,1,.04.31A1.988,1.988,0,0,1,42,50H31a1,1,0,0,0,0,2H42a3.987,3.987,0,0,0,3.987-4.218.27.27,0,0,0,0-.028l8.708-7.286a2.017,2.017,0,0,1,2.84.252,2.038,2.038,0,0,1-.1,2.709h0l-13.474,13.7A2.918,2.918,0,0,1,42,58H3a1,1,0,0,1-1-1Z"/></svg>
