<?xml version="1.0" encoding="UTF-8"?>
<svg xmlns="http://www.w3.org/2000/svg" id="Icons" viewBox="0 0 60 60" width="512" height="512" fill="currentColor"><path d="M57,0H3A2.993,2.993,0,0,0,2,5.816V43a3,3,0,0,0,3,3H27v3.115l-7.728,5.429A3,3,0,0,0,21.01,60a2.984,2.984,0,0,0,1.715-.539L27,56.453V57a3,3,0,0,0,6,0v-.548l4.277,3.008A2.969,2.969,0,0,0,38.985,60a3.039,3.039,0,0,0,2.48-1.282,3.012,3.012,0,0,0-.74-4.174L33,49.115V46H55a3,3,0,0,0,3-3V5.816A2.993,2.993,0,0,0,57,0ZM21.577,57.821a1.01,1.01,0,0,1-1.392-.236,1.01,1.01,0,0,1,.24-1.406L27,51.559v2.448Zm18-1.644a1.033,1.033,0,0,1,.428.834,1,1,0,0,1-1.575.811L33,54.007V51.559ZM31,57a1,1,0,0,1-2,0V46h2ZM56,43a1,1,0,0,1-1,1H5a1,1,0,0,1-1-1V6H56ZM57,4H3A1,1,0,0,1,3,2H57a1,1,0,0,1,0,2Z"/><path d="M13,41a5.006,5.006,0,0,0,5-5c0-.147-.031-.286-.043-.429C23.146,33.476,33.348,27.912,48,13.407V16a1,1,0,0,0,2,0V11a1,1,0,0,0-1-1H44a1,1,0,0,0,0,2h2.579c-14.247,14.1-24.116,19.564-29.2,21.645A4.99,4.99,0,1,0,13,41Zm0-8a3,3,0,1,1-3,3A3,3,0,0,1,13,33Z"/><path d="M37.707,34.293a1,1,0,0,0-1.414,0L35,35.586l-1.293-1.293a1,1,0,0,0-1.414,1.414L33.586,37l-1.293,1.293a1,1,0,1,0,1.414,1.414L35,38.414l1.293,1.293a1,1,0,0,0,1.414-1.414L36.414,37l1.293-1.293A1,1,0,0,0,37.707,34.293Z"/><path d="M43.293,28.707a1,1,0,0,0,1.414,0L46,27.414l1.293,1.293a1,1,0,0,0,1.414-1.414L47.414,26l1.293-1.293a1,1,0,0,0-1.414-1.414L46,24.586l-1.293-1.293a1,1,0,0,0-1.414,1.414L44.586,26l-1.293,1.293A1,1,0,0,0,43.293,28.707Z"/><path d="M24.293,16.707a1,1,0,0,0,1.414,0L27,15.414l1.293,1.293a1,1,0,0,0,1.414-1.414L28.414,14l1.293-1.293a1,1,0,0,0-1.414-1.414L27,12.586l-1.293-1.293a1,1,0,0,0-1.414,1.414L25.586,14l-1.293,1.293A1,1,0,0,0,24.293,16.707Z"/><path d="M10.293,26.707a1,1,0,0,0,1.414,0L13,25.414l1.293,1.293a1,1,0,0,0,1.414-1.414L14.414,24l1.293-1.293a1,1,0,0,0-1.414-1.414L13,22.586l-1.293-1.293a1,1,0,0,0-1.414,1.414L11.586,24l-1.293,1.293A1,1,0,0,0,10.293,26.707Z"/><path d="M16.5,18A3.5,3.5,0,1,0,13,14.5,3.5,3.5,0,0,0,16.5,18Zm0-5A1.5,1.5,0,1,1,15,14.5,1.5,1.5,0,0,1,16.5,13Z"/><path d="M46.5,32A3.5,3.5,0,1,0,50,35.5,3.5,3.5,0,0,0,46.5,32Zm0,5A1.5,1.5,0,1,1,48,35.5,1.5,1.5,0,0,1,46.5,37Z"/></svg>
