<svg id="Icons" height="512" viewBox="0 0 60 60" width="512" xmlns="http://www.w3.org/2000/svg" fill="currentColor"><path d="m25.243 13.514a21.207 21.207 0 0 0 -10.75 2.918 1 1 0 0 0 1.014 1.724 19.2 19.2 0 0 1 9.736-2.642 1 1 0 0 0 0-2z"/><path d="m10.7 19.271a22.11 22.11 0 0 0 -2.285 2.5 1 1 0 1 0 1.576 1.231 20.092 20.092 0 0 1 2.078-2.278 1 1 0 1 0 -1.369-1.453z"/><path d="m50.214 1.172a4 4 0 0 0 -5.7.043 3.966 3.966 0 0 0 -.593 4.878l-4.03 4.03a4.973 4.973 0 0 1 -5.335 1.165 25.247 25.247 0 1 0 -10.708 48.673c.463.026.923.039 1.384.039a25.249 25.249 0 0 0 23.5-34.5 5.022 5.022 0 0 1 1.143-5.385l4.033-4.032a3.965 3.965 0 0 0 2.049.579 4.013 4.013 0 0 0 2.871-1.214 4 4 0 0 0 0-5.657zm-47.935 37a47.443 47.443 0 0 1 14.721-2.172 53.351 53.351 0 0 1 6.034.336 2.982 2.982 0 0 0 5.657.964 28.919 28.919 0 0 1 6.635 2.377c-.624.346-1.249.691-1.873 1.045a41.257 41.257 0 0 1 -8.778 4.116c-6.838 1.958-14.777.5-21.847-3.98a23.325 23.325 0 0 1 -.549-2.688zm22.721-2.172a1 1 0 1 1 1 1 1 1 0 0 1 -1-1zm16.679 15.192a23.25 23.25 0 0 1 -34.642-1.977 22.664 22.664 0 0 1 -3.215-5.458 30.814 30.814 0 0 0 14.637 3.933 24.533 24.533 0 0 0 6.766-.929 42.73 42.73 0 0 0 9.215-4.3 34.82 34.82 0 0 1 13.887-5.056 23.232 23.232 0 0 1 -6.648 13.787zm6.782-32.5a7.019 7.019 0 0 0 -1.59 7.531 23.221 23.221 0 0 1 1.6 9.133 38.817 38.817 0 0 0 -11.041 3.221 28.932 28.932 0 0 0 -8.522-3.277 2.988 2.988 0 0 0 -5.423-.923 55.088 55.088 0 0 0 -6.485-.377 50.049 50.049 0 0 0 -14.928 2.131 23.21 23.21 0 0 1 23.128-24.642 23.364 23.364 0 0 1 8.62 1.658 6.968 6.968 0 0 0 7.486-1.61l3.937-3.937 7.157 7.157zm8.91-4.624a2.049 2.049 0 0 1 -2.828 0l-.022-.022-8.571-8.567-.021-.021a1.989 1.989 0 0 1 -.586-1.415 2.026 2.026 0 0 1 .629-1.457 2 2 0 0 1 2.828 0l8.614 8.614a1.986 1.986 0 0 1 .586 1.414 2.028 2.028 0 0 1 -.629 1.458z"/><circle cx="40" cy="45" r="1"/><circle cx="19" cy="51" r="1"/><path d="m38 29a3 3 0 1 0 3 3 3 3 0 0 0 -3-3zm0 4a1 1 0 1 1 1-1 1 1 0 0 1 -1 1z"/><path d="m21 25a3 3 0 1 0 3 3 3 3 0 0 0 -3-3zm0 4a1 1 0 1 1 1-1 1 1 0 0 1 -1 1z"/><path d="m31 47a3 3 0 1 0 3 3 3 3 0 0 0 -3-3zm0 4a1 1 0 1 1 1-1 1 1 0 0 1 -1 1z"/><path d="m31 17a5 5 0 1 0 5 5 5.006 5.006 0 0 0 -5-5zm0 8a3 3 0 1 1 3-3 3 3 0 0 1 -3 3z"/></svg>
