<?xml version="1.0" encoding="UTF-8"?>
<svg xmlns="http://www.w3.org/2000/svg" id="Icons" viewBox="0 0 60 60" width="512" height="512" fill="currentColor"><path d="M56,5H50V3a3,3,0,0,0-3-3H13a3,3,0,0,0-3,3V5H4A4,4,0,0,0,0,9V20A13.008,13.008,0,0,0,12.7,32.985a20.059,20.059,0,0,0,11.935,9.262L24.105,47H22a4,4,0,0,0-4,4v1.142A4,4,0,0,0,15,56v2a2,2,0,0,0,2,2H43a2,2,0,0,0,2-2V56a4,4,0,0,0-3-3.858V51a4,4,0,0,0-4-4H35.9l-.527-4.753A20.059,20.059,0,0,0,47.3,32.985,13.008,13.008,0,0,0,60,20V9A4,4,0,0,0,56,5Zm-6,6h4v9a6.974,6.974,0,0,1-4.32,6.458A20,20,0,0,0,50,23ZM10.32,26.458A6.974,6.974,0,0,1,6,20V11h4V23A20,20,0,0,0,10.32,26.458ZM2,20V9A2,2,0,0,1,4,7h6V9H5a1,1,0,0,0-1,1V20a8.97,8.97,0,0,0,6.846,8.729,19.722,19.722,0,0,0,.79,2.177A11.009,11.009,0,0,1,2,20ZM43,56v2H17V56a2,2,0,0,1,2-2H41A2,2,0,0,1,43,56Zm-3-5v1H20V51a2,2,0,0,1,2-2H38A2,2,0,0,1,40,51Zm-6.117-4H26.117l.479-4.312a18.725,18.725,0,0,0,6.808,0ZM30,41A18.021,18.021,0,0,1,12,23V3a1,1,0,0,1,1-1H47a1,1,0,0,1,1,1V23A18.021,18.021,0,0,1,30,41ZM58,20a11.009,11.009,0,0,1-9.636,10.906,19.722,19.722,0,0,0,.79-2.177A8.97,8.97,0,0,0,56,20V10a1,1,0,0,0-1-1H50V7h6a2,2,0,0,1,2,2Z"/><path d="M40,28H35.974A9.98,9.98,0,1,0,30,30H40a1,1,0,0,0,0-2ZM22,20a8,8,0,1,1,8,8A8.009,8.009,0,0,1,22,20Z"/><circle cx="30" cy="15" r="1"/><circle cx="30" cy="25" r="1"/><path d="M25.757,15.757a1,1,0,1,0,1.415,0A1,1,0,0,0,25.757,15.757Z"/><path d="M34.243,24.243a1,1,0,1,0-1.415,0A1,1,0,0,0,34.243,24.243Z"/><circle cx="25" cy="20" r="1"/><circle cx="35" cy="20" r="1"/><path d="M25.757,22.828a1,1,0,1,0,1.415,0A1,1,0,0,0,25.757,22.828Z"/><path d="M34.243,17.172a1,1,0,1,0-1.415,0A1,1,0,0,0,34.243,17.172Z"/></svg>
