<?xml version="1.0" encoding="UTF-8"?>
<svg xmlns="http://www.w3.org/2000/svg" viewBox="0 0 60 60" width="512" height="512" fill="currentColor"><g id="Icons"><path d="M5,60H51a5.006,5.006,0,0,0,5-5V21c3.124-4.235,4.922-7.88,3.4-9.4-.71-.71-1.834-.765-3.4-.19V5a5.006,5.006,0,0,0-5-5H5A5.006,5.006,0,0,0,0,5V55A5.006,5.006,0,0,0,5,60Zm0-2a3,3,0,0,1-3-3V10H27V36.447a5.552,5.552,0,0,0-1.009,3.313,6.216,6.216,0,0,1-1.167,3.709,1.47,1.47,0,0,0-.2,1.459,1.487,1.487,0,0,0,1.175.912c.358.048.766.091,1.2.121V48a2,2,0,0,1-4,0V47a4,4,0,0,0-8,0v9a2,2,0,0,1-2,2ZM33.468,32.773l.529-.53L38.757,37l-.53.529a1.657,1.657,0,0,1-2.288,0l-2.471-2.471a1.618,1.618,0,0,1,0-2.288Zm.2,5.378a3.3,3.3,0,0,1-.313,4.254c-1.688,1.63-4.64,1.691-6.437,1.544a8.688,8.688,0,0,0,1.068-4.031c.092-1.154.167-1.831.661-2.324a3.125,3.125,0,0,1,2.473-.894A3.5,3.5,0,0,1,33.667,38.151ZM54,55a3,3,0,0,1-3,3H16.444A3.959,3.959,0,0,0,17,56V47a2,2,0,0,1,4,0v1a4,4,0,0,0,8,0V45.983a8.827,8.827,0,0,0,5.743-2.139,5.162,5.162,0,0,0,1.543-3.934,3.558,3.558,0,0,0,3.355-.964l3.091-3.091C46.158,32.43,50.521,27.867,54,23.575Zm3.975-42c.424.817-1.725,6.514-16.657,21.445l-1.147,1.148-4.76-4.76,1.148-1.147c9.857-9.858,15.686-14.141,18.738-15.8a.983.983,0,0,0,.3-.162,5.559,5.559,0,0,1,2.142-.764A.526.526,0,0,1,57.975,13Zm-7.058,1.328A135.626,135.626,0,0,0,35.145,28.268l-3.091,3.091a3.566,3.566,0,0,0-.968,3.342A5.185,5.185,0,0,0,29,35.037V10H54v2.341A34.285,34.285,0,0,0,50.917,14.324ZM5,2H51a3,3,0,0,1,3,3V8H2V5A3,3,0,0,1,5,2Z"/><circle cx="6" cy="5" r="1"/><circle cx="10" cy="5" r="1"/><circle cx="14" cy="5" r="1"/><path d="M44,6h6a1,1,0,0,0,0-2H44a1,1,0,0,0,0,2Z"/></g></svg>
