<?xml version="1.0" encoding="UTF-8"?>
<svg xmlns="http://www.w3.org/2000/svg" id="Icons" viewBox="0 0 60 60" width="512" height="512" fill="currentColor"><path d="M57,0H3A3,3,0,0,0,0,3V47a3,3,0,0,0,3,3H20.382l-2,4H15a3,3,0,0,0,0,6H45a3,3,0,0,0,0-6H41.618l-2-4H57a3,3,0,0,0,3-3V3A3,3,0,0,0,57,0ZM3,2H57a1,1,0,0,1,1,1V42H53V41a3,3,0,0,0-3-3H48.9a6.4,6.4,0,0,0-2.835-4.11A4.973,4.973,0,0,0,47,31V30a4.995,4.995,0,0,0-5-5,4.951,4.951,0,0,0-1.394.222L40.883,23H41a2,2,0,0,0,2-2V19a1.993,1.993,0,0,0-1-1.722v-2.66a1.988,1.988,0,0,0-1.1-1.789l-1.448-.724a1,1,0,0,0-.894,1.79L40,14.618V17H36.914a6.026,6.026,0,0,0-2.834-4.127A4.952,4.952,0,0,0,35,10V9A5,5,0,0,0,25,9v1a4.964,4.964,0,0,0,.92,2.873A6.024,6.024,0,0,0,23.086,17H20V14.618l1.447-.723a1,1,0,1,0-.894-1.79l-1.447.724A1.987,1.987,0,0,0,18,14.618v2.66A1.993,1.993,0,0,0,17,19v2a2,2,0,0,0,2,2h.117l.276,2.222A4.935,4.935,0,0,0,18,25a5.006,5.006,0,0,0-5,5v1a5,5,0,0,0,.933,2.893A6.4,6.4,0,0,0,11.1,38H10a3,3,0,0,0-3,3v1H2V3A1,1,0,0,1,3,2ZM15,31V30a3,3,0,1,1,6,0v1a3.014,3.014,0,0,1-.872,2.117A5.683,5.683,0,0,0,19,33H17a5.73,5.73,0,0,0-1.1.112A2.984,2.984,0,0,1,15,31Zm4-12H41v2H19Zm14-9a3,3,0,0,1-6,0V9a3,3,0,1,1,6,0Zm-5.5,4.305a4.854,4.854,0,0,0,5,0A4,4,0,0,1,34.859,17H25.141A4,4,0,0,1,27.5,14.305ZM38.868,23l-.437,3.509A4.975,4.975,0,0,0,37,30v1a5,5,0,0,0,.933,2.893A6.346,6.346,0,0,0,36,35.806a6.366,6.366,0,0,0-1.936-1.916A4.973,4.973,0,0,0,35,31V30a5,5,0,0,0-10,0v1a5,5,0,0,0,.933,2.893A6.346,6.346,0,0,0,24,35.806a6.366,6.366,0,0,0-1.936-1.916A4.973,4.973,0,0,0,23,31V30a5.009,5.009,0,0,0-1.432-3.5L21.132,23ZM27,31V30a3,3,0,1,1,6,0v1a3.014,3.014,0,0,1-.872,2.117A5.683,5.683,0,0,0,31,33H29a5.73,5.73,0,0,0-1.1.112A2.984,2.984,0,0,1,27,31Zm2,4h2a4.127,4.127,0,0,1,3.84,3H25.16A4.127,4.127,0,0,1,29,35Zm12,0h2a4.127,4.127,0,0,1,3.84,3H37.16A4.127,4.127,0,0,1,41,35Zm4-4a3.014,3.014,0,0,1-.872,2.117A5.683,5.683,0,0,0,43,33H41a5.73,5.73,0,0,0-1.1.112A2.984,2.984,0,0,1,39,31V30a3,3,0,1,1,6,0ZM17,35h2a4.127,4.127,0,0,1,3.84,3H13.16A4.127,4.127,0,0,1,17,35Zm-5,5H50a1,1,0,0,1,1,1v1H9V41a1,1,0,0,1,1-1ZM46,57a1,1,0,0,1-1,1H15a1,1,0,0,1,0-2H45A1,1,0,0,1,46,57Zm-6.618-3H20.618l2-4H37.382ZM57,48H3a1,1,0,0,1-1-1V44H58v3A1,1,0,0,1,57,48Z"/></svg>
