<svg id="Icons" height="512" viewBox="0 0 60 60" width="512" xmlns="http://www.w3.org/2000/svg" fill="currentColor"><path d="m55 0h-50a5.006 5.006 0 0 0 -5 5v50a5.006 5.006 0 0 0 5 5h50a5.006 5.006 0 0 0 5-5v-50a5.006 5.006 0 0 0 -5-5zm3 55a3 3 0 0 1 -3 3h-50a3 3 0 0 1 -3-3v-41h56zm0-43h-56v-7a3 3 0 0 1 3-3h50a3 3 0 0 1 3 3z"/><path d="m7 4a3 3 0 1 0 3 3 3 3 0 0 0 -3-3zm0 4a1 1 0 1 1 1-1 1 1 0 0 1 -1 1z"/><path d="m15 4a3 3 0 1 0 3 3 3 3 0 0 0 -3-3zm0 4a1 1 0 1 1 1-1 1 1 0 0 1 -1 1z"/><path d="m23 4a3 3 0 1 0 3 3 3 3 0 0 0 -3-3zm0 4a1 1 0 1 1 1-1 1 1 0 0 1 -1 1z"/><path d="m40.585 40.5-1.108 9.414a4.554 4.554 0 1 0 9.046 0l-1.108-9.414a12 12 0 1 0 -6.83 0zm5.325 11.642a2.64 2.64 0 0 1 -3.82 0 2.55 2.55 0 0 1 -.627-2l1.088-9.242a10.983 10.983 0 0 0 2.9 0l1.088 9.243a2.549 2.549 0 0 1 -.629 1.999zm-1.91-33.142a10 10 0 1 1 -10 10 10.011 10.011 0 0 1 10-10z"/><path d="m44 37a8 8 0 1 0 -8-8 8.009 8.009 0 0 0 8 8zm0-14a6 6 0 1 1 -6 6 6.006 6.006 0 0 1 6-6z"/><path d="m4 55h27a1 1 0 0 0 0-2h-1v-33a3 3 0 0 0 -3-3h-1a3 3 0 0 0 -3 3v33h-2v-17a3 3 0 0 0 -3-3h-1a3 3 0 0 0 -3 3v17h-2v-7a3 3 0 0 0 -3-3h-1a3 3 0 0 0 -3 3v7h-1a1 1 0 0 0 0 2zm21-35a1 1 0 0 1 1-1h1a1 1 0 0 1 1 1v33h-3zm-9 16a1 1 0 0 1 1-1h1a1 1 0 0 1 1 1v17h-3zm-9 10a1 1 0 0 1 1-1h1a1 1 0 0 1 1 1v7h-3z"/></svg>
