<svg height="512pt" viewBox="0 0 512 512" width="512pt" xmlns="http://www.w3.org/2000/svg" fill="currentColor"><path d="m486.398438 0h-460.796876c-14.140624 0-25.601562 11.460938-25.601562 25.601562v460.796876c0 14.140624 11.460938 25.601562 25.601562 25.601562h460.796876c14.140624 0 25.601562-11.460938 25.601562-25.601562v-460.796876c0-14.140624-11.460938-25.601562-25.601562-25.601562zm-469.332032 25.601562c0-4.714843 3.820313-8.535156 8.535156-8.535156h460.796876c4.714843 0 8.535156 3.820313 8.535156 8.535156v42.664063h-477.867188zm477.867188 59.730469v341.335938h-477.867188v-341.335938zm0 401.066407c0 4.714843-3.820313 8.535156-8.535156 8.535156h-460.796876c-4.714843 0-8.535156-3.820313-8.535156-8.535156v-42.664063h477.867188zm0 0"/><path d="m51.199219 42.667969c0 4.710937-3.820313 8.53125-8.53125 8.53125-4.714844 0-8.535157-3.820313-8.535157-8.53125 0-4.714844 3.820313-8.535157 8.535157-8.535157 4.710937 0 8.53125 3.820313 8.53125 8.535157zm0 0"/><path d="m85.332031 42.667969c0 4.710937-3.820312 8.53125-8.53125 8.53125-4.714843 0-8.535156-3.820313-8.535156-8.53125 0-4.714844 3.820313-8.535157 8.535156-8.535157 4.710938 0 8.53125 3.820313 8.53125 8.535157zm0 0"/><path d="m119.464844 42.667969c0 4.710937-3.820313 8.53125-8.53125 8.53125-4.714844 0-8.535156-3.820313-8.535156-8.53125 0-4.714844 3.820312-8.535157 8.535156-8.535157 4.710937 0 8.53125 3.820313 8.53125 8.535157zm0 0"/><path d="m399.710938 308.984375c-1.597657-2.679687-4.523438-4.273437-7.640626-4.160156-3.113281.113281-5.917968 1.914062-7.316406 4.699219-1.398437 2.785156-1.167968 6.109374.601563 8.675781 6.886719 10.722656 12.402343 22.265625 16.429687 34.355469.960938 2.894531 3.394532 5.058593 6.382813 5.675781 2.988281.613281 6.078125-.414063 8.105469-2.695313 2.027343-2.28125 2.683593-5.46875 1.722656-8.363281-4.476563-13.445313-10.621094-26.273437-18.285156-38.1875zm0 0"/><path d="m374.238281 298.667969c3.402344 0 6.484375-2.023438 7.835938-5.144531 1.351562-3.125.714843-6.753907-1.617188-9.234376-7.785156-8.292968-16.375-15.796874-25.640625-22.390624-3.839844-2.734376-9.171875-1.835938-11.90625 2.003906-2.730468 3.839844-1.832031 9.171875 2.007813 11.902344 8.347656 5.941406 16.085937 12.699218 23.097656 20.175781 1.613281 1.714843 3.867187 2.6875 6.222656 2.6875zm0 0"/><path d="m401.066406 392.535156h-8.96875c-4.34375-71.988281-63.988281-128.144531-136.105468-128.144531-72.117188 0-131.765626 56.15625-136.105469 128.144531h-8.953125c-4.714844 0-8.535156 3.820313-8.535156 8.53125 0 4.714844 3.820312 8.535156 8.535156 8.535156h290.132812c4.714844 0 8.535156-3.820312 8.535156-8.535156 0-4.710937-3.820312-8.53125-8.535156-8.53125zm-112.136718 0 48.015624-26.675781c4.121094-2.292969 5.601563-7.488281 3.3125-11.605469-2.289062-4.121094-7.484374-5.601562-11.605468-3.3125l-74.863282 41.59375h-30.71875c3.878907-15.03125 17.410157-25.546875 32.929688-25.601562 2.292969 0 4.578125.230468 6.828125.683594 2.984375.609374 6.074219-.421876 8.09375-2.703126 2.023437-2.285156 2.671875-5.472656 1.707031-8.363281-.964844-2.894531-3.402344-5.050781-6.390625-5.660156-3.371093-.679687-6.800781-1.023437-10.238281-1.023437-24.957031.046874-46.25 18.0625-50.433594 42.667968h-68.734375c4.429688-62.546875 56.464844-111.027344 119.167969-111.027344s114.738281 48.480469 119.167969 111.027344zm0 0"/><path d="m179.199219 366.933594c0 4.710937-3.820313 8.53125-8.53125 8.53125-4.714844 0-8.535157-3.820313-8.535157-8.53125 0-4.714844 3.820313-8.535156 8.535157-8.535156 4.710937 0 8.53125 3.820312 8.53125 8.535156zm0 0"/><path d="m204.800781 332.800781c0 4.710938-3.820312 8.53125-8.535156 8.53125-4.710937 0-8.53125-3.820312-8.53125-8.53125 0-4.714843 3.820313-8.535156 8.53125-8.535156 4.714844 0 8.535156 3.820313 8.535156 8.535156zm0 0"/><path d="m238.933594 307.199219c0 4.714843-3.820313 8.535156-8.535156 8.535156-4.710938 0-8.53125-3.820313-8.53125-8.535156 0-4.710938 3.820312-8.53125 8.53125-8.53125 4.714843 0 8.535156 3.820312 8.535156 8.53125zm0 0"/><path d="m290.132812 307.199219c0 4.714843-3.820312 8.535156-8.53125 8.535156-4.714843 0-8.535156-3.820313-8.535156-8.535156 0-4.710938 3.820313-8.53125 8.535156-8.53125 4.710938 0 8.53125 3.820312 8.53125 8.53125zm0 0"/><path d="m324.265625 332.800781c0 4.710938-3.820313 8.53125-8.53125 8.53125-4.714844 0-8.535156-3.820312-8.535156-8.53125 0-4.714843 3.820312-8.535156 8.535156-8.535156 4.710937 0 8.53125 3.820313 8.53125 8.535156zm0 0"/><path d="m51.199219 204.800781h102.402343c9.425782 0 17.066407-7.640625 17.066407-17.066406v-68.269531c0-9.425782-7.640625-17.066406-17.066407-17.066406h-102.402343c-9.425781 0-17.066407 7.640624-17.066407 17.066406v68.269531c0 9.425781 7.640626 17.066406 17.066407 17.066406zm0-85.335937h102.402343v68.269531h-102.402343zm0 0"/><path d="m209.167969 238.933594h247.261719c11.835937-.015625 21.421874-9.601563 21.4375-21.4375v-59.527344c-.015626-11.832031-9.601563-21.421875-21.4375-21.433594h-247.261719c-11.832031.011719-21.421875 9.601563-21.433594 21.433594v59.527344c.011719 11.835937 9.601563 21.421875 21.433594 21.4375zm-4.367188-80.964844c0-2.414062 1.957031-4.367188 4.367188-4.367188h247.261719c2.414062 0 4.371093 1.953126 4.371093 4.367188v59.527344c0 2.414062-1.957031 4.371094-4.371093 4.371094h-247.261719c-2.410157 0-4.367188-1.957032-4.367188-4.371094zm0 0"/><path d="m196.265625 119.464844h273.066406c4.714844 0 8.535157-3.820313 8.535157-8.53125 0-4.714844-3.820313-8.535156-8.535157-8.535156h-273.066406c-4.710937 0-8.53125 3.820312-8.53125 8.535156 0 4.710937 3.820313 8.53125 8.53125 8.53125zm0 0"/><path d="m42.667969 238.933594h110.933593c4.710938 0 8.53125-3.820313 8.53125-8.535156 0-4.710938-3.820312-8.53125-8.53125-8.53125h-110.933593c-4.714844 0-8.535157 3.820312-8.535157 8.53125 0 4.714843 3.820313 8.535156 8.535157 8.535156zm0 0"/><path d="m42.667969 273.066406h110.933593c4.710938 0 8.53125-3.820312 8.53125-8.53125 0-4.714844-3.820312-8.535156-8.53125-8.535156h-110.933593c-4.714844 0-8.535157 3.820312-8.535157 8.535156 0 4.710938 3.820313 8.53125 8.535157 8.53125zm0 0"/><path d="m42.667969 307.199219h76.796875c4.714844 0 8.535156-3.820313 8.535156-8.53125 0-4.714844-3.820312-8.535157-8.535156-8.535157h-76.796875c-4.714844 0-8.535157 3.820313-8.535157 8.535157 0 4.710937 3.820313 8.53125 8.535157 8.53125zm0 0"/><path d="m119.464844 332.800781c0-4.714843-3.820313-8.535156-8.53125-8.535156h-68.265625c-4.714844 0-8.535157 3.820313-8.535157 8.535156 0 4.710938 3.820313 8.53125 8.535157 8.53125h68.265625c4.710937 0 8.53125-3.820312 8.53125-8.53125zm0 0"/><path d="m114.730469 137.96875-19.78125 13.183594-3.582031-3.585938c-3.347657-3.234375-8.671876-3.1875-11.964844.105469-3.289063 3.289063-3.335938 8.613281-.101563 11.960937l8.53125 8.535157c2.878907 2.875 7.386719 3.320312 10.769531 1.066406l25.601563-17.066406c3.921875-2.617188 4.980469-7.917969 2.363281-11.835938-2.617187-3.921875-7.914062-4.980469-11.835937-2.363281zm0 0"/></svg>
