<svg height="512pt" viewBox="0 0 512 512" width="512pt" xmlns="http://www.w3.org/2000/svg" fill="currentColor"><path d="m128 341.332031c-4.710938 0-8.535156 3.820313-8.535156 8.535157v136.53125c0 14.140624 11.464844 25.601562 25.601562 25.601562h341.332032c14.140624 0 25.601562-11.460938 25.601562-25.601562v-273.066407c0-14.136719-11.460938-25.597656-25.601562-25.597656h-68.265626c-4.710937 0-8.53125 3.820313-8.53125 8.53125 0 4.714844 3.820313 8.535156 8.53125 8.535156h68.265626c4.714843 0 8.535156 3.820313 8.535156 8.53125v42.667969h-76.800782c-4.710937 0-8.53125 3.820312-8.53125 8.535156 0 4.710938 3.820313 8.53125 8.53125 8.53125h76.800782v153.601563h-358.398438v-76.800781c0-4.714844-3.824218-8.535157-8.535156-8.535157zm366.933594 102.402344v42.664063c0 4.714843-3.820313 8.535156-8.535156 8.535156h-341.332032c-4.710937 0-8.53125-3.820313-8.53125-8.535156v-42.664063zm0 0"/><path d="m25.601562 324.265625h179.199219c4.710938 0 8.53125-3.820313 8.53125-8.53125 0-4.714844-3.820312-8.535156-8.53125-8.535156h-179.199219c-4.714843 0-8.535156-3.820313-8.535156-8.53125v-42.667969h179.199219c4.714844 0 8.535156-3.820312 8.535156-8.535156 0-4.710938-3.820312-8.53125-8.535156-8.53125h-179.199219v-153.601563h358.398438v153.601563h-110.929688c-4.714844 0-8.535156 3.820312-8.535156 8.53125 0 4.714844 3.820312 8.535156 8.535156 8.535156h110.929688v42.667969c0 4.710937-3.820313 8.53125-8.53125 8.53125h-76.800782c-4.710937 0-8.53125 3.820312-8.53125 8.535156 0 4.710937 3.820313 8.53125 8.53125 8.53125h76.800782c14.136718 0 25.601562-11.460937 25.601562-25.597656v-273.066407c0-14.140624-11.464844-25.601562-25.601562-25.601562h-341.332032c-14.140624 0-25.601562 11.460938-25.601562 25.601562v273.066407c0 14.136719 11.460938 25.597656 25.601562 25.597656zm-8.535156-298.664063c0-4.714843 3.820313-8.535156 8.535156-8.535156h341.332032c4.710937 0 8.53125 3.820313 8.53125 8.535156v42.664063h-358.398438zm0 0"/><path d="m51.199219 42.667969c0 4.710937-3.820313 8.53125-8.53125 8.53125-4.714844 0-8.535157-3.820313-8.535157-8.53125 0-4.714844 3.820313-8.535157 8.535157-8.535157 4.710937 0 8.53125 3.820313 8.53125 8.535157zm0 0"/><path d="m85.332031 42.667969c0 4.710937-3.820312 8.53125-8.53125 8.53125-4.714843 0-8.535156-3.820313-8.535156-8.53125 0-4.714844 3.820313-8.535157 8.535156-8.535157 4.710938 0 8.53125 3.820313 8.53125 8.535157zm0 0"/><path d="m119.464844 42.667969c0 4.710937-3.820313 8.53125-8.53125 8.53125-4.714844 0-8.535156-3.820313-8.535156-8.53125 0-4.714844 3.820312-8.535157 8.535156-8.535157 4.710937 0 8.53125 3.820313 8.53125 8.535157zm0 0"/><path d="m36.632812 151.101562c3.332032 3.328126 8.734376 3.328126 12.066407 0l11.035156-11.035156 11.03125 11.035156c3.347656 3.230469 8.671875 3.1875 11.964844-.105468 3.289062-3.292969 3.335937-8.613282.101562-11.960938l-11.03125-11.035156 11.03125-11.035156c3.234375-3.347656 3.1875-8.667969-.101562-11.960938-3.292969-3.292968-8.617188-3.335937-11.964844-.105468l-11.03125 11.035156-11.035156-11.035156c-3.347657-3.230469-8.671875-3.1875-11.960938.105468-3.292969 3.292969-3.339843 8.613282-.105469 11.960938l11.035157 11.035156-11.035157 11.035156c-3.332031 3.332032-3.332031 8.730469 0 12.066406zm0 0"/><path d="m475.367188 360.898438c-3.332032-3.328126-8.734376-3.328126-12.066407 0l-11.035156 11.035156-11.03125-11.035156c-3.347656-3.230469-8.671875-3.1875-11.964844.105468-3.289062 3.292969-3.335937 8.613282-.101562 11.960938l11.03125 11.035156-11.03125 11.035156c-2.21875 2.140625-3.109375 5.3125-2.328125 8.296875s3.109375 5.3125 6.09375 6.09375 6.15625-.109375 8.300781-2.324219l11.03125-11.035156 11.035156 11.035156c3.347657 3.230469 8.671875 3.1875 11.960938-.105468 3.292969-3.292969 3.339843-8.613282.105469-11.960938l-11.035157-11.035156 11.035157-11.035156c3.332031-3.332032 3.332031-8.730469 0-12.066406zm0 0"/><path d="m392.738281 375.382812h-.203125c-4.714844-.050781-8.574218 3.730469-8.625 8.441407-.050781 4.714843 3.730469 8.574219 8.445313 8.625 2.917969.054687 5.820312.085937 8.710937.085937 4.714844 0 8.535156-3.824218 8.535156-8.535156s-3.820312-8.535156-8.535156-8.535156c-2.777344 0-5.550781-.027344-8.328125-.082032zm0 0"/><path d="m201.089844 170.878906c1.902344 2.460938 4.992187 3.691406 8.066406 3.210938 3.074219-.484375 5.640625-2.597656 6.703125-5.523438 1.058594-2.921875.445313-6.191406-1.605469-8.53125-3.808594-4.617187-8.042968-8.863281-12.644531-12.691406-2.308594-2.171875-5.632813-2.882812-8.628906-1.847656-2.996094 1.03125-5.171875 3.640625-5.652344 6.773437-.480469 3.132813.816406 6.273438 3.367187 8.15625 3.777344 3.15625 7.257813 6.65625 10.394532 10.453125zm0 0"/><path d="m234.488281 309.316406c1.125 2.890625 3.734375 4.941406 6.808594 5.355469 3.070313.414063 6.128906-.871094 7.984375-3.359375 1.851562-2.484375 2.210938-5.78125.933594-8.609375-1.972656-4.714844-3.664063-9.539063-5.0625-14.457031-.804688-2.964844-3.144532-5.269532-6.125-6.03125-2.976563-.761719-6.136719.140625-8.265625 2.359375-2.128907 2.21875-2.898438 5.414062-2.015625 8.359375 1.582031 5.570312 3.5 11.042968 5.742187 16.382812zm0 0"/><path d="m164.847656 145.605469c.984375.375 2.03125.566406 3.089844.570312 4.109375.003907 7.640625-2.925781 8.394531-6.964843.757813-4.042969-1.480469-8.050782-5.316406-9.53125-5.425781-2.089844-10.980469-3.832032-16.628906-5.222657-2.980469-.789062-6.15625.085938-8.308594 2.292969-2.152344 2.210938-2.941406 5.40625-2.070313 8.367188.867188 2.957031 3.269532 5.214843 6.273438 5.90625 4.945312 1.21875 9.8125 2.75 14.566406 4.582031zm0 0"/><path d="m293.410156 371.730469c5.152344 2.585937 10.445313 4.886719 15.855469 6.894531 2.859375 1.066406 6.066406.527344 8.421875-1.414062 2.351562-1.941407 3.492188-4.992188 2.984375-8-.503906-3.007813-2.574219-5.519532-5.433594-6.585938-4.816406-1.78125-9.53125-3.832031-14.121093-6.136719-2.726563-1.398437-5.992188-1.226562-8.558594.445313-2.566406 1.675781-4.035156 4.59375-3.855469 7.652344.179687 3.058593 1.988281 5.785156 4.734375 7.144531zm0 0"/><path d="m239.71875 257.707031c-.4375-5.042969-.691406-10.324219-.761719-15.710937-.0625-4.664063-3.863281-8.414063-8.53125-8.414063h-.121093c-2.273438.027344-4.441407.957031-6.027344 2.585938-1.582032 1.632812-2.453125 3.828125-2.410156 6.101562.078124 5.785157.359374 11.484375.851562 16.9375.382812 4.410157 4.066406 7.796875 8.492188 7.800781.246093.011719.496093.011719.742187 0 2.265625-.195312 4.363281-1.285156 5.820313-3.03125 1.457031-1.75 2.15625-4.003906 1.945312-6.269531zm0 0"/><path d="m264.535156 352.136719c2.257813 2.046875 5.441406 2.734375 8.34375 1.800781 2.90625-.933594 5.09375-3.34375 5.734375-6.324219.644531-2.984375-.351562-6.082031-2.609375-8.132812-3.722656-3.382813-7.183594-7.042969-10.351562-10.945313-1.929688-2.363281-4.972656-3.515625-7.984375-3.023437-3.007813.488281-5.527344 2.546875-6.609375 5.402343-1.078125 2.851563-.554688 6.0625 1.375 8.421876 3.710937 4.558593 7.753906 8.839843 12.101562 12.800781zm0 0"/><path d="m219.347656 211.285156c.589844 2.992188 2.734375 5.441406 5.621094 6.429688 2.882812.984375 6.078125.355468 8.375-1.652344s3.347656-5.085938 2.757812-8.078125c-1.125-5.742187-2.648437-11.394531-4.566406-16.921875-1.554687-4.453125-6.425781-6.800781-10.875-5.246094-4.453125 1.554688-6.800781 6.425782-5.246094 10.875 1.664063 4.765625 2.976563 9.640625 3.933594 14.59375zm0 0"/><path d="m358.902344 390.160156c.347656.046875.695312.066406 1.042968.0625 4.492188-.027344 8.195313-3.535156 8.464844-8.023437.269532-4.484375-2.984375-8.410157-7.441406-8.976563-5.273438-.648437-10.503906-1.449218-15.640625-2.40625-3-.558594-6.070313.523438-8.050781 2.839844-1.984375 2.316406-2.582032 5.515625-1.566406 8.390625 1.015624 2.878906 3.484374 4.996094 6.484374 5.554687 5.488282 1.011719 11.058594 1.867188 16.707032 2.558594zm0 0"/><path d="m119.074219 136.710938h.390625c4.714844.101562 8.617187-3.640626 8.714844-8.351563.097656-4.714844-3.640626-8.613281-8.355469-8.714844-3.234375-.125-6.21875-.179687-8.890625-.179687-4.714844 0-8.535156 3.824218-8.535156 8.535156s3.820312 8.535156 8.535156 8.535156c2.457031 0 5.1875.050782 8.140625.175782zm0 0"/><path d="m349.867188 102.398438h-136.535157c-4.710937 0-8.53125 3.820312-8.53125 8.535156 0 4.710937 3.820313 8.53125 8.53125 8.53125h136.535157c4.710937 0 8.53125-3.820313 8.53125-8.53125 0-4.714844-3.820313-8.535156-8.53125-8.535156zm0 0"/><path d="m349.867188 136.535156h-110.933594c-4.714844 0-8.535156 3.820313-8.535156 8.53125 0 4.714844 3.820312 8.535156 8.535156 8.535156h110.933594c4.710937 0 8.53125-3.820312 8.53125-8.535156 0-4.710937-3.820313-8.53125-8.53125-8.53125zm0 0"/><path d="m349.867188 170.667969h-93.867188c-4.710938 0-8.535156 3.820312-8.535156 8.53125 0 4.714843 3.824218 8.535156 8.535156 8.535156h93.867188c4.710937 0 8.53125-3.820313 8.53125-8.535156 0-4.710938-3.820313-8.53125-8.53125-8.53125zm0 0"/><path d="m349.867188 204.800781h-85.332032c-4.714844 0-8.535156 3.820313-8.535156 8.53125 0 4.714844 3.820312 8.535157 8.535156 8.535157h85.332032c4.710937 0 8.53125-3.820313 8.53125-8.535157 0-4.710937-3.820313-8.53125-8.53125-8.53125zm0 0"/><path d="m42.667969 187.734375h119.464843c4.714844 0 8.535157-3.820313 8.535157-8.535156 0-4.710938-3.820313-8.53125-8.535157-8.53125h-119.464843c-4.714844 0-8.535157 3.820312-8.535157 8.53125 0 4.714843 3.820313 8.535156 8.535157 8.535156zm0 0"/><path d="m42.667969 221.867188h136.53125c4.714843 0 8.535156-3.820313 8.535156-8.535157 0-4.710937-3.820313-8.53125-8.535156-8.53125h-136.53125c-4.714844 0-8.535157 3.820313-8.535157 8.53125 0 4.714844 3.820313 8.535157 8.535157 8.535157zm0 0"/><path d="m162.132812 409.601562h128c4.714844 0 8.535157-3.820312 8.535157-8.535156 0-4.710937-3.820313-8.53125-8.535157-8.53125h-128c-4.710937 0-8.53125 3.820313-8.53125 8.53125 0 4.714844 3.820313 8.535156 8.53125 8.535156zm0 0"/><path d="m153.601562 366.933594c0 4.710937 3.820313 8.53125 8.53125 8.53125h68.265626c4.714843 0 8.535156-3.820313 8.535156-8.53125 0-4.714844-3.820313-8.535156-8.535156-8.535156h-68.265626c-4.710937 0-8.53125 3.820312-8.53125 8.535156zm0 0"/><path d="m469.332031 307.199219c4.714844 0 8.535157-3.820313 8.535157-8.53125 0-4.714844-3.820313-8.535157-8.535157-8.535157h-51.199219c-4.710937 0-8.53125 3.820313-8.53125 8.535157 0 4.710937 3.820313 8.53125 8.53125 8.53125zm0 0"/><path d="m401.066406 332.800781c0 4.710938 3.820313 8.53125 8.535156 8.53125h59.730469c4.714844 0 8.535157-3.820312 8.535157-8.53125 0-4.714843-3.820313-8.535156-8.535157-8.535156h-59.730469c-4.714843 0-8.535156 3.820313-8.535156 8.535156zm0 0"/></svg>
