<svg height="512pt" viewBox="0 0 512 512" width="512pt" xmlns="http://www.w3.org/2000/svg" fill="currentColor"><path d="m486.398438 0h-460.796876c-14.140624 0-25.601562 11.460938-25.601562 25.601562v460.796876c0 14.140624 11.460938 25.601562 25.601562 25.601562h460.796876c14.140624 0 25.601562-11.460938 25.601562-25.601562v-460.796876c0-14.140624-11.460938-25.601562-25.601562-25.601562zm-469.332032 25.601562c0-4.714843 3.820313-8.535156 8.535156-8.535156h460.796876c4.714843 0 8.535156 3.820313 8.535156 8.535156v42.664063h-477.867188zm477.867188 59.730469v341.335938h-477.867188v-341.335938zm0 401.066407c0 4.714843-3.820313 8.535156-8.535156 8.535156h-460.796876c-4.714843 0-8.535156-3.820313-8.535156-8.535156v-42.664063h477.867188zm0 0"/><path d="m51.199219 42.667969c0 4.710937-3.820313 8.53125-8.53125 8.53125-4.714844 0-8.535157-3.820313-8.535157-8.53125 0-4.714844 3.820313-8.535157 8.535157-8.535157 4.710937 0 8.53125 3.820313 8.53125 8.535157zm0 0"/><path d="m85.332031 42.667969c0 4.710937-3.820312 8.53125-8.53125 8.53125-4.714843 0-8.535156-3.820313-8.535156-8.53125 0-4.714844 3.820313-8.535157 8.535156-8.535157 4.710938 0 8.53125 3.820313 8.53125 8.535157zm0 0"/><path d="m119.464844 42.667969c0 4.710937-3.820313 8.53125-8.53125 8.53125-4.714844 0-8.535156-3.820313-8.535156-8.53125 0-4.714844 3.820312-8.535157 8.535156-8.535157 4.710937 0 8.53125 3.820313 8.53125 8.535157zm0 0"/><path d="m247.464844 290.132812c-4.710938 0-8.53125 3.820313-8.53125 8.535157v25.597656h-17.066406v-25.597656c0-4.714844-3.820313-8.535157-8.535157-8.535157-4.710937 0-8.53125 3.820313-8.53125 8.535157v25.597656c0 9.425781 7.640625 17.066406 17.066407 17.066406h17.066406v25.601563c0 4.710937 3.820312 8.53125 8.53125 8.53125 4.714844 0 8.535156-3.820313 8.535156-8.53125v-68.265625c0-4.714844-3.820312-8.535157-8.535156-8.535157zm0 0"/><path d="m300.730469 290.390625c-4.570313-1.140625-9.199219 1.640625-10.339844 6.210937l-17.066406 68.265626c-1.140625 4.574218 1.640625 9.203124 6.210937 10.34375.675782.167968 1.367188.253906 2.066406.253906 3.910157-.003906 7.320313-2.667969 8.265626-6.464844l17.066406-68.269531c1.140625-4.566407-1.632813-9.195313-6.203125-10.339844zm0 0"/><path d="m324.265625 298.667969c0 4.710937 3.820313 8.53125 8.535156 8.53125h24.027344c.425781-.007813.847656.070312 1.238281.230469l-32.605468 55.160156c-1.6875 2.628906-1.804688 5.96875-.304688 8.707031s4.375 4.441406 7.496094 4.4375c3.125-.003906 5.996094-1.714844 7.484375-4.457031l33.070312-55.917969c2.964844-4.941406 3.015625-11.101563.125-16.085937-3.46875-5.78125-9.761719-9.265626-16.503906-9.140626h-24.027344c-4.714843 0-8.535156 3.820313-8.535156 8.535157zm0 0"/><path d="m186.574219 231.832031c-1.089844 2.316407-2.058594 4.6875-2.902344 7.101563h-4.472656c-9.425781 0-17.066407 7.640625-17.066407 17.066406h-34.132812c-14.136719 0-25.601562 11.460938-25.601562 25.601562v102.398438c0 14.136719 11.464843 25.601562 25.601562 25.601562h256c14.136719 0 25.601562-11.464843 25.601562-25.601562v-102.398438c0-14.140624-11.464843-25.601562-25.601562-25.601562h-34.132812c0-9.425781-7.640626-17.066406-17.066407-17.066406l-4.582031-.339844c-.867188-2.421875-1.855469-4.792969-2.972656-7.109375l3.152344-3.148437c3.199218-3.203126 5-7.542969 5-12.070313s-1.800782-8.871094-5-12.070313l-12.066407-12.066406c-3.203125-3.207031-7.546875-5.007812-12.074219-5.007812-4.53125 0-8.875 1.800781-12.078124 5.007812l-3.488282 2.96875c-2.316406-1.089844-4.683594-2.058594-7.101562-2.902344v-4.460937c0-9.425781-7.640625-17.066406-17.066406-17.066406h-17.058594c-9.425782 0-17.066406 7.640625-17.066406 17.066406l-.339844 4.582031c-2.417969.863282-4.789063 1.855469-7.101563 2.976563l-3.15625-3.164063c-3.199219-3.203125-7.542969-5.003906-12.070312-5.003906-4.527344 0-8.867188 1.800781-12.070313 5.003906l-12.066406 12.066406c-6.660156 6.664063-6.660156 17.464844 0 24.132813zm197.425781 41.234375c4.710938 0 8.535156 3.820313 8.535156 8.535156v102.398438c0 4.710938-3.824218 8.535156-8.535156 8.535156h-256c-4.710938 0-8.535156-3.824218-8.535156-8.535156v-102.398438c0-4.714843 3.824218-8.535156 8.535156-8.535156zm-152.140625-17.066406c3.613281-10.234375 13.285156-17.082031 24.140625-17.082031s20.527344 6.847656 24.140625 17.082031zm-24.132813-51.8125 3.15625 3.164062c5.214844 5.15625 13.121094 6.4375 19.695313 3.191407 1.707031-.800781 3.414063-1.511719 5.230469-2.160157 6.941406-2.351562 11.625-8.851562 11.65625-16.179687v-4.46875h17.070312v4.46875c.03125 7.347656 4.726563 13.863281 11.6875 16.214844 1.769532.625 3.503906 1.34375 5.199219 2.152343 6.582031 3.230469 14.488281 1.941407 19.703125-3.210937l3.148438-3.148437 12.066406 12.066406-3.15625 3.15625c-5.160156 5.210937-6.441406 13.121094-3.191406 19.695312.800781 1.707032 1.507812 3.414063 2.15625 5.230469 2.359374 6.933594 8.855468 11.609375 16.179687 11.640625h-30.515625c-4.035156-19.886719-21.519531-34.175781-41.8125-34.175781s-37.777344 14.289062-41.8125 34.175781h-30.515625c7.347656-.03125 13.859375-4.730469 16.214844-11.691406.621093-1.769532 1.339843-3.503906 2.148437-5.195313 3.242188-6.578125 1.957032-14.484375-3.199218-19.695312l-3.15625-3.15625zm0 0"/><path d="m418.132812 170.667969c0 4.710937-3.820312 8.53125-8.53125 8.53125-4.714843 0-8.535156-3.820313-8.535156-8.53125 0-4.714844 3.820313-8.535157 8.535156-8.535157 4.710938 0 8.53125 3.820313 8.53125 8.535157zm0 0"/><path d="m349.867188 179.199219h9.300781c1.28125 7.601562 4.273437 14.8125 8.746093 21.085937l-6.585937 6.589844c-2.21875 2.140625-3.109375 5.3125-2.328125 8.296875s3.109375 5.3125 6.09375 6.09375 6.15625-.109375 8.300781-2.324219l6.585938-6.589844c6.277343 4.476563 13.484375 7.464844 21.085937 8.746094v9.300782c0 4.714843 3.820313 8.535156 8.535156 8.535156 4.710938 0 8.53125-3.820313 8.53125-8.535156v-9.300782c7.601563-1.28125 14.8125-4.269531 21.085938-8.746094l6.589844 6.589844c2.140625 2.214844 5.3125 3.105469 8.296875 2.324219s5.3125-3.109375 6.09375-6.09375-.109375-6.15625-2.324219-8.296875l-6.589844-6.589844c4.476563-6.273437 7.464844-13.484375 8.746094-21.085937h9.300781c4.714844 0 8.535157-3.820313 8.535157-8.53125 0-4.714844-3.820313-8.535157-8.535157-8.535157h-9.300781c-1.28125-7.601562-4.269531-14.808593-8.746094-21.085937l6.589844-6.585937c2.214844-2.144532 3.105469-5.316407 2.324219-8.300782s-3.109375-5.3125-6.09375-6.09375-6.15625.109375-8.296875 2.328125l-6.589844 6.585938c-6.273438-4.472657-13.484375-7.464844-21.085938-8.746094v-9.300781c0-4.714844-3.820312-8.535156-8.53125-8.535156-4.714843 0-8.535156 3.820312-8.535156 8.535156v9.300781c-7.601562 1.28125-14.808594 4.273437-21.085937 8.746094l-6.585938-6.585938c-2.144531-2.21875-5.316406-3.109375-8.300781-2.328125s-5.3125 3.109375-6.09375 6.09375.109375 6.15625 2.328125 8.300782l6.585937 6.585937c-4.472656 6.277344-7.464843 13.484375-8.746093 21.085937h-9.300781c-4.714844 0-8.535157 3.820313-8.535157 8.535157 0 4.710937 3.820313 8.53125 8.535157 8.53125zm59.734374-42.664063c18.851563 0 34.132813 15.28125 34.132813 34.132813 0 18.851562-15.28125 34.132812-34.132813 34.132812-18.851562 0-34.136718-15.28125-34.136718-34.132812 0-18.851563 15.285156-34.132813 34.136718-34.132813zm0 0"/><path d="m110.933594 170.667969c0 4.710937-3.820313 8.53125-8.535156 8.53125-4.710938 0-8.53125-3.820313-8.53125-8.53125 0-4.714844 3.820312-8.535157 8.53125-8.535157 4.714843 0 8.535156 3.820313 8.535156 8.535157zm0 0"/><path d="m42.667969 179.199219h9.300781c1.28125 7.601562 4.269531 14.8125 8.746094 21.085937l-6.589844 6.589844c-2.214844 2.140625-3.105469 5.3125-2.324219 8.296875s3.109375 5.3125 6.09375 6.09375 6.15625-.109375 8.296875-2.324219l6.589844-6.589844c6.273438 4.476563 13.484375 7.464844 21.085938 8.746094v9.300782c0 4.714843 3.820312 8.535156 8.53125 8.535156 4.714843 0 8.535156-3.820313 8.535156-8.535156v-9.300782c7.601562-1.28125 14.808594-4.269531 21.085937-8.746094l6.585938 6.589844c3.351562 3.230469 8.671875 3.1875 11.964843-.105468 3.289063-3.292969 3.335938-8.613282.101563-11.960938l-6.585937-6.589844c4.472656-6.273437 7.464843-13.484375 8.746093-21.085937h9.300781c4.714844 0 8.535157-3.820313 8.535157-8.53125 0-4.714844-3.820313-8.535157-8.535157-8.535157h-9.300781c-1.28125-7.601562-4.273437-14.808593-8.746093-21.085937l6.585937-6.585937c3.234375-3.347657 3.1875-8.671876-.101563-11.964844-3.292968-3.289063-8.613281-3.335938-11.964843-.101563l-6.585938 6.585938c-6.277343-4.472657-13.484375-7.464844-21.085937-8.746094v-9.300781c0-4.714844-3.820313-8.535156-8.535156-8.535156-4.710938 0-8.53125 3.820312-8.53125 8.535156v9.300781c-7.601563 1.28125-14.8125 4.273437-21.085938 8.746094l-6.589844-6.585938c-3.347656-3.234375-8.667968-3.1875-11.960937.101563-3.292969 3.292968-3.335938 8.617187-.105469 11.964844l6.589844 6.585937c-4.476563 6.277344-7.464844 13.484375-8.746094 21.085937h-9.300781c-4.714844 0-8.535157 3.820313-8.535157 8.535157 0 4.710937 3.820313 8.53125 8.535157 8.53125zm59.730469-42.664063c18.851562 0 34.136718 15.28125 34.136718 34.132813 0 18.851562-15.285156 34.132812-34.136718 34.132812-18.851563 0-34.132813-15.28125-34.132813-34.132812 0-18.851563 15.28125-34.132813 34.132813-34.132813zm0 0"/><path d="m62.113281 264.191406 16.539063-4.777344c4.363281-1.441406 6.804687-6.078124 5.519531-10.492187-1.285156-4.410156-5.835937-7.011719-10.289063-5.882813l-16.53125 4.792969c-2.992187.796875-5.320312 3.148438-6.082031 6.148438-.761719 3.003906.160157 6.183593 2.414063 8.308593 2.25 2.125 5.476562 2.863282 8.429687 1.929688zm0 0"/><path d="m70.765625 284.101562-8.53125 8.53125c-2.21875 2.144532-3.109375 5.316407-2.328125 8.300782.78125 2.980468 3.109375 5.3125 6.09375 6.09375s6.15625-.109375 8.300781-2.328125l8.53125-8.53125c3.234375-3.351563 3.1875-8.671875-.101562-11.964844-3.292969-3.289063-8.617188-3.335937-11.964844-.101563zm0 0"/><path d="m269.253906 152.746094 17.066406 8.535156c4.214844 2.105469 9.34375.394531 11.449219-3.824219 2.109375-4.21875.394531-9.34375-3.820312-11.453125l-17.066407-8.53125c-2.730468-1.363281-5.980468-1.167968-8.523437.515625-2.542969 1.679688-4 4.59375-3.8125 7.636719.183594 3.042969 1.976563 5.757812 4.707031 7.121094zm0 0"/><path d="m311.917969 144.214844c2.027343 1.011718 4.371093 1.175781 6.519531.460937 2.148438-.71875 3.921875-2.257812 4.933594-4.285156l8.53125-17.066406c2.109375-4.21875.398437-9.34375-3.820313-11.453125-4.21875-2.105469-9.347656-.394532-11.453125 3.824218l-8.53125 17.066407c-1.015625 2.023437-1.179687 4.371093-.464844 6.519531.71875 2.144531 2.261719 3.921875 4.285157 4.933594zm0 0"/><path d="m170.667969 290.132812h-25.601563c-4.710937 0-8.53125 3.820313-8.53125 8.535157 0 4.710937 3.820313 8.53125 8.53125 8.53125h25.601563v17.066406h-17.066407c-9.425781 0-17.066406 7.640625-17.066406 17.066406v17.066407c0 9.425781 7.640625 17.066406 17.066406 17.066406h25.597657c4.714843 0 8.535156-3.820313 8.535156-8.53125 0-4.714844-3.820313-8.535156-8.535156-8.535156h-25.597657v-17.066407h17.066407c9.425781 0 17.066406-7.640625 17.066406-17.066406v-17.066406c0-9.425781-7.640625-17.066407-17.066406-17.066407zm0 0"/></svg>
