<svg height="512pt" viewBox="0 0 512 512" width="512pt" xmlns="http://www.w3.org/2000/svg" fill="currentColor"><path d="m102.3125 153.601562c-4.714844 0-8.535156 3.820313-8.535156 8.53125v34.132813c0 4.714844 3.820312 8.535156 8.535156 8.535156v264.53125c.027344 23.554688 19.113281 42.640625 42.667969 42.667969h221.863281c23.554688-.027344 42.640625-19.113281 42.667969-42.667969v-426.664062c-.027344-23.554688-19.113281-42.6406252-42.667969-42.667969h-221.863281c-23.554688.0273438-42.640625 19.113281-42.667969 42.667969v42.664062c-4.714844 0-8.535156 3.820313-8.535156 8.535157v34.132812c0 4.710938 3.820312 8.535156 8.535156 8.535156zm290.132812-17.066406h-273.066406v-51.203125h273.066406zm-110.933593 332.796875c0 14.140625-11.460938 25.601563-25.597657 25.601563-14.140624 0-25.601562-11.460938-25.601562-25.601563 0-14.136719 11.460938-25.597656 25.601562-25.597656 14.136719 0 25.597657 11.460937 25.597657 25.597656zm-162.132813-42.664062v-51.203125h273.066406v51.203125zm166.289063-68.269531 43.035156-26.894532c2.589844-1.617187 4.121094-4.492187 4.019531-7.542968-.105468-3.054688-1.828125-5.820313-4.523437-7.253907-2.695313-1.4375-5.953125-1.328125-8.542969.289063l-66.183594 41.402344h-133.828125c4.484375-71.964844 64.160157-128.035157 136.269531-128.035157 72.105469 0 131.78125 56.070313 136.265626 128.035157zm-166.289063 110.933593v-25.597656h102.621094c-11.667969 15.070313-11.667969 36.128906 0 51.199219h-77.019531c-14.140625 0-25.601563-11.460938-25.601563-25.601563zm247.464844 25.601563h-77.019531c11.671875-15.070313 11.671875-36.128906 0-51.199219h102.621093v25.597656c0 14.140625-11.460937 25.601563-25.601562 25.601563zm-110.929688-281.601563c-57.574218.078125-110.269531 32.328125-136.535156 83.558594v-143.289063h273.066406v143.289063c-26.265624-51.230469-78.960937-83.480469-136.53125-83.558594zm-110.933593-196.265625h221.863281c14.140625 0 25.601562 11.460938 25.601562 25.601563v25.597656h-273.066406v-25.597656c0-14.140625 11.460938-25.601563 25.601563-25.601563zm0 0"/><path d="m264.445312 42.667969c0 4.710937-3.820312 8.53125-8.53125 8.53125-4.714843 0-8.535156-3.820313-8.535156-8.53125 0-4.714844 3.820313-8.535157 8.535156-8.535157 4.710938 0 8.53125 3.820313 8.53125 8.535157zm0 0"/><path d="m153.511719 110.933594c0 4.710937-3.820313 8.53125-8.53125 8.53125-4.714844 0-8.535157-3.820313-8.535157-8.53125 0-4.714844 3.820313-8.535156 8.535157-8.535156 4.710937 0 8.53125 3.820312 8.53125 8.535156zm0 0"/><path d="m187.644531 110.933594c0 4.710937-3.820312 8.53125-8.53125 8.53125-4.714843 0-8.535156-3.820313-8.535156-8.53125 0-4.714844 3.820313-8.535156 8.535156-8.535156 4.710938 0 8.53125 3.820312 8.53125 8.535156zm0 0"/><path d="m221.777344 110.933594c0 4.710937-3.820313 8.53125-8.53125 8.53125-4.714844 0-8.535156-3.820313-8.535156-8.53125 0-4.714844 3.820312-8.535156 8.535156-8.535156 4.710937 0 8.53125 3.820312 8.53125 8.535156zm0 0"/><path d="m264.445312 256c0 4.710938-3.820312 8.535156-8.53125 8.535156-4.714843 0-8.535156-3.824218-8.535156-8.535156s3.820313-8.535156 8.535156-8.535156c4.710938 0 8.53125 3.824218 8.53125 8.535156zm0 0"/><path d="m307.113281 273.066406c0 4.714844-3.820312 8.535156-8.535156 8.535156-4.710937 0-8.53125-3.820312-8.53125-8.535156 0-4.710937 3.820313-8.53125 8.53125-8.53125 4.714844 0 8.535156 3.820313 8.535156 8.53125zm0 0"/><path d="m341.246094 298.667969c0 4.710937-3.820313 8.53125-8.535156 8.53125-4.710938 0-8.53125-3.820313-8.53125-8.53125 0-4.714844 3.820312-8.535157 8.53125-8.535157 4.714843 0 8.535156 3.820313 8.535156 8.535157zm0 0"/><path d="m366.84375 332.800781c0 4.710938-3.820312 8.53125-8.53125 8.53125-4.714844 0-8.535156-3.820312-8.535156-8.53125 0-4.714843 3.820312-8.535156 8.535156-8.535156 4.710938 0 8.53125 3.820313 8.53125 8.535156zm0 0"/><path d="m221.777344 273.066406c0 4.714844-3.820313 8.535156-8.53125 8.535156-4.714844 0-8.535156-3.820312-8.535156-8.535156 0-4.710937 3.820312-8.53125 8.535156-8.53125 4.710937 0 8.53125 3.820313 8.53125 8.53125zm0 0"/><path d="m187.644531 298.667969c0 4.710937-3.820312 8.53125-8.53125 8.53125-4.714843 0-8.535156-3.820313-8.535156-8.53125 0-4.714844 3.820313-8.535157 8.535156-8.535157 4.710938 0 8.53125 3.820313 8.53125 8.535157zm0 0"/><path d="m162.046875 332.800781c0 4.710938-3.820313 8.53125-8.535156 8.53125-4.710938 0-8.53125-3.820312-8.53125-8.53125 0-4.714843 3.820312-8.535156 8.53125-8.535156 4.714843 0 8.535156 3.820313 8.535156 8.535156zm0 0"/><path d="m362.410156 206.394531c-16.777344-9.207031-34.679687-16.183593-53.257812-20.761719-3-.839843-6.214844.019532-8.394532 2.242188-2.179687 2.222656-2.976562 5.457031-2.078124 8.4375.898437 2.980469 3.347656 5.238281 6.394531 5.886719 17.140625 4.226562 33.660156 10.667969 49.140625 19.15625 1.253906.691406 2.660156 1.050781 4.089844 1.046875 3.890624-.003906 7.285156-2.640625 8.253906-6.410156.964844-3.773438-.742188-7.71875-4.148438-9.597657zm0 0"/><path d="m255.914062 179.199219c-11.886718-.003907-23.757812.941406-35.492187 2.824219-4.386719.714843-7.488281 4.675781-7.132813 9.105468.351563 4.429688 4.046876 7.84375 8.488282 7.851563.457031 0 .914062-.035157 1.367187-.101563 10.835938-1.742187 21.792969-2.613281 32.769531-2.613281 4.710938 0 8.53125-3.820313 8.53125-8.53125 0-4.714844-3.820312-8.535156-8.53125-8.535156zm0 0"/><path d="m14.480469 176.699219 2.5-2.5v13.535156c0 4.710937 3.820312 8.53125 8.53125 8.53125 4.714843 0 8.535156-3.820313 8.535156-8.53125v-13.535156l2.5 2.5c2.140625 2.21875 5.3125 3.109375 8.296875 2.328125s5.3125-3.113282 6.09375-6.09375c.78125-2.984375-.105469-6.15625-2.324219-8.300782l-17.066406-17.066406c-.796875-.796875-1.742187-1.425781-2.785156-1.851562-2.085938-.863282-4.429688-.863282-6.519531 0-1.039063.425781-1.984376 1.054687-2.78125 1.851562l-17.066407 17.066406c-3.234375 3.347657-3.1875 8.671876.105469 11.964844 3.289062 3.289063 8.613281 3.335938 11.960938.101563zm0 0"/><path d="m25.511719 213.332031c-4.710938 0-8.53125 3.820313-8.53125 8.535157v42.667968c0 4.710938 3.820312 8.53125 8.53125 8.53125 4.714843 0 8.535156-3.820312 8.535156-8.53125v-42.667968c0-4.714844-3.820313-8.535157-8.535156-8.535157zm0 0"/><path d="m492.355469 2.507812c-.796875-.796874-1.742188-1.425781-2.785157-1.851562-2.085937-.863281-4.429687-.863281-6.519531 0-1.039062.425781-1.984375 1.054688-2.78125 1.851562l-17.066406 17.066407c-3.234375 3.347656-3.1875 8.671875.105469 11.964843 3.289062 3.289063 8.613281 3.335938 11.960937.101563l2.507813-2.507813v30.601563c0 4.710937 3.820312 8.53125 8.535156 8.53125 4.710938 0 8.53125-3.820313 8.53125-8.53125v-30.601563l2.503906 2.5c3.347656 3.234376 8.667969 3.1875 11.960938-.105468 3.289062-3.289063 3.335937-8.613282.101562-11.960938zm0 0"/><path d="m494.84375 119.464844v-25.597656c0-4.714844-3.820312-8.535157-8.53125-8.535157-4.714844 0-8.535156 3.820313-8.535156 8.535157v25.597656c0 4.714844 3.820312 8.535156 8.535156 8.535156 4.710938 0 8.53125-3.820312 8.53125-8.535156zm0 0"/></svg>
