<?xml version="1.0" encoding="UTF-8"?>
<svg xmlns="http://www.w3.org/2000/svg" viewBox="0 0 60 60" width="512" height="512" fill="currentColor"><g id="Icons"><path d="M25,31.991H21a1,1,0,0,0,0,2h4a1,1,0,0,0,0-2Z"/><path d="M24,34.991H22a1,1,0,0,0,0,2h2a1,1,0,0,0,0-2Z"/><path d="M19,22.991H17a1,1,0,0,0,0,2,1,1,0,0,0,2,0,1,1,0,0,0,0-2Z"/><path d="M29,22.991H27a1,1,0,0,0,0,2,1,1,0,0,0,2,0,1,1,0,0,0,0-2Z"/><path d="M22,29.991h2a1,1,0,0,0,0-2H22a1,1,0,0,0,0,2Z"/><path d="M16,21.991h4a1,1,0,0,0,0-2H16a1,1,0,0,0,0,2Z"/><path d="M26,21.991h4a1,1,0,0,0,0-2H26a1,1,0,0,0,0,2Z"/><path d="M55.372,48.2A1.992,1.992,0,0,1,55,47.039V46a2.982,2.982,0,0,0-.513-1.676A1.983,1.983,0,0,0,55,43h1a3,3,0,0,0,3-3V38a1,1,0,0,0-2,0v2a1,1,0,0,1-1,1H55a2,2,0,0,0-2-2V32a1,1,0,0,0-.293-.707l-6-6A1,1,0,0,0,46,25H43V20A20.021,20.021,0,0,0,22.684,0C11.83.179,3,9.374,3,20.5V34.99a8.009,8.009,0,0,0,8,8h4.706A7.872,7.872,0,0,1,14.519,44.1l-7.71,2.819a7.676,7.676,0,0,0-4.727,5l-2.04,6.79A1,1,0,0,0,1,60H57a3,3,0,0,0,3-3V55.641a2.977,2.977,0,0,0-.559-1.744ZM53,42V43H35V41H53Zm-41-19a1,1,0,0,0,1-1V20.01h0v-3.3a6.5,6.5,0,0,0,3.551-3.394C18.289,14.942,21.89,16.99,29,16.99c1.818,0,3.409,2.2,4,3.268v1.733a1,1,0,0,0,2,0v-.8A2.988,2.988,0,0,1,37,24a2.927,2.927,0,0,1-.206,1.021,1.99,1.99,0,0,0-1.772,1.763A2.937,2.937,0,0,1,34,26.99a1,1,0,0,0-.949.685l-1.468,4.414a8.774,8.774,0,0,1-1.607,2.9,14.106,14.106,0,0,1-3.2,2.638A8.1,8.1,0,0,1,23,38.99a8.1,8.1,0,0,1-3.768-1.362,14.149,14.149,0,0,1-3.211-2.647,8.753,8.753,0,0,1-1.6-2.886l-1.47-4.42A1,1,0,0,0,12,26.99a2.982,2.982,0,0,1-1-5.8v.8A1,1,0,0,0,12,22.991ZM33,41H29.183a4.858,4.858,0,0,1,.023-2.627,14.35,14.35,0,0,0,2.3-2.095,10.772,10.772,0,0,0,1.977-3.552l1.261-3.791c.088-.014.173-.047.26-.065V39A2,2,0,0,0,33,41ZM18.991,39.784A9.085,9.085,0,0,0,23,40.99a9.088,9.088,0,0,0,4.009-1.206,7.154,7.154,0,0,0,2.884,5.6,4.779,4.779,0,0,1-2.247,2.34,9.219,9.219,0,0,1-9.292,0,4.8,4.8,0,0,1-2.25-2.338A7.158,7.158,0,0,0,18.991,39.784ZM31.481,44.1A7.894,7.894,0,0,1,30.3,43H33a1.983,1.983,0,0,0,.513,1.324,3.057,3.057,0,0,0-.237.436ZM37,39V27h8v4a2,2,0,0,0,2,2h4v6ZM47,28.414,49.586,31H47ZM11,40.99a6.006,6.006,0,0,1-6-6V20.5C5,10.459,12.947,2.16,22.715,2A18.02,18.02,0,0,1,41,20v5H38.886A4.874,4.874,0,0,0,39,24a5,5,0,0,0-4.393-4.953c-.716-1.2-2.721-4.057-5.607-4.057-10.052,0-12.058-4.341-12.071-4.371A1,1,0,0,0,15,10.99c0,3.15-3.114,4-3.242,4.031A1,1,0,0,0,11,15.99v3.12a4.989,4.989,0,0,0,.261,9.826l1.261,3.8A10.765,10.765,0,0,0,14.5,36.274a14.344,14.344,0,0,0,2.3,2.1,4.862,4.862,0,0,1,.026,2.617Zm-7,11.5A5.67,5.67,0,0,1,7.494,48.8l6.823-2.495a6.938,6.938,0,0,0,3.015,3.14,11.077,11.077,0,0,0,11.336,0,6.943,6.943,0,0,0,3.015-3.14L33,46.788v.251a1.992,1.992,0,0,1-.372,1.162l-4.069,5.7A2.977,2.977,0,0,0,28,55.641V57a2.966,2.966,0,0,0,.184,1H10V56a1,1,0,1,0-2,0v2H2.345ZM58,57a1,1,0,0,1-1,1H31a1,1,0,0,1-1-1V55.641a.988.988,0,0,1,.186-.581l4.069-5.7A3.978,3.978,0,0,0,35,47.039V46a1,1,0,0,1,1-1H52a1,1,0,0,1,1,1v1.039a3.978,3.978,0,0,0,.745,2.324l4.069,5.7a.988.988,0,0,1,.186.581Z"/><circle cx="38" cy="52" r="1"/><circle cx="42" cy="52" r="1"/><circle cx="46" cy="52" r="1"/><circle cx="50" cy="52" r="1"/><circle cx="36" cy="55" r="1"/><circle cx="40" cy="55" r="1"/><circle cx="44" cy="55" r="1"/><circle cx="48" cy="55" r="1"/><circle cx="52" cy="55" r="1"/><path d="M40,49h8a1,1,0,0,0,0-2H40a1,1,0,0,0,0,2Z"/></g></svg>
